<?xml version="1.0" standalone="no"?><!DOCTYPE svg PUBLIC "-//W3C//DTD SVG 1.1//EN" "http://www.w3.org/Graphics/SVG/1.1/DTD/svg11.dtd" ><svg version="1.1" xmlns="http://www.w3.org/2000/svg"><defs><font horiz-adv-x="0" id="font"><font-face ascent="750" bbox="-75 -255 1282 1005" cap-height="750" descent="-250" font-family="Apex Sans Extralight" font-stretch="normal" font-style="normal" font-weight="600" units-per-em="1000" x-height="500" /><missing-glyph d="M151 632V118L408 375ZM759 118V632L502 375ZM193 66H717L455 328ZM455 422 717 684H193ZM80 750H830V0H80Z" horiz-adv-x="910" /><glyph d="M134 233H485L310 735ZM567 0 489 221H130L53 0H40L307 755H313L580 0Z" glyph-name="A" horiz-adv-x="620" unicode="A" /><glyph d="M527 396V736L304 396ZM897 384H540V12H935V0H527V384H296L45 0H29L522 750H935V738H540V396H897Z" glyph-name="AE" horiz-adv-x="1000" unicode="&#198;" /><glyph d="M300 825 418 1000H433L310 825ZM129 233H480L305 735ZM562 0 484 221H125L48 0H35L302 755H308L575 0Z" glyph-name="Aacute" horiz-adv-x="610" unicode="&#193;" /><glyph d="M310 800Q135 800 135 1000H145Q146 911 184 860.5Q222 810 310 810Q398 810 436 860.5Q474 911 475 1000H485Q485 800 310 800ZM134 233H485L310 735ZM567 0 489 221H130L53 0H40L307 755H313L580 0Z" glyph-name="Abreve" horiz-adv-x="620" unicode="&#258;" /><glyph d="M422 825 305 989 188 825H177L299 1000H311L433 825ZM129 233H480L305 735ZM562 0 484 221H125L48 0H35L302 755H308L575 0Z" glyph-name="Acircumflex" horiz-adv-x="610" unicode="&#194;" /><glyph d="M385 950Q385 956 389.5 960.5Q394 965 400 965Q406 965 410.5 960.5Q415 956 415 950Q415 944 410.5 939.5Q406 935 400 935Q394 935 389.5 939.5Q385 944 385 950ZM195 950Q195 956 199.5 960.5Q204 965 210 965Q216 965 220.5 960.5Q225 956 225 950Q225 944 220.5 939.5Q216 935 210 935Q204 935 199.5 939.5Q195 944 195 950ZM129 233H480L305 735ZM562 0 484 221H125L48 0H35L302 755H308L575 0Z" glyph-name="Adieresis" horiz-adv-x="610" unicode="&#196;" /><glyph d="M300 825 177 1000H192L310 825ZM129 233H480L305 735ZM562 0 484 221H125L48 0H35L302 755H308L575 0Z" glyph-name="Agrave" horiz-adv-x="610" unicode="&#192;" /><glyph d="M447 958H173V970H447ZM134 233H485L310 735ZM567 0 489 221H130L53 0H40L307 755H313L580 0Z" glyph-name="Amacron" horiz-adv-x="620" unicode="&#256;" /><glyph d="M134 233H485L310 735ZM580 0Q560 -8 536.5 -21.5Q513 -35 493.5 -53.5Q474 -72 461 -95Q448 -118 448 -146Q448 -178 466 -199Q484 -220 532 -220Q547 -220 560.5 -218Q574 -216 585 -213V-223Q574 -226 560 -228Q546 -230 526 -230Q489 -230 462.5 -210.5Q436 -191 436 -150Q436 -121 447 -97.5Q458 -74 476 -55Q494 -36 517.5 -21.5Q541 -7 565 4L489 221H130L53 0H40L307 755H313Z" glyph-name="Aogonek" horiz-adv-x="620" unicode="&#260;" /><glyph d="M386 912Q386 958 363.5 976Q341 994 305 994Q268 994 245 976Q222 958 222 912Q222 866 245 848Q268 830 305 830Q341 830 363.5 848Q386 866 386 912ZM398 912Q398 862 372.5 840.5Q347 819 305 819Q262 819 236.5 840.5Q211 862 211 912Q211 962 236.5 983.5Q262 1005 305 1005Q347 1005 372.5 983.5Q398 962 398 912ZM129 233H480L305 735ZM562 0 484 221H125L48 0H35L302 755H308L575 0Z" glyph-name="Aring" horiz-adv-x="610" unicode="&#197;" /><glyph d="M456 934Q447 860 378 860Q351 860 334 871Q317 882 302.5 895Q288 908 272.5 919Q257 930 232 930Q205 930 187 914Q169 898 165 866H154Q163 940 232 940Q259 940 276 929Q293 918 307.5 905Q322 892 337.5 881Q353 870 378 870Q405 870 423 886Q441 902 445 934ZM129 233H480L305 735ZM562 0 484 221H125L48 0H35L302 755H308L575 0Z" glyph-name="Atilde" horiz-adv-x="610" unicode="&#195;" /><glyph d="M512 567Q512 601 505 632Q498 663 476.5 686.5Q455 710 416 724Q377 738 313 738H92V396H321Q377 396 414 410Q451 424 472.5 447.5Q494 471 503 502Q512 533 512 567ZM92 12H317Q384 12 427.5 27.5Q471 43 495.5 68.5Q520 94 529.5 127.5Q539 161 539 197Q539 251 527.5 286.5Q516 322 490 344Q464 366 422.5 375Q381 384 321 384H92ZM370 391Q464 390 507.5 344.5Q551 299 551 197Q551 155 540.5 119Q530 83 503 56.5Q476 30 430 15Q384 0 312 0H80V750H314Q376 750 417 736.5Q458 723 482 698.5Q506 674 515.5 640.5Q525 607 525 567Q525 493 487 445.5Q449 398 370 391Z" glyph-name="B" horiz-adv-x="601" unicode="B" /><glyph d="M65 375Q65 466 79 537Q93 608 126.5 656.5Q160 705 215 730Q270 755 352 755Q417 755 459.5 747.5Q502 740 531 729V718Q487 734 446 739.5Q405 745 352 745Q277 745 225 722Q173 699 140 653Q107 607 92 537.5Q77 468 77 375Q77 282 92 212.5Q107 143 140 97Q173 51 225 28Q277 5 352 5Q405 5 446 10.5Q487 16 531 32V21Q502 10 459.5 2.5Q417 -5 352 -5Q270 -5 215 20Q160 45 126.5 93.5Q93 142 79 213Q65 284 65 375Z" glyph-name="C" horiz-adv-x="596" unicode="C" /><glyph d="M231 825 349 1000H364L241 825ZM65 375Q65 466 79 537Q93 608 126.5 656.5Q160 705 215 730Q270 755 352 755Q417 755 459.5 747.5Q502 740 531 729V718Q487 734 446 739.5Q405 745 352 745Q277 745 225 722Q173 699 140 653Q107 607 92 537.5Q77 468 77 375Q77 282 92 212.5Q107 143 140 97Q173 51 225 28Q277 5 352 5Q405 5 446 10.5Q487 16 531 32V21Q502 10 459.5 2.5Q417 -5 352 -5Q270 -5 215 20Q160 45 126.5 93.5Q93 142 79 213Q65 284 65 375Z" glyph-name="Cacute" horiz-adv-x="596" unicode="&#262;" /><glyph d="M426 1000 304 825H292L170 1000H181L298 836L415 1000ZM65 375Q65 466 79 537Q93 608 126.5 656.5Q160 705 215 730Q270 755 352 755Q417 755 459.5 747.5Q502 740 531 729V718Q487 734 446 739.5Q405 745 352 745Q277 745 225 722Q173 699 140 653Q107 607 92 537.5Q77 468 77 375Q77 282 92 212.5Q107 143 140 97Q173 51 225 28Q277 5 352 5Q405 5 446 10.5Q487 16 531 32V21Q502 10 459.5 2.5Q417 -5 352 -5Q270 -5 215 20Q160 45 126.5 93.5Q93 142 79 213Q65 284 65 375Z" glyph-name="Ccaron" horiz-adv-x="596" unicode="&#268;" /><glyph d="M65 375Q65 466 79 537Q93 608 126.5 656.5Q160 705 215 730Q270 755 352 755Q417 755 459.5 747.5Q502 740 531 729V718Q487 734 446 739.5Q405 745 352 745Q277 745 225 722Q173 699 140 653Q107 607 92 537.5Q77 468 77 375Q77 282 92 212.5Q107 143 140 97Q173 51 225 28Q277 5 352 5Q405 5 446 10.5Q487 16 531 32V21Q502 10 460.5 3Q419 -4 356 -5Q348 -13 341 -24.5Q334 -36 332 -47.5Q330 -59 334 -70Q338 -81 353 -87Q375 -96 382.5 -110Q390 -124 387 -138Q384 -152 373 -165Q362 -178 347 -185H332Q350 -176 361.5 -163.5Q373 -151 376 -138.5Q379 -126 373 -114.5Q367 -103 350 -96Q332 -88 326.5 -76Q321 -64 322.5 -51Q324 -38 331 -26Q338 -14 345 -5Q265 -4 211.5 21.5Q158 47 125.5 95.5Q93 144 79 214.5Q65 285 65 375Z" glyph-name="Ccedilla" horiz-adv-x="596" unicode="&#199;" /><glyph d="M415 825 298 989 181 825H170L292 1000H304L426 825ZM65 375Q65 466 79 537Q93 608 126.5 656.5Q160 705 215 730Q270 755 352 755Q417 755 459.5 747.5Q502 740 531 729V718Q487 734 446 739.5Q405 745 352 745Q277 745 225 722Q173 699 140 653Q107 607 92 537.5Q77 468 77 375Q77 282 92 212.5Q107 143 140 97Q173 51 225 28Q277 5 352 5Q405 5 446 10.5Q487 16 531 32V21Q502 10 459.5 2.5Q417 -5 352 -5Q270 -5 215 20Q160 45 126.5 93.5Q93 142 79 213Q65 284 65 375Z" glyph-name="Ccircumflex" horiz-adv-x="596" unicode="&#264;" /><glyph d="M283 950Q283 956 287.5 960.5Q292 965 298 965Q304 965 308.5 960.5Q313 956 313 950Q313 944 308.5 939.5Q304 935 298 935Q292 935 287.5 939.5Q283 944 283 950ZM65 375Q65 466 79 537Q93 608 126.5 656.5Q160 705 215 730Q270 755 352 755Q417 755 459.5 747.5Q502 740 531 729V718Q487 734 446 739.5Q405 745 352 745Q277 745 225 722Q173 699 140 653Q107 607 92 537.5Q77 468 77 375Q77 282 92 212.5Q107 143 140 97Q173 51 225 28Q277 5 352 5Q405 5 446 10.5Q487 16 531 32V21Q502 10 459.5 2.5Q417 -5 352 -5Q270 -5 215 20Q160 45 126.5 93.5Q93 142 79 213Q65 284 65 375Z" glyph-name="Cdotaccent" horiz-adv-x="596" unicode="&#266;" /><glyph d="M53 12H248Q331 12 385 34Q439 56 470 101Q501 146 513 214.5Q525 283 525 375Q525 467 513 535.5Q501 604 470 649Q439 694 385 716Q331 738 248 738H53ZM40 0V750H256Q344 750 399.5 724.5Q455 699 486 650.5Q517 602 528 532.5Q539 463 539 375Q539 287 528 217.5Q517 148 486 99.5Q455 51 399.5 25.5Q344 0 256 0Z" glyph-name="D" horiz-adv-x="604" unicode="D" /><glyph d="M430 1000 308 825H296L174 1000H185L302 836L419 1000ZM53 12H248Q331 12 385 34Q439 56 470 101Q501 146 513 214.5Q525 283 525 375Q525 467 513 535.5Q501 604 470 649Q439 694 385 716Q331 738 248 738H53ZM40 0V750H256Q344 750 399.5 724.5Q455 699 486 650.5Q517 602 528 532.5Q539 463 539 375Q539 287 528 217.5Q517 148 486 99.5Q455 51 399.5 25.5Q344 0 256 0Z" glyph-name="Dcaron" horiz-adv-x="604" unicode="&#270;" /><glyph d="M361 370H151V12H346Q429 12 483 34Q537 56 568 101Q599 146 611 214.5Q623 283 623 375Q623 467 611 535.5Q599 604 568 649Q537 694 483 716Q429 738 346 738H151V382H361ZM138 0V370H30V382H138V750H354Q442 750 497.5 724.5Q553 699 584 650.5Q615 602 626 532.5Q637 463 637 375Q637 287 626 217.5Q615 148 584 99.5Q553 51 497.5 25.5Q442 0 354 0Z" glyph-name="Dcroat" horiz-adv-x="702" unicode="&#272;" /><glyph d="M75 250Q75 303 95 349.5Q115 396 149.5 430.5Q184 465 230.5 485Q277 505 330 505Q383 505 429.5 485Q476 465 510.5 430.5Q545 396 565 349.5Q585 303 585 250Q585 197 565 150.5Q545 104 510.5 69.5Q476 35 429.5 15Q383 -5 330 -5Q277 -5 230.5 15Q184 35 149.5 69.5Q115 104 95 150.5Q75 197 75 250Z" glyph-name="Delta" horiz-adv-x="660" unicode="&#8710;" /><glyph d="M450 384H93V12H488V0H80V750H488V738H93V396H450Z" glyph-name="E" horiz-adv-x="553" unicode="E" /><glyph d="M280 825 398 1000H413L290 825ZM450 384H93V12H488V0H80V750H488V738H93V396H450Z" glyph-name="Eacute" horiz-adv-x="553" unicode="&#201;" /><glyph d="M284 800Q109 800 109 1000H119Q120 911 158 860.5Q196 810 284 810Q372 810 410 860.5Q448 911 449 1000H459Q459 800 284 800ZM450 384H93V12H488V0H80V750H488V738H93V396H450Z" glyph-name="Ebreve" horiz-adv-x="553" unicode="&#276;" /><glyph d="M412 1000 290 825H278L156 1000H167L284 836L401 1000ZM450 384H93V12H488V0H80V750H488V738H93V396H450Z" glyph-name="Ecaron" horiz-adv-x="553" unicode="&#282;" /><glyph d="M401 825 284 989 167 825H156L278 1000H290L412 825ZM450 384H93V12H488V0H80V750H488V738H93V396H450Z" glyph-name="Ecircumflex" horiz-adv-x="553" unicode="&#202;" /><glyph d="M364 950Q364 956 368.5 960.5Q373 965 379 965Q385 965 389.5 960.5Q394 956 394 950Q394 944 389.5 939.5Q385 935 379 935Q373 935 368.5 939.5Q364 944 364 950ZM174 950Q174 956 178.5 960.5Q183 965 189 965Q195 965 199.5 960.5Q204 956 204 950Q204 944 199.5 939.5Q195 935 189 935Q183 935 178.5 939.5Q174 944 174 950ZM450 384H93V12H488V0H80V750H488V738H93V396H450Z" glyph-name="Edieresis" horiz-adv-x="553" unicode="&#203;" /><glyph d="M262 950Q262 956 266.5 960.5Q271 965 277 965Q283 965 287.5 960.5Q292 956 292 950Q292 944 287.5 939.5Q283 935 277 935Q271 935 266.5 939.5Q262 944 262 950ZM450 384H93V12H488V0H80V750H488V738H93V396H450Z" glyph-name="Edotaccent" horiz-adv-x="553" unicode="&#278;" /><glyph d="M279 825 156 1000H171L289 825ZM450 384H93V12H488V0H80V750H488V738H93V396H450Z" glyph-name="Egrave" horiz-adv-x="553" unicode="&#200;" /><glyph d="M421 958H147V970H421ZM450 384H93V12H488V0H80V750H488V738H93V396H450Z" glyph-name="Emacron" horiz-adv-x="553" unicode="&#274;" /><glyph d="M578 -127Q578 -189 537.5 -222Q497 -255 424 -255V-245Q453 -245 479 -238.5Q505 -232 524.5 -218Q544 -204 555 -181Q566 -158 566 -125V10L92 717L94 0H80V750H85L566 33L564 750H578Z" glyph-name="Eng" horiz-adv-x="658" unicode="&#330;" /><glyph d="M450 384H93V12H488V0Q468 -8 444.5 -21.5Q421 -35 401.5 -53.5Q382 -72 369 -95Q356 -118 356 -146Q356 -178 374 -199Q392 -220 440 -220Q455 -220 468.5 -218Q482 -216 493 -213V-223Q482 -226 468 -228Q454 -230 434 -230Q397 -230 370.5 -210.5Q344 -191 344 -150Q344 -123 354 -100Q364 -77 380.5 -58.5Q397 -40 419 -25.5Q441 -11 464 0H80V750H488V738H93V396H450Z" glyph-name="Eogonek" horiz-adv-x="553" unicode="&#280;" /><glyph d="M361 370H151V12H346Q429 12 483 34Q537 56 568 101Q599 146 611 214.5Q623 283 623 375Q623 467 611 535.5Q599 604 568 649Q537 694 483 716Q429 738 346 738H151V382H361ZM138 0V370H30V382H138V750H354Q442 750 497.5 724.5Q553 699 584 650.5Q615 602 626 532.5Q637 463 637 375Q637 287 626 217.5Q615 148 584 99.5Q553 51 497.5 25.5Q442 0 354 0Z" glyph-name="Eth" horiz-adv-x="702" unicode="&#208;" /><glyph d="M467 440H129Q127 424 127 408Q127 392 127 375Q127 358 127 341.5Q127 325 129 310H413L408 298H130Q142 147 205.5 76Q269 5 387 5Q457 5 496 13Q535 21 561 30V19Q537 11 495 3Q453 -5 387 -5Q258 -5 193.5 72Q129 149 118 298H36V310H117Q115 325 115 341.5Q115 358 115 375Q115 392 115 408Q115 424 117 440H36V452H118Q129 600 193.5 677.5Q258 755 387 755Q453 755 495 747Q537 739 561 731V720Q535 729 496 737Q457 745 387 745Q269 745 205.5 674Q142 603 130 452H472Z" glyph-name="Euro" horiz-adv-x="600" unicode="&#8364;" /><glyph d="M393 323H110Q103 289 103 250Q103 231 104.5 212.5Q106 194 110 177H332L327 165H112Q121 131 137.5 102Q154 73 179.5 51.5Q205 30 240.5 17.5Q276 5 323 5Q367 5 405 12Q443 19 460 24V14Q430 5 392.5 0Q355 -5 325 -5Q275 -5 237 7.5Q199 20 171.5 42.5Q144 65 126.5 96Q109 127 100 165H16V177H97Q91 211 91 250Q91 288 97 323H16V335H100Q109 372 126.5 403.5Q144 435 171.5 457.5Q199 480 237 492.5Q275 505 325 505Q355 505 392.5 500Q430 495 460 486V476Q453 478 439 481.5Q425 485 406.5 488Q388 491 366.5 493Q345 495 323 495Q276 495 240.5 482.5Q205 470 179.5 448.5Q154 427 137.5 397.5Q121 368 112 335H398Z" glyph-name="Euro.OP" horiz-adv-x="515" /><glyph d="M438 384H92V0H80V750H476V738H92V396H438Z" glyph-name="F" horiz-adv-x="521" unicode="F" /><glyph d="M353 5Q380 5 409 7Q438 9 465 13.5Q492 18 516 24Q540 30 558 39V353H390V365H570V31Q533 15 480.5 5Q428 -5 353 -5Q271 -5 215.5 20Q160 45 126.5 93.5Q93 142 79 213Q65 284 65 375Q65 466 79 537Q93 608 126.5 656.5Q160 705 215.5 730Q271 755 353 755Q421 755 469 745.5Q517 736 548 723V711Q503 729 458 737Q413 745 353 745Q278 745 225.5 722Q173 699 140 653Q107 607 92 537.5Q77 468 77 375Q77 282 92 212.5Q107 143 140 97Q173 51 225.5 28Q278 5 353 5Z" glyph-name="G" horiz-adv-x="650" unicode="G" /><glyph d="M333 800Q158 800 158 1000H168Q169 911 207 860.5Q245 810 333 810Q421 810 459 860.5Q497 911 498 1000H508Q508 800 333 800ZM353 5Q380 5 409 7Q438 9 465 13.5Q492 18 516 24Q540 30 558 39V353H390V365H570V31Q533 15 480.5 5Q428 -5 353 -5Q271 -5 215.5 20Q160 45 126.5 93.5Q93 142 79 213Q65 284 65 375Q65 466 79 537Q93 608 126.5 656.5Q160 705 215.5 730Q271 755 353 755Q421 755 469 745.5Q517 736 548 723V711Q503 729 458 737Q413 745 353 745Q278 745 225.5 722Q173 699 140 653Q107 607 92 537.5Q77 468 77 375Q77 282 92 212.5Q107 143 140 97Q173 51 225.5 28Q278 5 353 5Z" glyph-name="Gbreve" horiz-adv-x="650" unicode="&#286;" /><glyph d="M450 825 333 989 216 825H205L327 1000H339L461 825ZM353 5Q380 5 409 7Q438 9 465 13.5Q492 18 516 24Q540 30 558 39V353H390V365H570V31Q533 15 480.5 5Q428 -5 353 -5Q271 -5 215.5 20Q160 45 126.5 93.5Q93 142 79 213Q65 284 65 375Q65 466 79 537Q93 608 126.5 656.5Q160 705 215.5 730Q271 755 353 755Q421 755 469 745.5Q517 736 548 723V711Q503 729 458 737Q413 745 353 745Q278 745 225.5 722Q173 699 140 653Q107 607 92 537.5Q77 468 77 375Q77 282 92 212.5Q107 143 140 97Q173 51 225.5 28Q278 5 353 5Z" glyph-name="Gcircumflex" horiz-adv-x="650" unicode="&#284;" /><glyph d="M338 -120Q338 -114 342.5 -109.5Q347 -105 353 -105Q359 -105 363.5 -109.5Q368 -114 368 -120Q368 -123 366 -129L321 -250H320L350 -135Q338 -132 338 -120ZM353 5Q380 5 409 7Q438 9 465 13.5Q492 18 516 24Q540 30 558 39V353H390V365H570V31Q533 15 480.5 5Q428 -5 353 -5Q271 -5 215.5 20Q160 45 126.5 93.5Q93 142 79 213Q65 284 65 375Q65 466 79 537Q93 608 126.5 656.5Q160 705 215.5 730Q271 755 353 755Q421 755 469 745.5Q517 736 548 723V711Q503 729 458 737Q413 745 353 745Q278 745 225.5 722Q173 699 140 653Q107 607 92 537.5Q77 468 77 375Q77 282 92 212.5Q107 143 140 97Q173 51 225.5 28Q278 5 353 5Z" glyph-name="Gcommaaccent" horiz-adv-x="650" unicode="&#290;" /><glyph d="M318 950Q318 956 322.5 960.5Q327 965 333 965Q339 965 343.5 960.5Q348 956 348 950Q348 944 343.5 939.5Q339 935 333 935Q327 935 322.5 939.5Q318 944 318 950ZM353 5Q380 5 409 7Q438 9 465 13.5Q492 18 516 24Q540 30 558 39V353H390V365H570V31Q533 15 480.5 5Q428 -5 353 -5Q271 -5 215.5 20Q160 45 126.5 93.5Q93 142 79 213Q65 284 65 375Q65 466 79 537Q93 608 126.5 656.5Q160 705 215.5 730Q271 755 353 755Q421 755 469 745.5Q517 736 548 723V711Q503 729 458 737Q413 745 353 745Q278 745 225.5 722Q173 699 140 653Q107 607 92 537.5Q77 468 77 375Q77 282 92 212.5Q107 143 140 97Q173 51 225.5 28Q278 5 353 5Z" glyph-name="Gdotaccent" horiz-adv-x="650" unicode="&#288;" /><glyph d="M555 0V384H93V0H80V750H93V396H555V750H568V0Z" glyph-name="H" horiz-adv-x="648" unicode="H" /><glyph d="M555 396V567H93V396ZM555 0V384H93V0H80V750H93V579H555V750H568V0Z" glyph-name="Hbar" horiz-adv-x="648" unicode="&#294;" /><glyph d="M441 825 324 989 207 825H196L318 1000H330L452 825ZM555 0V384H93V0H80V750H93V396H555V750H568V0Z" glyph-name="Hcircumflex" horiz-adv-x="648" unicode="&#292;" /><glyph d="M102 0V750H114V0Z" glyph-name="I" horiz-adv-x="216" unicode="I" /><glyph d="M256 8Q261 7 274.5 6Q288 5 300 5Q334 5 361.5 10.5Q389 16 408.5 30Q428 44 439 67.5Q450 91 450 126V750H463V125Q463 59 424 27Q385 -5 300 -5Q291 -5 277 -4Q263 -3 256 -2ZM102 0V750H114V0Z" glyph-name="IJ" horiz-adv-x="565" unicode="&#306;" /><glyph d="M103 825 221 1000H236L113 825ZM102 0V750H114V0Z" glyph-name="Iacute" horiz-adv-x="216" unicode="&#205;" /><glyph d="M108 800Q-67 800 -67 1000H-57Q-56 911 -18 860.5Q20 810 108 810Q196 810 234 860.5Q272 911 273 1000H283Q283 800 108 800ZM102 0V750H114V0Z" glyph-name="Ibreve" horiz-adv-x="216" unicode="&#300;" /><glyph d="M225 825 108 989 -9 825H-20L102 1000H114L236 825ZM102 0V750H114V0Z" glyph-name="Icircumflex" horiz-adv-x="216" unicode="&#206;" /><glyph d="M188 950Q188 956 192.5 960.5Q197 965 203 965Q209 965 213.5 960.5Q218 956 218 950Q218 944 213.5 939.5Q209 935 203 935Q197 935 192.5 939.5Q188 944 188 950ZM-2 950Q-2 956 2.5 960.5Q7 965 13 965Q19 965 23.5 960.5Q28 956 28 950Q28 944 23.5 939.5Q19 935 13 935Q7 935 2.5 939.5Q-2 944 -2 950ZM102 0V750H114V0Z" glyph-name="Idieresis" horiz-adv-x="216" unicode="&#207;" /><glyph d="M93 950Q93 956 97.5 960.5Q102 965 108 965Q114 965 118.5 960.5Q123 956 123 950Q123 944 118.5 939.5Q114 935 108 935Q102 935 97.5 939.5Q93 944 93 950ZM102 0V750H114V0Z" glyph-name="Idotaccent" horiz-adv-x="216" unicode="&#304;" /><glyph d="M103 825 -20 1000H-5L113 825ZM102 0V750H114V0Z" glyph-name="Igrave" horiz-adv-x="216" unicode="&#204;" /><glyph d="M245 958H-29V970H245ZM102 0V750H114V0Z" glyph-name="Imacron" horiz-adv-x="216" /><glyph d="M114 0Q101 -8 86.5 -21.5Q72 -35 59.5 -53.5Q47 -72 39 -95Q31 -118 31 -146Q31 -178 49 -199Q67 -220 115 -220Q130 -220 143.5 -218Q157 -216 168 -213V-223Q157 -226 143 -228Q129 -230 109 -230Q72 -230 45.5 -210.5Q19 -191 19 -150Q19 -94 44.5 -56Q70 -18 102 4V750H114Z" glyph-name="Iogonek" horiz-adv-x="216" unicode="&#302;" /><glyph d="M259 934Q250 860 181 860Q154 860 137 871Q120 882 105.5 895Q91 908 75.5 919Q60 930 35 930Q8 930 -10 914Q-28 898 -32 866H-43Q-34 940 35 940Q62 940 79 929Q96 918 110.5 905Q125 892 140.5 881Q156 870 181 870Q208 870 226 886Q244 902 248 934ZM102 0V750H114V0Z" glyph-name="Itilde" horiz-adv-x="216" unicode="&#296;" /><glyph d="M40 8Q45 7 58.5 6Q72 5 84 5Q118 5 145.5 10.5Q173 16 192.5 30Q212 44 223 67.5Q234 91 234 126V750H247V125Q247 59 208 27Q169 -5 84 -5Q75 -5 61 -4Q47 -3 40 -2Z" glyph-name="J" horiz-adv-x="349" unicode="J" /><glyph d="M357 825 240 989 123 825H112L234 1000H246L368 825ZM40 8Q45 7 58.5 6Q72 5 84 5Q118 5 145.5 10.5Q173 16 192.5 30Q212 44 223 67.5Q234 91 234 126V750H247V125Q247 59 208 27Q169 -5 84 -5Q75 -5 61 -4Q47 -3 40 -2Z" glyph-name="Jcircumflex" horiz-adv-x="349" unicode="&#308;" /><glyph d="M89 294V0H80V750H89V308L474 750H487L198 419L525 0H510L192 412Z" glyph-name="K" horiz-adv-x="555" unicode="K" /><glyph d="M261 -120Q261 -114 265.5 -109.5Q270 -105 276 -105Q282 -105 286.5 -109.5Q291 -114 291 -120Q291 -123 289 -129L244 -250H243L273 -135Q261 -132 261 -120ZM89 294V0H80V750H89V308L474 750H487L198 419L525 0H510L192 412Z" glyph-name="Kcommaaccent" horiz-adv-x="555" unicode="&#310;" /><glyph d="M92 12H465V0H80V750H92Z" glyph-name="L" horiz-adv-x="500" unicode="L" /><glyph d="M81 825 199 1000H214L91 825ZM92 12H465V0H80V750H92Z" glyph-name="Lacute" horiz-adv-x="500" unicode="&#313;" /><glyph d="M192 550 218 750H232L201 550ZM92 12H465V0H80V750H92Z" glyph-name="Lcaron" horiz-adv-x="500" unicode="&#317;" /><glyph d="M254 -120Q254 -114 258.5 -109.5Q263 -105 269 -105Q275 -105 279.5 -109.5Q284 -114 284 -120Q284 -123 282 -129L237 -250H236L266 -135Q254 -132 254 -120ZM92 12H465V0H80V750H92Z" glyph-name="Lcommaaccent" horiz-adv-x="500" unicode="&#315;" /><glyph d="M321 375Q321 381 325.5 385.5Q330 390 336 390Q342 390 346.5 385.5Q351 381 351 375Q351 369 346.5 364.5Q342 360 336 360Q330 360 325.5 364.5Q321 369 321 375ZM92 12H465V0H80V750H92Z" glyph-name="Ldot" horiz-adv-x="500" unicode="&#319;" /><glyph d="M105 326V750H117V332L388 471V458L117 319V12H490V0H105V313L10 265V278Z" glyph-name="Lslash" horiz-adv-x="490" unicode="&#321;" /><glyph d="M402 85 92 716 93 0H80V750H89L405 107L721 750H730V0H717L718 716L408 85Z" glyph-name="M" horiz-adv-x="810" unicode="M" /><glyph d="M573 0 92 717 94 0H80V750H85L566 33L564 750H578V0Z" glyph-name="N" horiz-adv-x="658" unicode="N" /><glyph d="M324 825 442 1000H457L334 825ZM573 0 92 717 94 0H80V750H85L566 33L564 750H578V0Z" glyph-name="Nacute" horiz-adv-x="658" unicode="&#323;" /><glyph d="M457 1000 335 825H323L201 1000H212L329 836L446 1000ZM573 0 92 717 94 0H80V750H85L566 33L564 750H578V0Z" glyph-name="Ncaron" horiz-adv-x="658" unicode="&#327;" /><glyph d="M318 -120Q318 -114 322.5 -109.5Q327 -105 333 -105Q339 -105 343.5 -109.5Q348 -114 348 -120Q348 -123 346 -129L301 -250H300L330 -135Q318 -132 318 -120ZM573 0 92 717 94 0H80V750H85L566 33L564 750H578V0Z" glyph-name="Ncommaaccent" horiz-adv-x="658" unicode="&#325;" /><glyph d="M481 934Q472 860 403 860Q376 860 359 871Q342 882 327.5 895Q313 908 297.5 919Q282 930 257 930Q230 930 212 914Q194 898 190 866H179Q188 940 257 940Q284 940 301 929Q318 918 332.5 905Q347 892 362.5 881Q378 870 403 870Q430 870 448 886Q466 902 470 934ZM573 0 92 717 94 0H80V750H85L566 33L564 750H578V0Z" glyph-name="Ntilde" horiz-adv-x="658" unicode="&#209;" /><glyph d="M595 375Q595 464 585.5 533Q576 602 548.5 649Q521 696 470 720.5Q419 745 336 745Q253 745 202 720.5Q151 696 123.5 649Q96 602 86.5 533Q77 464 77 375Q77 286 86.5 217Q96 148 123.5 101Q151 54 202 29.5Q253 5 336 5Q419 5 470 29.5Q521 54 548.5 101Q576 148 585.5 217Q595 286 595 375ZM607 375Q607 289 598 219Q589 149 560.5 99.5Q532 50 478.5 22.5Q425 -5 336 -5Q247 -5 194 22.5Q141 50 112 99.5Q83 149 74 219Q65 289 65 375Q65 460 74 530.5Q83 601 112 650.5Q141 700 194 727.5Q247 755 336 755Q425 755 478.5 727.5Q532 700 560.5 650.5Q589 601 598 530.5Q607 460 607 375Z" glyph-name="O" horiz-adv-x="672" unicode="O" /><glyph d="M471 738H356Q273 738 219 716Q165 694 134 649Q103 604 91 535.5Q79 467 79 375Q79 283 91 214.5Q103 146 134 101Q165 56 219 34Q273 12 356 12H471ZM821 384H484V12H859V0H348Q260 0 204.5 25.5Q149 51 118 99.5Q87 148 76 217.5Q65 287 65 375Q65 463 76 532.5Q87 602 118 650.5Q149 699 204.5 724.5Q260 750 348 750H859V738H484V396H821Z" glyph-name="OE" horiz-adv-x="924" unicode="&#338;" /><glyph d="M331 825 449 1000H464L341 825ZM595 375Q595 464 585.5 533Q576 602 548.5 649Q521 696 470 720.5Q419 745 336 745Q253 745 202 720.5Q151 696 123.5 649Q96 602 86.5 533Q77 464 77 375Q77 286 86.5 217Q96 148 123.5 101Q151 54 202 29.5Q253 5 336 5Q419 5 470 29.5Q521 54 548.5 101Q576 148 585.5 217Q595 286 595 375ZM607 375Q607 289 598 219Q589 149 560.5 99.5Q532 50 478.5 22.5Q425 -5 336 -5Q247 -5 194 22.5Q141 50 112 99.5Q83 149 74 219Q65 289 65 375Q65 460 74 530.5Q83 601 112 650.5Q141 700 194 727.5Q247 755 336 755Q425 755 478.5 727.5Q532 700 560.5 650.5Q589 601 598 530.5Q607 460 607 375Z" glyph-name="Oacute" horiz-adv-x="672" unicode="&#211;" /><glyph d="M336 800Q161 800 161 1000H171Q172 911 210 860.5Q248 810 336 810Q424 810 462 860.5Q500 911 501 1000H511Q511 800 336 800ZM595 375Q595 464 585.5 533Q576 602 548.5 649Q521 696 470 720.5Q419 745 336 745Q253 745 202 720.5Q151 696 123.5 649Q96 602 86.5 533Q77 464 77 375Q77 286 86.5 217Q96 148 123.5 101Q151 54 202 29.5Q253 5 336 5Q419 5 470 29.5Q521 54 548.5 101Q576 148 585.5 217Q595 286 595 375ZM607 375Q607 289 598 219Q589 149 560.5 99.5Q532 50 478.5 22.5Q425 -5 336 -5Q247 -5 194 22.5Q141 50 112 99.5Q83 149 74 219Q65 289 65 375Q65 460 74 530.5Q83 601 112 650.5Q141 700 194 727.5Q247 755 336 755Q425 755 478.5 727.5Q532 700 560.5 650.5Q589 601 598 530.5Q607 460 607 375Z" glyph-name="Obreve" horiz-adv-x="672" unicode="&#334;" /><glyph d="M453 825 336 989 219 825H208L330 1000H342L464 825ZM595 375Q595 464 585.5 533Q576 602 548.5 649Q521 696 470 720.5Q419 745 336 745Q253 745 202 720.5Q151 696 123.5 649Q96 602 86.5 533Q77 464 77 375Q77 286 86.5 217Q96 148 123.5 101Q151 54 202 29.5Q253 5 336 5Q419 5 470 29.5Q521 54 548.5 101Q576 148 585.5 217Q595 286 595 375ZM607 375Q607 289 598 219Q589 149 560.5 99.5Q532 50 478.5 22.5Q425 -5 336 -5Q247 -5 194 22.5Q141 50 112 99.5Q83 149 74 219Q65 289 65 375Q65 460 74 530.5Q83 601 112 650.5Q141 700 194 727.5Q247 755 336 755Q425 755 478.5 727.5Q532 700 560.5 650.5Q589 601 598 530.5Q607 460 607 375Z" glyph-name="Ocircumflex" horiz-adv-x="672" unicode="&#212;" /><glyph d="M416 950Q416 956 420.5 960.5Q425 965 431 965Q437 965 441.5 960.5Q446 956 446 950Q446 944 441.5 939.5Q437 935 431 935Q425 935 420.5 939.5Q416 944 416 950ZM226 950Q226 956 230.5 960.5Q235 965 241 965Q247 965 251.5 960.5Q256 956 256 950Q256 944 251.5 939.5Q247 935 241 935Q235 935 230.5 939.5Q226 944 226 950ZM595 375Q595 464 585.5 533Q576 602 548.5 649Q521 696 470 720.5Q419 745 336 745Q253 745 202 720.5Q151 696 123.5 649Q96 602 86.5 533Q77 464 77 375Q77 286 86.5 217Q96 148 123.5 101Q151 54 202 29.5Q253 5 336 5Q419 5 470 29.5Q521 54 548.5 101Q576 148 585.5 217Q595 286 595 375ZM607 375Q607 289 598 219Q589 149 560.5 99.5Q532 50 478.5 22.5Q425 -5 336 -5Q247 -5 194 22.5Q141 50 112 99.5Q83 149 74 219Q65 289 65 375Q65 460 74 530.5Q83 601 112 650.5Q141 700 194 727.5Q247 755 336 755Q425 755 478.5 727.5Q532 700 560.5 650.5Q589 601 598 530.5Q607 460 607 375Z" glyph-name="Odieresis" horiz-adv-x="672" unicode="&#214;" /><glyph d="M331 825 208 1000H223L341 825ZM595 375Q595 464 585.5 533Q576 602 548.5 649Q521 696 470 720.5Q419 745 336 745Q253 745 202 720.5Q151 696 123.5 649Q96 602 86.5 533Q77 464 77 375Q77 286 86.5 217Q96 148 123.5 101Q151 54 202 29.5Q253 5 336 5Q419 5 470 29.5Q521 54 548.5 101Q576 148 585.5 217Q595 286 595 375ZM607 375Q607 289 598 219Q589 149 560.5 99.5Q532 50 478.5 22.5Q425 -5 336 -5Q247 -5 194 22.5Q141 50 112 99.5Q83 149 74 219Q65 289 65 375Q65 460 74 530.5Q83 601 112 650.5Q141 700 194 727.5Q247 755 336 755Q425 755 478.5 727.5Q532 700 560.5 650.5Q589 601 598 530.5Q607 460 607 375Z" glyph-name="Ograve" horiz-adv-x="672" unicode="&#210;" /><glyph d="M391 825 509 1000H524L401 825ZM279 825 397 1000H412L289 825ZM595 375Q595 464 585.5 533Q576 602 548.5 649Q521 696 470 720.5Q419 745 336 745Q253 745 202 720.5Q151 696 123.5 649Q96 602 86.5 533Q77 464 77 375Q77 286 86.5 217Q96 148 123.5 101Q151 54 202 29.5Q253 5 336 5Q419 5 470 29.5Q521 54 548.5 101Q576 148 585.5 217Q595 286 595 375ZM607 375Q607 289 598 219Q589 149 560.5 99.5Q532 50 478.5 22.5Q425 -5 336 -5Q247 -5 194 22.5Q141 50 112 99.5Q83 149 74 219Q65 289 65 375Q65 460 74 530.5Q83 601 112 650.5Q141 700 194 727.5Q247 755 336 755Q425 755 478.5 727.5Q532 700 560.5 650.5Q589 601 598 530.5Q607 460 607 375Z" glyph-name="Ohungarumlaut" horiz-adv-x="672" unicode="&#336;" /><glyph d="M473 958H199V970H473ZM595 375Q595 464 585.5 533Q576 602 548.5 649Q521 696 470 720.5Q419 745 336 745Q253 745 202 720.5Q151 696 123.5 649Q96 602 86.5 533Q77 464 77 375Q77 286 86.5 217Q96 148 123.5 101Q151 54 202 29.5Q253 5 336 5Q419 5 470 29.5Q521 54 548.5 101Q576 148 585.5 217Q595 286 595 375ZM607 375Q607 289 598 219Q589 149 560.5 99.5Q532 50 478.5 22.5Q425 -5 336 -5Q247 -5 194 22.5Q141 50 112 99.5Q83 149 74 219Q65 289 65 375Q65 460 74 530.5Q83 601 112 650.5Q141 700 194 727.5Q247 755 336 755Q425 755 478.5 727.5Q532 700 560.5 650.5Q589 601 598 530.5Q607 460 607 375Z" glyph-name="Omacron" horiz-adv-x="672" unicode="&#332;" /><glyph d="M70 565Q70 669 112.5 712Q155 755 234 755Q255 755 277.5 753Q300 751 320 744V734Q302 739 281.5 742Q261 745 232 745Q160 745 121 703Q82 661 82 565Q82 469 121 427Q160 385 232 385Q261 385 281.5 388Q302 391 320 396V386Q300 379 277.5 377Q255 375 234 375Q155 375 112.5 418Q70 461 70 565Z" glyph-name="Omega" horiz-adv-x="390" unicode="&#8486;" /><glyph d="M595 375Q595 469 584.5 539.5Q574 610 543 658L136 82Q165 44 213 24.5Q261 5 336 5Q419 5 470 29.5Q521 54 548.5 101Q576 148 585.5 217Q595 286 595 375ZM336 745Q253 745 202 720.5Q151 696 123.5 649Q96 602 86.5 533Q77 464 77 375Q77 281 87 210.5Q97 140 129 92L536 668Q507 706 459 725.5Q411 745 336 745ZM64 0 122 83Q87 134 76 207.5Q65 281 65 375Q65 460 74 530.5Q83 601 112 650.5Q141 700 194 727.5Q247 755 336 755Q413 755 462.5 735Q512 715 542 677L594 750H608L549 667Q585 616 596 542.5Q607 469 607 375Q607 289 598 219Q589 149 560.5 99.5Q532 50 478.5 22.5Q425 -5 336 -5Q259 -5 209.5 15Q160 35 130 73L78 0Z" glyph-name="Oslash" horiz-adv-x="672" unicode="&#216;" /><glyph d="M487 934Q478 860 409 860Q382 860 365 871Q348 882 333.5 895Q319 908 303.5 919Q288 930 263 930Q236 930 218 914Q200 898 196 866H185Q194 940 263 940Q290 940 307 929Q324 918 338.5 905Q353 892 368.5 881Q384 870 409 870Q436 870 454 886Q472 902 476 934ZM595 375Q595 464 585.5 533Q576 602 548.5 649Q521 696 470 720.5Q419 745 336 745Q253 745 202 720.5Q151 696 123.5 649Q96 602 86.5 533Q77 464 77 375Q77 286 86.5 217Q96 148 123.5 101Q151 54 202 29.5Q253 5 336 5Q419 5 470 29.5Q521 54 548.5 101Q576 148 585.5 217Q595 286 595 375ZM607 375Q607 289 598 219Q589 149 560.5 99.5Q532 50 478.5 22.5Q425 -5 336 -5Q247 -5 194 22.5Q141 50 112 99.5Q83 149 74 219Q65 289 65 375Q65 460 74 530.5Q83 601 112 650.5Q141 700 194 727.5Q247 755 336 755Q425 755 478.5 727.5Q532 700 560.5 650.5Q589 601 598 530.5Q607 460 607 375Z" glyph-name="Otilde" horiz-adv-x="672" unicode="&#213;" /><glyph d="M92 337H315Q382 337 423 355.5Q464 374 486.5 402.5Q509 431 516 466.5Q523 502 523 537Q523 572 516 608Q509 644 486.5 673Q464 702 423 720Q382 738 315 738H92ZM92 0H80V750H314Q381 750 424 732.5Q467 715 491.5 685.5Q516 656 525.5 617.5Q535 579 535 537Q535 495 525.5 457Q516 419 491.5 390Q467 361 424 343.5Q381 326 314 326H92Z" glyph-name="P" horiz-adv-x="580" unicode="P" /><glyph d="M595 375Q595 464 585.5 533Q576 602 548.5 649Q521 696 470 720.5Q419 745 336 745Q253 745 202 720.5Q151 696 123.5 649Q96 602 86.5 533Q77 464 77 375Q77 285 87 216Q97 147 125 100Q153 53 203.5 29Q254 5 336 5Q419 5 470 29.5Q521 54 548.5 101Q576 148 585.5 217Q595 286 595 375ZM607 375Q607 289 598 219Q589 149 560.5 99.5Q532 50 478.5 22.5Q425 -5 336 -5Q330 -5 323.5 -5Q317 -5 312 -4V-5L709 -106V-119L246 3Q185 19 149 51Q113 83 94.5 130.5Q76 178 70.5 239Q65 300 65 375Q65 460 74 530.5Q83 601 112 650.5Q141 700 194 727.5Q247 755 336 755Q425 755 478.5 727.5Q532 700 560.5 650.5Q589 601 598 530.5Q607 460 607 375Z" glyph-name="Q" horiz-adv-x="672" unicode="Q" /><glyph d="M328 367Q392 367 431 381.5Q470 396 490.5 421Q511 446 517.5 480Q524 514 524 553Q524 592 517.5 626Q511 660 490.5 685Q470 710 431 724Q392 738 328 738H93V367ZM93 0H80V750H318Q387 750 430 737Q473 724 496.5 698.5Q520 673 528.5 636.5Q537 600 537 553Q537 510 530.5 476Q524 442 505 417Q486 392 453 376.5Q420 361 368 357L560 0H545L355 356Q346 355 337 355Q328 355 318 355H93Z" glyph-name="R" horiz-adv-x="600" unicode="R" /><glyph d="M275 825 393 1000H408L285 825ZM328 367Q392 367 431 381.5Q470 396 490.5 421Q511 446 517.5 480Q524 514 524 553Q524 592 517.5 626Q511 660 490.5 685Q470 710 431 724Q392 738 328 738H93V367ZM93 0H80V750H318Q387 750 430 737Q473 724 496.5 698.5Q520 673 528.5 636.5Q537 600 537 553Q537 510 530.5 476Q524 442 505 417Q486 392 453 376.5Q420 361 368 357L560 0H545L355 356Q346 355 337 355Q328 355 318 355H93Z" glyph-name="Racute" horiz-adv-x="600" unicode="&#340;" /><glyph d="M408 1000 286 825H274L152 1000H163L280 836L397 1000ZM328 367Q392 367 431 381.5Q470 396 490.5 421Q511 446 517.5 480Q524 514 524 553Q524 592 517.5 626Q511 660 490.5 685Q470 710 431 724Q392 738 328 738H93V367ZM93 0H80V750H318Q387 750 430 737Q473 724 496.5 698.5Q520 673 528.5 636.5Q537 600 537 553Q537 510 530.5 476Q524 442 505 417Q486 392 453 376.5Q420 361 368 357L560 0H545L355 356Q346 355 337 355Q328 355 318 355H93Z" glyph-name="Rcaron" horiz-adv-x="600" unicode="&#344;" /><glyph d="M284 -120Q284 -114 288.5 -109.5Q293 -105 299 -105Q305 -105 309.5 -109.5Q314 -114 314 -120Q314 -123 312 -129L267 -250H266L296 -135Q284 -132 284 -120ZM328 367Q392 367 431 381.5Q470 396 490.5 421Q511 446 517.5 480Q524 514 524 553Q524 592 517.5 626Q511 660 490.5 685Q470 710 431 724Q392 738 328 738H93V367ZM93 0H80V750H318Q387 750 430 737Q473 724 496.5 698.5Q520 673 528.5 636.5Q537 600 537 553Q537 510 530.5 476Q524 442 505 417Q486 392 453 376.5Q420 361 368 357L560 0H545L355 356Q346 355 337 355Q328 355 318 355H93Z" glyph-name="Rcommaaccent" horiz-adv-x="600" unicode="&#342;" /><glyph d="M303 755Q368 755 410.5 748Q453 741 482 730V719Q438 735 397 740Q356 745 303 745Q234 745 189 731Q144 717 118 692.5Q92 668 81.5 635Q71 602 71 565Q71 515 82.5 485Q94 455 121 437Q148 419 192 410Q236 401 301 395Q366 389 410.5 379Q455 369 482.5 349Q510 329 522 294Q534 259 534 202Q534 164 521.5 127Q509 90 478 60.5Q447 31 393.5 13Q340 -5 258 -5Q234 -5 206.5 -2.5Q179 0 152 3.5Q125 7 101.5 12.5Q78 18 63 24V35Q94 23 146 14Q198 5 259 5Q332 5 382.5 20.5Q433 36 464 62.5Q495 89 508.5 125Q522 161 522 202Q522 252 512.5 285Q503 318 477.5 338Q452 358 407.5 369Q363 380 293 386Q228 392 184 401Q140 410 112 429.5Q84 449 72 481Q60 513 60 566Q60 604 70.5 638Q81 672 108 698Q135 724 182 739.5Q229 755 303 755Z" glyph-name="S" horiz-adv-x="594" unicode="S" /><glyph d="M298 825 416 1000H431L308 825ZM303 755Q368 755 410.5 748Q453 741 482 730V719Q438 735 397 740Q356 745 303 745Q234 745 189 731Q144 717 118 692.5Q92 668 81.5 635Q71 602 71 565Q71 515 82.5 485Q94 455 121 437Q148 419 192 410Q236 401 301 395Q366 389 410.5 379Q455 369 482.5 349Q510 329 522 294Q534 259 534 202Q534 164 521.5 127Q509 90 478 60.5Q447 31 393.5 13Q340 -5 258 -5Q234 -5 206.5 -2.5Q179 0 152 3.5Q125 7 101.5 12.5Q78 18 63 24V35Q94 23 146 14Q198 5 259 5Q332 5 382.5 20.5Q433 36 464 62.5Q495 89 508.5 125Q522 161 522 202Q522 252 512.5 285Q503 318 477.5 338Q452 358 407.5 369Q363 380 293 386Q228 392 184 401Q140 410 112 429.5Q84 449 72 481Q60 513 60 566Q60 604 70.5 638Q81 672 108 698Q135 724 182 739.5Q229 755 303 755Z" glyph-name="Sacute" horiz-adv-x="594" unicode="&#346;" /><glyph d="M431 1000 309 825H297L175 1000H186L303 836L420 1000ZM303 755Q368 755 410.5 748Q453 741 482 730V719Q438 735 397 740Q356 745 303 745Q234 745 189 731Q144 717 118 692.5Q92 668 81.5 635Q71 602 71 565Q71 515 82.5 485Q94 455 121 437Q148 419 192 410Q236 401 301 395Q366 389 410.5 379Q455 369 482.5 349Q510 329 522 294Q534 259 534 202Q534 164 521.5 127Q509 90 478 60.5Q447 31 393.5 13Q340 -5 258 -5Q234 -5 206.5 -2.5Q179 0 152 3.5Q125 7 101.5 12.5Q78 18 63 24V35Q94 23 146 14Q198 5 259 5Q332 5 382.5 20.5Q433 36 464 62.5Q495 89 508.5 125Q522 161 522 202Q522 252 512.5 285Q503 318 477.5 338Q452 358 407.5 369Q363 380 293 386Q228 392 184 401Q140 410 112 429.5Q84 449 72 481Q60 513 60 566Q60 604 70.5 638Q81 672 108 698Q135 724 182 739.5Q229 755 303 755Z" glyph-name="Scaron" horiz-adv-x="594" unicode="&#352;" /><glyph d="M244 -185Q262 -176 273.5 -163.5Q285 -151 288 -138.5Q291 -126 285 -114.5Q279 -103 262 -96Q244 -88 238.5 -76Q233 -64 234.5 -51Q236 -38 243 -26Q250 -14 257 -5Q233 -5 205.5 -2.5Q178 0 151.5 3.5Q125 7 101.5 12.5Q78 18 63 24V35Q94 23 146 14Q198 5 259 5Q332 5 382.5 20.5Q433 36 464 62.5Q495 89 508.5 125Q522 161 522 202Q522 252 512.5 285Q503 318 477.5 338Q452 358 407.5 369Q363 380 293 386Q228 392 184 401Q140 410 112 429.5Q84 449 72 481Q60 513 60 566Q60 604 70.5 638Q81 672 108 698Q135 724 182 739.5Q229 755 303 755Q368 755 410.5 748Q453 741 482 730V719Q438 735 397 740Q356 745 303 745Q234 745 189 731Q144 717 118 692.5Q92 668 81.5 635Q71 602 71 565Q71 515 82.5 485Q94 455 121 437Q148 419 192 410Q236 401 301 395Q366 389 410.5 379Q455 369 482.5 349Q510 329 522 294Q534 259 534 202Q534 164 522 128Q510 92 480 62.5Q450 33 398.5 14.5Q347 -4 268 -5Q260 -13 253 -24.5Q246 -36 244 -47.5Q242 -59 246 -70Q250 -81 265 -87Q287 -96 294.5 -110Q302 -124 299 -138Q296 -152 285 -165Q274 -178 259 -185Z" glyph-name="Scedilla" horiz-adv-x="594" unicode="&#350;" /><glyph d="M420 825 303 989 186 825H175L297 1000H309L431 825ZM303 755Q368 755 410.5 748Q453 741 482 730V719Q438 735 397 740Q356 745 303 745Q234 745 189 731Q144 717 118 692.5Q92 668 81.5 635Q71 602 71 565Q71 515 82.5 485Q94 455 121 437Q148 419 192 410Q236 401 301 395Q366 389 410.5 379Q455 369 482.5 349Q510 329 522 294Q534 259 534 202Q534 164 521.5 127Q509 90 478 60.5Q447 31 393.5 13Q340 -5 258 -5Q234 -5 206.5 -2.5Q179 0 152 3.5Q125 7 101.5 12.5Q78 18 63 24V35Q94 23 146 14Q198 5 259 5Q332 5 382.5 20.5Q433 36 464 62.5Q495 89 508.5 125Q522 161 522 202Q522 252 512.5 285Q503 318 477.5 338Q452 358 407.5 369Q363 380 293 386Q228 392 184 401Q140 410 112 429.5Q84 449 72 481Q60 513 60 566Q60 604 70.5 638Q81 672 108 698Q135 724 182 739.5Q229 755 303 755Z" glyph-name="Scircumflex" horiz-adv-x="594" unicode="&#348;" /><glyph d="M261 -120Q261 -114 265.5 -109.5Q270 -105 276 -105Q282 -105 286.5 -109.5Q291 -114 291 -120Q291 -123 289 -129L244 -250H243L273 -135Q261 -132 261 -120ZM303 755Q368 755 410.5 748Q453 741 482 730V719Q438 735 397 740Q356 745 303 745Q234 745 189 731Q144 717 118 692.5Q92 668 81.5 635Q71 602 71 565Q71 515 82.5 485Q94 455 121 437Q148 419 192 410Q236 401 301 395Q366 389 410.5 379Q455 369 482.5 349Q510 329 522 294Q534 259 534 202Q534 164 521.5 127Q509 90 478 60.5Q447 31 393.5 13Q340 -5 258 -5Q234 -5 206.5 -2.5Q179 0 152 3.5Q125 7 101.5 12.5Q78 18 63 24V35Q94 23 146 14Q198 5 259 5Q332 5 382.5 20.5Q433 36 464 62.5Q495 89 508.5 125Q522 161 522 202Q522 252 512.5 285Q503 318 477.5 338Q452 358 407.5 369Q363 380 293 386Q228 392 184 401Q140 410 112 429.5Q84 449 72 481Q60 513 60 566Q60 604 70.5 638Q81 672 108 698Q135 724 182 739.5Q229 755 303 755Z" glyph-name="Scommaaccent" horiz-adv-x="594" unicode="&#536;" /><glyph d="M276 738V0H264V738H30V750H510V738Z" glyph-name="T" horiz-adv-x="540" unicode="T" /><glyph d="M428 385H276V0H264V385H112V395H264V738H30V750H510V738H276V395H428Z" glyph-name="Tbar" horiz-adv-x="540" unicode="&#358;" /><glyph d="M398 1000 276 825H264L142 1000H153L270 836L387 1000ZM276 738V0H264V738H30V750H510V738Z" glyph-name="Tcaron" horiz-adv-x="540" unicode="&#356;" /><glyph d="M255 -120Q255 -114 259.5 -109.5Q264 -105 270 -105Q276 -105 280.5 -109.5Q285 -114 285 -120Q285 -123 283 -129L238 -250H237L267 -135Q255 -132 255 -120ZM276 738V0H264V738H30V750H510V738Z" glyph-name="Tcommaaccent" horiz-adv-x="540" unicode="&#354;" /><glyph d="M92 175H315Q382 175 423 193.5Q464 212 486.5 240.5Q509 269 516 304.5Q523 340 523 375Q523 410 516 446Q509 482 486.5 511Q464 540 423 558Q382 576 315 576H92ZM92 0H80V750H92V588H314Q381 588 424 570.5Q467 553 491.5 523.5Q516 494 525.5 455.5Q535 417 535 375Q535 333 525.5 295Q516 257 491.5 228Q467 199 424 181.5Q381 164 314 164H92Z" glyph-name="Thorn" horiz-adv-x="580" unicode="&#222;" /><glyph d="M329 5Q387 5 432.5 16Q478 27 509 54Q540 81 556 127Q572 173 572 243V750H583V239Q583 162 563 114.5Q543 67 508.5 40.5Q474 14 428 4.5Q382 -5 329 -5Q276 -5 230 4.5Q184 14 149.5 40.5Q115 67 95 114.5Q75 162 75 239V750H86V243Q86 173 102 127Q118 81 149 54Q180 27 225 16Q270 5 329 5Z" glyph-name="U" horiz-adv-x="658" unicode="U" /><glyph d="M324 825 442 1000H457L334 825ZM329 5Q387 5 432.5 16Q478 27 509 54Q540 81 556 127Q572 173 572 243V750H583V239Q583 162 563 114.5Q543 67 508.5 40.5Q474 14 428 4.5Q382 -5 329 -5Q276 -5 230 4.5Q184 14 149.5 40.5Q115 67 95 114.5Q75 162 75 239V750H86V243Q86 173 102 127Q118 81 149 54Q180 27 225 16Q270 5 329 5Z" glyph-name="Uacute" horiz-adv-x="658" unicode="&#218;" /><glyph d="M329 800Q154 800 154 1000H164Q165 911 203 860.5Q241 810 329 810Q417 810 455 860.5Q493 911 494 1000H504Q504 800 329 800ZM329 5Q387 5 432.5 16Q478 27 509 54Q540 81 556 127Q572 173 572 243V750H583V239Q583 162 563 114.5Q543 67 508.5 40.5Q474 14 428 4.5Q382 -5 329 -5Q276 -5 230 4.5Q184 14 149.5 40.5Q115 67 95 114.5Q75 162 75 239V750H86V243Q86 173 102 127Q118 81 149 54Q180 27 225 16Q270 5 329 5Z" glyph-name="Ubreve" horiz-adv-x="658" unicode="&#364;" /><glyph d="M446 825 329 989 212 825H201L323 1000H335L457 825ZM329 5Q387 5 432.5 16Q478 27 509 54Q540 81 556 127Q572 173 572 243V750H583V239Q583 162 563 114.5Q543 67 508.5 40.5Q474 14 428 4.5Q382 -5 329 -5Q276 -5 230 4.5Q184 14 149.5 40.5Q115 67 95 114.5Q75 162 75 239V750H86V243Q86 173 102 127Q118 81 149 54Q180 27 225 16Q270 5 329 5Z" glyph-name="Ucircumflex" horiz-adv-x="658" unicode="&#219;" /><glyph d="M409 950Q409 956 413.5 960.5Q418 965 424 965Q430 965 434.5 960.5Q439 956 439 950Q439 944 434.5 939.5Q430 935 424 935Q418 935 413.5 939.5Q409 944 409 950ZM219 950Q219 956 223.5 960.5Q228 965 234 965Q240 965 244.5 960.5Q249 956 249 950Q249 944 244.5 939.5Q240 935 234 935Q228 935 223.5 939.5Q219 944 219 950ZM329 5Q387 5 432.5 16Q478 27 509 54Q540 81 556 127Q572 173 572 243V750H583V239Q583 162 563 114.5Q543 67 508.5 40.5Q474 14 428 4.5Q382 -5 329 -5Q276 -5 230 4.5Q184 14 149.5 40.5Q115 67 95 114.5Q75 162 75 239V750H86V243Q86 173 102 127Q118 81 149 54Q180 27 225 16Q270 5 329 5Z" glyph-name="Udieresis" horiz-adv-x="658" unicode="&#220;" /><glyph d="M324 825 201 1000H216L334 825ZM329 5Q387 5 432.5 16Q478 27 509 54Q540 81 556 127Q572 173 572 243V750H583V239Q583 162 563 114.5Q543 67 508.5 40.5Q474 14 428 4.5Q382 -5 329 -5Q276 -5 230 4.5Q184 14 149.5 40.5Q115 67 95 114.5Q75 162 75 239V750H86V243Q86 173 102 127Q118 81 149 54Q180 27 225 16Q270 5 329 5Z" glyph-name="Ugrave" horiz-adv-x="658" unicode="&#217;" /><glyph d="M384 825 502 1000H517L394 825ZM272 825 390 1000H405L282 825ZM329 5Q387 5 432.5 16Q478 27 509 54Q540 81 556 127Q572 173 572 243V750H583V239Q583 162 563 114.5Q543 67 508.5 40.5Q474 14 428 4.5Q382 -5 329 -5Q276 -5 230 4.5Q184 14 149.5 40.5Q115 67 95 114.5Q75 162 75 239V750H86V243Q86 173 102 127Q118 81 149 54Q180 27 225 16Q270 5 329 5Z" glyph-name="Uhungarumlaut" horiz-adv-x="658" unicode="&#368;" /><glyph d="M466 958H192V970H466ZM329 5Q387 5 432.5 16Q478 27 509 54Q540 81 556 127Q572 173 572 243V750H583V239Q583 162 563 114.5Q543 67 508.5 40.5Q474 14 428 4.5Q382 -5 329 -5Q276 -5 230 4.5Q184 14 149.5 40.5Q115 67 95 114.5Q75 162 75 239V750H86V243Q86 173 102 127Q118 81 149 54Q180 27 225 16Q270 5 329 5Z" glyph-name="Umacron" horiz-adv-x="658" unicode="&#362;" /><glyph d="M329 5Q387 5 432.5 16Q478 27 509 54Q540 81 556 127Q572 173 572 243V750H583V239Q583 177 569.5 134Q556 91 532.5 63Q509 35 476 20.5Q443 6 404 0Q384 -8 360.5 -21.5Q337 -35 317.5 -53.5Q298 -72 285 -95Q272 -118 272 -146Q272 -178 290 -199Q308 -220 356 -220Q371 -220 384.5 -218Q398 -216 409 -213V-223Q398 -226 384 -228Q370 -230 350 -230Q313 -230 286.5 -210.5Q260 -191 260 -150Q260 -124 269.5 -102Q279 -80 294.5 -61.5Q310 -43 330.5 -28.5Q351 -14 373 -3Q362 -4 351 -4.5Q340 -5 329 -5Q276 -5 230 4.5Q184 14 149.5 40.5Q115 67 95 114.5Q75 162 75 239V750H86V243Q86 173 102 127Q118 81 149 54Q180 27 225 16Q270 5 329 5Z" glyph-name="Uogonek" horiz-adv-x="658" unicode="&#370;" /><glyph d="M410 912Q410 958 387.5 976Q365 994 329 994Q292 994 269 976Q246 958 246 912Q246 866 269 848Q292 830 329 830Q365 830 387.5 848Q410 866 410 912ZM422 912Q422 862 396.5 840.5Q371 819 329 819Q286 819 260.5 840.5Q235 862 235 912Q235 962 260.5 983.5Q286 1005 329 1005Q371 1005 396.5 983.5Q422 962 422 912ZM329 5Q387 5 432.5 16Q478 27 509 54Q540 81 556 127Q572 173 572 243V750H583V239Q583 162 563 114.5Q543 67 508.5 40.5Q474 14 428 4.5Q382 -5 329 -5Q276 -5 230 4.5Q184 14 149.5 40.5Q115 67 95 114.5Q75 162 75 239V750H86V243Q86 173 102 127Q118 81 149 54Q180 27 225 16Q270 5 329 5Z" glyph-name="Uring" horiz-adv-x="658" unicode="&#366;" /><glyph d="M480 934Q471 860 402 860Q375 860 358 871Q341 882 326.5 895Q312 908 296.5 919Q281 930 256 930Q229 930 211 914Q193 898 189 866H178Q187 940 256 940Q283 940 300 929Q317 918 331.5 905Q346 892 361.5 881Q377 870 402 870Q429 870 447 886Q465 902 469 934ZM329 5Q387 5 432.5 16Q478 27 509 54Q540 81 556 127Q572 173 572 243V750H583V239Q583 162 563 114.5Q543 67 508.5 40.5Q474 14 428 4.5Q382 -5 329 -5Q276 -5 230 4.5Q184 14 149.5 40.5Q115 67 95 114.5Q75 162 75 239V750H86V243Q86 173 102 127Q118 81 149 54Q180 27 225 16Q270 5 329 5Z" glyph-name="Utilde" horiz-adv-x="658" unicode="&#360;" /><glyph d="M580 750 313 -5H307L40 750H53L310 15L567 750Z" glyph-name="V" horiz-adv-x="620" unicode="V" /><glyph d="M417 750 610 15 774 750H787L615 -5H605L411 732L217 -5H207L35 750H48L212 15L405 750Z" glyph-name="W" horiz-adv-x="822" unicode="W" /><glyph d="M528 825 411 989 294 825H283L405 1000H417L539 825ZM417 750 610 15 774 750H787L615 -5H605L411 732L217 -5H207L35 750H48L212 15L405 750Z" glyph-name="Wcircumflex" horiz-adv-x="822" unicode="&#372;" /><glyph d="M286 370 44 0H30L280 379L36 750H50L286 388L522 750H536L292 379L542 0H528Z" glyph-name="X" horiz-adv-x="572" unicode="X" /><glyph d="M314 306V0H302V306L35 750H49L308 316L567 750H581Z" glyph-name="Y" horiz-adv-x="616" unicode="Y" /><glyph d="M303 825 421 1000H436L313 825ZM314 306V0H302V306L35 750H49L308 316L567 750H581Z" glyph-name="Yacute" horiz-adv-x="616" unicode="&#221;" /><glyph d="M425 825 308 989 191 825H180L302 1000H314L436 825ZM314 306V0H302V306L35 750H49L308 316L567 750H581Z" glyph-name="Ycircumflex" horiz-adv-x="616" unicode="&#374;" /><glyph d="M388 950Q388 956 392.5 960.5Q397 965 403 965Q409 965 413.5 960.5Q418 956 418 950Q418 944 413.5 939.5Q409 935 403 935Q397 935 392.5 939.5Q388 944 388 950ZM198 950Q198 956 202.5 960.5Q207 965 213 965Q219 965 223.5 960.5Q228 956 228 950Q228 944 223.5 939.5Q219 935 213 935Q207 935 202.5 939.5Q198 944 198 950ZM314 306V0H302V306L35 750H49L308 316L567 750H581Z" glyph-name="Ydieresis" horiz-adv-x="616" unicode="&#376;" /><glyph d="M45 0V9L524 738H67V750H540V741L61 12H555V0Z" glyph-name="Z" horiz-adv-x="600" unicode="Z" /><glyph d="M288 825 406 1000H421L298 825ZM45 0V9L524 738H67V750H540V741L61 12H555V0Z" glyph-name="Zacute" horiz-adv-x="600" unicode="&#377;" /><glyph d="M421 1000 299 825H287L165 1000H176L293 836L410 1000ZM45 0V9L524 738H67V750H540V741L61 12H555V0Z" glyph-name="Zcaron" horiz-adv-x="600" unicode="&#381;" /><glyph d="M278 950Q278 956 282.5 960.5Q287 965 293 965Q299 965 303.5 960.5Q308 956 308 950Q308 944 303.5 939.5Q299 935 293 935Q287 935 282.5 939.5Q278 944 278 950ZM45 0V9L524 738H67V750H540V741L61 12H555V0Z" glyph-name="Zdotaccent" horiz-adv-x="600" unicode="&#379;" /><glyph d="M198 277Q175 275 153 268.5Q131 262 114 246.5Q97 231 87 205Q77 179 77 139Q77 115 84 91Q91 67 109.5 48Q128 29 159.5 17Q191 5 239 5Q290 5 335.5 19.5Q381 34 418 58V296ZM252 495Q205 495 167.5 488Q130 481 107 474V484Q122 489 141 493Q160 497 179.5 499.5Q199 502 218 503.5Q237 505 252 505Q308 505 343 495Q378 485 397.5 465Q417 445 423.5 416Q430 387 430 348V0H421L418 47Q403 36 381.5 26.5Q360 17 336 10Q312 3 286.5 -1Q261 -5 237 -5Q189 -5 156 6.5Q123 18 103 37.5Q83 57 74 83.5Q65 110 65 139Q65 215 99.5 248.5Q134 282 203 288L418 306V350Q418 389 411 416.5Q404 444 385 461.5Q366 479 334 487Q302 495 252 495Z" glyph-name="a" horiz-adv-x="510" unicode="a" /><glyph d="M114 140H386L250 482ZM252 505 455 0H442L391 128H109L58 0H45L248 505Z" glyph-name="a.smcp" horiz-adv-x="500" /><glyph d="M247 575 365 750H380L257 575ZM198 277Q175 275 153 268.5Q131 262 114 246.5Q97 231 87 205Q77 179 77 139Q77 115 84 91Q91 67 109.5 48Q128 29 159.5 17Q191 5 239 5Q290 5 335.5 19.5Q381 34 418 58V296ZM252 495Q205 495 167.5 488Q130 481 107 474V484Q122 489 141 493Q160 497 179.5 499.5Q199 502 218 503.5Q237 505 252 505Q308 505 343 495Q378 485 397.5 465Q417 445 423.5 416Q430 387 430 348V0H421L418 47Q403 36 381.5 26.5Q360 17 336 10Q312 3 286.5 -1Q261 -5 237 -5Q189 -5 156 6.5Q123 18 103 37.5Q83 57 74 83.5Q65 110 65 139Q65 215 99.5 248.5Q134 282 203 288L418 306V350Q418 389 411 416.5Q404 444 385 461.5Q366 479 334 487Q302 495 252 495Z" glyph-name="aacute" horiz-adv-x="510" unicode="&#225;" /><glyph d="M245 575 363 750H378L255 575ZM114 140H386L250 482ZM252 505 455 0H442L391 128H109L58 0H45L248 505Z" glyph-name="aacute.smcp" horiz-adv-x="500" /><glyph d="M252 550Q77 550 77 750H87Q88 661 126 610.5Q164 560 252 560Q340 560 378 610.5Q416 661 417 750H427Q427 550 252 550ZM198 277Q175 275 153 268.5Q131 262 114 246.5Q97 231 87 205Q77 179 77 139Q77 115 84 91Q91 67 109.5 48Q128 29 159.5 17Q191 5 239 5Q290 5 335.5 19.5Q381 34 418 58V296ZM252 495Q205 495 167.5 488Q130 481 107 474V484Q122 489 141 493Q160 497 179.5 499.5Q199 502 218 503.5Q237 505 252 505Q308 505 343 495Q378 485 397.5 465Q417 445 423.5 416Q430 387 430 348V0H421L418 47Q403 36 381.5 26.5Q360 17 336 10Q312 3 286.5 -1Q261 -5 237 -5Q189 -5 156 6.5Q123 18 103 37.5Q83 57 74 83.5Q65 110 65 139Q65 215 99.5 248.5Q134 282 203 288L418 306V350Q418 389 411 416.5Q404 444 385 461.5Q366 479 334 487Q302 495 252 495Z" glyph-name="abreve" horiz-adv-x="510" unicode="&#259;" /><glyph d="M250 550Q75 550 75 750H85Q86 661 124 610.5Q162 560 250 560Q338 560 376 610.5Q414 661 415 750H425Q425 550 250 550ZM114 140H386L250 482ZM252 505 455 0H442L391 128H109L58 0H45L248 505Z" glyph-name="abreve.smcp" horiz-adv-x="500" /><glyph d="M369 575 252 739 135 575H124L246 750H258L380 575ZM198 277Q175 275 153 268.5Q131 262 114 246.5Q97 231 87 205Q77 179 77 139Q77 115 84 91Q91 67 109.5 48Q128 29 159.5 17Q191 5 239 5Q290 5 335.5 19.5Q381 34 418 58V296ZM252 495Q205 495 167.5 488Q130 481 107 474V484Q122 489 141 493Q160 497 179.5 499.5Q199 502 218 503.5Q237 505 252 505Q308 505 343 495Q378 485 397.5 465Q417 445 423.5 416Q430 387 430 348V0H421L418 47Q403 36 381.5 26.5Q360 17 336 10Q312 3 286.5 -1Q261 -5 237 -5Q189 -5 156 6.5Q123 18 103 37.5Q83 57 74 83.5Q65 110 65 139Q65 215 99.5 248.5Q134 282 203 288L418 306V350Q418 389 411 416.5Q404 444 385 461.5Q366 479 334 487Q302 495 252 495Z" glyph-name="acircumflex" horiz-adv-x="510" unicode="&#226;" /><glyph d="M367 575 250 739 133 575H122L244 750H256L378 575ZM114 140H386L250 482ZM252 505 455 0H442L391 128H109L58 0H45L248 505Z" glyph-name="acircumflex.smcp" horiz-adv-x="500" /><glyph d="M222 575 340 750H355L232 575Z" glyph-name="acute" horiz-adv-x="540" unicode="&#180;" /><glyph d="M332 700Q332 706 336.5 710.5Q341 715 347 715Q353 715 357.5 710.5Q362 706 362 700Q362 694 357.5 689.5Q353 685 347 685Q341 685 336.5 689.5Q332 694 332 700ZM142 700Q142 706 146.5 710.5Q151 715 157 715Q163 715 167.5 710.5Q172 706 172 700Q172 694 167.5 689.5Q163 685 157 685Q151 685 146.5 689.5Q142 694 142 700ZM198 277Q175 275 153 268.5Q131 262 114 246.5Q97 231 87 205Q77 179 77 139Q77 115 84 91Q91 67 109.5 48Q128 29 159.5 17Q191 5 239 5Q290 5 335.5 19.5Q381 34 418 58V296ZM252 495Q205 495 167.5 488Q130 481 107 474V484Q122 489 141 493Q160 497 179.5 499.5Q199 502 218 503.5Q237 505 252 505Q308 505 343 495Q378 485 397.5 465Q417 445 423.5 416Q430 387 430 348V0H421L418 47Q403 36 381.5 26.5Q360 17 336 10Q312 3 286.5 -1Q261 -5 237 -5Q189 -5 156 6.5Q123 18 103 37.5Q83 57 74 83.5Q65 110 65 139Q65 215 99.5 248.5Q134 282 203 288L418 306V350Q418 389 411 416.5Q404 444 385 461.5Q366 479 334 487Q302 495 252 495Z" glyph-name="adieresis" horiz-adv-x="510" unicode="&#228;" /><glyph d="M140 700Q140 706 144.5 710.5Q149 715 155 715Q161 715 165.5 710.5Q170 706 170 700Q170 694 165.5 689.5Q161 685 155 685Q149 685 144.5 689.5Q140 694 140 700ZM330 700Q330 706 334.5 710.5Q339 715 345 715Q351 715 355.5 710.5Q360 706 360 700Q360 694 355.5 689.5Q351 685 345 685Q339 685 334.5 689.5Q330 694 330 700ZM114 140H386L250 482ZM252 505 455 0H442L391 128H109L58 0H45L248 505Z" glyph-name="adieresis.smcp" horiz-adv-x="500" /><glyph d="M768 255Q768 302 763.5 345.5Q759 389 742 422Q725 455 691 475Q657 495 598 495Q539 495 502 477Q465 459 444 427.5Q423 396 414.5 354Q406 312 405 265V255ZM189 245Q167 245 143 242Q119 239 98.5 227.5Q78 216 65 192.5Q52 169 52 127Q52 103 59 80.5Q66 58 84.5 41.5Q103 25 134.5 15Q166 5 214 5Q265 5 310.5 19.5Q356 34 393 58Q408 68 414.5 75Q421 82 423 85Q406 117 399.5 157Q393 197 393 245ZM598 5Q652 5 689 13.5Q726 22 754 30V20Q724 10 681 2.5Q638 -5 598 -5Q532 -5 491.5 16Q451 37 428 75Q423 70 414.5 62.5Q406 55 393 47Q378 36 356.5 26.5Q335 17 311 10Q287 3 261.5 -1Q236 -5 212 -5Q164 -5 131 4.5Q98 14 78 31.5Q58 49 49 73.5Q40 98 40 127Q40 165 50 190Q60 215 79.5 229.5Q99 244 127 249.5Q155 255 191 255H393V350Q393 389 386 416.5Q379 444 360 461.5Q341 479 309 487Q277 495 227 495Q180 495 142.5 488Q105 481 82 474V484Q97 489 116 493Q135 497 154.5 499.5Q174 502 193 503.5Q212 505 227 505Q280 505 314 496Q348 487 367.5 469.5Q387 452 395 425.5Q403 399 405 365Q413 397 427.5 423Q442 449 465 467Q488 485 521 495Q554 505 598 505Q658 505 694 486Q730 467 749 433Q768 399 774 352Q780 305 780 250V245H405Q406 196 413.5 152.5Q421 109 442 76Q463 43 500.5 24Q538 5 598 5Z" glyph-name="ae" horiz-adv-x="850" unicode="&#230;" /><glyph d="M363 262V486L216 262ZM670 250H375V12H710V0H363V250H208L45 0H29L358 500H710V488H375V262H670Z" glyph-name="ae.smcp" horiz-adv-x="775" /><glyph d="M1140 335H60V347H1140Z" glyph-name="afii00208" horiz-adv-x="1200" unicode="&#8213;" /><glyph d="M247 575 124 750H139L257 575ZM198 277Q175 275 153 268.5Q131 262 114 246.5Q97 231 87 205Q77 179 77 139Q77 115 84 91Q91 67 109.5 48Q128 29 159.5 17Q191 5 239 5Q290 5 335.5 19.5Q381 34 418 58V296ZM252 495Q205 495 167.5 488Q130 481 107 474V484Q122 489 141 493Q160 497 179.5 499.5Q199 502 218 503.5Q237 505 252 505Q308 505 343 495Q378 485 397.5 465Q417 445 423.5 416Q430 387 430 348V0H421L418 47Q403 36 381.5 26.5Q360 17 336 10Q312 3 286.5 -1Q261 -5 237 -5Q189 -5 156 6.5Q123 18 103 37.5Q83 57 74 83.5Q65 110 65 139Q65 215 99.5 248.5Q134 282 203 288L418 306V350Q418 389 411 416.5Q404 444 385 461.5Q366 479 334 487Q302 495 252 495Z" glyph-name="agrave" horiz-adv-x="510" unicode="&#224;" /><glyph d="M245 575 122 750H137L255 575ZM114 140H386L250 482ZM252 505 455 0H442L391 128H109L58 0H45L248 505Z" glyph-name="agrave.smcp" horiz-adv-x="500" /><glyph d="M389 708H115V720H389ZM198 277Q175 275 153 268.5Q131 262 114 246.5Q97 231 87 205Q77 179 77 139Q77 115 84 91Q91 67 109.5 48Q128 29 159.5 17Q191 5 239 5Q290 5 335.5 19.5Q381 34 418 58V296ZM252 495Q205 495 167.5 488Q130 481 107 474V484Q122 489 141 493Q160 497 179.5 499.5Q199 502 218 503.5Q237 505 252 505Q308 505 343 495Q378 485 397.5 465Q417 445 423.5 416Q430 387 430 348V0H421L418 47Q403 36 381.5 26.5Q360 17 336 10Q312 3 286.5 -1Q261 -5 237 -5Q189 -5 156 6.5Q123 18 103 37.5Q83 57 74 83.5Q65 110 65 139Q65 215 99.5 248.5Q134 282 203 288L418 306V350Q418 389 411 416.5Q404 444 385 461.5Q366 479 334 487Q302 495 252 495Z" glyph-name="amacron" horiz-adv-x="510" unicode="&#257;" /><glyph d="M387 708H113V720H387ZM114 140H386L250 482ZM252 505 455 0H442L391 128H109L58 0H45L248 505Z" glyph-name="amacron.smcp" horiz-adv-x="500" /><glyph d="M198 418Q176 410 152 395.5Q128 381 108 357.5Q88 334 75 301Q62 268 62 225Q62 165 81.5 123.5Q101 82 136.5 55.5Q172 29 221.5 17Q271 5 331 5Q373 5 416.5 13Q460 21 501 39Q442 66 394 106Q346 146 307.5 195.5Q269 245 241.5 301.5Q214 358 198 418ZM360 489Q386 497 418 501Q450 505 493 505Q535 505 569 492.5Q603 480 627.5 454Q652 428 665 386Q678 344 678 286Q678 241 666.5 202.5Q655 164 634.5 133.5Q614 103 586.5 79.5Q559 56 527 41Q566 24 607.5 15Q649 6 695 5V-5Q595 -2 513 34Q470 14 423.5 4.5Q377 -5 331 -5Q268 -5 216.5 7.5Q165 20 128 47.5Q91 75 70.5 119Q50 163 50 225Q50 267 62.5 300.5Q75 334 95.5 359.5Q116 385 142 402Q168 419 195 428Q171 515 171 601Q171 629 177 656.5Q183 684 200.5 706Q218 728 249.5 741.5Q281 755 331 755Q372 755 398.5 746.5Q425 738 440 724Q455 710 461 691Q467 672 467 651Q467 628 461.5 609Q456 590 454 585H444Q447 591 452 609Q457 627 457 651Q457 670 452 687Q447 704 433 717Q419 730 394.5 737.5Q370 745 331 745Q285 745 256 732.5Q227 720 210.5 699Q194 678 188 651.5Q182 625 182 597Q182 512 205 428Q228 344 271 270.5Q314 197 376 138Q438 79 515 45Q547 61 574.5 83.5Q602 106 622.5 136Q643 166 654.5 203.5Q666 241 666 286Q666 343 653.5 382.5Q641 422 618 447.5Q595 473 563.5 484.5Q532 496 493 496Q444 496 413.5 491Q383 486 360 479Z" glyph-name="ampersand" horiz-adv-x="735" unicode="&amp;" /><glyph d="M198 277Q175 275 153 268.5Q131 262 114 246.5Q97 231 87 205Q77 179 77 139Q77 115 84 91Q91 67 109.5 48Q128 29 159.5 17Q191 5 239 5Q290 5 335.5 19.5Q381 34 418 58V296ZM252 495Q205 495 167.5 488Q130 481 107 474V484Q122 489 141 493Q160 497 179.5 499.5Q199 502 218 503.5Q237 505 252 505Q308 505 343 495Q378 485 397.5 465Q417 445 423.5 416Q430 387 430 348V0Q410 -8 386.5 -21.5Q363 -35 343.5 -53.5Q324 -72 311 -95Q298 -118 298 -146Q298 -178 316 -199Q334 -220 382 -220Q397 -220 410.5 -218Q424 -216 435 -213V-223Q424 -226 410 -228Q396 -230 376 -230Q339 -230 312.5 -210.5Q286 -191 286 -150Q286 -120 297.5 -96Q309 -72 328 -53Q347 -34 371 -19.5Q395 -5 420 6L418 47Q403 36 381.5 26.5Q360 17 336 10Q312 3 286.5 -1Q261 -5 237 -5Q189 -5 156 6.5Q123 18 103 37.5Q83 57 74 83.5Q65 110 65 139Q65 215 99.5 248.5Q134 282 203 288L418 306V350Q418 389 411 416.5Q404 444 385 461.5Q366 479 334 487Q302 495 252 495Z" glyph-name="aogonek" horiz-adv-x="510" unicode="&#261;" /><glyph d="M114 140H386L250 482ZM252 505 455 0Q435 -8 411.5 -21.5Q388 -35 368.5 -53.5Q349 -72 336 -95Q323 -118 323 -146Q323 -178 341 -199Q359 -220 407 -220Q422 -220 435.5 -218Q449 -216 460 -213V-223Q449 -226 435 -228Q421 -230 401 -230Q364 -230 337.5 -210.5Q311 -191 311 -150Q311 -121 322 -97.5Q333 -74 351 -55Q369 -36 392.5 -21.5Q416 -7 440 4L391 128H109L58 0H45L248 505Z" glyph-name="aogonek.smcp" horiz-adv-x="500" /><glyph d="M134 63 321 250 134 437 143 446 330 259 517 446 526 437 339 250 526 63 517 54 330 241 143 54ZM92 12H568V488H92ZM80 0V500H580V0Z" glyph-name="approxequal" horiz-adv-x="660" unicode="&#8776;" /><glyph d="M333 662Q333 708 310.5 726Q288 744 252 744Q215 744 192 726Q169 708 169 662Q169 616 192 598Q215 580 252 580Q288 580 310.5 598Q333 616 333 662ZM345 662Q345 612 319.5 590.5Q294 569 252 569Q209 569 183.5 590.5Q158 612 158 662Q158 712 183.5 733.5Q209 755 252 755Q294 755 319.5 733.5Q345 712 345 662ZM198 277Q175 275 153 268.5Q131 262 114 246.5Q97 231 87 205Q77 179 77 139Q77 115 84 91Q91 67 109.5 48Q128 29 159.5 17Q191 5 239 5Q290 5 335.5 19.5Q381 34 418 58V296ZM252 495Q205 495 167.5 488Q130 481 107 474V484Q122 489 141 493Q160 497 179.5 499.5Q199 502 218 503.5Q237 505 252 505Q308 505 343 495Q378 485 397.5 465Q417 445 423.5 416Q430 387 430 348V0H421L418 47Q403 36 381.5 26.5Q360 17 336 10Q312 3 286.5 -1Q261 -5 237 -5Q189 -5 156 6.5Q123 18 103 37.5Q83 57 74 83.5Q65 110 65 139Q65 215 99.5 248.5Q134 282 203 288L418 306V350Q418 389 411 416.5Q404 444 385 461.5Q366 479 334 487Q302 495 252 495Z" glyph-name="aring" horiz-adv-x="510" unicode="&#229;" /><glyph d="M331 662Q331 708 308.5 726Q286 744 250 744Q213 744 190 726Q167 708 167 662Q167 616 190 598Q213 580 250 580Q286 580 308.5 598Q331 616 331 662ZM343 662Q343 612 317.5 590.5Q292 569 250 569Q207 569 181.5 590.5Q156 612 156 662Q156 712 181.5 733.5Q207 755 250 755Q292 755 317.5 733.5Q343 712 343 662ZM114 140H386L250 482ZM252 505 455 0H442L391 128H109L58 0H45L248 505Z" glyph-name="aring.smcp" horiz-adv-x="500" /><glyph d="M459 500 280 736 101 500H90L276 750H284L470 500Z" glyph-name="asciicircum" horiz-adv-x="540" unicode="^" /><glyph d="M335 364Q301 393 260 393Q235 393 218.5 382.5Q202 372 187 360Q172 348 155 337.5Q138 327 111 327Q85 327 66 335.5Q47 344 35 356V367Q69 338 110 338Q135 338 151.5 348.5Q168 359 183 371Q198 383 215 393.5Q232 404 259 404Q285 404 304 395.5Q323 387 335 375Z" glyph-name="asciitilde" horiz-adv-x="370" unicode="~" /><glyph d="M251 588 369 634 374 617 252 585ZM142 585 20 617 25 634 143 588ZM232 523 312 426 298 415 229 521ZM165 521 96 415 82 426 162 523ZM195 624 188 750H206L199 624Z" glyph-name="asterisk" horiz-adv-x="394" unicode="*" /><glyph d="M691 442Q656 465 608.5 480Q561 495 504 495Q442 495 404 474Q366 453 345.5 418.5Q325 384 318 340Q311 296 311 250Q311 204 318 160Q325 116 345.5 81.5Q366 47 404 26Q442 5 504 5Q561 5 608.5 20Q656 35 691 58ZM698 500H703V12H736Q819 12 870 39.5Q921 67 949 112.5Q977 158 986.5 218.5Q996 279 996 345Q996 448 981.5 523.5Q967 599 918.5 648Q870 697 777.5 721Q685 745 529 745Q426 745 350.5 727Q275 709 222 677Q169 645 136 599.5Q103 554 84 499Q65 444 58.5 381Q52 318 52 250Q52 183 58.5 120Q65 57 84 2Q103 -53 136 -98.5Q169 -144 222 -176.5Q275 -209 350.5 -227Q426 -245 529 -245Q610 -245 683 -235Q756 -225 803 -211V-224Q752 -240 681 -247.5Q610 -255 529 -255Q424 -255 347.5 -237Q271 -219 216.5 -186.5Q162 -154 127.5 -107.5Q93 -61 73.5 -5Q54 51 47 115.5Q40 180 40 250Q40 355 58 447Q76 539 128.5 607.5Q181 676 277 715.5Q373 755 529 755Q633 755 709.5 744.5Q786 734 839 712Q892 690 925 656.5Q958 623 976.5 577.5Q995 532 1001.5 474Q1008 416 1008 345Q1008 245 990 178.5Q972 112 937 72.5Q902 33 849.5 16.5Q797 0 728 0H698L691 47Q656 24 610 9.5Q564 -5 504 -5Q442 -5 402.5 15Q363 35 340 69.5Q317 104 308 150.5Q299 197 299 250Q299 303 308 349.5Q317 396 340 430.5Q363 465 402.5 485Q442 505 504 505Q564 505 610 490.5Q656 476 691 453Z" glyph-name="at" horiz-adv-x="1040" unicode="@" /><glyph d="M403 684Q394 610 325 610Q298 610 281 621Q264 632 249.5 645Q235 658 219.5 669Q204 680 179 680Q152 680 134 664Q116 648 112 616H101Q110 690 179 690Q206 690 223 679Q240 668 254.5 655Q269 642 284.5 631Q300 620 325 620Q352 620 370 636Q388 652 392 684ZM198 277Q175 275 153 268.5Q131 262 114 246.5Q97 231 87 205Q77 179 77 139Q77 115 84 91Q91 67 109.5 48Q128 29 159.5 17Q191 5 239 5Q290 5 335.5 19.5Q381 34 418 58V296ZM252 495Q205 495 167.5 488Q130 481 107 474V484Q122 489 141 493Q160 497 179.5 499.5Q199 502 218 503.5Q237 505 252 505Q308 505 343 495Q378 485 397.5 465Q417 445 423.5 416Q430 387 430 348V0H421L418 47Q403 36 381.5 26.5Q360 17 336 10Q312 3 286.5 -1Q261 -5 237 -5Q189 -5 156 6.5Q123 18 103 37.5Q83 57 74 83.5Q65 110 65 139Q65 215 99.5 248.5Q134 282 203 288L418 306V350Q418 389 411 416.5Q404 444 385 461.5Q366 479 334 487Q302 495 252 495Z" glyph-name="atilde" horiz-adv-x="510" unicode="&#227;" /><glyph d="M401 684Q392 610 323 610Q296 610 279 621Q262 632 247.5 645Q233 658 217.5 669Q202 680 177 680Q150 680 132 664Q114 648 110 616H99Q108 690 177 690Q204 690 221 679Q238 668 252.5 655Q267 642 282.5 631Q298 620 323 620Q350 620 368 636Q386 652 390 684ZM114 140H386L250 482ZM252 505 455 0H442L391 128H109L58 0H45L248 505Z" glyph-name="atilde.smcp" horiz-adv-x="500" /><glyph d="M97 58Q132 35 179.5 20Q227 5 284 5Q346 5 384 26Q422 47 442.5 81.5Q463 116 470 160Q477 204 477 250Q477 296 470 340Q463 384 442.5 418.5Q422 453 384 474Q346 495 284 495Q227 495 179.5 480Q132 465 97 442ZM97 453Q132 476 178 490.5Q224 505 284 505Q345 505 385 485Q425 465 448 430.5Q471 396 480 349.5Q489 303 489 250Q489 197 480 150.5Q471 104 448 69.5Q425 35 385 15Q345 -5 284 -5Q224 -5 178 9.5Q132 24 97 47L94 0H85V750H97Z" glyph-name="b" horiz-adv-x="559" unicode="b" /><glyph d="M285 280Q320 280 345.5 284.5Q371 289 387.5 300.5Q404 312 412 332Q420 352 420 384Q420 416 412 436Q404 456 387.5 467.5Q371 479 345 483.5Q319 488 284 488H102V280ZM102 268V12H308Q379 12 411 40.5Q443 69 443 140Q443 211 411 239.5Q379 268 308 268ZM457 140Q457 108 450.5 82Q444 56 427.5 38Q411 20 382.5 10Q354 0 310 0H90V500H292Q336 500 363.5 492.5Q391 485 407 470Q423 455 428.5 433.5Q434 412 434 384Q434 341 417.5 313.5Q401 286 359 275Q415 264 436 229Q457 194 457 140Z" glyph-name="b.smcp" horiz-adv-x="507" /><glyph d="M377 -206 30 816H43L390 -206Z" glyph-name="backslash" horiz-adv-x="420" unicode="\" /><glyph d="M117 -206V816H129V-206Z" glyph-name="bar" horiz-adv-x="246" unicode="|" /><glyph d="M34 299V311H41Q83 311 99.5 328Q116 345 114 387L95 730Q94 755 100.5 772Q107 789 119 798.5Q131 808 148.5 812Q166 816 188 816H195V804H188Q145 804 126 786.5Q107 769 109 731L128 387Q129 363 125 348Q121 333 113.5 324Q106 315 96 311Q86 307 74 305Q86 303 96 299Q106 295 113.5 286Q121 277 125 262Q129 247 128 223L109 -121Q107 -159 126 -176.5Q145 -194 188 -194H195V-206H188Q166 -206 148.5 -202Q131 -198 119 -188.5Q107 -179 100.5 -162.5Q94 -146 95 -120L114 223Q116 265 99.5 282Q83 299 41 299Z" glyph-name="braceleft" horiz-adv-x="240" unicode="{" /><glyph d="M199 299Q157 299 140.5 282Q124 265 126 223L145 -120Q146 -146 139.5 -162.5Q133 -179 121 -188.5Q109 -198 91.5 -202Q74 -206 52 -206H45V-194H52Q95 -194 114 -176.5Q133 -159 131 -121L112 223Q111 247 115 262Q119 277 126.5 286Q134 295 144 299Q154 303 166 305Q154 307 144 311Q134 315 126.5 324Q119 333 115 348Q111 363 112 387L131 731Q133 769 114 786.5Q95 804 52 804H45V816H52Q74 816 91.5 812Q109 808 121 798.5Q133 789 139.5 772Q146 755 145 730L126 387Q124 345 140.5 328Q157 311 199 311H206V299Z" glyph-name="braceright" horiz-adv-x="240" unicode="}" /><glyph d="M91 -194H208V-206H80V816H208V804H91Z" glyph-name="bracketleft" horiz-adv-x="253" unicode="[" /><glyph d="M162 804H45V816H173V-206H45V-194H162Z" glyph-name="bracketright" horiz-adv-x="253" unicode="]" /><glyph d="M280 550Q105 550 105 750H115Q116 661 154 610.5Q192 560 280 560Q368 560 406 610.5Q444 661 445 750H455Q455 550 280 550Z" glyph-name="breve" horiz-adv-x="540" unicode="&#728;" /><glyph d="M129 311H117V816H129ZM117 -206V299H129V-206Z" glyph-name="brokenbar" horiz-adv-x="246" unicode="&#166;" /><glyph d="M65 375Q65 403 75.5 427.5Q86 452 104.5 470.5Q123 489 147.5 499.5Q172 510 200 510Q228 510 252.5 499.5Q277 489 295.5 470.5Q314 452 324.5 427.5Q335 403 335 375Q335 347 324.5 322.5Q314 298 295.5 279.5Q277 261 252.5 250.5Q228 240 200 240Q172 240 147.5 250.5Q123 261 104.5 279.5Q86 298 75.5 322.5Q65 347 65 375Z" glyph-name="bullet" horiz-adv-x="400" unicode="&#8226;" /><glyph d="M70 250Q70 305 79 352Q88 399 111 433Q134 467 173.5 486Q213 505 275 505Q307 505 342.5 500.5Q378 496 410 486V476Q384 483 352.5 489Q321 495 275 495Q214 495 176.5 474.5Q139 454 118 420Q97 386 89.5 342Q82 298 82 250Q82 202 89.5 158Q97 114 118 80Q139 46 176.5 25.5Q214 5 275 5Q322 5 353 11Q384 17 410 24V14Q379 5 342.5 0Q306 -5 275 -5Q213 -5 173.5 14Q134 33 111 67Q88 101 79 148Q70 195 70 250Z" glyph-name="c" horiz-adv-x="475" unicode="c" /><glyph d="M70 250Q70 303 83 349.5Q96 396 124 430.5Q152 465 196.5 485Q241 505 304 505Q334 505 371.5 500Q409 495 439 486V476Q432 478 418 481.5Q404 485 385.5 488Q367 491 345.5 493Q324 495 302 495Q241 495 199 474.5Q157 454 131 420Q105 386 93.5 341.5Q82 297 82 250Q82 203 93.5 158.5Q105 114 131 80Q157 46 199 25.5Q241 5 302 5Q346 5 384 12Q422 19 439 24V14Q409 5 371.5 0Q334 -5 304 -5Q241 -5 196.5 15Q152 35 124 69.5Q96 104 83 150.5Q70 197 70 250Z" glyph-name="c.smcp" horiz-adv-x="504" /><glyph d="M260 575 378 750H393L270 575ZM70 250Q70 305 79 352Q88 399 111 433Q134 467 173.5 486Q213 505 275 505Q307 505 342.5 500.5Q378 496 410 486V476Q384 483 352.5 489Q321 495 275 495Q214 495 176.5 474.5Q139 454 118 420Q97 386 89.5 342Q82 298 82 250Q82 202 89.5 158Q97 114 118 80Q139 46 176.5 25.5Q214 5 275 5Q322 5 353 11Q384 17 410 24V14Q379 5 342.5 0Q306 -5 275 -5Q213 -5 173.5 14Q134 33 111 67Q88 101 79 148Q70 195 70 250Z" glyph-name="cacute" horiz-adv-x="475" unicode="&#263;" /><glyph d="M295 575 413 750H428L305 575ZM70 250Q70 303 83 349.5Q96 396 124 430.5Q152 465 196.5 485Q241 505 304 505Q334 505 371.5 500Q409 495 439 486V476Q432 478 418 481.5Q404 485 385.5 488Q367 491 345.5 493Q324 495 302 495Q241 495 199 474.5Q157 454 131 420Q105 386 93.5 341.5Q82 297 82 250Q82 203 93.5 158.5Q105 114 131 80Q157 46 199 25.5Q241 5 302 5Q346 5 384 12Q422 19 439 24V14Q409 5 371.5 0Q334 -5 304 -5Q241 -5 196.5 15Q152 35 124 69.5Q96 104 83 150.5Q70 197 70 250Z" glyph-name="cacute.smcp" horiz-adv-x="504" /><glyph d="M408 750 286 575H274L152 750H163L280 586L397 750Z" glyph-name="caron" horiz-adv-x="540" unicode="&#711;" /><glyph d="M194 550 220 750H234L203 550Z" glyph-name="caronSlovak" horiz-adv-x="234" /><glyph d="M393 750 271 575H259L137 750H148L265 586L382 750ZM70 250Q70 305 79 352Q88 399 111 433Q134 467 173.5 486Q213 505 275 505Q307 505 342.5 500.5Q378 496 410 486V476Q384 483 352.5 489Q321 495 275 495Q214 495 176.5 474.5Q139 454 118 420Q97 386 89.5 342Q82 298 82 250Q82 202 89.5 158Q97 114 118 80Q139 46 176.5 25.5Q214 5 275 5Q322 5 353 11Q384 17 410 24V14Q379 5 342.5 0Q306 -5 275 -5Q213 -5 173.5 14Q134 33 111 67Q88 101 79 148Q70 195 70 250Z" glyph-name="ccaron" horiz-adv-x="475" unicode="&#269;" /><glyph d="M428 750 306 575H294L172 750H183L300 586L417 750ZM70 250Q70 303 83 349.5Q96 396 124 430.5Q152 465 196.5 485Q241 505 304 505Q334 505 371.5 500Q409 495 439 486V476Q432 478 418 481.5Q404 485 385.5 488Q367 491 345.5 493Q324 495 302 495Q241 495 199 474.5Q157 454 131 420Q105 386 93.5 341.5Q82 297 82 250Q82 203 93.5 158.5Q105 114 131 80Q157 46 199 25.5Q241 5 302 5Q346 5 384 12Q422 19 439 24V14Q409 5 371.5 0Q334 -5 304 -5Q241 -5 196.5 15Q152 35 124 69.5Q96 104 83 150.5Q70 197 70 250Z" glyph-name="ccaron.smcp" horiz-adv-x="504" /><glyph d="M255 -185Q273 -176 284.5 -163.5Q296 -151 299 -138.5Q302 -126 296 -114.5Q290 -103 273 -96Q255 -88 249.5 -76Q244 -64 245.5 -51Q247 -38 254 -26Q261 -14 268 -5Q209 -4 170.5 15.5Q132 35 109.5 69Q87 103 78.5 149.5Q70 196 70 250Q70 305 79 352Q88 399 111 433Q134 467 173.5 486Q213 505 275 505Q307 505 342.5 500.5Q378 496 410 486V476Q384 483 352.5 489Q321 495 275 495Q214 495 176.5 474.5Q139 454 118 420Q97 386 89.5 342Q82 298 82 250Q82 202 89.5 158Q97 114 118 80Q139 46 176.5 25.5Q214 5 275 5Q322 5 353 11Q384 17 410 24V14Q380 5 345 0.5Q310 -4 279 -5Q271 -13 264 -24.5Q257 -36 255 -47.5Q253 -59 257 -70Q261 -81 276 -87Q298 -96 305.5 -110Q313 -124 310 -138Q307 -152 296 -165Q285 -178 270 -185Z" glyph-name="ccedilla" horiz-adv-x="475" unicode="&#231;" /><glyph d="M42 250Q42 303 55 349.5Q68 396 96 430.5Q124 465 168.5 485Q213 505 276 505Q306 505 343.5 500Q381 495 411 486V476Q404 478 390 481.5Q376 485 357.5 488Q339 491 317.5 493Q296 495 274 495Q213 495 171 474.5Q129 454 103 420Q77 386 65.5 341.5Q54 297 54 250Q54 203 65.5 158.5Q77 114 103 80Q129 46 171 25.5Q213 5 274 5Q318 5 356 12Q394 19 411 24V14Q382 5 345.5 0.5Q309 -4 279 -5Q271 -13 264 -24.5Q257 -36 255 -47.5Q253 -59 257 -70Q261 -81 276 -87Q298 -96 305.5 -110Q313 -124 310 -138Q307 -152 296 -165Q285 -178 270 -185H255Q273 -176 284.5 -163.5Q296 -151 299 -138.5Q302 -126 296 -114.5Q290 -103 273 -96Q255 -88 249.5 -76Q244 -64 245.5 -51Q247 -38 254 -26Q261 -14 268 -5Q207 -4 164 16.5Q121 37 94 71.5Q67 106 54.5 151.5Q42 197 42 250Z" glyph-name="ccedilla.smcp" horiz-adv-x="475" /><glyph d="M382 575 265 739 148 575H137L259 750H271L393 575ZM70 250Q70 305 79 352Q88 399 111 433Q134 467 173.5 486Q213 505 275 505Q307 505 342.5 500.5Q378 496 410 486V476Q384 483 352.5 489Q321 495 275 495Q214 495 176.5 474.5Q139 454 118 420Q97 386 89.5 342Q82 298 82 250Q82 202 89.5 158Q97 114 118 80Q139 46 176.5 25.5Q214 5 275 5Q322 5 353 11Q384 17 410 24V14Q379 5 342.5 0Q306 -5 275 -5Q213 -5 173.5 14Q134 33 111 67Q88 101 79 148Q70 195 70 250Z" glyph-name="ccircumflex" horiz-adv-x="475" unicode="&#265;" /><glyph d="M417 575 300 739 183 575H172L294 750H306L428 575ZM70 250Q70 303 83 349.5Q96 396 124 430.5Q152 465 196.5 485Q241 505 304 505Q334 505 371.5 500Q409 495 439 486V476Q432 478 418 481.5Q404 485 385.5 488Q367 491 345.5 493Q324 495 302 495Q241 495 199 474.5Q157 454 131 420Q105 386 93.5 341.5Q82 297 82 250Q82 203 93.5 158.5Q105 114 131 80Q157 46 199 25.5Q241 5 302 5Q346 5 384 12Q422 19 439 24V14Q409 5 371.5 0Q334 -5 304 -5Q241 -5 196.5 15Q152 35 124 69.5Q96 104 83 150.5Q70 197 70 250Z" glyph-name="ccircumflex.smcp" horiz-adv-x="504" /><glyph d="M260 700Q260 706 264.5 710.5Q269 715 275 715Q281 715 285.5 710.5Q290 706 290 700Q290 694 285.5 689.5Q281 685 275 685Q269 685 264.5 689.5Q260 694 260 700ZM70 250Q70 305 79 352Q88 399 111 433Q134 467 173.5 486Q213 505 275 505Q307 505 342.5 500.5Q378 496 410 486V476Q384 483 352.5 489Q321 495 275 495Q214 495 176.5 474.5Q139 454 118 420Q97 386 89.5 342Q82 298 82 250Q82 202 89.5 158Q97 114 118 80Q139 46 176.5 25.5Q214 5 275 5Q322 5 353 11Q384 17 410 24V14Q379 5 342.5 0Q306 -5 275 -5Q213 -5 173.5 14Q134 33 111 67Q88 101 79 148Q70 195 70 250Z" glyph-name="cdotaccent" horiz-adv-x="475" unicode="&#267;" /><glyph d="M285 700Q285 706 289.5 710.5Q294 715 300 715Q306 715 310.5 710.5Q315 706 315 700Q315 694 310.5 689.5Q306 685 300 685Q294 685 289.5 689.5Q285 694 285 700ZM70 250Q70 303 83 349.5Q96 396 124 430.5Q152 465 196.5 485Q241 505 304 505Q334 505 371.5 500Q409 495 439 486V476Q432 478 418 481.5Q404 485 385.5 488Q367 491 345.5 493Q324 495 302 495Q241 495 199 474.5Q157 454 131 420Q105 386 93.5 341.5Q82 297 82 250Q82 203 93.5 158.5Q105 114 131 80Q157 46 199 25.5Q241 5 302 5Q346 5 384 12Q422 19 439 24V14Q409 5 371.5 0Q334 -5 304 -5Q241 -5 196.5 15Q152 35 124 69.5Q96 104 83 150.5Q70 197 70 250Z" glyph-name="cdotaccent.smcp" horiz-adv-x="504" /><glyph d="M255 -185Q273 -176 284.5 -163.5Q296 -151 299 -138.5Q302 -126 296 -114.5Q290 -103 273 -96Q253 -88 248 -75Q243 -62 246 -48Q249 -34 257.5 -21Q266 -8 273 0H285Q277 -7 268.5 -19Q260 -31 256.5 -43.5Q253 -56 256.5 -68Q260 -80 276 -87Q298 -96 305.5 -110Q313 -124 310 -138Q307 -152 296 -165Q285 -178 270 -185Z" glyph-name="cedilla" horiz-adv-x="540" unicode="&#184;" /><glyph d="M70 375Q70 433 85 480Q100 527 134.5 559.5Q169 592 225 609.5Q281 627 362 627Q373 627 384.5 626.5Q396 626 408 625L453 750H465L419 624Q449 620 477 614.5Q505 609 525 602V592Q500 600 460 608.5Q420 617 360 617Q283 617 230 600Q177 583 144 551.5Q111 520 96.5 475Q82 430 82 375Q82 320 96.5 275Q111 230 144 198.5Q177 167 230 150Q283 133 360 133Q420 133 460 141.5Q500 150 525 158V148Q495 137 450 130Q405 123 362 123Q304 123 259 132L212 0H200L249 134Q151 156 110.5 218.5Q70 281 70 375Z" glyph-name="cent" horiz-adv-x="600" unicode="&#162;" /><glyph d="M311 5Q358 5 389 11Q420 17 446 24V14Q415 5 378.5 0Q342 -5 311 -5Q268 -5 234 1L188 -129H176L224 3Q147 20 107.5 77.5Q68 135 68 250Q68 322 84 371Q100 420 130.5 449.5Q161 479 206.5 492Q252 505 311 505Q319 505 327 504.5Q335 504 343 504L388 629H400L354 503Q401 500 446 486V476Q420 483 388.5 489Q357 495 311 495Q260 495 218 484.5Q176 474 145 446.5Q114 419 97 371.5Q80 324 80 250Q80 176 97 128.5Q114 81 145 53.5Q176 26 218 15.5Q260 5 311 5Z" glyph-name="cent.OP" horiz-adv-x="500" /><glyph d="M397 575 280 739 163 575H152L274 750H286L408 575Z" glyph-name="circumflex" horiz-adv-x="540" unicode="&#710;" /><glyph d="M75 375Q75 381 79.5 385.5Q84 390 90 390Q96 390 100.5 385.5Q105 381 105 375Q105 369 100.5 364.5Q96 360 90 360Q84 360 79.5 364.5Q75 369 75 375ZM75 10Q75 16 79.5 20.5Q84 25 90 25Q96 25 100.5 20.5Q105 16 105 10Q105 4 100.5 -0.5Q96 -5 90 -5Q84 -5 79.5 -0.5Q75 4 75 10Z" glyph-name="colon" horiz-adv-x="180" unicode=":" /><glyph d="M75 10Q75 16 79.5 20.5Q84 25 90 25Q96 25 100.5 20.5Q105 16 105 10Q105 7 103 1L60 -114H59L87 -5Q75 -2 75 10Z" glyph-name="comma" horiz-adv-x="180" unicode="," /><glyph d="M266 -120Q266 -114 270.5 -109.5Q275 -105 281 -105Q287 -105 291.5 -109.5Q296 -114 296 -120Q296 -123 294 -129L249 -250H248L278 -135Q266 -132 266 -120Z" glyph-name="commaaccent" horiz-adv-x="540" /><glyph d="M195 250Q195 283 203 312Q211 341 229 362.5Q247 384 275 396Q303 408 342 408Q362 408 386 404.5Q410 401 428 396V385Q410 390 389.5 393.5Q369 397 340 397Q270 397 238.5 355.5Q207 314 207 250Q207 186 238.5 144.5Q270 103 340 103Q369 103 389.5 106.5Q410 110 428 115V104Q408 97 385.5 94.5Q363 92 342 92Q303 92 275 104Q247 116 229 137.5Q211 159 203 188Q195 217 195 250ZM584 250Q584 370 527 432.5Q470 495 335 495Q266 495 218.5 479Q171 463 141.5 432.5Q112 402 99 356Q86 310 86 250Q86 190 99 144Q112 98 141.5 67.5Q171 37 218.5 21Q266 5 335 5Q470 5 527 67.5Q584 130 584 250ZM74 250Q74 378 135 441.5Q196 505 335 505Q474 505 535 441.5Q596 378 596 250Q596 122 535 58.5Q474 -5 335 -5Q196 -5 135 58.5Q74 122 74 250Z" glyph-name="copyright" horiz-adv-x="670" unicode="&#169;" /><glyph d="M467 440H129Q127 424 127 408Q127 392 127 375Q127 358 127 341.5Q127 325 129 310H413L408 298H130Q142 147 205.5 76Q269 5 387 5Q457 5 496 13Q535 21 561 30V19Q537 11 495 3Q453 -5 387 -5Q258 -5 193.5 72Q129 149 118 298H36V310H117Q115 325 115 341.5Q115 358 115 375Q115 392 115 408Q115 424 117 440H36V452H118Q129 600 193.5 677.5Q258 755 387 755Q453 755 495 747Q537 739 561 731V720Q535 729 496 737Q457 745 387 745Q269 745 205.5 674Q142 603 130 452H472Z" glyph-name="currency" horiz-adv-x="600" unicode="&#164;" /><glyph d="M462 442Q427 465 379.5 480Q332 495 275 495Q213 495 175 474Q137 453 116.5 418.5Q96 384 89 340Q82 296 82 250Q82 204 89 160Q96 116 116.5 81.5Q137 47 175 26Q213 5 275 5Q332 5 379.5 20Q427 35 462 58ZM462 750H474V0H465L462 47Q427 24 381 9.5Q335 -5 275 -5Q213 -5 173.5 15Q134 35 111 69.5Q88 104 79 150.5Q70 197 70 250Q70 303 79 349.5Q88 396 111 430.5Q134 465 173.5 485Q213 505 275 505Q335 505 381 490.5Q427 476 462 453Z" glyph-name="d" horiz-adv-x="559" unicode="d" /><glyph d="M263 12Q321 12 361.5 28.5Q402 45 427 75.5Q452 106 463.5 150Q475 194 475 250Q475 305 463.5 349.5Q452 394 427 424.5Q402 455 361.5 471.5Q321 488 263 488H102V12ZM90 0V500H259Q323 500 366.5 482.5Q410 465 437 433Q464 401 475.5 354.5Q487 308 487 250Q487 192 475.5 145.5Q464 99 437 67Q410 35 366.5 17.5Q323 0 259 0Z" glyph-name="d.smcp" horiz-adv-x="557" /><glyph d="M164 578 23 571V589L164 582ZM222 582 363 589V571L222 578ZM191 609 184 750H202L195 609ZM195 551 202 301H184L191 551Z" glyph-name="dagger" horiz-adv-x="386" unicode="&#8224;" /><glyph d="M191 609 184 750H202L195 609ZM164 277 23 270V288L164 281ZM164 578 23 571V589L164 582ZM222 281 363 288V270L222 277ZM222 582 363 589V571L222 578ZM195 551 201 430 195 308H191L185 430L191 551ZM195 250 202 0H184L191 250Z" glyph-name="daggerdbl" horiz-adv-x="386" unicode="&#8225;" /><glyph d="M532 550 558 750H572L541 550ZM462 442Q427 465 379.5 480Q332 495 275 495Q213 495 175 474Q137 453 116.5 418.5Q96 384 89 340Q82 296 82 250Q82 204 89 160Q96 116 116.5 81.5Q137 47 175 26Q213 5 275 5Q332 5 379.5 20Q427 35 462 58ZM462 750H474V0H465L462 47Q427 24 381 9.5Q335 -5 275 -5Q213 -5 173.5 15Q134 35 111 69.5Q88 104 79 150.5Q70 197 70 250Q70 303 79 349.5Q88 396 111 430.5Q134 465 173.5 485Q213 505 275 505Q335 505 381 490.5Q427 476 462 453Z" glyph-name="dcaron" horiz-adv-x="559" unicode="&#271;" /><glyph d="M387 750 265 575H253L131 750H142L259 586L376 750ZM263 12Q321 12 361.5 28.5Q402 45 427 75.5Q452 106 463.5 150Q475 194 475 250Q475 305 463.5 349.5Q452 394 427 424.5Q402 455 361.5 471.5Q321 488 263 488H102V12ZM90 0V500H259Q323 500 366.5 482.5Q410 465 437 433Q464 401 475.5 354.5Q487 308 487 250Q487 192 475.5 145.5Q464 99 437 67Q410 35 366.5 17.5Q323 0 259 0Z" glyph-name="dcaron.smcp" horiz-adv-x="557" /><glyph d="M462 442Q427 465 379.5 480Q332 495 275 495Q213 495 175 474Q137 453 116.5 418.5Q96 384 89 340Q82 296 82 250Q82 204 89 160Q96 116 116.5 81.5Q137 47 175 26Q213 5 275 5Q332 5 379.5 20Q427 35 462 58ZM584 630H474V0H465L462 47Q427 24 381 9.5Q335 -5 275 -5Q213 -5 173.5 15Q134 35 111 69.5Q88 104 79 150.5Q70 197 70 250Q70 303 79 349.5Q88 396 111 430.5Q134 465 173.5 485Q213 505 275 505Q335 505 381 490.5Q427 476 462 453V630H289V640H462V750H474V640H584Z" glyph-name="dcroat" horiz-adv-x="559" unicode="&#273;" /><glyph d="M290 12Q348 12 388.5 28.5Q429 45 454 75.5Q479 106 490.5 150Q502 194 502 250Q502 305 490.5 349.5Q479 394 454 424.5Q429 455 388.5 471.5Q348 488 290 488H129V256H278V244H129V12ZM117 0V244H25V256H117V500H286Q350 500 393.5 482.5Q437 465 464 433Q491 401 502.5 354.5Q514 308 514 250Q514 192 502.5 145.5Q491 99 464 67Q437 35 393.5 17.5Q350 0 286 0Z" glyph-name="dcroat.smcp" horiz-adv-x="589" /><glyph d="M183 744Q122 744 92 716Q62 688 62 625Q62 562 92 534Q122 506 183 506Q244 506 274 534Q304 562 304 625Q304 688 274 716Q244 744 183 744ZM183 495Q159 495 135 500Q111 505 92 519Q73 533 61.5 558.5Q50 584 50 625Q50 667 61.5 692.5Q73 718 92 732Q111 746 135 750.5Q159 755 183 755Q207 755 231 750.5Q255 746 274 732Q293 718 304.5 692.5Q316 667 316 625Q316 584 304.5 558.5Q293 533 274 519Q255 505 231 500Q207 495 183 495Z" glyph-name="degree" horiz-adv-x="366" unicode="&#176;" /><glyph d="M307 700Q307 706 311.5 710.5Q316 715 322 715Q328 715 332.5 710.5Q337 706 337 700Q337 694 332.5 689.5Q328 685 322 685Q316 685 311.5 689.5Q307 694 307 700ZM117 700Q117 706 121.5 710.5Q126 715 132 715Q138 715 142.5 710.5Q147 706 147 700Q147 694 142.5 689.5Q138 685 132 685Q126 685 121.5 689.5Q117 694 117 700Z" glyph-name="dieresis" horiz-adv-x="540" unicode="&#168;" /><glyph d="M245 490Q245 496 249.5 500.5Q254 505 260 505Q266 505 270.5 500.5Q275 496 275 490Q275 484 270.5 479.5Q266 475 260 475Q254 475 249.5 479.5Q245 484 245 490ZM245 192Q245 198 249.5 202.5Q254 207 260 207Q266 207 270.5 202.5Q275 198 275 192Q275 186 270.5 181.5Q266 177 260 177Q254 177 249.5 181.5Q245 186 245 192ZM460 335H60V347H460Z" glyph-name="divide" horiz-adv-x="520" unicode="&#247;" /><glyph d="M276 133Q329 133 373 140Q417 147 448 162Q479 177 496 202Q513 227 513 263Q513 300 497.5 321Q482 342 454.5 353Q427 364 388 368.5Q349 373 303 377Q249 381 206.5 386Q164 391 135 402Q106 413 90.5 434Q75 455 75 492Q75 565 133 596Q191 627 312 627Q323 627 334.5 626.5Q346 626 358 625L403 750H415L369 624Q411 621 450 614Q489 607 511 599V589Q496 593 473.5 598Q451 603 424.5 607Q398 611 369 614Q340 617 312 617Q261 617 219.5 611.5Q178 606 148.5 592Q119 578 103 553.5Q87 529 87 492Q87 458 102 439Q117 420 144.5 410.5Q172 401 211.5 397Q251 393 300 389Q355 385 397 379.5Q439 374 467.5 361.5Q496 349 510.5 326Q525 303 525 263Q525 193 466.5 158Q408 123 276 123Q268 123 259.5 123Q251 123 243 124L199 0H187L232 124Q188 127 144.5 135Q101 143 78 151V161Q93 157 115.5 152Q138 147 164.5 143Q191 139 219.5 136Q248 133 276 133Z" glyph-name="dollar" horiz-adv-x="600" unicode="$" /><glyph d="M217 5Q270 5 305 15.5Q340 26 361 43Q382 60 390.5 83Q399 106 399 130Q399 160 391.5 181Q384 202 366 216.5Q348 231 318 240Q288 249 243 254Q192 260 159.5 268Q127 276 108.5 290Q90 304 82.5 324.5Q75 345 75 375Q75 403 84 427Q93 451 114 468Q135 485 169 495Q203 505 253 505Q261 505 269 504.5Q277 504 285 504L330 629H342L296 503Q343 500 388 486V476Q362 483 330.5 489Q299 495 253 495Q207 495 175 486Q143 477 123.5 461Q104 445 95.5 423Q87 401 87 375Q87 345 95 326Q103 307 121 295Q139 283 168.5 276Q198 269 242 264Q290 258 322.5 249.5Q355 241 374.5 226Q394 211 402.5 188Q411 165 411 131Q411 105 402 80.5Q393 56 370.5 37Q348 18 311 6.5Q274 -5 217 -5Q211 -5 205.5 -5Q200 -5 194 -4L150 -129H138L183 -4Q157 -2 131.5 2Q106 6 83 14V24Q109 17 140 11Q171 5 217 5Z" glyph-name="dollar.OP" horiz-adv-x="490" /><glyph d="M265 700Q265 706 269.5 710.5Q274 715 280 715Q286 715 290.5 710.5Q295 706 295 700Q295 694 290.5 689.5Q286 685 280 685Q274 685 269.5 689.5Q265 694 265 700Z" glyph-name="dotaccent" horiz-adv-x="540" unicode="&#729;" /><glyph d="M266 -120Q266 -114 270.5 -109.5Q275 -105 281 -105Q287 -105 291.5 -109.5Q296 -114 296 -120Q296 -126 291.5 -130.5Q287 -135 281 -135Q275 -135 270.5 -130.5Q266 -126 266 -120Z" glyph-name="dotbelow" horiz-adv-x="540" /><glyph d="M154 -5Q119 -5 106.5 6Q94 17 94 44V500H106V41Q106 21 116.5 13Q127 5 154 5Z" glyph-name="dotlessi" horiz-adv-x="234" unicode="&#305;" /><glyph d="M198 575 75 750H90L208 575ZM310 575 187 750H202L320 575Z" glyph-name="doublegrave" horiz-adv-x="540" /><glyph d="M445 255Q445 302 440.5 345.5Q436 389 419 422Q402 455 368 475Q334 495 275 495Q215 495 177.5 476Q140 457 119 424Q98 391 90.5 347.5Q83 304 82 255ZM275 5Q329 5 366 13.5Q403 22 431 30V20Q401 10 358 2.5Q315 -5 275 -5Q213 -5 173.5 14Q134 33 111 66.5Q88 100 79 147Q70 194 70 250Q70 306 79 353Q88 400 111 433.5Q134 467 173.5 486Q213 505 275 505Q335 505 371 486Q407 467 426 433Q445 399 451 352Q457 305 457 250V245H82Q83 196 90.5 152.5Q98 109 119 76Q140 43 177.5 24Q215 5 275 5Z" glyph-name="e" horiz-adv-x="527" unicode="e" /><glyph d="M397 250H102V12H437V0H90V500H437V488H102V262H397Z" glyph-name="e.smcp" horiz-adv-x="502" /><glyph d="M270 575 388 750H403L280 575ZM445 255Q445 302 440.5 345.5Q436 389 419 422Q402 455 368 475Q334 495 275 495Q215 495 177.5 476Q140 457 119 424Q98 391 90.5 347.5Q83 304 82 255ZM275 5Q329 5 366 13.5Q403 22 431 30V20Q401 10 358 2.5Q315 -5 275 -5Q213 -5 173.5 14Q134 33 111 66.5Q88 100 79 147Q70 194 70 250Q70 306 79 353Q88 400 111 433.5Q134 467 173.5 486Q213 505 275 505Q335 505 371 486Q407 467 426 433Q445 399 451 352Q457 305 457 250V245H82Q83 196 90.5 152.5Q98 109 119 76Q140 43 177.5 24Q215 5 275 5Z" glyph-name="eacute" horiz-adv-x="527" unicode="&#233;" /><glyph d="M259 575 377 750H392L269 575ZM397 250H102V12H437V0H90V500H437V488H102V262H397Z" glyph-name="eacute.smcp" horiz-adv-x="502" /><glyph d="M275 550Q100 550 100 750H110Q111 661 149 610.5Q187 560 275 560Q363 560 401 610.5Q439 661 440 750H450Q450 550 275 550ZM445 255Q445 302 440.5 345.5Q436 389 419 422Q402 455 368 475Q334 495 275 495Q215 495 177.5 476Q140 457 119 424Q98 391 90.5 347.5Q83 304 82 255ZM275 5Q329 5 366 13.5Q403 22 431 30V20Q401 10 358 2.5Q315 -5 275 -5Q213 -5 173.5 14Q134 33 111 66.5Q88 100 79 147Q70 194 70 250Q70 306 79 353Q88 400 111 433.5Q134 467 173.5 486Q213 505 275 505Q335 505 371 486Q407 467 426 433Q445 399 451 352Q457 305 457 250V245H82Q83 196 90.5 152.5Q98 109 119 76Q140 43 177.5 24Q215 5 275 5Z" glyph-name="ebreve" horiz-adv-x="527" unicode="&#277;" /><glyph d="M264 550Q89 550 89 750H99Q100 661 138 610.5Q176 560 264 560Q352 560 390 610.5Q428 661 429 750H439Q439 550 264 550ZM397 250H102V12H437V0H90V500H437V488H102V262H397Z" glyph-name="ebreve.smcp" horiz-adv-x="502" /><glyph d="M403 750 281 575H269L147 750H158L275 586L392 750ZM445 255Q445 302 440.5 345.5Q436 389 419 422Q402 455 368 475Q334 495 275 495Q215 495 177.5 476Q140 457 119 424Q98 391 90.5 347.5Q83 304 82 255ZM275 5Q329 5 366 13.5Q403 22 431 30V20Q401 10 358 2.5Q315 -5 275 -5Q213 -5 173.5 14Q134 33 111 66.5Q88 100 79 147Q70 194 70 250Q70 306 79 353Q88 400 111 433.5Q134 467 173.5 486Q213 505 275 505Q335 505 371 486Q407 467 426 433Q445 399 451 352Q457 305 457 250V245H82Q83 196 90.5 152.5Q98 109 119 76Q140 43 177.5 24Q215 5 275 5Z" glyph-name="ecaron" horiz-adv-x="527" unicode="&#283;" /><glyph d="M392 750 270 575H258L136 750H147L264 586L381 750ZM397 250H102V12H437V0H90V500H437V488H102V262H397Z" glyph-name="ecaron.smcp" horiz-adv-x="502" /><glyph d="M392 575 275 739 158 575H147L269 750H281L403 575ZM445 255Q445 302 440.5 345.5Q436 389 419 422Q402 455 368 475Q334 495 275 495Q215 495 177.5 476Q140 457 119 424Q98 391 90.5 347.5Q83 304 82 255ZM275 5Q329 5 366 13.5Q403 22 431 30V20Q401 10 358 2.5Q315 -5 275 -5Q213 -5 173.5 14Q134 33 111 66.5Q88 100 79 147Q70 194 70 250Q70 306 79 353Q88 400 111 433.5Q134 467 173.5 486Q213 505 275 505Q335 505 371 486Q407 467 426 433Q445 399 451 352Q457 305 457 250V245H82Q83 196 90.5 152.5Q98 109 119 76Q140 43 177.5 24Q215 5 275 5Z" glyph-name="ecircumflex" horiz-adv-x="527" unicode="&#234;" /><glyph d="M381 575 264 739 147 575H136L258 750H270L392 575ZM397 250H102V12H437V0H90V500H437V488H102V262H397Z" glyph-name="ecircumflex.smcp" horiz-adv-x="502" /><glyph d="M355 700Q355 706 359.5 710.5Q364 715 370 715Q376 715 380.5 710.5Q385 706 385 700Q385 694 380.5 689.5Q376 685 370 685Q364 685 359.5 689.5Q355 694 355 700ZM165 700Q165 706 169.5 710.5Q174 715 180 715Q186 715 190.5 710.5Q195 706 195 700Q195 694 190.5 689.5Q186 685 180 685Q174 685 169.5 689.5Q165 694 165 700ZM445 255Q445 302 440.5 345.5Q436 389 419 422Q402 455 368 475Q334 495 275 495Q215 495 177.5 476Q140 457 119 424Q98 391 90.5 347.5Q83 304 82 255ZM275 5Q329 5 366 13.5Q403 22 431 30V20Q401 10 358 2.5Q315 -5 275 -5Q213 -5 173.5 14Q134 33 111 66.5Q88 100 79 147Q70 194 70 250Q70 306 79 353Q88 400 111 433.5Q134 467 173.5 486Q213 505 275 505Q335 505 371 486Q407 467 426 433Q445 399 451 352Q457 305 457 250V245H82Q83 196 90.5 152.5Q98 109 119 76Q140 43 177.5 24Q215 5 275 5Z" glyph-name="edieresis" horiz-adv-x="527" unicode="&#235;" /><glyph d="M154 700Q154 706 158.5 710.5Q163 715 169 715Q175 715 179.5 710.5Q184 706 184 700Q184 694 179.5 689.5Q175 685 169 685Q163 685 158.5 689.5Q154 694 154 700ZM344 700Q344 706 348.5 710.5Q353 715 359 715Q365 715 369.5 710.5Q374 706 374 700Q374 694 369.5 689.5Q365 685 359 685Q353 685 348.5 689.5Q344 694 344 700ZM397 250H102V12H437V0H90V500H437V488H102V262H397Z" glyph-name="edieresis.smcp" horiz-adv-x="502" /><glyph d="M260 700Q260 706 264.5 710.5Q269 715 275 715Q281 715 285.5 710.5Q290 706 290 700Q290 694 285.5 689.5Q281 685 275 685Q269 685 264.5 689.5Q260 694 260 700ZM445 255Q445 302 440.5 345.5Q436 389 419 422Q402 455 368 475Q334 495 275 495Q215 495 177.5 476Q140 457 119 424Q98 391 90.5 347.5Q83 304 82 255ZM275 5Q329 5 366 13.5Q403 22 431 30V20Q401 10 358 2.5Q315 -5 275 -5Q213 -5 173.5 14Q134 33 111 66.5Q88 100 79 147Q70 194 70 250Q70 306 79 353Q88 400 111 433.5Q134 467 173.5 486Q213 505 275 505Q335 505 371 486Q407 467 426 433Q445 399 451 352Q457 305 457 250V245H82Q83 196 90.5 152.5Q98 109 119 76Q140 43 177.5 24Q215 5 275 5Z" glyph-name="edotaccent" horiz-adv-x="527" unicode="&#279;" /><glyph d="M249 700Q249 706 253.5 710.5Q258 715 264 715Q270 715 274.5 710.5Q279 706 279 700Q279 694 274.5 689.5Q270 685 264 685Q258 685 253.5 689.5Q249 694 249 700ZM397 250H102V12H437V0H90V500H437V488H102V262H397Z" glyph-name="edotaccent.smcp" horiz-adv-x="502" /><glyph d="M270 575 147 750H162L280 575ZM445 255Q445 302 440.5 345.5Q436 389 419 422Q402 455 368 475Q334 495 275 495Q215 495 177.5 476Q140 457 119 424Q98 391 90.5 347.5Q83 304 82 255ZM275 5Q329 5 366 13.5Q403 22 431 30V20Q401 10 358 2.5Q315 -5 275 -5Q213 -5 173.5 14Q134 33 111 66.5Q88 100 79 147Q70 194 70 250Q70 306 79 353Q88 400 111 433.5Q134 467 173.5 486Q213 505 275 505Q335 505 371 486Q407 467 426 433Q445 399 451 352Q457 305 457 250V245H82Q83 196 90.5 152.5Q98 109 119 76Q140 43 177.5 24Q215 5 275 5Z" glyph-name="egrave" horiz-adv-x="527" unicode="&#232;" /><glyph d="M259 575 136 750H151L269 575ZM397 250H102V12H437V0H90V500H437V488H102V262H397Z" glyph-name="egrave.smcp" horiz-adv-x="502" /><glyph d="M300 745Q237 745 196.5 731Q156 717 132.5 693Q109 669 100 637Q91 605 91 569Q91 533 100 501Q109 469 132.5 445Q156 421 196.5 407Q237 393 300 393Q363 393 403.5 407Q444 421 467.5 445Q491 469 500 501Q509 533 509 569Q509 605 500 637Q491 669 467.5 693Q444 717 403.5 731Q363 745 300 745ZM300 5Q369 5 414.5 19Q460 33 487 58.5Q514 84 525.5 118.5Q537 153 537 194Q537 235 525.5 269.5Q514 304 487 329.5Q460 355 414.5 369Q369 383 300 383Q231 383 185.5 369Q140 355 113 329.5Q86 304 74.5 269.5Q63 235 63 194Q63 153 74.5 118.5Q86 84 113 58.5Q140 33 185.5 19Q231 5 300 5ZM300 755Q362 755 404.5 742.5Q447 730 473 706Q499 682 510 647.5Q521 613 521 569Q521 495 487 448.5Q453 402 371 388Q468 374 508.5 323.5Q549 273 549 194Q549 148 536 111Q523 74 494 48.5Q465 23 417 9Q369 -5 300 -5Q231 -5 183 9Q135 23 106 48.5Q77 74 64 111Q51 148 51 194Q51 233 60.5 266Q70 299 91 323.5Q112 348 146 364.5Q180 381 229 388Q188 395 159.5 410.5Q131 426 113 449Q95 472 87 502Q79 532 79 569Q79 613 90 647.5Q101 682 127 706Q153 730 195.5 742.5Q238 755 300 755Z" glyph-name="eight" horiz-adv-x="600" unicode="8" /><glyph d="M300 745Q237 745 196.5 731Q156 717 132.5 693Q109 669 100 637Q91 605 91 569Q91 533 100 501Q109 469 132.5 445Q156 421 196.5 407Q237 393 300 393Q363 393 403.5 407Q444 421 467.5 445Q491 469 500 501Q509 533 509 569Q509 605 500 637Q491 669 467.5 693Q444 717 403.5 731Q363 745 300 745ZM300 5Q369 5 414.5 19Q460 33 487 58.5Q514 84 525.5 118.5Q537 153 537 194Q537 235 525.5 269.5Q514 304 487 329.5Q460 355 414.5 369Q369 383 300 383Q231 383 185.5 369Q140 355 113 329.5Q86 304 74.5 269.5Q63 235 63 194Q63 153 74.5 118.5Q86 84 113 58.5Q140 33 185.5 19Q231 5 300 5ZM300 755Q362 755 404.5 742.5Q447 730 473 706Q499 682 510 647.5Q521 613 521 569Q521 495 487 448.5Q453 402 371 388Q468 374 508.5 323.5Q549 273 549 194Q549 148 536 111Q523 74 494 48.5Q465 23 417 9Q369 -5 300 -5Q231 -5 183 9Q135 23 106 48.5Q77 74 64 111Q51 148 51 194Q51 233 60.5 266Q70 299 91 323.5Q112 348 146 364.5Q180 381 229 388Q188 395 159.5 410.5Q131 426 113 449Q95 472 87 502Q79 532 79 569Q79 613 90 647.5Q101 682 127 706Q153 730 195.5 742.5Q238 755 300 755Z" glyph-name="eight.LP" horiz-adv-x="600" /><glyph d="M292 745Q229 745 188.5 731Q148 717 124.5 693Q101 669 92 637Q83 605 83 569Q83 533 92 501Q101 469 124.5 445Q148 421 188.5 407Q229 393 292 393Q355 393 395.5 407Q436 421 459.5 445Q483 469 492 501Q501 533 501 569Q501 605 492 637Q483 669 459.5 693Q436 717 395.5 731Q355 745 292 745ZM292 5Q361 5 406.5 19Q452 33 479 58.5Q506 84 517.5 118.5Q529 153 529 194Q529 235 517.5 269.5Q506 304 479 329.5Q452 355 406.5 369Q361 383 292 383Q223 383 177.5 369Q132 355 105 329.5Q78 304 66.5 269.5Q55 235 55 194Q55 153 66.5 118.5Q78 84 105 58.5Q132 33 177.5 19Q223 5 292 5ZM292 755Q354 755 396.5 742.5Q439 730 465 706Q491 682 502 647.5Q513 613 513 569Q513 495 479 448.5Q445 402 363 388Q460 374 500.5 323.5Q541 273 541 194Q541 148 528 111Q515 74 486 48.5Q457 23 409 9Q361 -5 292 -5Q223 -5 175 9Q127 23 98 48.5Q69 74 56 111Q43 148 43 194Q43 233 52.5 266Q62 299 83 323.5Q104 348 138 364.5Q172 381 221 388Q180 395 151.5 410.5Q123 426 105 449Q87 472 79 502Q71 532 71 569Q71 613 82 647.5Q93 682 119 706Q145 730 187.5 742.5Q230 755 292 755Z" glyph-name="eight.OP" horiz-adv-x="584" /><glyph d="M810 10Q810 16 814.5 20.5Q819 25 825 25Q831 25 835.5 20.5Q840 16 840 10Q840 4 835.5 -0.5Q831 -5 825 -5Q819 -5 814.5 -0.5Q810 4 810 10ZM480 10Q480 16 484.5 20.5Q489 25 495 25Q501 25 505.5 20.5Q510 16 510 10Q510 4 505.5 -0.5Q501 -5 495 -5Q489 -5 484.5 -0.5Q480 4 480 10ZM150 10Q150 16 154.5 20.5Q159 25 165 25Q171 25 175.5 20.5Q180 16 180 10Q180 4 175.5 -0.5Q171 -5 165 -5Q159 -5 154.5 -0.5Q150 4 150 10Z" glyph-name="ellipsis" horiz-adv-x="990" unicode="&#8230;" /><glyph d="M412 708H138V720H412ZM445 255Q445 302 440.5 345.5Q436 389 419 422Q402 455 368 475Q334 495 275 495Q215 495 177.5 476Q140 457 119 424Q98 391 90.5 347.5Q83 304 82 255ZM275 5Q329 5 366 13.5Q403 22 431 30V20Q401 10 358 2.5Q315 -5 275 -5Q213 -5 173.5 14Q134 33 111 66.5Q88 100 79 147Q70 194 70 250Q70 306 79 353Q88 400 111 433.5Q134 467 173.5 486Q213 505 275 505Q335 505 371 486Q407 467 426 433Q445 399 451 352Q457 305 457 250V245H82Q83 196 90.5 152.5Q98 109 119 76Q140 43 177.5 24Q215 5 275 5Z" glyph-name="emacron" horiz-adv-x="527" unicode="&#275;" /><glyph d="M401 708H127V720H401ZM397 250H102V12H437V0H90V500H437V488H102V262H397Z" glyph-name="emacron.smcp" horiz-adv-x="502" /><glyph d="M940 335H60V347H940Z" glyph-name="emdash" horiz-adv-x="1000" unicode="&#8212;" /><glyph glyph-name="emspace" horiz-adv-x="1000" unicode="&#8195;" /><glyph d="M440 335H60V347H440Z" glyph-name="endash" horiz-adv-x="500" unicode="&#8211;" /><glyph d="M442 373Q442 410 431.5 433.5Q421 457 401 470.5Q381 484 353 489.5Q325 495 289 495Q223 495 172 478Q121 461 92 442V0H80V500H89L92 453Q127 476 177 490.5Q227 505 289 505Q378 505 416 475Q454 445 454 371V-127Q454 -189 413.5 -222Q373 -255 300 -255V-245Q329 -245 355 -238.5Q381 -232 400.5 -218Q420 -204 431 -181Q442 -158 442 -125Z" glyph-name="eng" horiz-adv-x="529" unicode="&#331;" /><glyph d="M468 -127Q468 -189 427.5 -222Q387 -255 314 -255V-245Q343 -245 369 -238.5Q395 -232 414.5 -217.5Q434 -203 445.5 -180Q457 -157 457 -124V5L101 475L103 0H90V500H97L457 25L455 500H468Z" glyph-name="eng.smcp" horiz-adv-x="558" /><glyph glyph-name="enspace" horiz-adv-x="500" unicode="&#8194;" /><glyph d="M445 255Q445 302 440.5 345.5Q436 389 419 422Q402 455 368 475Q334 495 275 495Q215 495 177.5 476Q140 457 119 424Q98 391 90.5 347.5Q83 304 82 255ZM275 5Q329 5 366 13.5Q403 22 431 30V20Q413 14 389.5 8.5Q366 3 341 0Q321 -8 297.5 -21.5Q274 -35 254.5 -53.5Q235 -72 222 -95Q209 -118 209 -146Q209 -178 227 -199Q245 -220 293 -220Q308 -220 321.5 -218Q335 -216 346 -213V-223Q335 -226 321 -228Q307 -230 287 -230Q250 -230 223.5 -210.5Q197 -191 197 -150Q197 -123 206.5 -100.5Q216 -78 231.5 -60Q247 -42 267.5 -28Q288 -14 311 -3Q302 -4 292.5 -4.5Q283 -5 275 -5Q213 -5 173.5 14Q134 33 111 66.5Q88 100 79 147Q70 194 70 250Q70 306 79 353Q88 400 111 433.5Q134 467 173.5 486Q213 505 275 505Q335 505 371 486Q407 467 426 433Q445 399 451 352Q457 305 457 250V245H82Q83 196 90.5 152.5Q98 109 119 76Q140 43 177.5 24Q215 5 275 5Z" glyph-name="eogonek" horiz-adv-x="527" unicode="&#281;" /><glyph d="M397 250H102V12H437V0Q417 -8 393.5 -21.5Q370 -35 350.5 -53.5Q331 -72 318 -95Q305 -118 305 -146Q305 -178 323 -199Q341 -220 389 -220Q404 -220 417.5 -218Q431 -216 442 -213V-223Q431 -226 417 -228Q403 -230 383 -230Q346 -230 319.5 -210.5Q293 -191 293 -150Q293 -123 303 -100Q313 -77 329.5 -58.5Q346 -40 368 -25.5Q390 -11 413 0H90V500H437V488H102V262H397Z" glyph-name="eogonek.smcp" horiz-adv-x="502" /><glyph d="M460 255H60V267H460ZM460 415H60V427H460Z" glyph-name="equal" horiz-adv-x="520" unicode="=" /><glyph d="M275 495Q213 495 175 474Q137 453 116.5 418.5Q96 384 89 340Q82 296 82 250Q82 204 89 160Q96 116 116.5 81.5Q137 47 175 26Q213 5 275 5Q337 5 375 26Q413 47 433.5 81.5Q454 116 461 160Q468 204 468 250Q468 296 461 340Q454 384 433.5 418.5Q413 453 375 474Q337 495 275 495ZM313 676Q391 603 435.5 496Q480 389 480 250Q480 197 471 150.5Q462 104 439 69.5Q416 35 376 15Q336 -5 275 -5Q213 -5 173.5 15Q134 35 111 69.5Q88 104 79 150.5Q70 197 70 250Q70 303 79 349.5Q88 396 111 430.5Q134 465 173.5 485Q213 505 275 505Q317 505 347.5 496Q378 487 399 472.5Q420 458 433 439.5Q446 421 454 403Q428 490 393.5 554.5Q359 619 303 670L145 590V602L294 678Q272 698 246 715.5Q220 733 190 750H211Q262 721 305 683L435 750V738Z" glyph-name="eth" horiz-adv-x="550" unicode="&#240;" /><glyph d="M290 12Q348 12 388.5 28.5Q429 45 454 75.5Q479 106 490.5 150Q502 194 502 250Q502 305 490.5 349.5Q479 394 454 424.5Q429 455 388.5 471.5Q348 488 290 488H129V256H278V244H129V12ZM117 0V244H25V256H117V500H286Q350 500 393.5 482.5Q437 465 464 433Q491 401 502.5 354.5Q514 308 514 250Q514 192 502.5 145.5Q491 99 464 67Q437 35 393.5 17.5Q350 0 286 0Z" glyph-name="eth.smcp" horiz-adv-x="589" /><glyph d="M75 10Q75 16 79.5 20.5Q84 25 90 25Q96 25 100.5 20.5Q105 16 105 10Q105 4 100.5 -0.5Q96 -5 90 -5Q84 -5 79.5 -0.5Q75 4 75 10ZM87 210 81 750H99L93 210Z" glyph-name="exclam" horiz-adv-x="180" unicode="!" /><glyph d="M125 490Q125 484 120.5 479.5Q116 475 110 475Q104 475 99.5 479.5Q95 484 95 490Q95 496 99.5 500.5Q104 505 110 505Q116 505 120.5 500.5Q125 496 125 490ZM113 290 119 -250H101L107 290Z" glyph-name="exclamdown" horiz-adv-x="220" unicode="&#161;" /><glyph d="M142 500V618Q142 687 183 721Q224 755 313 755Q322 755 340.5 754Q359 753 370 751V742Q359 744 342.5 745Q326 746 313 746Q278 746 249 739.5Q220 733 199 718Q178 703 166 678.5Q154 654 154 618V500H345V488H154V0H142V488H50V498Z" glyph-name="f" horiz-adv-x="400" unicode="f" /><glyph d="M386 250H102V0H90V500H425V488H102V262H386Z" glyph-name="f.smcp" horiz-adv-x="475" /><glyph d="M554 -5Q519 -5 506.5 6Q494 17 494 44V500H506V41Q506 21 516.5 13Q527 5 554 5ZM142 500V618Q142 687 183 721Q224 755 313 755Q322 755 340.5 754Q359 753 370 751V742Q359 744 342.5 745Q326 746 313 746Q278 746 249 739.5Q220 733 199 718Q178 703 166 678.5Q154 654 154 618V500H345V488H154V0H142V488H50V498Z" glyph-name="f_dotlessi" horiz-adv-x="634" /><glyph d="M485 700Q485 706 489.5 710.5Q494 715 500 715Q506 715 510.5 710.5Q515 706 515 700Q515 694 510.5 689.5Q506 685 500 685Q494 685 489.5 689.5Q485 694 485 700ZM554 -5Q519 -5 506.5 6Q494 17 494 44V500H506V41Q506 21 516.5 13Q527 5 554 5ZM142 500V618Q142 687 183 721Q224 755 313 755Q322 755 340.5 754Q359 753 370 751V742Q359 744 342.5 745Q326 746 313 746Q278 746 249 739.5Q220 733 199 718Q178 703 166 678.5Q154 654 154 618V500H345V488H154V0H142V488H50V498Z" glyph-name="fi" horiz-adv-x="634" unicode="&#64257;" /><glyph d="M540 335H60V347H540Z" glyph-name="figuredash" horiz-adv-x="600" unicode="&#8210;" /><glyph glyph-name="figurespace" horiz-adv-x="600" unicode="&#8199;" /><glyph d="M236 -5Q213 -5 187 -3.5Q161 -2 137.5 1Q114 4 94 8Q74 12 63 16V27Q74 23 94 19Q114 15 138 12Q162 9 188 7Q214 5 237 5Q277 5 327 11Q377 17 421 40Q465 63 495 108.5Q525 154 525 233Q525 310 498.5 351Q472 392 431 410Q390 428 339.5 430.5Q289 433 241 433Q223 433 197 432.5Q171 432 147 432Q119 431 88 431V750H519V738H100V442Q132 442 163 443Q189 444 217 444.5Q245 445 265 445Q318 445 367 439Q416 433 454 411.5Q492 390 514.5 347.5Q537 305 537 233Q537 150 506 102.5Q475 55 429 31Q383 7 331 1Q279 -5 236 -5Z" glyph-name="five" horiz-adv-x="600" unicode="5" /><glyph d="M236 -5Q213 -5 187 -3.5Q161 -2 137.5 1Q114 4 94 8Q74 12 63 16V27Q74 23 94 19Q114 15 138 12Q162 9 188 7Q214 5 237 5Q277 5 327 11Q377 17 421 40Q465 63 495 108.5Q525 154 525 233Q525 310 498.5 351Q472 392 431 410Q390 428 339.5 430.5Q289 433 241 433Q223 433 197 432.5Q171 432 147 432Q119 431 88 431V750H519V738H100V442Q132 442 163 443Q189 444 217 444.5Q245 445 265 445Q318 445 367 439Q416 433 454 411.5Q492 390 514.5 347.5Q537 305 537 233Q537 150 506 102.5Q475 55 429 31Q383 7 331 1Q279 -5 236 -5Z" glyph-name="five.LP" horiz-adv-x="600" /><glyph d="M192 -255Q145 -255 108.5 -248.5Q72 -242 49 -234V-223Q71 -231 109 -238Q147 -245 193 -245Q220 -245 250 -242Q280 -239 310 -231Q340 -223 367 -207.5Q394 -192 415 -166.5Q436 -141 448.5 -104.5Q461 -68 461 -17Q461 57 437.5 97.5Q414 138 376.5 157Q339 176 292 179.5Q245 183 197 183Q179 183 158 182.5Q137 182 118 182Q96 181 74 181V500H455V488H86V192Q110 192 134 193Q154 194 177.5 194.5Q201 195 221 195Q274 195 320 188Q366 181 400 158.5Q434 136 453.5 94Q473 52 473 -17Q473 -97 445 -144Q417 -191 375 -216Q333 -241 284 -248Q235 -255 192 -255Z" glyph-name="five.OP" horiz-adv-x="517" /><glyph d="M554 -5Q519 -5 506.5 6Q494 17 494 44V750H506V41Q506 21 516.5 13Q527 5 554 5ZM142 500V618Q142 687 183 721Q224 755 313 755Q322 755 340.5 754Q359 753 370 751V742Q359 744 342.5 745Q326 746 313 746Q278 746 249 739.5Q220 733 199 718Q178 703 166 678.5Q154 654 154 618V500H345V488H154V0H142V488H50V498Z" glyph-name="fl" horiz-adv-x="634" unicode="&#64258;" /><glyph d="M515 727Q482 736 446.5 740.5Q411 745 366 745Q328 745 295 737Q262 729 238 711Q214 693 200.5 665.5Q187 638 187 599V494H459V482H187V0H175V482H64V492L175 494V598Q175 671 222 713Q269 755 366 755Q413 755 449.5 750.5Q486 746 515 738Z" glyph-name="florin" horiz-adv-x="600" unicode="&#402;" /><glyph d="M455 477Q422 486 386.5 490.5Q351 495 306 495Q271 495 242 489Q213 483 192 468Q171 453 159 428.5Q147 404 147 368V244H419V232H147V-250H135V232H44V242L135 244V368Q135 437 176 471Q217 505 306 505Q353 505 389.5 500.5Q426 496 455 488Z" glyph-name="florin.OP" horiz-adv-x="500" /><glyph d="M414 242V732L55 242ZM426 242H541V230H426V0H414V230H39V239L417 755H426Z" glyph-name="four" horiz-adv-x="600" unicode="4" /><glyph d="M414 242V732L55 242ZM426 242H541V230H426V0H414V230H39V239L417 755H426Z" glyph-name="four.LP" horiz-adv-x="600" /><glyph d="M424 12V481L76 12ZM436 12H551V0H436V-250H424V0H59V9L427 505H436Z" glyph-name="four.OP" horiz-adv-x="600" /><glyph glyph-name="fourperemspace" horiz-adv-x="250" unicode="&#8197;" /><glyph d="M-50 0 480 750H494L-36 0Z" glyph-name="fraction" horiz-adv-x="444" unicode="&#8260;" /><glyph d="M423 326Q423 359 417.5 389.5Q412 420 393.5 443.5Q375 467 340 481Q305 495 247 495Q188 495 153.5 481Q119 467 101 443.5Q83 420 77.5 389.5Q72 359 72 326Q72 293 77.5 262.5Q83 232 101 208.5Q119 185 153.5 171Q188 157 247 157Q305 157 340 171Q375 185 393.5 208.5Q412 232 417.5 262.5Q423 293 423 326ZM28 -115Q28 -157 43.5 -182.5Q59 -208 87 -222Q115 -236 155 -240.5Q195 -245 245 -245Q295 -245 341.5 -238Q388 -231 423.5 -214.5Q459 -198 480.5 -170.5Q502 -143 502 -103Q502 -47 476 -24Q450 -1 389 7L185 34Q167 30 140 20.5Q113 11 88 -6.5Q63 -24 45.5 -50.5Q28 -77 28 -115ZM60 326Q60 369 68.5 402.5Q77 436 98.5 458.5Q120 481 156 493Q192 505 247 505Q264 505 279.5 503.5Q295 502 309 500H459V489L354 487Q400 467 417.5 426.5Q435 386 435 326Q435 283 426.5 249.5Q418 216 396.5 193.5Q375 171 338.5 159Q302 147 247 147Q216 147 191.5 150Q167 153 147 161Q133 153 120 138Q107 123 107 100Q107 83 114 73Q121 63 131.5 57.5Q142 52 154 50Q166 48 175 47L396 17Q459 9 486.5 -16Q514 -41 514 -103Q514 -145 493 -174Q472 -203 435.5 -221Q399 -239 350 -247Q301 -255 245 -255Q188 -255 145 -249Q102 -243 73.5 -227Q45 -211 30.5 -184Q16 -157 16 -115Q16 -81 28.5 -56Q41 -31 61 -12.5Q81 6 107 18Q133 30 160 38H159Q133 42 114.5 56Q96 70 96 100Q96 125 109 141Q122 157 136 166Q92 186 76 226.5Q60 267 60 326Z" glyph-name="g" horiz-adv-x="530" unicode="g" /><glyph d="M302 5Q342 5 383.5 11.5Q425 18 460 30V220H339V232H472V23Q438 10 391 2.5Q344 -5 302 -5Q240 -5 196 15Q152 35 124 69.5Q96 104 83 150.5Q70 197 70 250Q70 303 83 349.5Q96 396 124 430.5Q152 465 196 485Q240 505 302 505Q347 505 390.5 497Q434 489 462 480V469Q436 478 394 486.5Q352 495 302 495Q241 495 199 474.5Q157 454 131 420Q105 386 93.5 341.5Q82 297 82 250Q82 203 93.5 158.5Q105 114 131 80Q157 46 199 25.5Q241 5 302 5Z" glyph-name="g.smcp" horiz-adv-x="542" /><glyph d="M247 550Q72 550 72 750H82Q83 661 121 610.5Q159 560 247 560Q335 560 373 610.5Q411 661 412 750H422Q422 550 247 550ZM423 326Q423 359 417.5 389.5Q412 420 393.5 443.5Q375 467 340 481Q305 495 247 495Q188 495 153.5 481Q119 467 101 443.5Q83 420 77.5 389.5Q72 359 72 326Q72 293 77.5 262.5Q83 232 101 208.5Q119 185 153.5 171Q188 157 247 157Q305 157 340 171Q375 185 393.5 208.5Q412 232 417.5 262.5Q423 293 423 326ZM28 -115Q28 -157 43.5 -182.5Q59 -208 87 -222Q115 -236 155 -240.5Q195 -245 245 -245Q295 -245 341.5 -238Q388 -231 423.5 -214.5Q459 -198 480.5 -170.5Q502 -143 502 -103Q502 -47 476 -24Q450 -1 389 7L185 34Q167 30 140 20.5Q113 11 88 -6.5Q63 -24 45.5 -50.5Q28 -77 28 -115ZM60 326Q60 369 68.5 402.5Q77 436 98.5 458.5Q120 481 156 493Q192 505 247 505Q264 505 279.5 503.5Q295 502 309 500H459V489L354 487Q400 467 417.5 426.5Q435 386 435 326Q435 283 426.5 249.5Q418 216 396.5 193.5Q375 171 338.5 159Q302 147 247 147Q216 147 191.5 150Q167 153 147 161Q133 153 120 138Q107 123 107 100Q107 83 114 73Q121 63 131.5 57.5Q142 52 154 50Q166 48 175 47L396 17Q459 9 486.5 -16Q514 -41 514 -103Q514 -145 493 -174Q472 -203 435.5 -221Q399 -239 350 -247Q301 -255 245 -255Q188 -255 145 -249Q102 -243 73.5 -227Q45 -211 30.5 -184Q16 -157 16 -115Q16 -81 28.5 -56Q41 -31 61 -12.5Q81 6 107 18Q133 30 160 38H159Q133 42 114.5 56Q96 70 96 100Q96 125 109 141Q122 157 136 166Q92 186 76 226.5Q60 267 60 326Z" glyph-name="gbreve" horiz-adv-x="530" unicode="&#287;" /><glyph d="M302 550Q127 550 127 750H137Q138 661 176 610.5Q214 560 302 560Q390 560 428 610.5Q466 661 467 750H477Q477 550 302 550ZM302 5Q342 5 383.5 11.5Q425 18 460 30V220H339V232H472V23Q438 10 391 2.5Q344 -5 302 -5Q240 -5 196 15Q152 35 124 69.5Q96 104 83 150.5Q70 197 70 250Q70 303 83 349.5Q96 396 124 430.5Q152 465 196 485Q240 505 302 505Q347 505 390.5 497Q434 489 462 480V469Q436 478 394 486.5Q352 495 302 495Q241 495 199 474.5Q157 454 131 420Q105 386 93.5 341.5Q82 297 82 250Q82 203 93.5 158.5Q105 114 131 80Q157 46 199 25.5Q241 5 302 5Z" glyph-name="gbreve.smcp" horiz-adv-x="542" /><glyph d="M364 575 247 739 130 575H119L241 750H253L375 575ZM423 326Q423 359 417.5 389.5Q412 420 393.5 443.5Q375 467 340 481Q305 495 247 495Q188 495 153.5 481Q119 467 101 443.5Q83 420 77.5 389.5Q72 359 72 326Q72 293 77.5 262.5Q83 232 101 208.5Q119 185 153.5 171Q188 157 247 157Q305 157 340 171Q375 185 393.5 208.5Q412 232 417.5 262.5Q423 293 423 326ZM28 -115Q28 -157 43.5 -182.5Q59 -208 87 -222Q115 -236 155 -240.5Q195 -245 245 -245Q295 -245 341.5 -238Q388 -231 423.5 -214.5Q459 -198 480.5 -170.5Q502 -143 502 -103Q502 -47 476 -24Q450 -1 389 7L185 34Q167 30 140 20.5Q113 11 88 -6.5Q63 -24 45.5 -50.5Q28 -77 28 -115ZM60 326Q60 369 68.5 402.5Q77 436 98.5 458.5Q120 481 156 493Q192 505 247 505Q264 505 279.5 503.5Q295 502 309 500H459V489L354 487Q400 467 417.5 426.5Q435 386 435 326Q435 283 426.5 249.5Q418 216 396.5 193.5Q375 171 338.5 159Q302 147 247 147Q216 147 191.5 150Q167 153 147 161Q133 153 120 138Q107 123 107 100Q107 83 114 73Q121 63 131.5 57.5Q142 52 154 50Q166 48 175 47L396 17Q459 9 486.5 -16Q514 -41 514 -103Q514 -145 493 -174Q472 -203 435.5 -221Q399 -239 350 -247Q301 -255 245 -255Q188 -255 145 -249Q102 -243 73.5 -227Q45 -211 30.5 -184Q16 -157 16 -115Q16 -81 28.5 -56Q41 -31 61 -12.5Q81 6 107 18Q133 30 160 38H159Q133 42 114.5 56Q96 70 96 100Q96 125 109 141Q122 157 136 166Q92 186 76 226.5Q60 267 60 326Z" glyph-name="gcircumflex" horiz-adv-x="530" unicode="&#285;" /><glyph d="M419 575 302 739 185 575H174L296 750H308L430 575ZM302 5Q342 5 383.5 11.5Q425 18 460 30V220H339V232H472V23Q438 10 391 2.5Q344 -5 302 -5Q240 -5 196 15Q152 35 124 69.5Q96 104 83 150.5Q70 197 70 250Q70 303 83 349.5Q96 396 124 430.5Q152 465 196 485Q240 505 302 505Q347 505 390.5 497Q434 489 462 480V469Q436 478 394 486.5Q352 495 302 495Q241 495 199 474.5Q157 454 131 420Q105 386 93.5 341.5Q82 297 82 250Q82 203 93.5 158.5Q105 114 131 80Q157 46 199 25.5Q241 5 302 5Z" glyph-name="gcircumflex.smcp" horiz-adv-x="542" /><glyph d="M262 620Q262 614 257.5 609.5Q253 605 247 605Q241 605 236.5 609.5Q232 614 232 620Q232 623 234 629L279 750H280L250 635Q262 632 262 620ZM423 326Q423 359 417.5 389.5Q412 420 393.5 443.5Q375 467 340 481Q305 495 247 495Q188 495 153.5 481Q119 467 101 443.5Q83 420 77.5 389.5Q72 359 72 326Q72 293 77.5 262.5Q83 232 101 208.5Q119 185 153.5 171Q188 157 247 157Q305 157 340 171Q375 185 393.5 208.5Q412 232 417.5 262.5Q423 293 423 326ZM28 -115Q28 -157 43.5 -182.5Q59 -208 87 -222Q115 -236 155 -240.5Q195 -245 245 -245Q295 -245 341.5 -238Q388 -231 423.5 -214.5Q459 -198 480.5 -170.5Q502 -143 502 -103Q502 -47 476 -24Q450 -1 389 7L185 34Q167 30 140 20.5Q113 11 88 -6.5Q63 -24 45.5 -50.5Q28 -77 28 -115ZM60 326Q60 369 68.5 402.5Q77 436 98.5 458.5Q120 481 156 493Q192 505 247 505Q264 505 279.5 503.5Q295 502 309 500H459V489L354 487Q400 467 417.5 426.5Q435 386 435 326Q435 283 426.5 249.5Q418 216 396.5 193.5Q375 171 338.5 159Q302 147 247 147Q216 147 191.5 150Q167 153 147 161Q133 153 120 138Q107 123 107 100Q107 83 114 73Q121 63 131.5 57.5Q142 52 154 50Q166 48 175 47L396 17Q459 9 486.5 -16Q514 -41 514 -103Q514 -145 493 -174Q472 -203 435.5 -221Q399 -239 350 -247Q301 -255 245 -255Q188 -255 145 -249Q102 -243 73.5 -227Q45 -211 30.5 -184Q16 -157 16 -115Q16 -81 28.5 -56Q41 -31 61 -12.5Q81 6 107 18Q133 30 160 38H159Q133 42 114.5 56Q96 70 96 100Q96 125 109 141Q122 157 136 166Q92 186 76 226.5Q60 267 60 326Z" glyph-name="gcommaaccent" horiz-adv-x="530" unicode="&#291;" /><glyph d="M280 -120Q280 -114 284.5 -109.5Q289 -105 295 -105Q301 -105 305.5 -109.5Q310 -114 310 -120Q310 -123 308 -129L263 -250H262L292 -135Q280 -132 280 -120ZM302 5Q342 5 383.5 11.5Q425 18 460 30V220H339V232H472V23Q438 10 391 2.5Q344 -5 302 -5Q240 -5 196 15Q152 35 124 69.5Q96 104 83 150.5Q70 197 70 250Q70 303 83 349.5Q96 396 124 430.5Q152 465 196 485Q240 505 302 505Q347 505 390.5 497Q434 489 462 480V469Q436 478 394 486.5Q352 495 302 495Q241 495 199 474.5Q157 454 131 420Q105 386 93.5 341.5Q82 297 82 250Q82 203 93.5 158.5Q105 114 131 80Q157 46 199 25.5Q241 5 302 5Z" glyph-name="gcommaaccent.smcp" horiz-adv-x="542" /><glyph d="M232 700Q232 706 236.5 710.5Q241 715 247 715Q253 715 257.5 710.5Q262 706 262 700Q262 694 257.5 689.5Q253 685 247 685Q241 685 236.5 689.5Q232 694 232 700ZM423 326Q423 359 417.5 389.5Q412 420 393.5 443.5Q375 467 340 481Q305 495 247 495Q188 495 153.5 481Q119 467 101 443.5Q83 420 77.5 389.5Q72 359 72 326Q72 293 77.5 262.5Q83 232 101 208.5Q119 185 153.5 171Q188 157 247 157Q305 157 340 171Q375 185 393.5 208.5Q412 232 417.5 262.5Q423 293 423 326ZM28 -115Q28 -157 43.5 -182.5Q59 -208 87 -222Q115 -236 155 -240.5Q195 -245 245 -245Q295 -245 341.5 -238Q388 -231 423.5 -214.5Q459 -198 480.5 -170.5Q502 -143 502 -103Q502 -47 476 -24Q450 -1 389 7L185 34Q167 30 140 20.5Q113 11 88 -6.5Q63 -24 45.5 -50.5Q28 -77 28 -115ZM60 326Q60 369 68.5 402.5Q77 436 98.5 458.5Q120 481 156 493Q192 505 247 505Q264 505 279.5 503.5Q295 502 309 500H459V489L354 487Q400 467 417.5 426.5Q435 386 435 326Q435 283 426.5 249.5Q418 216 396.5 193.5Q375 171 338.5 159Q302 147 247 147Q216 147 191.5 150Q167 153 147 161Q133 153 120 138Q107 123 107 100Q107 83 114 73Q121 63 131.5 57.5Q142 52 154 50Q166 48 175 47L396 17Q459 9 486.5 -16Q514 -41 514 -103Q514 -145 493 -174Q472 -203 435.5 -221Q399 -239 350 -247Q301 -255 245 -255Q188 -255 145 -249Q102 -243 73.5 -227Q45 -211 30.5 -184Q16 -157 16 -115Q16 -81 28.5 -56Q41 -31 61 -12.5Q81 6 107 18Q133 30 160 38H159Q133 42 114.5 56Q96 70 96 100Q96 125 109 141Q122 157 136 166Q92 186 76 226.5Q60 267 60 326Z" glyph-name="gdotaccent" horiz-adv-x="530" unicode="&#289;" /><glyph d="M287 700Q287 706 291.5 710.5Q296 715 302 715Q308 715 312.5 710.5Q317 706 317 700Q317 694 312.5 689.5Q308 685 302 685Q296 685 291.5 689.5Q287 694 287 700ZM302 5Q342 5 383.5 11.5Q425 18 460 30V220H339V232H472V23Q438 10 391 2.5Q344 -5 302 -5Q240 -5 196 15Q152 35 124 69.5Q96 104 83 150.5Q70 197 70 250Q70 303 83 349.5Q96 396 124 430.5Q152 465 196 485Q240 505 302 505Q347 505 390.5 497Q434 489 462 480V469Q436 478 394 486.5Q352 495 302 495Q241 495 199 474.5Q157 454 131 420Q105 386 93.5 341.5Q82 297 82 250Q82 203 93.5 158.5Q105 114 131 80Q157 46 199 25.5Q241 5 302 5Z" glyph-name="gdotaccent.smcp" horiz-adv-x="542" /><glyph d="M272 370Q272 398 278.5 417.5Q285 437 300.5 450.5Q316 464 341 472.5Q366 481 404 487Q441 493 462.5 504Q484 515 495 530.5Q506 546 508.5 565Q511 584 511 605Q511 670 463 707.5Q415 745 310 745Q205 745 157 709.5Q109 674 109 609V0H97V608Q97 641 108.5 668Q120 695 145.5 714.5Q171 734 211.5 744.5Q252 755 310 755Q368 755 408.5 744Q449 733 474.5 713Q500 693 511.5 665.5Q523 638 523 605Q523 577 518.5 556Q514 535 501 519.5Q488 504 465 493.5Q442 483 405 477Q374 472 351 465Q328 458 313 446.5Q298 435 291 416.5Q284 398 284 370Q284 342 292 324Q300 306 318.5 294.5Q337 283 367 276Q397 269 441 264Q489 258 521.5 249.5Q554 241 573.5 226Q593 211 601.5 188Q610 165 610 131Q610 105 601 80.5Q592 56 569.5 37Q547 18 510 6.5Q473 -5 416 -5Q384 -5 348.5 -0.5Q313 4 282 14V24Q308 17 339 11Q370 5 416 5Q469 5 504 15.5Q539 26 560 43Q581 60 589.5 83Q598 106 598 130Q598 160 590.5 181Q583 202 565 216.5Q547 231 517 240Q487 249 442 254Q391 260 358.5 268Q326 276 306.5 289Q287 302 279.5 321.5Q272 341 272 370Z" glyph-name="germandbls" horiz-adv-x="675" unicode="&#223;" /><glyph d="M727 5Q782 5 819.5 13.5Q857 22 880 38.5Q903 55 913 80Q923 105 923 138Q923 169 915.5 189Q908 209 888.5 221Q869 233 836.5 240Q804 247 753 252Q703 257 667.5 262.5Q632 268 609 279.5Q586 291 575.5 310.5Q565 330 565 363Q565 398 575.5 424.5Q586 451 609 469Q632 487 670 496Q708 505 763 505Q808 505 851.5 498Q895 491 924 482V471Q897 480 855 487.5Q813 495 763 495Q710 495 674.5 487Q639 479 617.5 462.5Q596 446 586.5 421Q577 396 577 363Q577 335 586 317.5Q595 300 615 289.5Q635 279 668.5 273Q702 267 752 263Q807 258 842.5 250.5Q878 243 898.5 229.5Q919 216 927 194.5Q935 173 935 139Q935 105 925 78.5Q915 52 891 33.5Q867 15 827 5Q787 -5 727 -5Q682 -5 638.5 2.5Q595 10 567 19V30Q593 21 635.5 13Q678 5 727 5ZM227 5Q282 5 319.5 13.5Q357 22 380 38.5Q403 55 413 80Q423 105 423 138Q423 169 415.5 189Q408 209 388.5 221Q369 233 336.5 240Q304 247 253 252Q203 257 167.5 262.5Q132 268 109 279.5Q86 291 75.5 310.5Q65 330 65 363Q65 398 75.5 424.5Q86 451 109 469Q132 487 170 496Q208 505 263 505Q308 505 351.5 498Q395 491 424 482V471Q397 480 355 487.5Q313 495 263 495Q210 495 174.5 487Q139 479 117.5 462.5Q96 446 86.5 421Q77 396 77 363Q77 335 86 317.5Q95 300 115 289.5Q135 279 168.5 273Q202 267 252 263Q307 258 342.5 250.5Q378 243 398.5 229.5Q419 216 427 194.5Q435 173 435 139Q435 105 425 78.5Q415 52 391 33.5Q367 15 327 5Q287 -5 227 -5Q182 -5 138.5 2.5Q95 10 67 19V30Q93 21 135.5 13Q178 5 227 5Z" glyph-name="germandbls.smcp" horiz-adv-x="1000" /><glyph d="M222 575 99 750H114L232 575Z" glyph-name="grave" horiz-adv-x="540" unicode="`" /><glyph d="M294 335 71 177V189L282 341L71 493V505L294 347Z" glyph-name="greater" horiz-adv-x="365" unicode="&gt;" /><glyph d="M810 370 291 -5V11L751 342L789 369H60V381H789L751 408L291 739V755L810 380Z" glyph-name="greaterequal" horiz-adv-x="860" unicode="&#8805;" /><glyph d="M245 256 435 423V410L258 250L435 90V76L245 244ZM55 256 245 423V410L68 250L245 90V76L55 244Z" glyph-name="guillemotleft" horiz-adv-x="495" unicode="&#171;" /><glyph d="M250 244 60 76V90L237 250L60 410V423L250 256ZM440 244 250 76V90L427 250L250 410V423L440 256Z" glyph-name="guillemotright" horiz-adv-x="495" unicode="&#187;" /><glyph d="M55 256 245 423V410L68 250L245 90V76L55 244Z" glyph-name="guilsinglleft" horiz-adv-x="305" unicode="&#8249;" /><glyph d="M250 244 60 76V90L237 250L60 410V423L250 256Z" glyph-name="guilsinglright" horiz-adv-x="305" unicode="&#8250;" /><glyph d="M85 0V750H97V453Q132 476 182 490.5Q232 505 294 505Q383 505 421 475Q459 445 459 371V0H447V373Q447 410 436.5 433.5Q426 457 406 470.5Q386 484 358 489.5Q330 495 294 495Q228 495 177 478Q126 461 97 442V0Z" glyph-name="h" horiz-adv-x="539" unicode="h" /><glyph d="M484 0V250H102V0H90V500H102V262H484V500H496V0Z" glyph-name="h.smcp" horiz-adv-x="586" /><glyph glyph-name="hairspace" horiz-adv-x="50" unicode="&#8202;" /><glyph d="M270 630H97V453Q132 476 182 490.5Q232 505 294 505Q383 505 421 475Q459 445 459 371V0H447V373Q447 410 436.5 433.5Q426 457 406 470.5Q386 484 358 489.5Q330 495 294 495Q228 495 177 478Q126 461 97 442V0H85V630H-25V640H85V750H97V640H270Z" glyph-name="hbar" horiz-adv-x="539" unicode="&#295;" /><glyph d="M484 262V377H102V262ZM484 0V250H102V0H90V500H102V389H484V500H496V0Z" glyph-name="hbar.smcp" horiz-adv-x="586" /><glyph d="M208 825 91 989 -26 825H-37L85 1000H97L219 825ZM85 0V750H97V453Q132 476 182 490.5Q232 505 294 505Q383 505 421 475Q459 445 459 371V0H447V373Q447 410 436.5 433.5Q426 457 406 470.5Q386 484 358 489.5Q330 495 294 495Q228 495 177 478Q126 461 97 442V0Z" glyph-name="hcircumflex" horiz-adv-x="539" unicode="&#293;" /><glyph d="M410 575 293 739 176 575H165L287 750H299L421 575ZM484 0V250H102V0H90V500H102V262H484V500H496V0Z" glyph-name="hcircumflex.smcp" horiz-adv-x="586" /><glyph d="M331 575 449 750H464L341 575ZM219 575 337 750H352L229 575Z" glyph-name="hungarumlaut" horiz-adv-x="540" unicode="&#733;" /><glyph d="M310 335H60V347H310Z" glyph-name="hyphen" horiz-adv-x="370" unicode="-" /><glyph d="M85 700Q85 706 89.5 710.5Q94 715 100 715Q106 715 110.5 710.5Q115 706 115 700Q115 694 110.5 689.5Q106 685 100 685Q94 685 89.5 689.5Q85 694 85 700ZM154 -5Q119 -5 106.5 6Q94 17 94 44V500H106V41Q106 21 116.5 13Q127 5 154 5Z" glyph-name="i" horiz-adv-x="234" unicode="i" /><glyph d="M100 0V500H112V0Z" glyph-name="i.smcp" horiz-adv-x="212" /><glyph d="M95 575 213 750H228L105 575ZM154 -5Q119 -5 106.5 6Q94 17 94 44V500H106V41Q106 21 116.5 13Q127 5 154 5Z" glyph-name="iacute" horiz-adv-x="234" unicode="&#237;" /><glyph d="M101 575 219 750H234L111 575ZM100 0V500H112V0Z" glyph-name="iacute.smcp" horiz-adv-x="212" /><glyph d="M100 550Q-75 550 -75 750H-65Q-64 661 -26 610.5Q12 560 100 560Q188 560 226 610.5Q264 661 265 750H275Q275 550 100 550ZM154 -5Q119 -5 106.5 6Q94 17 94 44V500H106V41Q106 21 116.5 13Q127 5 154 5Z" glyph-name="ibreve" horiz-adv-x="234" /><glyph d="M106 550Q-69 550 -69 750H-59Q-58 661 -20 610.5Q18 560 106 560Q194 560 232 610.5Q270 661 271 750H281Q281 550 106 550ZM100 0V500H112V0Z" glyph-name="ibreve.smcp" horiz-adv-x="212" /><glyph d="M217 575 100 739 -17 575H-28L94 750H106L228 575ZM154 -5Q119 -5 106.5 6Q94 17 94 44V500H106V41Q106 21 116.5 13Q127 5 154 5Z" glyph-name="icircumflex" horiz-adv-x="234" unicode="&#238;" /><glyph d="M223 575 106 739 -11 575H-22L100 750H112L234 575ZM100 0V500H112V0Z" glyph-name="icircumflex.smcp" horiz-adv-x="212" /><glyph d="M180 700Q180 706 184.5 710.5Q189 715 195 715Q201 715 205.5 710.5Q210 706 210 700Q210 694 205.5 689.5Q201 685 195 685Q189 685 184.5 689.5Q180 694 180 700ZM-10 700Q-10 706 -5.5 710.5Q-1 715 5 715Q11 715 15.5 710.5Q20 706 20 700Q20 694 15.5 689.5Q11 685 5 685Q-1 685 -5.5 689.5Q-10 694 -10 700ZM154 -5Q119 -5 106.5 6Q94 17 94 44V500H106V41Q106 21 116.5 13Q127 5 154 5Z" glyph-name="idieresis" horiz-adv-x="234" unicode="&#239;" /><glyph d="M-4 700Q-4 706 0.5 710.5Q5 715 11 715Q17 715 21.5 710.5Q26 706 26 700Q26 694 21.5 689.5Q17 685 11 685Q5 685 0.5 689.5Q-4 694 -4 700ZM186 700Q186 706 190.5 710.5Q195 715 201 715Q207 715 211.5 710.5Q216 706 216 700Q216 694 211.5 689.5Q207 685 201 685Q195 685 190.5 689.5Q186 694 186 700ZM100 0V500H112V0Z" glyph-name="idieresis.smcp" horiz-adv-x="212" /><glyph d="M85 700Q85 706 89.5 710.5Q94 715 100 715Q106 715 110.5 710.5Q115 706 115 700Q115 694 110.5 689.5Q106 685 100 685Q94 685 89.5 689.5Q85 694 85 700ZM154 -5Q119 -5 106.5 6Q94 17 94 44V500H106V41Q106 21 116.5 13Q127 5 154 5Z" glyph-name="idotaccent" horiz-adv-x="234" /><glyph d="M91 700Q91 706 95.5 710.5Q100 715 106 715Q112 715 116.5 710.5Q121 706 121 700Q121 694 116.5 689.5Q112 685 106 685Q100 685 95.5 689.5Q91 694 91 700ZM100 0V500H112V0Z" glyph-name="idotaccent.smcp" horiz-adv-x="212" /><glyph d="M95 575 -28 750H-13L105 575ZM154 -5Q119 -5 106.5 6Q94 17 94 44V500H106V41Q106 21 116.5 13Q127 5 154 5Z" glyph-name="igrave" horiz-adv-x="234" unicode="&#236;" /><glyph d="M101 575 -22 750H-7L111 575ZM100 0V500H112V0Z" glyph-name="igrave.smcp" horiz-adv-x="212" /><glyph d="M330 700Q330 706 334.5 710.5Q339 715 345 715Q351 715 355.5 710.5Q360 706 360 700Q360 694 355.5 689.5Q351 685 345 685Q339 685 334.5 689.5Q330 694 330 700ZM351 -127Q351 -189 310.5 -222Q270 -255 197 -255V-245Q226 -245 252 -238.5Q278 -232 297.5 -218Q317 -204 328 -181Q339 -158 339 -125V500H351ZM85 700Q85 706 89.5 710.5Q94 715 100 715Q106 715 110.5 710.5Q115 706 115 700Q115 694 110.5 689.5Q106 685 100 685Q94 685 89.5 689.5Q85 694 85 700ZM154 -5Q119 -5 106.5 6Q94 17 94 44V500H106V41Q106 21 116.5 13Q127 5 154 5Z" glyph-name="ij" horiz-adv-x="445" unicode="&#307;" /><glyph d="M257 7Q265 6 278 5.5Q291 5 304 5Q338 5 366 10.5Q394 16 414 29.5Q434 43 445 66.5Q456 90 456 126V500H468V126Q468 61 430.5 28Q393 -5 304 -5Q293 -5 277.5 -4.5Q262 -4 257 -3ZM100 0V500H112V0Z" glyph-name="ij.smcp" horiz-adv-x="563" /><glyph d="M237 708H-37V720H237ZM154 -5Q119 -5 106.5 6Q94 17 94 44V500H106V41Q106 21 116.5 13Q127 5 154 5Z" glyph-name="imacron" horiz-adv-x="234" unicode="&#299;" /><glyph d="M243 708H-31V720H243ZM100 0V500H112V0Z" glyph-name="imacron.smcp" horiz-adv-x="212" /><glyph d="M37 685Q37 655 56.5 647.5Q76 640 123 636Q177 631 195.5 615.5Q214 600 214 565Q214 537 191.5 516Q169 495 109 495Q80 495 59 500.5Q38 506 29 511V522Q40 517 61.5 511Q83 505 110 505Q155 505 179.5 521Q204 537 204 565Q204 593 187.5 607Q171 621 119 626Q66 630 46.5 641.5Q27 653 27 685Q27 718 49.5 736.5Q72 755 126 755Q150 755 171 751Q192 747 204 740V730Q190 737 169 741Q148 745 125 745Q86 745 61.5 731.5Q37 718 37 685ZM393 534 298 723 300 500H287V750H298L396 555L494 750H505V500H492L494 723L399 534Z" glyph-name="infinity" horiz-adv-x="572" unicode="&#8734;" /><glyph d="M92 12H818V738H92ZM80 750H830V0H80Z" glyph-name="integral" horiz-adv-x="910" unicode="&#8747;" /><glyph d="M280 755Q455 755 455 555H445Q444 644 406 694.5Q368 745 280 745Q192 745 154 694.5Q116 644 115 555H105Q105 755 280 755Z" glyph-name="invertedbreve" horiz-adv-x="540" /><glyph d="M85 700Q85 706 89.5 710.5Q94 715 100 715Q106 715 110.5 710.5Q115 706 115 700Q115 694 110.5 689.5Q106 685 100 685Q94 685 89.5 689.5Q85 694 85 700ZM154 -5Q137 -13 118.5 -25.5Q100 -38 85 -55.5Q70 -73 60 -95.5Q50 -118 50 -146Q50 -178 68 -199Q86 -220 134 -220Q149 -220 162.5 -218Q176 -216 187 -213V-223Q176 -226 162 -228Q148 -230 128 -230Q91 -230 64.5 -210.5Q38 -191 38 -150Q38 -94 66.5 -59.5Q95 -25 135 -4Q112 -1 103 10Q94 21 94 44V500H106V41Q106 21 116.5 13Q127 5 154 5Z" glyph-name="iogonek" horiz-adv-x="234" unicode="&#303;" /><glyph d="M112 0Q99 -8 84.5 -21.5Q70 -35 57.5 -53.5Q45 -72 37 -95Q29 -118 29 -146Q29 -178 47 -199Q65 -220 113 -220Q128 -220 141.5 -218Q155 -216 166 -213V-223Q155 -226 141 -228Q127 -230 107 -230Q70 -230 43.5 -210.5Q17 -191 17 -150Q17 -94 42.5 -56Q68 -18 100 4V500H112Z" glyph-name="iogonek.smcp" horiz-adv-x="212" /><glyph d="M251 684Q242 610 173 610Q146 610 129 621Q112 632 97.5 645Q83 658 67.5 669Q52 680 27 680Q0 680 -18 664Q-36 648 -40 616H-51Q-42 690 27 690Q54 690 71 679Q88 668 102.5 655Q117 642 132.5 631Q148 620 173 620Q200 620 218 636Q236 652 240 684ZM154 -5Q119 -5 106.5 6Q94 17 94 44V500H106V41Q106 21 116.5 13Q127 5 154 5Z" glyph-name="itilde" horiz-adv-x="234" unicode="&#297;" /><glyph d="M257 684Q248 610 179 610Q152 610 135 621Q118 632 103.5 645Q89 658 73.5 669Q58 680 33 680Q6 680 -12 664Q-30 648 -34 616H-45Q-36 690 33 690Q60 690 77 679Q94 668 108.5 655Q123 642 138.5 631Q154 620 179 620Q206 620 224 636Q242 652 246 684ZM100 0V500H112V0Z" glyph-name="itilde.smcp" horiz-adv-x="212" /><glyph d="M96 700Q96 706 100.5 710.5Q105 715 111 715Q117 715 121.5 710.5Q126 706 126 700Q126 694 121.5 689.5Q117 685 111 685Q105 685 100.5 689.5Q96 694 96 700ZM117 -127Q117 -189 76.5 -222Q36 -255 -37 -255V-245Q-8 -245 18 -238.5Q44 -232 63.5 -218Q83 -204 94 -181Q105 -158 105 -125V500H117Z" glyph-name="j" horiz-adv-x="211" unicode="j" /><glyph d="M45 7Q53 6 66 5.5Q79 5 92 5Q126 5 154 10.5Q182 16 202 29.5Q222 43 233 66.5Q244 90 244 126V500H256V126Q256 61 218.5 28Q181 -5 92 -5Q81 -5 65.5 -4.5Q50 -4 45 -3Z" glyph-name="j.smcp" horiz-adv-x="351" /><glyph d="M228 575 111 739 -6 575H-17L105 750H117L239 575ZM117 -127Q117 -189 76.5 -222Q36 -255 -37 -255V-245Q-8 -245 18 -238.5Q44 -232 63.5 -218Q83 -204 94 -181Q105 -158 105 -125V500H117Z" glyph-name="jcircumflex" horiz-adv-x="211" unicode="&#309;" /><glyph d="M367 575 250 739 133 575H122L244 750H256L378 575ZM45 7Q53 6 66 5.5Q79 5 92 5Q126 5 154 10.5Q182 16 202 29.5Q222 43 233 66.5Q244 90 244 126V500H256V126Q256 61 218.5 28Q181 -5 92 -5Q81 -5 65.5 -4.5Q50 -4 45 -3Z" glyph-name="jcircumflex.smcp" horiz-adv-x="351" /><glyph d="M200 296 445 0H430L191 288L97 197V0H85V750H97V212L393 500H410Z" glyph-name="k" horiz-adv-x="475" unicode="k" /><glyph d="M205 296 450 0H435L196 288L102 197V0H90V500H102V212L398 500H415Z" glyph-name="k.smcp" horiz-adv-x="485" /><glyph d="M232 -120Q232 -114 236.5 -109.5Q241 -105 247 -105Q253 -105 257.5 -109.5Q262 -114 262 -120Q262 -123 260 -129L215 -250H214L244 -135Q232 -132 232 -120ZM200 296 445 0H430L191 288L97 197V0H85V750H97V212L393 500H410Z" glyph-name="kcommaaccent" horiz-adv-x="475" unicode="&#311;" /><glyph d="M237 -120Q237 -114 241.5 -109.5Q246 -105 252 -105Q258 -105 262.5 -109.5Q267 -114 267 -120Q267 -123 265 -129L220 -250H219L249 -135Q237 -132 237 -120ZM205 296 450 0H435L196 288L102 197V0H90V500H102V212L398 500H415Z" glyph-name="kcommaaccent.smcp" horiz-adv-x="485" /><glyph d="M200 296 445 0H430L191 288L97 197V0H85V500H97V212L393 500H410Z" glyph-name="kgreenlandic" horiz-adv-x="475" unicode="&#312;" /><glyph d="M154 -5Q119 -5 106.5 6Q94 17 94 44V750H106V41Q106 21 116.5 13Q127 5 154 5Z" glyph-name="l" horiz-adv-x="234" unicode="l" /><glyph d="M102 12H437V0H90V500H102Z" glyph-name="l.smcp" horiz-adv-x="472" /><glyph d="M95 825 213 1000H228L105 825ZM154 -5Q119 -5 106.5 6Q94 17 94 44V750H106V41Q106 21 116.5 13Q127 5 154 5Z" glyph-name="lacute" horiz-adv-x="234" unicode="&#314;" /><glyph d="M91 575 209 750H224L101 575ZM102 12H437V0H90V500H102Z" glyph-name="lacute.smcp" horiz-adv-x="472" /><glyph d="M194 550 220 750H234L203 550ZM154 -5Q119 -5 106.5 6Q94 17 94 44V750H106V41Q106 21 116.5 13Q127 5 154 5Z" glyph-name="lcaron" horiz-adv-x="234" unicode="&#318;" /><glyph d="M202 425 228 625H242L211 425ZM102 12H437V0H90V500H102Z" glyph-name="lcaron.smcp" horiz-adv-x="472" /><glyph d="M106 -120Q106 -114 110.5 -109.5Q115 -105 121 -105Q127 -105 131.5 -109.5Q136 -114 136 -120Q136 -123 134 -129L89 -250H88L118 -135Q106 -132 106 -120ZM154 -5Q119 -5 106.5 6Q94 17 94 44V750H106V41Q106 21 116.5 13Q127 5 154 5Z" glyph-name="lcommaaccent" horiz-adv-x="234" unicode="&#316;" /><glyph d="M250 -120Q250 -114 254.5 -109.5Q259 -105 265 -105Q271 -105 275.5 -109.5Q280 -114 280 -120Q280 -123 278 -129L233 -250H232L262 -135Q250 -132 250 -120ZM102 12H437V0H90V500H102Z" glyph-name="lcommaaccent.smcp" horiz-adv-x="472" /><glyph d="M252 375Q252 381 256.5 385.5Q261 390 267 390Q273 390 277.5 385.5Q282 381 282 375Q282 369 277.5 364.5Q273 360 267 360Q261 360 256.5 364.5Q252 369 252 375ZM154 -5Q119 -5 106.5 6Q94 17 94 44V750H106V41Q106 21 116.5 13Q127 5 154 5Z" glyph-name="ldot" horiz-adv-x="334" unicode="&#320;" /><glyph d="M317 275Q317 281 321.5 285.5Q326 290 332 290Q338 290 342.5 285.5Q347 281 347 275Q347 269 342.5 264.5Q338 260 332 260Q326 260 321.5 264.5Q317 269 317 275ZM102 12H437V0H90V500H102Z" glyph-name="ldot.smcp" horiz-adv-x="472" /><glyph d="M71 347 294 505V493L83 341L294 189V177L71 335Z" glyph-name="less" horiz-adv-x="365" unicode="&lt;" /><glyph d="M50 380 569 755V739L109 408L71 381H800V369H71L109 342L569 11V-5L50 370Z" glyph-name="lessequal" horiz-adv-x="860" unicode="&#8804;" /><glyph d="M80 0V500H580V0Z" glyph-name="logicalnot" horiz-adv-x="660" unicode="&#172;" /><glyph d="M134 63 446 375 134 687 143 696 455 384 767 696 776 687 464 375 776 63 767 54 455 366 143 54ZM92 12H818V738H92ZM80 0V750H830V0Z" glyph-name="lozenge" horiz-adv-x="910" unicode="&#9674;" /><glyph d="M-1 355 98 419V750H110V427L230 505V491L110 413V41Q110 21 120.5 13Q131 5 158 5V-5Q123 -5 110.5 6Q98 17 98 44V405L-1 341Z" glyph-name="lslash" horiz-adv-x="204" unicode="&#322;" /><glyph d="M347 313 122 198V12H457V0H110V192L20 146V159L110 205V500H122V211L347 326Z" glyph-name="lslash.smcp" horiz-adv-x="492" /><glyph d="M80 0V500H89L92 453Q127 476 173 490.5Q219 505 279 505Q340 505 375 491Q410 477 425 445Q468 474 517.5 489.5Q567 505 626 505Q714 505 750 474.5Q786 444 786 371V0H774V374Q774 411 764 435Q754 459 735.5 472.5Q717 486 689.5 491Q662 496 626 496Q570 496 522.5 481Q475 466 429 437Q439 411 439 371V0H427V374Q427 411 417 435Q407 459 388.5 472.5Q370 486 342.5 491Q315 496 279 496Q222 496 174.5 480.5Q127 465 92 442V0Z" glyph-name="m" horiz-adv-x="861" unicode="m" /><glyph d="M322 31 101 473 103 0H90V500H101L327 47L553 500H564V0H551L553 473L332 31Z" glyph-name="m.smcp" horiz-adv-x="654" /><glyph d="M437 708H163V720H437Z" glyph-name="macron" horiz-adv-x="540" unicode="&#175;" /><glyph d="M460 335H60V347H460Z" glyph-name="minus" horiz-adv-x="520" unicode="&#8722;" /><glyph d="M240 5Q306 5 357 22Q408 39 437 58V500H449V0H440L437 47Q402 24 352 9.5Q302 -5 240 -5Q176 -5 139 9.5Q102 24 87 59V-250H75V500H87V127Q87 90 97.5 66.5Q108 43 128 29.5Q148 16 176 10.5Q204 5 240 5Z" glyph-name="mu" horiz-adv-x="529" unicode="&#181;" /><glyph d="M114 204 251 341 114 478 123 487 260 350 397 487 406 478 269 341 406 204 397 195 260 332 123 195Z" glyph-name="multiply" horiz-adv-x="520" unicode="&#215;" /><glyph d="M80 0V500H89L92 453Q127 476 177 490.5Q227 505 289 505Q378 505 416 475Q454 445 454 371V0H442V373Q442 410 431.5 433.5Q421 457 401 470.5Q381 484 353 489.5Q325 495 289 495Q223 495 172 478Q121 461 92 442V0Z" glyph-name="n" horiz-adv-x="529" unicode="n" /><glyph d="M461 0 101 475 103 0H90V500H97L457 25L455 500H468V0Z" glyph-name="n.smcp" horiz-adv-x="558" /><glyph d="M267 575 385 750H400L277 575ZM80 0V500H89L92 453Q127 476 177 490.5Q227 505 289 505Q378 505 416 475Q454 445 454 371V0H442V373Q442 410 431.5 433.5Q421 457 401 470.5Q381 484 353 489.5Q325 495 289 495Q223 495 172 478Q121 461 92 442V0Z" glyph-name="nacute" horiz-adv-x="529" unicode="&#324;" /><glyph d="M274 575 392 750H407L284 575ZM461 0 101 475 103 0H90V500H97L457 25L455 500H468V0Z" glyph-name="nacute.smcp" horiz-adv-x="558" /><glyph d="M400 750 278 575H266L144 750H155L272 586L389 750ZM80 0V500H89L92 453Q127 476 177 490.5Q227 505 289 505Q378 505 416 475Q454 445 454 371V0H442V373Q442 410 431.5 433.5Q421 457 401 470.5Q381 484 353 489.5Q325 495 289 495Q223 495 172 478Q121 461 92 442V0Z" glyph-name="ncaron" horiz-adv-x="529" unicode="&#328;" /><glyph d="M407 750 285 575H273L151 750H162L279 586L396 750ZM461 0 101 475 103 0H90V500H97L457 25L455 500H468V0Z" glyph-name="ncaron.smcp" horiz-adv-x="558" /><glyph d="M259 -120Q259 -114 263.5 -109.5Q268 -105 274 -105Q280 -105 284.5 -109.5Q289 -114 289 -120Q289 -123 287 -129L242 -250H241L271 -135Q259 -132 259 -120ZM80 0V500H89L92 453Q127 476 177 490.5Q227 505 289 505Q378 505 416 475Q454 445 454 371V0H442V373Q442 410 431.5 433.5Q421 457 401 470.5Q381 484 353 489.5Q325 495 289 495Q223 495 172 478Q121 461 92 442V0Z" glyph-name="ncommaaccent" horiz-adv-x="529" unicode="&#326;" /><glyph d="M263 -120Q263 -114 267.5 -109.5Q272 -105 278 -105Q284 -105 288.5 -109.5Q293 -114 293 -120Q293 -123 291 -129L246 -250H245L275 -135Q263 -132 263 -120ZM461 0 101 475 103 0H90V500H97L457 25L455 500H468V0Z" glyph-name="ncommaaccent.smcp" horiz-adv-x="558" /><glyph d="M517 520Q517 566 508.5 607Q500 648 475.5 679Q451 710 406.5 727.5Q362 745 290 745Q223 745 181 727.5Q139 710 115.5 679Q92 648 83.5 607Q75 566 75 520Q75 473 82 431.5Q89 390 111.5 359Q134 328 176.5 309.5Q219 291 290 291Q360 291 404.5 313.5Q449 336 474 370Q499 404 508 444Q517 484 517 520ZM87 30Q101 24 147.5 14.5Q194 5 261 5Q341 5 392 32Q443 59 472 108.5Q501 158 512 227.5Q523 297 523 382V487Q517 422 493.5 381.5Q470 341 437 318.5Q404 296 365.5 288.5Q327 281 290 281Q214 281 169 301.5Q124 322 100.5 356Q77 390 70 432.5Q63 475 63 520Q63 564 71.5 606.5Q80 649 104.5 682Q129 715 173.5 735Q218 755 290 755Q383 755 433 727.5Q483 700 505.5 652Q528 604 531.5 538Q535 472 535 395Q535 300 523.5 226Q512 152 481.5 100.5Q451 49 397.5 22Q344 -5 261 -5Q202 -5 159 1.5Q116 8 87 18Z" glyph-name="nine" horiz-adv-x="600" unicode="9" /><glyph d="M517 520Q517 566 508.5 607Q500 648 475.5 679Q451 710 406.5 727.5Q362 745 290 745Q223 745 181 727.5Q139 710 115.5 679Q92 648 83.5 607Q75 566 75 520Q75 473 82 431.5Q89 390 111.5 359Q134 328 176.5 309.5Q219 291 290 291Q360 291 404.5 313.5Q449 336 474 370Q499 404 508 444Q517 484 517 520ZM87 30Q101 24 147.5 14.5Q194 5 261 5Q341 5 392 32Q443 59 472 108.5Q501 158 512 227.5Q523 297 523 382V487Q517 422 493.5 381.5Q470 341 437 318.5Q404 296 365.5 288.5Q327 281 290 281Q214 281 169 301.5Q124 322 100.5 356Q77 390 70 432.5Q63 475 63 520Q63 564 71.5 606.5Q80 649 104.5 682Q129 715 173.5 735Q218 755 290 755Q383 755 433 727.5Q483 700 505.5 652Q528 604 531.5 538Q535 472 535 395Q535 300 523.5 226Q512 152 481.5 100.5Q451 49 397.5 22Q344 -5 261 -5Q202 -5 159 1.5Q116 8 87 18Z" glyph-name="nine.LP" horiz-adv-x="600" /><glyph d="M513 270Q513 316 504.5 357Q496 398 471.5 429Q447 460 402.5 477.5Q358 495 286 495Q219 495 177 477.5Q135 460 111.5 429Q88 398 79.5 357Q71 316 71 270Q71 223 78 181.5Q85 140 107.5 109Q130 78 172.5 59.5Q215 41 286 41Q356 41 400.5 63.5Q445 86 470 120Q495 154 504 194Q513 234 513 270ZM83 -220Q97 -226 143.5 -235.5Q190 -245 257 -245Q337 -245 388 -218Q439 -191 468 -141.5Q497 -92 508 -22.5Q519 47 519 132V237Q513 172 489.5 131.5Q466 91 433 68.5Q400 46 361.5 38.5Q323 31 286 31Q210 31 165 51.5Q120 72 96.5 106Q73 140 66 182.5Q59 225 59 270Q59 314 67.5 356.5Q76 399 100.5 432Q125 465 169.5 485Q214 505 286 505Q379 505 429 477.5Q479 450 501.5 402Q524 354 527.5 288Q531 222 531 145Q531 50 519.5 -24Q508 -98 477.5 -149.5Q447 -201 393.5 -228Q340 -255 257 -255Q198 -255 155 -248.5Q112 -242 83 -232Z" glyph-name="nine.OP" horiz-adv-x="591" /><glyph d="M80 0V750H830V0Z" glyph-name="notequal" horiz-adv-x="910" unicode="&#8800;" /><glyph d="M419 684Q410 610 341 610Q314 610 297 621Q280 632 265.5 645Q251 658 235.5 669Q220 680 195 680Q168 680 150 664Q132 648 128 616H117Q126 690 195 690Q222 690 239 679Q256 668 270.5 655Q285 642 300.5 631Q316 620 341 620Q368 620 386 636Q404 652 408 684ZM80 0V500H89L92 453Q127 476 177 490.5Q227 505 289 505Q378 505 416 475Q454 445 454 371V0H442V373Q442 410 431.5 433.5Q421 457 401 470.5Q381 484 353 489.5Q325 495 289 495Q223 495 172 478Q121 461 92 442V0Z" glyph-name="ntilde" horiz-adv-x="529" unicode="&#241;" /><glyph d="M430 684Q421 610 352 610Q325 610 308 621Q291 632 276.5 645Q262 658 246.5 669Q231 680 206 680Q179 680 161 664Q143 648 139 616H128Q137 690 206 690Q233 690 250 679Q267 668 281.5 655Q296 642 311.5 631Q327 620 352 620Q379 620 397 636Q415 652 419 684ZM461 0 101 475 103 0H90V500H97L457 25L455 500H468V0Z" glyph-name="ntilde.smcp" horiz-adv-x="558" /><glyph d="M140 401H370L445 599H215ZM313 250 365 389H135L83 250H70L122 389H21L25 401H127L202 599H101L105 611H206L259 750H272L219 611H449L502 750H515L462 611H564L560 599H458L383 401H484L480 389H378L326 250Z" glyph-name="numbersign" horiz-adv-x="585" unicode="#" /><glyph d="M140 151H370L445 349H215ZM313 0 365 139H135L83 0H70L122 139H21L25 151H127L202 349H101L105 361H206L259 500H272L219 361H449L502 500H515L462 361H564L560 349H458L383 151H484L480 139H378L326 0Z" glyph-name="numbersign.OP" horiz-adv-x="585" /><glyph d="M275 495Q213 495 175 474Q137 453 116.5 418.5Q96 384 89 340Q82 296 82 250Q82 204 89 160Q96 116 116.5 81.5Q137 47 175 26Q213 5 275 5Q337 5 375 26Q413 47 433.5 81.5Q454 116 461 160Q468 204 468 250Q468 296 461 340Q454 384 433.5 418.5Q413 453 375 474Q337 495 275 495ZM275 -5Q213 -5 173.5 15Q134 35 111 69.5Q88 104 79 150.5Q70 197 70 250Q70 303 79 349.5Q88 396 111 430.5Q134 465 173.5 485Q213 505 275 505Q336 505 376 485Q416 465 439 430.5Q462 396 471 349.5Q480 303 480 250Q480 197 471 150.5Q462 104 439 69.5Q416 35 376 15Q336 -5 275 -5Z" glyph-name="o" horiz-adv-x="550" unicode="o" /><glyph d="M510 250Q510 304 501 349Q492 394 468 426.5Q444 459 402.5 477Q361 495 296 495Q230 495 188.5 477Q147 459 123 426.5Q99 394 90.5 349Q82 304 82 250Q82 196 90.5 151Q99 106 123 73.5Q147 41 188.5 23Q230 5 296 5Q361 5 402.5 23Q444 41 468 73.5Q492 106 501 151Q510 196 510 250ZM70 250Q70 308 80.5 355.5Q91 403 116.5 436Q142 469 186 487Q230 505 296 505Q363 505 406.5 487Q450 469 475.5 436Q501 403 511.5 355.5Q522 308 522 250Q522 191 511.5 144Q501 97 475.5 64Q450 31 406.5 13Q363 -5 296 -5Q230 -5 186 13Q142 31 116.5 64Q91 97 80.5 144Q70 191 70 250Z" glyph-name="o.smcp" horiz-adv-x="592" /><glyph d="M270 575 388 750H403L280 575ZM275 495Q213 495 175 474Q137 453 116.5 418.5Q96 384 89 340Q82 296 82 250Q82 204 89 160Q96 116 116.5 81.5Q137 47 175 26Q213 5 275 5Q337 5 375 26Q413 47 433.5 81.5Q454 116 461 160Q468 204 468 250Q468 296 461 340Q454 384 433.5 418.5Q413 453 375 474Q337 495 275 495ZM275 -5Q213 -5 173.5 15Q134 35 111 69.5Q88 104 79 150.5Q70 197 70 250Q70 303 79 349.5Q88 396 111 430.5Q134 465 173.5 485Q213 505 275 505Q336 505 376 485Q416 465 439 430.5Q462 396 471 349.5Q480 303 480 250Q480 197 471 150.5Q462 104 439 69.5Q416 35 376 15Q336 -5 275 -5Z" glyph-name="oacute" horiz-adv-x="550" unicode="&#243;" /><glyph d="M291 575 409 750H424L301 575ZM510 250Q510 304 501 349Q492 394 468 426.5Q444 459 402.5 477Q361 495 296 495Q230 495 188.5 477Q147 459 123 426.5Q99 394 90.5 349Q82 304 82 250Q82 196 90.5 151Q99 106 123 73.5Q147 41 188.5 23Q230 5 296 5Q361 5 402.5 23Q444 41 468 73.5Q492 106 501 151Q510 196 510 250ZM70 250Q70 308 80.5 355.5Q91 403 116.5 436Q142 469 186 487Q230 505 296 505Q363 505 406.5 487Q450 469 475.5 436Q501 403 511.5 355.5Q522 308 522 250Q522 191 511.5 144Q501 97 475.5 64Q450 31 406.5 13Q363 -5 296 -5Q230 -5 186 13Q142 31 116.5 64Q91 97 80.5 144Q70 191 70 250Z" glyph-name="oacute.smcp" horiz-adv-x="592" /><glyph d="M275 550Q100 550 100 750H110Q111 661 149 610.5Q187 560 275 560Q363 560 401 610.5Q439 661 440 750H450Q450 550 275 550ZM275 495Q213 495 175 474Q137 453 116.5 418.5Q96 384 89 340Q82 296 82 250Q82 204 89 160Q96 116 116.5 81.5Q137 47 175 26Q213 5 275 5Q337 5 375 26Q413 47 433.5 81.5Q454 116 461 160Q468 204 468 250Q468 296 461 340Q454 384 433.5 418.5Q413 453 375 474Q337 495 275 495ZM275 -5Q213 -5 173.5 15Q134 35 111 69.5Q88 104 79 150.5Q70 197 70 250Q70 303 79 349.5Q88 396 111 430.5Q134 465 173.5 485Q213 505 275 505Q336 505 376 485Q416 465 439 430.5Q462 396 471 349.5Q480 303 480 250Q480 197 471 150.5Q462 104 439 69.5Q416 35 376 15Q336 -5 275 -5Z" glyph-name="obreve" horiz-adv-x="550" unicode="&#335;" /><glyph d="M296 550Q121 550 121 750H131Q132 661 170 610.5Q208 560 296 560Q384 560 422 610.5Q460 661 461 750H471Q471 550 296 550ZM510 250Q510 304 501 349Q492 394 468 426.5Q444 459 402.5 477Q361 495 296 495Q230 495 188.5 477Q147 459 123 426.5Q99 394 90.5 349Q82 304 82 250Q82 196 90.5 151Q99 106 123 73.5Q147 41 188.5 23Q230 5 296 5Q361 5 402.5 23Q444 41 468 73.5Q492 106 501 151Q510 196 510 250ZM70 250Q70 308 80.5 355.5Q91 403 116.5 436Q142 469 186 487Q230 505 296 505Q363 505 406.5 487Q450 469 475.5 436Q501 403 511.5 355.5Q522 308 522 250Q522 191 511.5 144Q501 97 475.5 64Q450 31 406.5 13Q363 -5 296 -5Q230 -5 186 13Q142 31 116.5 64Q91 97 80.5 144Q70 191 70 250Z" glyph-name="obreve.smcp" horiz-adv-x="592" /><glyph d="M392 575 275 739 158 575H147L269 750H281L403 575ZM275 495Q213 495 175 474Q137 453 116.5 418.5Q96 384 89 340Q82 296 82 250Q82 204 89 160Q96 116 116.5 81.5Q137 47 175 26Q213 5 275 5Q337 5 375 26Q413 47 433.5 81.5Q454 116 461 160Q468 204 468 250Q468 296 461 340Q454 384 433.5 418.5Q413 453 375 474Q337 495 275 495ZM275 -5Q213 -5 173.5 15Q134 35 111 69.5Q88 104 79 150.5Q70 197 70 250Q70 303 79 349.5Q88 396 111 430.5Q134 465 173.5 485Q213 505 275 505Q336 505 376 485Q416 465 439 430.5Q462 396 471 349.5Q480 303 480 250Q480 197 471 150.5Q462 104 439 69.5Q416 35 376 15Q336 -5 275 -5Z" glyph-name="ocircumflex" horiz-adv-x="550" unicode="&#244;" /><glyph d="M413 575 296 739 179 575H168L290 750H302L424 575ZM510 250Q510 304 501 349Q492 394 468 426.5Q444 459 402.5 477Q361 495 296 495Q230 495 188.5 477Q147 459 123 426.5Q99 394 90.5 349Q82 304 82 250Q82 196 90.5 151Q99 106 123 73.5Q147 41 188.5 23Q230 5 296 5Q361 5 402.5 23Q444 41 468 73.5Q492 106 501 151Q510 196 510 250ZM70 250Q70 308 80.5 355.5Q91 403 116.5 436Q142 469 186 487Q230 505 296 505Q363 505 406.5 487Q450 469 475.5 436Q501 403 511.5 355.5Q522 308 522 250Q522 191 511.5 144Q501 97 475.5 64Q450 31 406.5 13Q363 -5 296 -5Q230 -5 186 13Q142 31 116.5 64Q91 97 80.5 144Q70 191 70 250Z" glyph-name="ocircumflex.smcp" horiz-adv-x="592" /><glyph d="M351 700Q351 706 355.5 710.5Q360 715 366 715Q372 715 376.5 710.5Q381 706 381 700Q381 694 376.5 689.5Q372 685 366 685Q360 685 355.5 689.5Q351 694 351 700ZM161 700Q161 706 165.5 710.5Q170 715 176 715Q182 715 186.5 710.5Q191 706 191 700Q191 694 186.5 689.5Q182 685 176 685Q170 685 165.5 689.5Q161 694 161 700ZM275 495Q213 495 175 474Q137 453 116.5 418.5Q96 384 89 340Q82 296 82 250Q82 204 89 160Q96 116 116.5 81.5Q137 47 175 26Q213 5 275 5Q337 5 375 26Q413 47 433.5 81.5Q454 116 461 160Q468 204 468 250Q468 296 461 340Q454 384 433.5 418.5Q413 453 375 474Q337 495 275 495ZM275 -5Q213 -5 173.5 15Q134 35 111 69.5Q88 104 79 150.5Q70 197 70 250Q70 303 79 349.5Q88 396 111 430.5Q134 465 173.5 485Q213 505 275 505Q336 505 376 485Q416 465 439 430.5Q462 396 471 349.5Q480 303 480 250Q480 197 471 150.5Q462 104 439 69.5Q416 35 376 15Q336 -5 275 -5Z" glyph-name="odieresis" horiz-adv-x="550" unicode="&#246;" /><glyph d="M372 700Q372 706 376.5 710.5Q381 715 387 715Q393 715 397.5 710.5Q402 706 402 700Q402 694 397.5 689.5Q393 685 387 685Q381 685 376.5 689.5Q372 694 372 700ZM182 700Q182 706 186.5 710.5Q191 715 197 715Q203 715 207.5 710.5Q212 706 212 700Q212 694 207.5 689.5Q203 685 197 685Q191 685 186.5 689.5Q182 694 182 700ZM510 250Q510 304 501 349Q492 394 468 426.5Q444 459 402.5 477Q361 495 296 495Q230 495 188.5 477Q147 459 123 426.5Q99 394 90.5 349Q82 304 82 250Q82 196 90.5 151Q99 106 123 73.5Q147 41 188.5 23Q230 5 296 5Q361 5 402.5 23Q444 41 468 73.5Q492 106 501 151Q510 196 510 250ZM70 250Q70 308 80.5 355.5Q91 403 116.5 436Q142 469 186 487Q230 505 296 505Q363 505 406.5 487Q450 469 475.5 436Q501 403 511.5 355.5Q522 308 522 250Q522 191 511.5 144Q501 97 475.5 64Q450 31 406.5 13Q363 -5 296 -5Q230 -5 186 13Q142 31 116.5 64Q91 97 80.5 144Q70 191 70 250Z" glyph-name="odieresis.smcp" horiz-adv-x="592" /><glyph d="M843 255Q843 302 838.5 345.5Q834 389 817 422Q800 455 766 475Q732 495 673 495Q613 495 576 476.5Q539 458 518 426Q497 394 489 351Q481 308 480 260V255ZM275 495Q213 495 175 474Q137 453 116.5 418.5Q96 384 89 340Q82 296 82 250Q82 204 89 160Q96 116 116.5 81.5Q137 47 175 26Q213 5 275 5Q335 5 372.5 25Q410 45 431 77.5Q452 110 459.5 152Q467 194 468 239V261Q467 305 459.5 347Q452 389 431 422Q410 455 372.5 475Q335 495 275 495ZM673 5Q727 5 764 13.5Q801 22 829 30V20Q799 10 756 2.5Q713 -5 673 -5Q624 -5 589 7Q554 19 530.5 41Q507 63 493.5 94.5Q480 126 474 164Q468 127 454 96Q440 65 416.5 42.5Q393 20 358 7.5Q323 -5 275 -5Q213 -5 173.5 15Q134 35 111 69.5Q88 104 79 150.5Q70 197 70 250Q70 303 79 349.5Q88 396 111 430.5Q134 465 173.5 485Q213 505 275 505Q323 505 358 492.5Q393 480 416.5 457.5Q440 435 454 403.5Q468 372 474 335Q480 374 493.5 405Q507 436 530.5 458.5Q554 481 589 493Q624 505 673 505Q733 505 769 486Q805 467 824 433Q843 399 849 352Q855 305 855 250V245H480Q481 196 488.5 152.5Q496 109 517 76Q538 43 575.5 24Q613 5 673 5Z" glyph-name="oe" horiz-adv-x="925" unicode="&#339;" /><glyph d="M405 12V488H294Q236 488 195.5 471.5Q155 455 130 424.5Q105 394 93.5 349.5Q82 305 82 250Q82 194 93.5 150Q105 106 130 75.5Q155 45 195.5 28.5Q236 12 294 12ZM702 250H417V12H742V0H298Q234 0 190.5 17.5Q147 35 120 67Q93 99 81.5 145.5Q70 192 70 250Q70 308 81.5 354.5Q93 401 120 433Q147 465 190.5 482.5Q234 500 298 500H742V488H417V262H702Z" glyph-name="oe.smcp" horiz-adv-x="807" /><glyph d="M445 0Q425 -8 401.5 -21.5Q378 -35 358.5 -53.5Q339 -72 326 -95Q313 -118 313 -146Q313 -178 331 -199Q349 -220 397 -220Q412 -220 425.5 -218Q439 -216 450 -213V-223Q439 -226 425 -228Q411 -230 391 -230Q354 -230 327.5 -210.5Q301 -191 301 -150Q301 -120 313.5 -95Q326 -70 346 -50.5Q366 -31 391 -16.5Q416 -2 442 9Z" glyph-name="ogonek" horiz-adv-x="540" unicode="&#731;" /><glyph d="M270 575 147 750H162L280 575ZM275 495Q213 495 175 474Q137 453 116.5 418.5Q96 384 89 340Q82 296 82 250Q82 204 89 160Q96 116 116.5 81.5Q137 47 175 26Q213 5 275 5Q337 5 375 26Q413 47 433.5 81.5Q454 116 461 160Q468 204 468 250Q468 296 461 340Q454 384 433.5 418.5Q413 453 375 474Q337 495 275 495ZM275 -5Q213 -5 173.5 15Q134 35 111 69.5Q88 104 79 150.5Q70 197 70 250Q70 303 79 349.5Q88 396 111 430.5Q134 465 173.5 485Q213 505 275 505Q336 505 376 485Q416 465 439 430.5Q462 396 471 349.5Q480 303 480 250Q480 197 471 150.5Q462 104 439 69.5Q416 35 376 15Q336 -5 275 -5Z" glyph-name="ograve" horiz-adv-x="550" unicode="&#242;" /><glyph d="M291 575 168 750H183L301 575ZM510 250Q510 304 501 349Q492 394 468 426.5Q444 459 402.5 477Q361 495 296 495Q230 495 188.5 477Q147 459 123 426.5Q99 394 90.5 349Q82 304 82 250Q82 196 90.5 151Q99 106 123 73.5Q147 41 188.5 23Q230 5 296 5Q361 5 402.5 23Q444 41 468 73.5Q492 106 501 151Q510 196 510 250ZM70 250Q70 308 80.5 355.5Q91 403 116.5 436Q142 469 186 487Q230 505 296 505Q363 505 406.5 487Q450 469 475.5 436Q501 403 511.5 355.5Q522 308 522 250Q522 191 511.5 144Q501 97 475.5 64Q450 31 406.5 13Q363 -5 296 -5Q230 -5 186 13Q142 31 116.5 64Q91 97 80.5 144Q70 191 70 250Z" glyph-name="ograve.smcp" horiz-adv-x="592" /><glyph d="M325 575 443 750H458L335 575ZM213 575 331 750H346L223 575ZM275 495Q213 495 175 474Q137 453 116.5 418.5Q96 384 89 340Q82 296 82 250Q82 204 89 160Q96 116 116.5 81.5Q137 47 175 26Q213 5 275 5Q337 5 375 26Q413 47 433.5 81.5Q454 116 461 160Q468 204 468 250Q468 296 461 340Q454 384 433.5 418.5Q413 453 375 474Q337 495 275 495ZM275 -5Q213 -5 173.5 15Q134 35 111 69.5Q88 104 79 150.5Q70 197 70 250Q70 303 79 349.5Q88 396 111 430.5Q134 465 173.5 485Q213 505 275 505Q336 505 376 485Q416 465 439 430.5Q462 396 471 349.5Q480 303 480 250Q480 197 471 150.5Q462 104 439 69.5Q416 35 376 15Q336 -5 275 -5Z" glyph-name="ohungarumlaut" horiz-adv-x="550" unicode="&#337;" /><glyph d="M346 575 464 750H479L356 575ZM234 575 352 750H367L244 575ZM510 250Q510 304 501 349Q492 394 468 426.5Q444 459 402.5 477Q361 495 296 495Q230 495 188.5 477Q147 459 123 426.5Q99 394 90.5 349Q82 304 82 250Q82 196 90.5 151Q99 106 123 73.5Q147 41 188.5 23Q230 5 296 5Q361 5 402.5 23Q444 41 468 73.5Q492 106 501 151Q510 196 510 250ZM70 250Q70 308 80.5 355.5Q91 403 116.5 436Q142 469 186 487Q230 505 296 505Q363 505 406.5 487Q450 469 475.5 436Q501 403 511.5 355.5Q522 308 522 250Q522 191 511.5 144Q501 97 475.5 64Q450 31 406.5 13Q363 -5 296 -5Q230 -5 186 13Q142 31 116.5 64Q91 97 80.5 144Q70 191 70 250Z" glyph-name="ohungarumlaut.smcp" horiz-adv-x="592" /><glyph d="M412 708H138V720H412ZM275 495Q213 495 175 474Q137 453 116.5 418.5Q96 384 89 340Q82 296 82 250Q82 204 89 160Q96 116 116.5 81.5Q137 47 175 26Q213 5 275 5Q337 5 375 26Q413 47 433.5 81.5Q454 116 461 160Q468 204 468 250Q468 296 461 340Q454 384 433.5 418.5Q413 453 375 474Q337 495 275 495ZM275 -5Q213 -5 173.5 15Q134 35 111 69.5Q88 104 79 150.5Q70 197 70 250Q70 303 79 349.5Q88 396 111 430.5Q134 465 173.5 485Q213 505 275 505Q336 505 376 485Q416 465 439 430.5Q462 396 471 349.5Q480 303 480 250Q480 197 471 150.5Q462 104 439 69.5Q416 35 376 15Q336 -5 275 -5Z" glyph-name="omacron" horiz-adv-x="550" unicode="&#333;" /><glyph d="M433 708H159V720H433ZM510 250Q510 304 501 349Q492 394 468 426.5Q444 459 402.5 477Q361 495 296 495Q230 495 188.5 477Q147 459 123 426.5Q99 394 90.5 349Q82 304 82 250Q82 196 90.5 151Q99 106 123 73.5Q147 41 188.5 23Q230 5 296 5Q361 5 402.5 23Q444 41 468 73.5Q492 106 501 151Q510 196 510 250ZM70 250Q70 308 80.5 355.5Q91 403 116.5 436Q142 469 186 487Q230 505 296 505Q363 505 406.5 487Q450 469 475.5 436Q501 403 511.5 355.5Q522 308 522 250Q522 191 511.5 144Q501 97 475.5 64Q450 31 406.5 13Q363 -5 296 -5Q230 -5 186 13Q142 31 116.5 64Q91 97 80.5 144Q70 191 70 250Z" glyph-name="omacron.smcp" horiz-adv-x="592" /><glyph d="M115 12H306V741L99 698V709L318 755V12H490V0H115Z" glyph-name="one" horiz-adv-x="600" unicode="1" /><glyph d="M198 755V0H186V741L36 710V721Z" glyph-name="one.LP" horiz-adv-x="331" /><glyph d="M198 505V0H186V491L36 460V471Z" glyph-name="one.OP" horiz-adv-x="331" /><glyph d="M273 335H60V347H273Z" glyph-name="onethirdemdash" horiz-adv-x="333" /><glyph d="M181 588Q72 579 72 485Q72 467 76.5 449Q81 431 94 416.5Q107 402 130 393.5Q153 385 189 385Q227 385 260.5 396Q294 407 323 424V600ZM200 744Q165 744 135.5 739.5Q106 735 91 730V741Q108 746 138 750.5Q168 755 200 755Q242 755 268.5 747.5Q295 740 309.5 725.5Q324 711 329.5 689.5Q335 668 335 641V380H326L324 414Q292 394 254.5 384.5Q217 375 188 375Q151 375 126.5 384Q102 393 87 408Q72 423 66 443Q60 463 60 485Q60 508 66 527.5Q72 547 86.5 562Q101 577 126 586.5Q151 596 189 599L323 610V638Q323 667 317.5 687Q312 707 298.5 720Q285 733 261 738.5Q237 744 200 744Z" glyph-name="ordfeminine" horiz-adv-x="405" unicode="&#170;" /><glyph d="M96 500H280L188 732ZM190 755 341 380H328L285 488H91L48 380H35L186 755Z" glyph-name="ordfeminine.smcp" horiz-adv-x="376" /><glyph d="M231 745Q192 745 164.5 735.5Q137 726 119 705Q101 684 92.5 649.5Q84 615 84 565Q84 515 92.5 480.5Q101 446 119 425Q137 404 164.5 394.5Q192 385 231 385Q270 385 297.5 394.5Q325 404 343 425Q361 446 369.5 480.5Q378 515 378 565Q378 615 369.5 649.5Q361 684 343 705Q325 726 297.5 735.5Q270 745 231 745ZM231 375Q188 375 158 385.5Q128 396 109 418.5Q90 441 81 477.5Q72 514 72 565Q72 616 81 652.5Q90 689 109 711.5Q128 734 158 744.5Q188 755 231 755Q274 755 304 744.5Q334 734 353 711.5Q372 689 381 652.5Q390 616 390 565Q390 514 381 477.5Q372 441 353 418.5Q334 396 304 385.5Q274 375 231 375Z" glyph-name="ordmasculine" horiz-adv-x="462" unicode="&#186;" /><glyph d="M231 745Q192 745 164.5 735.5Q137 726 119 705Q101 684 92.5 649.5Q84 615 84 565Q84 515 92.5 480.5Q101 446 119 425Q137 404 164.5 394.5Q192 385 231 385Q270 385 297.5 394.5Q325 404 343 425Q361 446 369.5 480.5Q378 515 378 565Q378 615 369.5 649.5Q361 684 343 705Q325 726 297.5 735.5Q270 745 231 745ZM231 375Q188 375 158 385.5Q128 396 109 418.5Q90 441 81 477.5Q72 514 72 565Q72 616 81 652.5Q90 689 109 711.5Q128 734 158 744.5Q188 755 231 755Q274 755 304 744.5Q334 734 353 711.5Q372 689 381 652.5Q390 616 390 565Q390 514 381 477.5Q372 441 353 418.5Q334 396 304 385.5Q274 375 231 375Z" glyph-name="ordmasculine.smcp" horiz-adv-x="462" /><glyph d="M275 5Q337 5 375 26Q413 47 433.5 81.5Q454 116 461 160Q468 204 468 250Q468 303 458 354Q448 405 417 440L141 51Q163 29 195 17Q227 5 275 5ZM275 495Q213 495 175 474Q137 453 116.5 418.5Q96 384 89 340Q82 296 82 250Q82 223 84 196.5Q86 170 91.5 145Q97 120 107 98.5Q117 77 133 59L409 449Q387 470 354.5 482.5Q322 495 275 495ZM91 0 126 50Q94 85 82 136.5Q70 188 70 250Q70 303 79 349.5Q88 396 111 430.5Q134 465 173.5 485Q213 505 275 505Q323 505 357.5 493Q392 481 415 458L445 500H459L423 450Q455 415 467.5 363Q480 311 480 250Q480 197 471 150.5Q462 104 439 69.5Q416 35 376 15Q336 -5 275 -5Q227 -5 192.5 7Q158 19 134 41L105 0Z" glyph-name="oslash" horiz-adv-x="550" unicode="&#248;" /><glyph d="M510 250Q510 316 496.5 367.5Q483 419 445 451L155 41Q179 24 213.5 14.5Q248 5 296 5Q361 5 402.5 23Q444 41 468 73.5Q492 106 501 151Q510 196 510 250ZM296 495Q230 495 188.5 477Q147 459 123 426.5Q99 394 90.5 349Q82 304 82 250Q82 184 95 132Q108 80 146 48L436 458Q411 475 377 485Q343 495 296 495ZM112 0 140 40Q100 72 85 125.5Q70 179 70 250Q70 308 80.5 355.5Q91 403 116.5 436Q142 469 186 487Q230 505 296 505Q345 505 381 495.5Q417 486 443 467L466 500H480L452 460Q491 428 506.5 374.5Q522 321 522 250Q522 191 511.5 144Q501 97 475.5 64Q450 31 406.5 13Q363 -5 296 -5Q201 -5 149 32L126 0Z" glyph-name="oslash.smcp" horiz-adv-x="592" /><glyph d="M426 684Q417 610 348 610Q321 610 304 621Q287 632 272.5 645Q258 658 242.5 669Q227 680 202 680Q175 680 157 664Q139 648 135 616H124Q133 690 202 690Q229 690 246 679Q263 668 277.5 655Q292 642 307.5 631Q323 620 348 620Q375 620 393 636Q411 652 415 684ZM275 495Q213 495 175 474Q137 453 116.5 418.5Q96 384 89 340Q82 296 82 250Q82 204 89 160Q96 116 116.5 81.5Q137 47 175 26Q213 5 275 5Q337 5 375 26Q413 47 433.5 81.5Q454 116 461 160Q468 204 468 250Q468 296 461 340Q454 384 433.5 418.5Q413 453 375 474Q337 495 275 495ZM275 -5Q213 -5 173.5 15Q134 35 111 69.5Q88 104 79 150.5Q70 197 70 250Q70 303 79 349.5Q88 396 111 430.5Q134 465 173.5 485Q213 505 275 505Q336 505 376 485Q416 465 439 430.5Q462 396 471 349.5Q480 303 480 250Q480 197 471 150.5Q462 104 439 69.5Q416 35 376 15Q336 -5 275 -5Z" glyph-name="otilde" horiz-adv-x="550" unicode="&#245;" /><glyph d="M447 684Q438 610 369 610Q342 610 325 621Q308 632 293.5 645Q279 658 263.5 669Q248 680 223 680Q196 680 178 664Q160 648 156 616H145Q154 690 223 690Q250 690 267 679Q284 668 298.5 655Q313 642 328.5 631Q344 620 369 620Q396 620 414 636Q432 652 436 684ZM510 250Q510 304 501 349Q492 394 468 426.5Q444 459 402.5 477Q361 495 296 495Q230 495 188.5 477Q147 459 123 426.5Q99 394 90.5 349Q82 304 82 250Q82 196 90.5 151Q99 106 123 73.5Q147 41 188.5 23Q230 5 296 5Q361 5 402.5 23Q444 41 468 73.5Q492 106 501 151Q510 196 510 250ZM70 250Q70 308 80.5 355.5Q91 403 116.5 436Q142 469 186 487Q230 505 296 505Q363 505 406.5 487Q450 469 475.5 436Q501 403 511.5 355.5Q522 308 522 250Q522 191 511.5 144Q501 97 475.5 64Q450 31 406.5 13Q363 -5 296 -5Q230 -5 186 13Q142 31 116.5 64Q91 97 80.5 144Q70 191 70 250Z" glyph-name="otilde.smcp" horiz-adv-x="592" /><glyph d="M97 58Q132 35 179.5 20Q227 5 284 5Q346 5 384 26Q422 47 442.5 81.5Q463 116 470 160Q477 204 477 250Q477 296 470 340Q463 384 442.5 418.5Q422 453 384 474Q346 495 284 495Q227 495 179.5 480Q132 465 97 442ZM85 -250V500H94L97 453Q132 476 178 490.5Q224 505 284 505Q345 505 385 485Q425 465 448 430.5Q471 396 480 349.5Q489 303 489 250Q489 197 480 150.5Q471 104 448 69.5Q425 35 385 15Q345 -5 284 -5Q224 -5 178 9.5Q132 24 97 47V-250Z" glyph-name="p" horiz-adv-x="559" unicode="p" /><glyph d="M292 210Q334 210 361 220.5Q388 231 404 249.5Q420 268 426.5 293.5Q433 319 433 349Q433 380 426.5 405.5Q420 431 404 449.5Q388 468 361 478Q334 488 292 488H102V210ZM102 0H90V500H284Q333 500 364.5 489Q396 478 414 457.5Q432 437 438.5 409.5Q445 382 445 349Q445 316 438.5 288.5Q432 261 414 241Q396 221 364.5 209.5Q333 198 284 198H102Z" glyph-name="p.smcp" horiz-adv-x="500" /><glyph d="M483 738H337V337H483ZM52 537Q52 502 59 466.5Q66 431 88.5 402.5Q111 374 151.5 355.5Q192 337 260 337H325V738H260Q192 738 151.5 720Q111 702 88.5 673Q66 644 59 608Q52 572 52 537ZM325 0V326H261Q194 326 151 343.5Q108 361 83.5 390Q59 419 49.5 457Q40 495 40 537Q40 579 49.5 617.5Q59 656 83.5 685.5Q108 715 151 732.5Q194 750 261 750H495V0H483V326H337V0Z" glyph-name="paragraph" horiz-adv-x="575" unicode="&#182;" /><glyph d="M190 -206Q171 -178 149 -130Q127 -82 108.5 -17Q90 48 77.5 129Q65 210 65 305Q65 400 77.5 481Q90 562 108.5 627Q127 692 149 740Q171 788 190 816H203Q184 788 162 740Q140 692 121 627Q102 562 89.5 481Q77 400 77 305Q77 210 89.5 129Q102 48 121 -17Q140 -82 162 -130Q184 -178 203 -206Z" glyph-name="parenleft" horiz-adv-x="253" unicode="(" /><glyph d="M50 -206Q69 -178 91 -130Q113 -82 132 -17Q151 48 163.5 129Q176 210 176 305Q176 400 163.5 481Q151 562 132 627Q113 692 91 740Q69 788 50 816H63Q82 788 104 740Q126 692 144.5 627Q163 562 175.5 481Q188 400 188 305Q188 210 175.5 129Q163 48 144.5 -17Q126 -82 104 -130Q82 -178 63 -206Z" glyph-name="parenright" horiz-adv-x="253" unicode=")" /><glyph d="M275 495Q213 495 175 474Q137 453 116.5 418.5Q96 384 89 340Q82 296 82 250Q82 204 89 160Q96 116 116.5 81.5Q137 47 175 26Q213 5 275 5Q337 5 375 26Q413 47 433.5 81.5Q454 116 461 160Q468 204 468 250Q468 296 461 340Q454 384 433.5 418.5Q413 453 375 474Q337 495 275 495ZM275 -5Q213 -5 173.5 15Q134 35 111 69.5Q88 104 79 150.5Q70 197 70 250Q70 303 79 349.5Q88 396 111 430.5Q134 465 173.5 485Q213 505 275 505Q318 505 350.5 495Q383 485 406 466.5Q429 448 444 422Q459 396 467 365Q463 460 450.5 531.5Q438 603 411.5 650.5Q385 698 342 721.5Q299 745 235 745Q191 745 156.5 739.5Q122 734 95 725V735Q115 743 149 749Q183 755 235 755Q311 755 358.5 725Q406 695 432.5 634Q459 573 468.5 479.5Q478 386 480 260V250Q480 197 471 150.5Q462 104 439 69.5Q416 35 376 15Q336 -5 275 -5Z" glyph-name="partialdiff" horiz-adv-x="550" unicode="&#8706;" /><glyph d="M188 0 718 750H732L202 0ZM850 179Q850 228 841 261Q832 294 813 314.5Q794 335 766 344Q738 353 701 353Q663 353 635.5 344Q608 335 589 314.5Q570 294 561 261Q552 228 552 179Q552 130 561 97Q570 64 589 43.5Q608 23 635.5 14Q663 5 701 5Q738 5 766 14Q794 23 813 43.5Q832 64 841 97Q850 130 850 179ZM70 571Q70 522 79 489Q88 456 107 435.5Q126 415 153.5 406Q181 397 219 397Q256 397 284 406Q312 415 331 435.5Q350 456 359 489Q368 522 368 571Q368 620 359 653Q350 686 331 706.5Q312 727 284 736Q256 745 219 745Q181 745 153.5 736Q126 727 107 706.5Q88 686 79 653Q70 620 70 571ZM58 571Q58 670 96 712.5Q134 755 219 755Q303 755 341.5 712.5Q380 670 380 571Q380 472 341.5 429.5Q303 387 219 387Q134 387 96 429.5Q58 472 58 571ZM862 179Q862 80 824 37.5Q786 -5 701 -5Q617 -5 578.5 37.5Q540 80 540 179Q540 278 578.5 320.5Q617 363 701 363Q786 363 824 320.5Q862 278 862 179Z" glyph-name="percent" horiz-adv-x="920" unicode="%" /><glyph d="M75 10Q75 16 79.5 20.5Q84 25 90 25Q96 25 100.5 20.5Q105 16 105 10Q105 4 100.5 -0.5Q96 -5 90 -5Q84 -5 79.5 -0.5Q75 4 75 10Z" glyph-name="period" horiz-adv-x="180" unicode="." /><glyph d="M75 375Q75 381 79.5 385.5Q84 390 90 390Q96 390 100.5 385.5Q105 381 105 375Q105 369 100.5 364.5Q96 360 90 360Q84 360 79.5 364.5Q75 369 75 375Z" glyph-name="periodcentered" horiz-adv-x="180" unicode="&#183;" /><glyph d="M188 0 718 750H732L202 0ZM70 571Q70 522 79 489Q88 456 107 435.5Q126 415 153.5 406Q181 397 219 397Q256 397 284 406Q312 415 331 435.5Q350 456 359 489Q368 522 368 571Q368 620 359 653Q350 686 331 706.5Q312 727 284 736Q256 745 219 745Q181 745 153.5 736Q126 727 107 706.5Q88 686 79 653Q70 620 70 571ZM1270 179Q1270 228 1261 261Q1252 294 1233 314.5Q1214 335 1186 344Q1158 353 1121 353Q1083 353 1055.5 344Q1028 335 1009 314.5Q990 294 981 261Q972 228 972 179Q972 130 981 97Q990 64 1009 43.5Q1028 23 1055.5 14Q1083 5 1121 5Q1158 5 1186 14Q1214 23 1233 43.5Q1252 64 1261 97Q1270 130 1270 179ZM850 179Q850 228 841 261Q832 294 813 314.5Q794 335 766 344Q738 353 701 353Q663 353 635.5 344Q608 335 589 314.5Q570 294 561 261Q552 228 552 179Q552 130 561 97Q570 64 589 43.5Q608 23 635.5 14Q663 5 701 5Q738 5 766 14Q794 23 813 43.5Q832 64 841 97Q850 130 850 179ZM1282 179Q1282 80 1244 37.5Q1206 -5 1121 -5Q1037 -5 998.5 37.5Q960 80 960 179Q960 278 998.5 320.5Q1037 363 1121 363Q1206 363 1244 320.5Q1282 278 1282 179ZM58 571Q58 670 96 712.5Q134 755 219 755Q303 755 341.5 712.5Q380 670 380 571Q380 472 341.5 429.5Q303 387 219 387Q134 387 96 429.5Q58 472 58 571ZM862 179Q862 80 824 37.5Q786 -5 701 -5Q617 -5 578.5 37.5Q540 80 540 179Q540 278 578.5 320.5Q617 363 701 363Q786 363 824 320.5Q862 278 862 179Z" glyph-name="perthousand" horiz-adv-x="1340" unicode="&#8240;" /><glyph d="M251 238H356Q381 238 396.5 245Q412 252 420.5 263Q429 274 432 287.5Q435 301 435 314Q435 327 432 341Q429 355 420.5 366Q412 377 396.5 384Q381 391 356 391H251ZM251 97H239V403H354Q382 403 400 395.5Q418 388 428.5 375.5Q439 363 443 347Q447 331 447 314Q447 297 443 281Q439 265 428.5 253Q418 241 400 234Q382 227 354 227H251ZM584 250Q584 370 527 432.5Q470 495 335 495Q266 495 218.5 479Q171 463 141.5 432.5Q112 402 99 356Q86 310 86 250Q86 190 99 144Q112 98 141.5 67.5Q171 37 218.5 21Q266 5 335 5Q470 5 527 67.5Q584 130 584 250ZM74 250Q74 378 135 441.5Q196 505 335 505Q474 505 535 441.5Q596 378 596 250Q596 122 535 58.5Q474 -5 335 -5Q196 -5 135 58.5Q74 122 74 250Z" glyph-name="pi" horiz-adv-x="670" unicode="&#960;" /><glyph d="M254 141V335H60V347H254V541H266V347H460V335H266V141Z" glyph-name="plus" horiz-adv-x="520" unicode="+" /><glyph d="M460 99H60V111H460ZM254 141V335H60V347H254V541H266V347H460V335H266V141Z" glyph-name="plusminus" horiz-adv-x="520" unicode="&#177;" /><glyph d="M243 238H348Q373 238 388.5 245Q404 252 412.5 263Q421 274 424 287.5Q427 301 427 314Q427 327 424 341Q421 355 412.5 366Q404 377 388.5 384Q373 391 348 391H243ZM243 97H231V403H346Q374 403 392 395.5Q410 388 420.5 375.5Q431 363 435 347Q439 331 439 314Q439 285 426 261.5Q413 238 377 230L449 97H434L364 228Q359 227 355 227Q351 227 346 227H243ZM584 250Q584 370 527 432.5Q470 495 335 495Q266 495 218.5 479Q171 463 141.5 432.5Q112 402 99 356Q86 310 86 250Q86 190 99 144Q112 98 141.5 67.5Q171 37 218.5 21Q266 5 335 5Q470 5 527 67.5Q584 130 584 250ZM74 250Q74 378 135 441.5Q196 505 335 505Q474 505 535 441.5Q596 378 596 250Q596 122 535 58.5Q474 -5 335 -5Q196 -5 135 58.5Q74 122 74 250Z" glyph-name="product" horiz-adv-x="670" unicode="&#8719;" /><glyph glyph-name="punctuationspace" horiz-adv-x="220" unicode="&#8200;" /><glyph d="M462 442Q427 465 379.5 480Q332 495 275 495Q213 495 175 474Q137 453 116.5 418.5Q96 384 89 340Q82 296 82 250Q82 204 89 160Q96 116 116.5 81.5Q137 47 175 26Q213 5 275 5Q332 5 379.5 20Q427 35 462 58ZM462 -250V47Q427 24 381 9.5Q335 -5 275 -5Q213 -5 173.5 15Q134 35 111 69.5Q88 104 79 150.5Q70 197 70 250Q70 303 79 349.5Q88 396 111 430.5Q134 465 173.5 485Q213 505 275 505Q335 505 381 490.5Q427 476 462 453L465 500H474V-250Z" glyph-name="q" horiz-adv-x="559" unicode="q" /><glyph d="M510 250Q510 304 501 349Q492 394 468 426.5Q444 459 402.5 477Q361 495 296 495Q230 495 188.5 477Q147 459 123 426.5Q99 394 90.5 349Q82 304 82 250Q82 196 90.5 151Q99 106 123 73.5Q147 41 188.5 23Q230 5 296 5Q361 5 402.5 23Q444 41 468 73.5Q492 106 501 151Q510 196 510 250ZM70 250Q70 308 80.5 355.5Q91 403 116.5 436Q142 469 186 487Q230 505 296 505Q363 505 406.5 487Q450 469 475.5 436Q501 403 511.5 355.5Q522 308 522 250Q522 191 511.5 144Q501 97 475.5 64Q450 31 406.5 13Q363 -5 296 -5H283V-6L676 -106V-119L214 4Q173 15 145 36.5Q117 58 100.5 89Q84 120 77 160.5Q70 201 70 250Z" glyph-name="q.smcp" horiz-adv-x="592" /><glyph d="M163 10Q163 16 167.5 20.5Q172 25 178 25Q184 25 188.5 20.5Q193 16 193 10Q193 4 188.5 -0.5Q184 -5 178 -5Q172 -5 167.5 -0.5Q163 4 163 10ZM190 745Q169 745 147.5 743Q126 741 106.5 738Q87 735 72 731.5Q57 728 50 726V736Q58 739 75 742.5Q92 746 112.5 748.5Q133 751 153.5 753Q174 755 189 755Q267 755 314 740.5Q361 726 387 700.5Q413 675 421.5 641Q430 607 430 569Q430 520 419 489Q408 458 388 438Q368 418 340 404.5Q312 391 278 378L247 366Q214 353 196 335.5Q178 318 170 297Q162 276 162 254Q162 232 164 210H159Q157 215 155 228.5Q153 242 153 251Q153 275 157.5 293.5Q162 312 173 327.5Q184 343 203.5 355.5Q223 368 252 379L278 389Q304 399 329.5 410Q355 421 375 440Q395 459 407.5 489.5Q420 520 420 568Q420 606 411 638.5Q402 671 377 694.5Q352 718 307 731.5Q262 745 190 745Z" glyph-name="question" horiz-adv-x="500" unicode="?" /><glyph d="M337 490Q337 484 332.5 479.5Q328 475 322 475Q316 475 311.5 479.5Q307 484 307 490Q307 496 311.5 500.5Q316 505 322 505Q328 505 332.5 500.5Q337 496 337 490ZM310 -245Q331 -245 352.5 -243Q374 -241 393.5 -238Q413 -235 427.5 -231.5Q442 -228 450 -226V-236Q442 -239 425 -242.5Q408 -246 387.5 -248.5Q367 -251 346.5 -253Q326 -255 311 -255Q233 -255 186 -240.5Q139 -226 113 -200.5Q87 -175 78.5 -141Q70 -107 70 -69Q70 -20 81 11Q92 42 112 62Q132 82 160 95.5Q188 109 222 122L253 134Q286 147 304 164.5Q322 182 330 203Q338 224 338 246Q338 268 336 290H341Q343 285 345 271.5Q347 258 347 249Q347 202 326.5 172.5Q306 143 248 121L222 111Q196 101 170.5 90Q145 79 125 60Q105 41 92.5 10.5Q80 -20 80 -68Q80 -106 89 -138.5Q98 -171 123 -194.5Q148 -218 193 -231.5Q238 -245 310 -245Z" glyph-name="questiondown" horiz-adv-x="500" unicode="&#191;" /><glyph d="M198 500 191 750H209L202 500ZM98 500 91 750H109L102 500Z" glyph-name="quotedbl" horiz-adv-x="300" unicode="&quot;" /><glyph d="M18 -160Q38 -137 51 -102Q62 -72 69.5 -24.5Q77 23 70 90H87Q89 21 79.5 -27Q70 -75 57 -104Q42 -139 22 -160ZM88 -160Q108 -137 121 -102Q132 -72 139.5 -24.5Q147 23 140 90H157Q159 21 149.5 -27Q140 -75 127 -104Q112 -139 92 -160Z" glyph-name="quotedblbase" horiz-adv-x="181" unicode="&#8222;" /><glyph d="M163 750Q143 727 130 692Q119 662 111 614.5Q103 567 111 500H94Q92 569 101.5 616.5Q111 664 124 694Q139 728 159 750ZM93 750Q73 727 60 692Q49 662 41 614.5Q33 567 41 500H24Q22 569 31.5 616.5Q41 664 54 694Q69 728 89 750Z" glyph-name="quotedblleft" horiz-adv-x="181" unicode="&#8220;" /><glyph d="M18 500Q38 523 51 558Q62 588 69.5 635.5Q77 683 70 750H87Q89 681 79.5 633Q70 585 57 556Q42 521 22 500ZM88 500Q108 523 121 558Q132 588 139.5 635.5Q147 683 140 750H157Q159 681 149.5 633Q140 585 127 556Q112 521 92 500Z" glyph-name="quotedblright" horiz-adv-x="191" unicode="&#8221;" /><glyph d="M93 750Q73 727 60 692Q49 662 41 614.5Q33 567 41 500H24Q22 569 31.5 616.5Q41 664 54 694Q69 728 89 750Z" glyph-name="quoteleft" horiz-adv-x="111" unicode="&#8216;" /><glyph d="M18 500Q38 523 51 558Q62 588 69.5 635.5Q77 683 70 750H87Q89 681 79.5 633Q70 585 57 556Q42 521 22 500Z" glyph-name="quoteright" horiz-adv-x="111" unicode="&#8217;" /><glyph d="M18 -160Q38 -137 51 -102Q62 -72 69.5 -24.5Q77 23 70 90H87Q89 21 79.5 -27Q70 -75 57 -104Q42 -139 22 -160Z" glyph-name="quotesinglbase" horiz-adv-x="111" unicode="&#8218;" /><glyph d="M98 500 91 750H109L102 500Z" glyph-name="quotesingle" horiz-adv-x="200" unicode="&apos;" /><glyph d="M330 493Q324 494 312 494.5Q300 495 289 495Q223 495 172 478Q121 461 92 442V0H80V500H89L92 453Q127 476 177 490.5Q227 505 289 505Q299 505 312 504.5Q325 504 330 503Z" glyph-name="r" horiz-adv-x="370" unicode="r" /><glyph d="M308 232Q379 232 411 260.5Q443 289 443 360Q443 431 411 459.5Q379 488 308 488H102V232ZM102 0H90V500H310Q354 500 382.5 490Q411 480 427.5 462Q444 444 450.5 418Q457 392 457 360Q457 331 452 307.5Q447 284 434 266Q421 248 399.5 237Q378 226 345 222L464 0H449L331 221Q326 220 320.5 220Q315 220 310 220H102Z" glyph-name="r.smcp" horiz-adv-x="524" /><glyph d="M200 575 318 750H333L210 575ZM330 493Q324 494 312 494.5Q300 495 289 495Q223 495 172 478Q121 461 92 442V0H80V500H89L92 453Q127 476 177 490.5Q227 505 289 505Q299 505 312 504.5Q325 504 330 503Z" glyph-name="racute" horiz-adv-x="370" unicode="&#341;" /><glyph d="M257 575 375 750H390L267 575ZM308 232Q379 232 411 260.5Q443 289 443 360Q443 431 411 459.5Q379 488 308 488H102V232ZM102 0H90V500H310Q354 500 382.5 490Q411 480 427.5 462Q444 444 450.5 418Q457 392 457 360Q457 331 452 307.5Q447 284 434 266Q421 248 399.5 237Q378 226 345 222L464 0H449L331 221Q326 220 320.5 220Q315 220 310 220H102Z" glyph-name="racute.smcp" horiz-adv-x="524" /><glyph d="M92 12H568V488H92ZM80 500H580V0H80Z" glyph-name="radical" horiz-adv-x="660" unicode="&#8730;" /><glyph d="M333 750 211 575H199L77 750H88L205 586L322 750ZM330 493Q324 494 312 494.5Q300 495 289 495Q223 495 172 478Q121 461 92 442V0H80V500H89L92 453Q127 476 177 490.5Q227 505 289 505Q299 505 312 504.5Q325 504 330 503Z" glyph-name="rcaron" horiz-adv-x="370" unicode="&#345;" /><glyph d="M390 750 268 575H256L134 750H145L262 586L379 750ZM308 232Q379 232 411 260.5Q443 289 443 360Q443 431 411 459.5Q379 488 308 488H102V232ZM102 0H90V500H310Q354 500 382.5 490Q411 480 427.5 462Q444 444 450.5 418Q457 392 457 360Q457 331 452 307.5Q447 284 434 266Q421 248 399.5 237Q378 226 345 222L464 0H449L331 221Q326 220 320.5 220Q315 220 310 220H102Z" glyph-name="rcaron.smcp" horiz-adv-x="524" /><glyph d="M71 -120Q71 -114 75.5 -109.5Q80 -105 86 -105Q92 -105 96.5 -109.5Q101 -114 101 -120Q101 -123 99 -129L54 -250H53L83 -135Q71 -132 71 -120ZM330 493Q324 494 312 494.5Q300 495 289 495Q223 495 172 478Q121 461 92 442V0H80V500H89L92 453Q127 476 177 490.5Q227 505 289 505Q299 505 312 504.5Q325 504 330 503Z" glyph-name="rcommaaccent" horiz-adv-x="370" unicode="&#343;" /><glyph d="M256 -120Q256 -114 260.5 -109.5Q265 -105 271 -105Q277 -105 281.5 -109.5Q286 -114 286 -120Q286 -123 284 -129L239 -250H238L268 -135Q256 -132 256 -120ZM308 232Q379 232 411 260.5Q443 289 443 360Q443 431 411 459.5Q379 488 308 488H102V232ZM102 0H90V500H310Q354 500 382.5 490Q411 480 427.5 462Q444 444 450.5 418Q457 392 457 360Q457 331 452 307.5Q447 284 434 266Q421 248 399.5 237Q378 226 345 222L464 0H449L331 221Q326 220 320.5 220Q315 220 310 220H102Z" glyph-name="rcommaaccent.smcp" horiz-adv-x="524" /><glyph d="M132 629H174Q194 629 199.5 637.5Q205 646 205 657Q205 668 199.5 676.5Q194 685 174 685H132ZM132 553H120V697H171Q198 697 208 685.5Q218 674 218 657Q218 643 211.5 632.5Q205 622 191 619L227 553H212L179 616H132ZM172 745Q148 745 126.5 740.5Q105 736 88 723Q71 710 61 686.5Q51 663 51 625Q51 587 61 563.5Q71 540 88 527Q105 514 126.5 509.5Q148 505 172 505Q196 505 217.5 509.5Q239 514 256 527Q273 540 283 563.5Q293 587 293 625Q293 663 283 686.5Q273 710 256 723Q239 736 217.5 740.5Q196 745 172 745ZM172 755Q199 755 223 750Q247 745 265 730.5Q283 716 293.5 690.5Q304 665 304 625Q304 585 293.5 559.5Q283 534 265 520Q247 506 223 500.5Q199 495 172 495Q145 495 121 500.5Q97 506 79 520Q61 534 50.5 559.5Q40 585 40 625Q40 665 50.5 690.5Q61 716 79 730.5Q97 745 121 750Q145 755 172 755Z" glyph-name="registered" horiz-adv-x="344" unicode="&#174;" /><glyph d="M361 662Q361 708 338.5 726Q316 744 280 744Q243 744 220 726Q197 708 197 662Q197 616 220 598Q243 580 280 580Q316 580 338.5 598Q361 616 361 662ZM373 662Q373 612 347.5 590.5Q322 569 280 569Q237 569 211.5 590.5Q186 612 186 662Q186 712 211.5 733.5Q237 755 280 755Q322 755 347.5 733.5Q373 712 373 662Z" glyph-name="ring" horiz-adv-x="540" unicode="&#730;" /><glyph d="M207 5Q260 5 295 15.5Q330 26 351 43Q372 60 380.5 83Q389 106 389 130Q389 160 381.5 181Q374 202 356 216.5Q338 231 308 240Q278 249 233 254Q182 260 149.5 268Q117 276 98.5 290Q80 304 72.5 324.5Q65 345 65 375Q65 403 74 427Q83 451 104 468Q125 485 159 495Q193 505 243 505Q275 505 310.5 500.5Q346 496 378 486V476Q352 483 320.5 489Q289 495 243 495Q197 495 165 486Q133 477 113.5 461Q94 445 85.5 423Q77 401 77 375Q77 345 85 326Q93 307 111 295Q129 283 158.5 276Q188 269 232 264Q280 258 312.5 249.5Q345 241 364.5 226Q384 211 392.5 188Q401 165 401 131Q401 105 392 80.5Q383 56 360.5 37Q338 18 301 6.5Q264 -5 207 -5Q175 -5 139.5 -0.5Q104 4 73 14V24Q99 17 130 11Q161 5 207 5Z" glyph-name="s" horiz-adv-x="466" unicode="s" /><glyph d="M227 5Q282 5 319.5 13.5Q357 22 380 38.5Q403 55 413 80Q423 105 423 138Q423 169 415.5 189Q408 209 388.5 221Q369 233 336.5 240Q304 247 253 252Q203 257 167.5 262.5Q132 268 109 279.5Q86 291 75.5 310.5Q65 330 65 363Q65 398 75.5 424.5Q86 451 109 469Q132 487 170 496Q208 505 263 505Q308 505 351.5 498Q395 491 424 482V471Q397 480 355 487.5Q313 495 263 495Q210 495 174.5 487Q139 479 117.5 462.5Q96 446 86.5 421Q77 396 77 363Q77 335 86 317.5Q95 300 115 289.5Q135 279 168.5 273Q202 267 252 263Q307 258 342.5 250.5Q378 243 398.5 229.5Q419 216 427 194.5Q435 173 435 139Q435 105 425 78.5Q415 52 391 33.5Q367 15 327 5Q287 -5 227 -5Q182 -5 138.5 2.5Q95 10 67 19V30Q93 21 135.5 13Q178 5 227 5Z" glyph-name="s.smcp" horiz-adv-x="500" /><glyph d="M238 575 356 750H371L248 575ZM207 5Q260 5 295 15.5Q330 26 351 43Q372 60 380.5 83Q389 106 389 130Q389 160 381.5 181Q374 202 356 216.5Q338 231 308 240Q278 249 233 254Q182 260 149.5 268Q117 276 98.5 290Q80 304 72.5 324.5Q65 345 65 375Q65 403 74 427Q83 451 104 468Q125 485 159 495Q193 505 243 505Q275 505 310.5 500.5Q346 496 378 486V476Q352 483 320.5 489Q289 495 243 495Q197 495 165 486Q133 477 113.5 461Q94 445 85.5 423Q77 401 77 375Q77 345 85 326Q93 307 111 295Q129 283 158.5 276Q188 269 232 264Q280 258 312.5 249.5Q345 241 364.5 226Q384 211 392.5 188Q401 165 401 131Q401 105 392 80.5Q383 56 360.5 37Q338 18 301 6.5Q264 -5 207 -5Q175 -5 139.5 -0.5Q104 4 73 14V24Q99 17 130 11Q161 5 207 5Z" glyph-name="sacute" horiz-adv-x="466" unicode="&#347;" /><glyph d="M258 575 376 750H391L268 575ZM227 5Q282 5 319.5 13.5Q357 22 380 38.5Q403 55 413 80Q423 105 423 138Q423 169 415.5 189Q408 209 388.5 221Q369 233 336.5 240Q304 247 253 252Q203 257 167.5 262.5Q132 268 109 279.5Q86 291 75.5 310.5Q65 330 65 363Q65 398 75.5 424.5Q86 451 109 469Q132 487 170 496Q208 505 263 505Q308 505 351.5 498Q395 491 424 482V471Q397 480 355 487.5Q313 495 263 495Q210 495 174.5 487Q139 479 117.5 462.5Q96 446 86.5 421Q77 396 77 363Q77 335 86 317.5Q95 300 115 289.5Q135 279 168.5 273Q202 267 252 263Q307 258 342.5 250.5Q378 243 398.5 229.5Q419 216 427 194.5Q435 173 435 139Q435 105 425 78.5Q415 52 391 33.5Q367 15 327 5Q287 -5 227 -5Q182 -5 138.5 2.5Q95 10 67 19V30Q93 21 135.5 13Q178 5 227 5Z" glyph-name="sacute.smcp" horiz-adv-x="500" /><glyph d="M371 750 249 575H237L115 750H126L243 586L360 750ZM207 5Q260 5 295 15.5Q330 26 351 43Q372 60 380.5 83Q389 106 389 130Q389 160 381.5 181Q374 202 356 216.5Q338 231 308 240Q278 249 233 254Q182 260 149.5 268Q117 276 98.5 290Q80 304 72.5 324.5Q65 345 65 375Q65 403 74 427Q83 451 104 468Q125 485 159 495Q193 505 243 505Q275 505 310.5 500.5Q346 496 378 486V476Q352 483 320.5 489Q289 495 243 495Q197 495 165 486Q133 477 113.5 461Q94 445 85.5 423Q77 401 77 375Q77 345 85 326Q93 307 111 295Q129 283 158.5 276Q188 269 232 264Q280 258 312.5 249.5Q345 241 364.5 226Q384 211 392.5 188Q401 165 401 131Q401 105 392 80.5Q383 56 360.5 37Q338 18 301 6.5Q264 -5 207 -5Q175 -5 139.5 -0.5Q104 4 73 14V24Q99 17 130 11Q161 5 207 5Z" glyph-name="scaron" horiz-adv-x="466" unicode="&#353;" /><glyph d="M391 750 269 575H257L135 750H146L263 586L380 750ZM227 5Q282 5 319.5 13.5Q357 22 380 38.5Q403 55 413 80Q423 105 423 138Q423 169 415.5 189Q408 209 388.5 221Q369 233 336.5 240Q304 247 253 252Q203 257 167.5 262.5Q132 268 109 279.5Q86 291 75.5 310.5Q65 330 65 363Q65 398 75.5 424.5Q86 451 109 469Q132 487 170 496Q208 505 263 505Q308 505 351.5 498Q395 491 424 482V471Q397 480 355 487.5Q313 495 263 495Q210 495 174.5 487Q139 479 117.5 462.5Q96 446 86.5 421Q77 396 77 363Q77 335 86 317.5Q95 300 115 289.5Q135 279 168.5 273Q202 267 252 263Q307 258 342.5 250.5Q378 243 398.5 229.5Q419 216 427 194.5Q435 173 435 139Q435 105 425 78.5Q415 52 391 33.5Q367 15 327 5Q287 -5 227 -5Q182 -5 138.5 2.5Q95 10 67 19V30Q93 21 135.5 13Q178 5 227 5Z" glyph-name="scaron.smcp" horiz-adv-x="500" /><glyph d="M193 -185Q211 -176 222.5 -163.5Q234 -151 237 -138.5Q240 -126 234 -114.5Q228 -103 211 -96Q193 -88 187.5 -76Q182 -64 183.5 -51Q185 -38 192 -26Q199 -14 206 -5Q174 -5 139 -0.5Q104 4 73 14V24Q99 17 130 11Q161 5 207 5Q260 5 295 15.5Q330 26 351 43Q372 60 380.5 83Q389 106 389 130Q389 160 381.5 181Q374 202 356 216.5Q338 231 308 240Q278 249 233 254Q182 260 149.5 268Q117 276 98.5 290Q80 304 72.5 324.5Q65 345 65 375Q65 403 74 427Q83 451 104 468Q125 485 159 495Q193 505 243 505Q275 505 310.5 500.5Q346 496 378 486V476Q352 483 320.5 489Q289 495 243 495Q197 495 165 486Q133 477 113.5 461Q94 445 85.5 423Q77 401 77 375Q77 345 85 326Q93 307 111 295Q129 283 158.5 276Q188 269 232 264Q280 258 312.5 249.5Q345 241 364.5 226Q384 211 392.5 188Q401 165 401 131Q401 105 392.5 81Q384 57 363 38Q342 19 306.5 7.5Q271 -4 217 -5Q209 -13 202 -24.5Q195 -36 193 -47.5Q191 -59 195 -70Q199 -81 214 -87Q236 -96 243.5 -110Q251 -124 248 -138Q245 -152 234 -165Q223 -178 208 -185Z" glyph-name="scedilla" horiz-adv-x="466" unicode="&#351;" /><glyph d="M213 -185Q231 -176 242.5 -163.5Q254 -151 257 -138.5Q260 -126 254 -114.5Q248 -103 231 -96Q213 -88 207.5 -76Q202 -64 203.5 -51Q205 -38 212 -26Q219 -14 226 -5Q181 -5 138 2.5Q95 10 67 19V30Q93 21 135.5 13Q178 5 227 5Q282 5 319.5 13.5Q357 22 380 38.5Q403 55 413 80Q423 105 423 138Q423 169 415.5 189Q408 209 388.5 221Q369 233 336.5 240Q304 247 253 252Q203 257 167.5 262.5Q132 268 109 279.5Q86 291 75.5 310.5Q65 330 65 363Q65 398 75.5 424.5Q86 451 109 469Q132 487 170 496Q208 505 263 505Q308 505 351.5 498Q395 491 424 482V471Q397 480 355 487.5Q313 495 263 495Q210 495 174.5 487Q139 479 117.5 462.5Q96 446 86.5 421Q77 396 77 363Q77 335 86 317.5Q95 300 115 289.5Q135 279 168.5 273Q202 267 252 263Q307 258 342.5 250.5Q378 243 398.5 229.5Q419 216 427 194.5Q435 173 435 139Q435 106 425.5 80Q416 54 393 35.5Q370 17 332 6.5Q294 -4 237 -5Q229 -13 222 -24.5Q215 -36 213 -47.5Q211 -59 215 -70Q219 -81 234 -87Q256 -96 263.5 -110Q271 -124 268 -138Q265 -152 254 -165Q243 -178 228 -185Z" glyph-name="scedilla.smcp" horiz-adv-x="500" /><glyph d="M360 575 243 739 126 575H115L237 750H249L371 575ZM207 5Q260 5 295 15.5Q330 26 351 43Q372 60 380.5 83Q389 106 389 130Q389 160 381.5 181Q374 202 356 216.5Q338 231 308 240Q278 249 233 254Q182 260 149.5 268Q117 276 98.5 290Q80 304 72.5 324.5Q65 345 65 375Q65 403 74 427Q83 451 104 468Q125 485 159 495Q193 505 243 505Q275 505 310.5 500.5Q346 496 378 486V476Q352 483 320.5 489Q289 495 243 495Q197 495 165 486Q133 477 113.5 461Q94 445 85.5 423Q77 401 77 375Q77 345 85 326Q93 307 111 295Q129 283 158.5 276Q188 269 232 264Q280 258 312.5 249.5Q345 241 364.5 226Q384 211 392.5 188Q401 165 401 131Q401 105 392 80.5Q383 56 360.5 37Q338 18 301 6.5Q264 -5 207 -5Q175 -5 139.5 -0.5Q104 4 73 14V24Q99 17 130 11Q161 5 207 5Z" glyph-name="scircumflex" horiz-adv-x="466" unicode="&#349;" /><glyph d="M380 575 263 739 146 575H135L257 750H269L391 575ZM227 5Q282 5 319.5 13.5Q357 22 380 38.5Q403 55 413 80Q423 105 423 138Q423 169 415.5 189Q408 209 388.5 221Q369 233 336.5 240Q304 247 253 252Q203 257 167.5 262.5Q132 268 109 279.5Q86 291 75.5 310.5Q65 330 65 363Q65 398 75.5 424.5Q86 451 109 469Q132 487 170 496Q208 505 263 505Q308 505 351.5 498Q395 491 424 482V471Q397 480 355 487.5Q313 495 263 495Q210 495 174.5 487Q139 479 117.5 462.5Q96 446 86.5 421Q77 396 77 363Q77 335 86 317.5Q95 300 115 289.5Q135 279 168.5 273Q202 267 252 263Q307 258 342.5 250.5Q378 243 398.5 229.5Q419 216 427 194.5Q435 173 435 139Q435 105 425 78.5Q415 52 391 33.5Q367 15 327 5Q287 -5 227 -5Q182 -5 138.5 2.5Q95 10 67 19V30Q93 21 135.5 13Q178 5 227 5Z" glyph-name="scircumflex.smcp" horiz-adv-x="500" /><glyph d="M207 -120Q207 -114 211.5 -109.5Q216 -105 222 -105Q228 -105 232.5 -109.5Q237 -114 237 -120Q237 -123 235 -129L190 -250H189L219 -135Q207 -132 207 -120ZM207 5Q260 5 295 15.5Q330 26 351 43Q372 60 380.5 83Q389 106 389 130Q389 160 381.5 181Q374 202 356 216.5Q338 231 308 240Q278 249 233 254Q182 260 149.5 268Q117 276 98.5 290Q80 304 72.5 324.5Q65 345 65 375Q65 403 74 427Q83 451 104 468Q125 485 159 495Q193 505 243 505Q275 505 310.5 500.5Q346 496 378 486V476Q352 483 320.5 489Q289 495 243 495Q197 495 165 486Q133 477 113.5 461Q94 445 85.5 423Q77 401 77 375Q77 345 85 326Q93 307 111 295Q129 283 158.5 276Q188 269 232 264Q280 258 312.5 249.5Q345 241 364.5 226Q384 211 392.5 188Q401 165 401 131Q401 105 392 80.5Q383 56 360.5 37Q338 18 301 6.5Q264 -5 207 -5Q175 -5 139.5 -0.5Q104 4 73 14V24Q99 17 130 11Q161 5 207 5Z" glyph-name="scommaaccent" horiz-adv-x="466" unicode="&#537;" /><glyph d="M224 -120Q224 -114 228.5 -109.5Q233 -105 239 -105Q245 -105 249.5 -109.5Q254 -114 254 -120Q254 -123 252 -129L207 -250H206L236 -135Q224 -132 224 -120ZM227 5Q282 5 319.5 13.5Q357 22 380 38.5Q403 55 413 80Q423 105 423 138Q423 169 415.5 189Q408 209 388.5 221Q369 233 336.5 240Q304 247 253 252Q203 257 167.5 262.5Q132 268 109 279.5Q86 291 75.5 310.5Q65 330 65 363Q65 398 75.5 424.5Q86 451 109 469Q132 487 170 496Q208 505 263 505Q308 505 351.5 498Q395 491 424 482V471Q397 480 355 487.5Q313 495 263 495Q210 495 174.5 487Q139 479 117.5 462.5Q96 446 86.5 421Q77 396 77 363Q77 335 86 317.5Q95 300 115 289.5Q135 279 168.5 273Q202 267 252 263Q307 258 342.5 250.5Q378 243 398.5 229.5Q419 216 427 194.5Q435 173 435 139Q435 105 425 78.5Q415 52 391 33.5Q367 15 327 5Q287 -5 227 -5Q182 -5 138.5 2.5Q95 10 67 19V30Q93 21 135.5 13Q178 5 227 5Z" glyph-name="scommaaccent.smcp" horiz-adv-x="500" /><glyph d="M65 284Q65 234 76.5 204Q88 174 115 156Q142 138 186 129Q230 120 295 114Q368 107 415 96Q462 85 489 60Q542 83 562 124Q582 165 582 216Q582 265 570.5 295.5Q559 326 532 344Q505 362 461 371Q417 380 352 386Q279 393 231.5 403.5Q184 414 158 440Q105 417 85 375.5Q65 334 65 284ZM528 -66Q528 -104 517.5 -138Q507 -172 480 -198Q453 -224 405.5 -239.5Q358 -255 285 -255Q220 -255 177.5 -248Q135 -241 106 -230V-219Q150 -235 191 -240Q232 -245 285 -245Q354 -245 399 -231Q444 -217 470 -192.5Q496 -168 506.5 -135.5Q517 -103 517 -65Q517 -16 505.5 14.5Q494 45 467 63Q440 81 396 90Q352 99 287 105Q222 111 178 120Q134 129 106 148.5Q78 168 66 200Q54 232 54 285Q54 336 74 380Q94 424 150 449Q133 468 126 496Q119 524 119 566Q119 604 129.5 638Q140 672 167 698Q194 724 241 739.5Q288 755 362 755Q427 755 469.5 748Q512 741 541 730V719Q497 735 456 740Q415 745 362 745Q293 745 248 731Q203 717 177 692.5Q151 668 140.5 635Q130 602 130 565Q130 515 141.5 485Q153 455 180 437Q207 419 251 410Q295 401 360 395Q424 389 468.5 380Q513 371 541 351.5Q569 332 581 299.5Q593 267 593 215Q593 164 572.5 120Q552 76 497 51Q513 31 520.5 3.5Q528 -24 528 -66Z" glyph-name="section" horiz-adv-x="647" unicode="&#167;" /><glyph d="M75 375Q75 381 79.5 385.5Q84 390 90 390Q96 390 100.5 385.5Q105 381 105 375Q105 369 100.5 364.5Q96 360 90 360Q84 360 79.5 364.5Q75 369 75 375ZM75 10Q75 16 79.5 20.5Q84 25 90 25Q96 25 100.5 20.5Q105 16 105 10Q105 7 103 1L60 -114H59L87 -5Q75 -2 75 10Z" glyph-name="semicolon" horiz-adv-x="180" unicode=";" /><glyph d="M189 0 518 738H66V750H534V742L204 0Z" glyph-name="seven" horiz-adv-x="600" unicode="7" /><glyph d="M189 0 518 738H66V750H534V742L204 0Z" glyph-name="seven.LP" horiz-adv-x="600" /><glyph d="M108 -250 418 488H35V500H433V492L123 -250Z" glyph-name="seven.OP" horiz-adv-x="468" /><glyph d="M83 230Q83 183 91.5 142.5Q100 102 124.5 71Q149 40 193.5 22.5Q238 5 310 5Q377 5 419 22.5Q461 40 484.5 71Q508 102 516.5 142.5Q525 183 525 230Q525 276 518 318Q511 360 488.5 391Q466 422 423.5 440.5Q381 459 310 459Q240 459 195.5 436.5Q151 414 126 380Q101 346 92 306Q83 266 83 230ZM513 720Q499 726 452.5 735.5Q406 745 339 745Q259 745 208 718Q157 691 128 641.5Q99 592 88 522.5Q77 453 77 368V263Q83 328 106.5 368.5Q130 409 163 431.5Q196 454 234.5 461.5Q273 469 310 469Q386 469 431 448.5Q476 428 499.5 394Q523 360 530 317.5Q537 275 537 230Q537 186 528.5 143.5Q520 101 495.5 68Q471 35 426.5 15Q382 -5 310 -5Q217 -5 167 22.5Q117 50 94.5 98Q72 146 68.5 212Q65 278 65 355Q65 449 76.5 523.5Q88 598 118.5 649.5Q149 701 202.5 728Q256 755 339 755Q398 755 441 748.5Q484 742 513 732Z" glyph-name="six" horiz-adv-x="600" unicode="6" /><glyph d="M83 230Q83 183 91.5 142.5Q100 102 124.5 71Q149 40 193.5 22.5Q238 5 310 5Q377 5 419 22.5Q461 40 484.5 71Q508 102 516.5 142.5Q525 183 525 230Q525 276 518 318Q511 360 488.5 391Q466 422 423.5 440.5Q381 459 310 459Q240 459 195.5 436.5Q151 414 126 380Q101 346 92 306Q83 266 83 230ZM513 720Q499 726 452.5 735.5Q406 745 339 745Q259 745 208 718Q157 691 128 641.5Q99 592 88 522.5Q77 453 77 368V263Q83 328 106.5 368.5Q130 409 163 431.5Q196 454 234.5 461.5Q273 469 310 469Q386 469 431 448.5Q476 428 499.5 394Q523 360 530 317.5Q537 275 537 230Q537 186 528.5 143.5Q520 101 495.5 68Q471 35 426.5 15Q382 -5 310 -5Q217 -5 167 22.5Q117 50 94.5 98Q72 146 68.5 212Q65 278 65 355Q65 449 76.5 523.5Q88 598 118.5 649.5Q149 701 202.5 728Q256 755 339 755Q398 755 441 748.5Q484 742 513 732Z" glyph-name="six.LP" horiz-adv-x="600" /><glyph d="M78 230Q78 183 86.5 142.5Q95 102 119.5 71Q144 40 188.5 22.5Q233 5 305 5Q372 5 414 22.5Q456 40 479.5 71Q503 102 511.5 142.5Q520 183 520 230Q520 276 513 318Q506 360 483.5 391Q461 422 418.5 440.5Q376 459 305 459Q235 459 190.5 436.5Q146 414 121 380Q96 346 87 306Q78 266 78 230ZM508 720Q494 726 447.5 735.5Q401 745 334 745Q254 745 203 718Q152 691 123 641.5Q94 592 83 522.5Q72 453 72 368V263Q78 328 101.5 368.5Q125 409 158 431.5Q191 454 229.5 461.5Q268 469 305 469Q381 469 426 448.5Q471 428 494.5 394Q518 360 525 317.5Q532 275 532 230Q532 186 523.5 143.5Q515 101 490.5 68Q466 35 421.5 15Q377 -5 305 -5Q212 -5 162 22.5Q112 50 89.5 98Q67 146 63.5 212Q60 278 60 355Q60 449 71.5 523.5Q83 598 113.5 649.5Q144 701 197.5 728Q251 755 334 755Q393 755 436 748.5Q479 742 508 732Z" glyph-name="six.OP" horiz-adv-x="591" /><glyph glyph-name="sixperemspace" horiz-adv-x="167" unicode="&#8198;" /><glyph d="M30 -206 377 816H390L43 -206Z" glyph-name="slash" horiz-adv-x="420" unicode="/" /><glyph glyph-name="space" horiz-adv-x="200" unicode=" " /><glyph d="M54 12H155V384H64V396H155V598Q155 682 212.5 718.5Q270 755 366 755Q413 755 454.5 750.5Q496 746 525 738V727Q492 736 451.5 740.5Q411 745 366 745Q327 745 291.5 738.5Q256 732 228 715.5Q200 699 183.5 670.5Q167 642 167 598V396H439V384H167V12H536V0H54Z" glyph-name="sterling" horiz-adv-x="600" unicode="&#163;" /><glyph d="M34 12H135V250H44V262H135V368Q135 437 176 471Q217 505 306 505Q353 505 389.5 500.5Q426 496 455 488V477Q422 486 386.5 490.5Q351 495 306 495Q271 495 242 489Q213 483 192 468Q171 453 159 428.5Q147 404 147 368V262H369V250H147V12H466V0H34Z" glyph-name="sterling.OP" horiz-adv-x="500" /><glyph d="M75 375Q75 454 105 523Q135 592 186.5 643.5Q238 695 307 725Q376 755 455 755Q534 755 603 725Q672 695 723.5 643.5Q775 592 805 523Q835 454 835 375Q835 296 805 227Q775 158 723.5 106.5Q672 55 603 25Q534 -5 455 -5Q376 -5 307 25Q238 55 186.5 106.5Q135 158 105 227Q75 296 75 375Z" glyph-name="summation" horiz-adv-x="910" unicode="&#8721;" /><glyph d="M142 500V659L154 662V500H345V488H154V132Q154 96 166 71.5Q178 47 199 32Q220 17 249 10.5Q278 4 313 4H318V-5H313Q224 -5 183 29Q142 63 142 132V488H50V498Z" glyph-name="t" horiz-adv-x="400" unicode="t" /><glyph d="M252 488V0H240V488H40V500H452V488Z" glyph-name="t.smcp" horiz-adv-x="492" /><glyph d="M142 488H50V498L142 500V659L154 662V500H345V488H154V285H315V275H154V132Q154 96 166 71.5Q178 47 199 32Q220 17 249 10.5Q278 4 313 4H318V-5H313Q224 -5 183 29Q142 63 142 132V275H50V285H142Z" glyph-name="tbar" horiz-adv-x="400" unicode="&#359;" /><glyph d="M436 335H252V0H240V335H56V347H240V488H40V500H452V488H252V347H436Z" glyph-name="tbar.smcp" horiz-adv-x="492" /><glyph d="M212 550 238 750H252L221 550ZM142 500V659L154 662V500H345V488H154V132Q154 96 166 71.5Q178 47 199 32Q220 17 249 10.5Q278 4 313 4H318V-5H313Q224 -5 183 29Q142 63 142 132V488H50V498Z" glyph-name="tcaron" horiz-adv-x="400" unicode="&#357;" /><glyph d="M374 750 252 575H240L118 750H129L246 586L363 750ZM252 488V0H240V488H40V500H452V488Z" glyph-name="tcaron.smcp" horiz-adv-x="492" /><glyph d="M214 -120Q214 -114 218.5 -109.5Q223 -105 229 -105Q235 -105 239.5 -109.5Q244 -114 244 -120Q244 -123 242 -129L197 -250H196L226 -135Q214 -132 214 -120ZM142 500V659L154 662V500H345V488H154V132Q154 96 166 71.5Q178 47 199 32Q220 17 249 10.5Q278 4 313 4H318V-5H313Q224 -5 183 29Q142 63 142 132V488H50V498Z" glyph-name="tcommaaccent" horiz-adv-x="400" unicode="&#355;" /><glyph d="M231 -120Q231 -114 235.5 -109.5Q240 -105 246 -105Q252 -105 256.5 -109.5Q261 -114 261 -120Q261 -123 259 -129L214 -250H213L243 -135Q231 -132 231 -120ZM252 488V0H240V488H40V500H452V488Z" glyph-name="tcommaaccent.smcp" horiz-adv-x="492" /><glyph glyph-name="thinspace" horiz-adv-x="100" unicode="&#8201;" /><glyph d="M97 58Q132 35 179.5 20Q227 5 284 5Q346 5 384 26Q422 47 442.5 81.5Q463 116 470 160Q477 204 477 250Q477 296 470 340Q463 384 442.5 418.5Q422 453 384 474Q346 495 284 495Q227 495 179.5 480Q132 465 97 442ZM85 -250V750H97V453Q132 476 178 490.5Q224 505 284 505Q345 505 385 485Q425 465 448 430.5Q471 396 480 349.5Q489 303 489 250Q489 197 480 150.5Q471 104 448 69.5Q425 35 385 15Q345 -5 284 -5Q224 -5 178 9.5Q132 24 97 47V-250Z" glyph-name="thorn" horiz-adv-x="559" unicode="&#254;" /><glyph d="M287 116Q329 116 357 125.5Q385 135 402 152.5Q419 170 426 195Q433 220 433 250Q433 281 426 306Q419 331 402 348Q385 365 357 374.5Q329 384 287 384H102V116ZM102 0H90V500H102V396H279Q328 396 360.5 385.5Q393 375 411.5 356Q430 337 437.5 310Q445 283 445 250Q445 217 437.5 190.5Q430 164 411.5 144.5Q393 125 360.5 114.5Q328 104 279 104H102Z" glyph-name="thorn.smcp" horiz-adv-x="500" /><glyph d="M247 745Q227 745 202 743.5Q177 742 151.5 739.5Q126 737 103 733.5Q80 730 65 726V736Q81 740 106 744Q131 748 157.5 750Q184 752 208 753.5Q232 755 247 755Q375 755 439.5 711Q504 667 504 570Q504 495 467.5 447Q431 399 353 391H354Q403 389 436.5 377Q470 365 491 341.5Q512 318 521.5 283Q531 248 531 200Q531 103 463 49Q395 -5 255 -5Q234 -5 205.5 -3.5Q177 -2 149 0.5Q121 3 98 6.5Q75 10 65 14V24Q77 20 99 16.5Q121 13 148 10.5Q175 8 203.5 6.5Q232 5 255 5Q325 5 375.5 20Q426 35 457.5 61Q489 87 504 122.5Q519 158 519 200Q519 257 506.5 292.5Q494 328 467.5 348.5Q441 369 399 376.5Q357 384 297 384H173V396H300Q354 396 391 409Q428 422 450.5 445Q473 468 482.5 500Q492 532 492 570Q492 610 478 642.5Q464 675 434.5 697.5Q405 720 358.5 732.5Q312 745 247 745Z" glyph-name="three" horiz-adv-x="600" unicode="3" /><glyph d="M247 745Q227 745 202 743.5Q177 742 151.5 739.5Q126 737 103 733.5Q80 730 65 726V736Q81 740 106 744Q131 748 157.5 750Q184 752 208 753.5Q232 755 247 755Q375 755 439.5 711Q504 667 504 570Q504 495 467.5 447Q431 399 353 391H354Q403 389 436.5 377Q470 365 491 341.5Q512 318 521.5 283Q531 248 531 200Q531 103 463 49Q395 -5 255 -5Q234 -5 205.5 -3.5Q177 -2 149 0.5Q121 3 98 6.5Q75 10 65 14V24Q77 20 99 16.5Q121 13 148 10.5Q175 8 203.5 6.5Q232 5 255 5Q325 5 375.5 20Q426 35 457.5 61Q489 87 504 122.5Q519 158 519 200Q519 257 506.5 292.5Q494 328 467.5 348.5Q441 369 399 376.5Q357 384 297 384H173V396H300Q354 396 391 409Q428 422 450.5 445Q473 468 482.5 500Q492 532 492 570Q492 610 478 642.5Q464 675 434.5 697.5Q405 720 358.5 732.5Q312 745 247 745Z" glyph-name="three.LP" horiz-adv-x="600" /><glyph d="M207 495Q168 495 131.5 489.5Q95 484 65 476V486Q81 490 99.5 494Q118 498 137 500Q156 502 174 503.5Q192 505 207 505Q271 505 314.5 493Q358 481 384.5 458Q411 435 422.5 400Q434 365 434 320Q434 285 425 254.5Q416 224 397.5 200Q379 176 350.5 160.5Q322 145 283 141H284Q381 136 421 88.5Q461 41 461 -50Q461 -96 448.5 -133.5Q436 -171 407.5 -198Q379 -225 331.5 -240Q284 -255 215 -255Q194 -255 171.5 -253.5Q149 -252 129 -249.5Q109 -247 92 -243.5Q75 -240 65 -236V-226Q88 -234 128 -239.5Q168 -245 215 -245Q285 -245 330.5 -229.5Q376 -214 402.5 -187Q429 -160 439 -124.5Q449 -89 449 -50Q449 3 436.5 38.5Q424 74 397.5 95Q371 116 329 125Q287 134 227 134H148V146H230Q284 146 321 160Q358 174 380.5 197.5Q403 221 412.5 252.5Q422 284 422 320Q422 358 413 390Q404 422 380 445.5Q356 469 314 482Q272 495 207 495Z" glyph-name="three.OP" horiz-adv-x="516" /><glyph glyph-name="threeperemspace" horiz-adv-x="333" unicode="&#8196;" /><glyph d="M690 335H60V347H690Z" glyph-name="threequarteremdash" horiz-adv-x="750" /><glyph d="M431 684Q422 610 353 610Q326 610 309 621Q292 632 277.5 645Q263 658 247.5 669Q232 680 207 680Q180 680 162 664Q144 648 140 616H129Q138 690 207 690Q234 690 251 679Q268 668 282.5 655Q297 642 312.5 631Q328 620 353 620Q380 620 398 636Q416 652 420 684Z" glyph-name="tilde" horiz-adv-x="540" unicode="&#732;" /><glyph d="M127 738V500H115V738H20V750H222V738ZM393 534 298 723 300 500H287V750H298L396 555L494 750H505V500H492L494 723L399 534Z" glyph-name="trademark" horiz-adv-x="572" unicode="&#8482;" /><glyph d="M525 576Q525 614 515 645Q505 676 479 698.5Q453 721 409 733Q365 745 296 745Q269 745 240.5 743Q212 741 185 737Q158 733 135 728.5Q112 724 95 719V730Q108 735 130.5 739.5Q153 744 180 747.5Q207 751 237 753Q267 755 296 755Q374 755 421.5 740.5Q469 726 494.5 701.5Q520 677 528.5 644.5Q537 612 537 576Q537 550 531.5 528Q526 506 514 485Q502 464 484.5 442Q467 420 443 395L82 12H532V0H62V8L455 426Q483 455 504 491.5Q525 528 525 576Z" glyph-name="two" horiz-adv-x="600" unicode="2" /><glyph d="M525 576Q525 614 515 645Q505 676 479 698.5Q453 721 409 733Q365 745 296 745Q269 745 240.5 743Q212 741 185 737Q158 733 135 728.5Q112 724 95 719V730Q108 735 130.5 739.5Q153 744 180 747.5Q207 751 237 753Q267 755 296 755Q374 755 421.5 740.5Q469 726 494.5 701.5Q520 677 528.5 644.5Q537 612 537 576Q537 550 531.5 528Q526 506 514 485Q502 464 484.5 442Q467 420 443 395L82 12H532V0H62V8L455 426Q483 455 504 491.5Q525 528 525 576Z" glyph-name="two.LP" horiz-adv-x="600" /><glyph d="M435 366Q435 343 430.5 325.5Q426 308 414 291Q402 274 381.5 255.5Q361 237 330 213L72 12H479V0H51V10L338 234Q357 249 373 263Q389 277 400 292.5Q411 308 417 325.5Q423 343 423 366Q423 440 376.5 467.5Q330 495 233 495Q193 495 153 487.5Q113 480 88 470V480Q100 485 118 489.5Q136 494 156 497.5Q176 501 196 503Q216 505 232 505Q290 505 329 497Q368 489 391.5 472Q415 455 425 428.5Q435 402 435 366Z" glyph-name="two.OP" horiz-adv-x="530" /><glyph d="M240 5Q306 5 357 22Q408 39 437 58V500H449V0H440L437 47Q402 24 352 9.5Q302 -5 240 -5Q151 -5 113 25Q75 55 75 129V500H87V127Q87 90 97.5 66.5Q108 43 128 29.5Q148 16 176 10.5Q204 5 240 5Z" glyph-name="u" horiz-adv-x="529" unicode="u" /><glyph d="M295 -5Q235 -5 195 6.5Q155 18 130.5 39.5Q106 61 95.5 91Q85 121 85 158V500H97V154Q97 74 150.5 39.5Q204 5 295 5Q386 5 439.5 39.5Q493 74 493 154V500H505V158Q505 121 494.5 91Q484 61 459.5 39.5Q435 18 395 6.5Q355 -5 295 -5Z" glyph-name="u.smcp" horiz-adv-x="590" /><glyph d="M258 575 376 750H391L268 575ZM240 5Q306 5 357 22Q408 39 437 58V500H449V0H440L437 47Q402 24 352 9.5Q302 -5 240 -5Q151 -5 113 25Q75 55 75 129V500H87V127Q87 90 97.5 66.5Q108 43 128 29.5Q148 16 176 10.5Q204 5 240 5Z" glyph-name="uacute" horiz-adv-x="529" unicode="&#250;" /><glyph d="M290 575 408 750H423L300 575ZM295 -5Q235 -5 195 6.5Q155 18 130.5 39.5Q106 61 95.5 91Q85 121 85 158V500H97V154Q97 74 150.5 39.5Q204 5 295 5Q386 5 439.5 39.5Q493 74 493 154V500H505V158Q505 121 494.5 91Q484 61 459.5 39.5Q435 18 395 6.5Q355 -5 295 -5Z" glyph-name="uacute.smcp" horiz-adv-x="590" /><glyph d="M263 550Q88 550 88 750H98Q99 661 137 610.5Q175 560 263 560Q351 560 389 610.5Q427 661 428 750H438Q438 550 263 550ZM240 5Q306 5 357 22Q408 39 437 58V500H449V0H440L437 47Q402 24 352 9.5Q302 -5 240 -5Q151 -5 113 25Q75 55 75 129V500H87V127Q87 90 97.5 66.5Q108 43 128 29.5Q148 16 176 10.5Q204 5 240 5Z" glyph-name="ubreve" horiz-adv-x="529" unicode="&#365;" /><glyph d="M295 550Q120 550 120 750H130Q131 661 169 610.5Q207 560 295 560Q383 560 421 610.5Q459 661 460 750H470Q470 550 295 550ZM295 -5Q235 -5 195 6.5Q155 18 130.5 39.5Q106 61 95.5 91Q85 121 85 158V500H97V154Q97 74 150.5 39.5Q204 5 295 5Q386 5 439.5 39.5Q493 74 493 154V500H505V158Q505 121 494.5 91Q484 61 459.5 39.5Q435 18 395 6.5Q355 -5 295 -5Z" glyph-name="ubreve.smcp" horiz-adv-x="590" /><glyph d="M380 575 263 739 146 575H135L257 750H269L391 575ZM240 5Q306 5 357 22Q408 39 437 58V500H449V0H440L437 47Q402 24 352 9.5Q302 -5 240 -5Q151 -5 113 25Q75 55 75 129V500H87V127Q87 90 97.5 66.5Q108 43 128 29.5Q148 16 176 10.5Q204 5 240 5Z" glyph-name="ucircumflex" horiz-adv-x="529" unicode="&#251;" /><glyph d="M412 575 295 739 178 575H167L289 750H301L423 575ZM295 -5Q235 -5 195 6.5Q155 18 130.5 39.5Q106 61 95.5 91Q85 121 85 158V500H97V154Q97 74 150.5 39.5Q204 5 295 5Q386 5 439.5 39.5Q493 74 493 154V500H505V158Q505 121 494.5 91Q484 61 459.5 39.5Q435 18 395 6.5Q355 -5 295 -5Z" glyph-name="ucircumflex.smcp" horiz-adv-x="590" /><glyph d="M343 700Q343 706 347.5 710.5Q352 715 358 715Q364 715 368.5 710.5Q373 706 373 700Q373 694 368.5 689.5Q364 685 358 685Q352 685 347.5 689.5Q343 694 343 700ZM153 700Q153 706 157.5 710.5Q162 715 168 715Q174 715 178.5 710.5Q183 706 183 700Q183 694 178.5 689.5Q174 685 168 685Q162 685 157.5 689.5Q153 694 153 700ZM240 5Q306 5 357 22Q408 39 437 58V500H449V0H440L437 47Q402 24 352 9.5Q302 -5 240 -5Q151 -5 113 25Q75 55 75 129V500H87V127Q87 90 97.5 66.5Q108 43 128 29.5Q148 16 176 10.5Q204 5 240 5Z" glyph-name="udieresis" horiz-adv-x="529" unicode="&#252;" /><glyph d="M185 700Q185 706 189.5 710.5Q194 715 200 715Q206 715 210.5 710.5Q215 706 215 700Q215 694 210.5 689.5Q206 685 200 685Q194 685 189.5 689.5Q185 694 185 700ZM375 700Q375 706 379.5 710.5Q384 715 390 715Q396 715 400.5 710.5Q405 706 405 700Q405 694 400.5 689.5Q396 685 390 685Q384 685 379.5 689.5Q375 694 375 700ZM295 -5Q235 -5 195 6.5Q155 18 130.5 39.5Q106 61 95.5 91Q85 121 85 158V500H97V154Q97 74 150.5 39.5Q204 5 295 5Q386 5 439.5 39.5Q493 74 493 154V500H505V158Q505 121 494.5 91Q484 61 459.5 39.5Q435 18 395 6.5Q355 -5 295 -5Z" glyph-name="udieresis.smcp" horiz-adv-x="590" /><glyph d="M258 575 135 750H150L268 575ZM240 5Q306 5 357 22Q408 39 437 58V500H449V0H440L437 47Q402 24 352 9.5Q302 -5 240 -5Q151 -5 113 25Q75 55 75 129V500H87V127Q87 90 97.5 66.5Q108 43 128 29.5Q148 16 176 10.5Q204 5 240 5Z" glyph-name="ugrave" horiz-adv-x="529" unicode="&#249;" /><glyph d="M290 575 167 750H182L300 575ZM295 -5Q235 -5 195 6.5Q155 18 130.5 39.5Q106 61 95.5 91Q85 121 85 158V500H97V154Q97 74 150.5 39.5Q204 5 295 5Q386 5 439.5 39.5Q493 74 493 154V500H505V158Q505 121 494.5 91Q484 61 459.5 39.5Q435 18 395 6.5Q355 -5 295 -5Z" glyph-name="ugrave.smcp" horiz-adv-x="590" /><glyph d="M313 575 431 750H446L323 575ZM201 575 319 750H334L211 575ZM240 5Q306 5 357 22Q408 39 437 58V500H449V0H440L437 47Q402 24 352 9.5Q302 -5 240 -5Q151 -5 113 25Q75 55 75 129V500H87V127Q87 90 97.5 66.5Q108 43 128 29.5Q148 16 176 10.5Q204 5 240 5Z" glyph-name="uhungarumlaut" horiz-adv-x="529" unicode="&#369;" /><glyph d="M345 575 463 750H478L355 575ZM233 575 351 750H366L243 575ZM295 -5Q235 -5 195 6.5Q155 18 130.5 39.5Q106 61 95.5 91Q85 121 85 158V500H97V154Q97 74 150.5 39.5Q204 5 295 5Q386 5 439.5 39.5Q493 74 493 154V500H505V158Q505 121 494.5 91Q484 61 459.5 39.5Q435 18 395 6.5Q355 -5 295 -5Z" glyph-name="uhungarumlaut.smcp" horiz-adv-x="590" /><glyph d="M400 708H126V720H400ZM240 5Q306 5 357 22Q408 39 437 58V500H449V0H440L437 47Q402 24 352 9.5Q302 -5 240 -5Q151 -5 113 25Q75 55 75 129V500H87V127Q87 90 97.5 66.5Q108 43 128 29.5Q148 16 176 10.5Q204 5 240 5Z" glyph-name="umacron" horiz-adv-x="529" unicode="&#363;" /><glyph d="M432 708H158V720H432ZM295 -5Q235 -5 195 6.5Q155 18 130.5 39.5Q106 61 95.5 91Q85 121 85 158V500H97V154Q97 74 150.5 39.5Q204 5 295 5Q386 5 439.5 39.5Q493 74 493 154V500H505V158Q505 121 494.5 91Q484 61 459.5 39.5Q435 18 395 6.5Q355 -5 295 -5Z" glyph-name="umacron.smcp" horiz-adv-x="590" /><glyph d="M320 -250H0V-238H320Z" glyph-name="underscore" horiz-adv-x="320" unicode="_" /><glyph d="M310 335H60V347H310Z" glyph-name="uni00AD" horiz-adv-x="370" unicode="&#173;" /><glyph d="M240 5Q306 5 357 22Q408 39 437 58V500H449V0Q429 -8 405.5 -21.5Q382 -35 362.5 -53.5Q343 -72 330 -95Q317 -118 317 -146Q317 -178 335 -199Q353 -220 401 -220Q416 -220 429.5 -218Q443 -216 454 -213V-223Q443 -226 429 -228Q415 -230 395 -230Q358 -230 331.5 -210.5Q305 -191 305 -150Q305 -120 316.5 -96Q328 -72 347 -53Q366 -34 390 -19.5Q414 -5 439 6L437 47Q402 24 352 9.5Q302 -5 240 -5Q151 -5 113 25Q75 55 75 129V500H87V127Q87 90 97.5 66.5Q108 43 128 29.5Q148 16 176 10.5Q204 5 240 5Z" glyph-name="uogonek" horiz-adv-x="529" unicode="&#371;" /><glyph d="M295 -5Q235 -5 195 6.5Q155 18 130.5 39.5Q106 61 95.5 91Q85 121 85 158V500H97V154Q97 74 150.5 39.5Q204 5 295 5Q386 5 439.5 39.5Q493 74 493 154V500H505V158Q505 95 473.5 53.5Q442 12 362 0Q342 -8 319 -21.5Q296 -35 276.5 -53.5Q257 -72 244.5 -95Q232 -118 232 -146Q232 -178 250 -199Q268 -220 316 -220Q331 -220 344.5 -218Q358 -216 369 -213V-223Q358 -226 344 -228Q330 -230 310 -230Q273 -230 246.5 -210.5Q220 -191 220 -150Q220 -124 229 -102Q238 -80 253.5 -61.5Q269 -43 289.5 -28.5Q310 -14 332 -3Q323 -4 314 -4.5Q305 -5 295 -5Z" glyph-name="uogonek.smcp" horiz-adv-x="590" /><glyph d="M344 662Q344 708 321.5 726Q299 744 263 744Q226 744 203 726Q180 708 180 662Q180 616 203 598Q226 580 263 580Q299 580 321.5 598Q344 616 344 662ZM356 662Q356 612 330.5 590.5Q305 569 263 569Q220 569 194.5 590.5Q169 612 169 662Q169 712 194.5 733.5Q220 755 263 755Q305 755 330.5 733.5Q356 712 356 662ZM240 5Q306 5 357 22Q408 39 437 58V500H449V0H440L437 47Q402 24 352 9.5Q302 -5 240 -5Q151 -5 113 25Q75 55 75 129V500H87V127Q87 90 97.5 66.5Q108 43 128 29.5Q148 16 176 10.5Q204 5 240 5Z" glyph-name="uring" horiz-adv-x="529" unicode="&#367;" /><glyph d="M376 662Q376 708 353.5 726Q331 744 295 744Q258 744 235 726Q212 708 212 662Q212 616 235 598Q258 580 295 580Q331 580 353.5 598Q376 616 376 662ZM388 662Q388 612 362.5 590.5Q337 569 295 569Q252 569 226.5 590.5Q201 612 201 662Q201 712 226.5 733.5Q252 755 295 755Q337 755 362.5 733.5Q388 712 388 662ZM295 -5Q235 -5 195 6.5Q155 18 130.5 39.5Q106 61 95.5 91Q85 121 85 158V500H97V154Q97 74 150.5 39.5Q204 5 295 5Q386 5 439.5 39.5Q493 74 493 154V500H505V158Q505 121 494.5 91Q484 61 459.5 39.5Q435 18 395 6.5Q355 -5 295 -5Z" glyph-name="uring.smcp" horiz-adv-x="590" /><glyph d="M416 684Q407 610 338 610Q311 610 294 621Q277 632 262.5 645Q248 658 232.5 669Q217 680 192 680Q165 680 147 664Q129 648 125 616H114Q123 690 192 690Q219 690 236 679Q253 668 267.5 655Q282 642 297.5 631Q313 620 338 620Q365 620 383 636Q401 652 405 684ZM240 5Q306 5 357 22Q408 39 437 58V500H449V0H440L437 47Q402 24 352 9.5Q302 -5 240 -5Q151 -5 113 25Q75 55 75 129V500H87V127Q87 90 97.5 66.5Q108 43 128 29.5Q148 16 176 10.5Q204 5 240 5Z" glyph-name="utilde" horiz-adv-x="529" unicode="&#361;" /><glyph d="M446 684Q437 610 368 610Q341 610 324 621Q307 632 292.5 645Q278 658 262.5 669Q247 680 222 680Q195 680 177 664Q159 648 155 616H144Q153 690 222 690Q249 690 266 679Q283 668 297.5 655Q312 642 327.5 631Q343 620 368 620Q395 620 413 636Q431 652 435 684ZM295 -5Q235 -5 195 6.5Q155 18 130.5 39.5Q106 61 95.5 91Q85 121 85 158V500H97V154Q97 74 150.5 39.5Q204 5 295 5Q386 5 439.5 39.5Q493 74 493 154V500H505V158Q505 121 494.5 91Q484 61 459.5 39.5Q435 18 395 6.5Q355 -5 295 -5Z" glyph-name="utilde.smcp" horiz-adv-x="590" /><glyph d="M238 -5 35 500H48L240 18L432 500H445L242 -5Z" glyph-name="v" horiz-adv-x="480" unicode="v" /><glyph d="M248 -5 45 500H58L250 18L442 500H455L252 -5Z" glyph-name="v.smcp" horiz-adv-x="500" /><glyph d="M349 500 508 14 638 500H651L514 -5H503L343 482L183 -5H172L35 500H48L178 14L337 500Z" glyph-name="w" horiz-adv-x="686" unicode="w" /><glyph d="M364 500 523 14 653 500H666L529 -5H518L358 482L198 -5H187L50 500H63L193 14L352 500Z" glyph-name="w.smcp" horiz-adv-x="716" /></font>
</defs>
</svg>
