<?xml version="1.0" standalone="no"?>
<!DOCTYPE svg PUBLIC "-//W3C//DTD SVG 1.1//EN" "http://www.w3.org/Graphics/SVG/1.1/DTD/svg11.dtd" >
<svg xmlns="http://www.w3.org/2000/svg" width="100%" height="100%">
<metadata>
Created by FontXChange 20110222 at Thu Jul 11 12:11:31 2013
 By Jordan Gadapee
Copyright (c) Thirstype, Inc., 2003. All rights reserved.
</metadata>
<defs>
<font id="ApexSansBookC" horiz-adv-x="600" >
  <font-face 
    font-family="ApexSansBookC"
    font-weight="400"
    font-stretch="normal"
    units-per-em="1000"
    panose-1="2 0 5 3 0 0 0 0 0 0"
    ascent="800"
    descent="-200"
    x-height="500"
    cap-height="750"
    bbox="-50 -260 1280 1010"
    underline-thickness="50"
    underline-position="-100"
    unicode-range="U+0001-20AC"
  />
    <missing-glyph />
    <glyph glyph-name="uni0002" horiz-adv-x="575" 
d="M258 0h-168v188l-102 -63v81l102 63v231h168c172 0 242 -97 242 -250s-70 -250 -242 -250zM156 61h104c133 0 173 76 173 189s-40 189 -173 189h-104v-129l103 65v-81l-103 -65v-168z" />
    <glyph glyph-name="uni0003" horiz-adv-x="540" 
d="M151 66v290l100 63v81l-100 -63v313h-71v-357l-100 -62v-81l100 62v-312h415v66h-344z" />
    <glyph glyph-name="uni0004" horiz-adv-x="510" 
d="M156 61v168l103 65v81l-103 -65v190h-66v-231l-102 -63v-81l102 63v-188h365v61h-299z" />
    <glyph glyph-name="uni0005" horiz-adv-x="625" 
d="M320 696c74 0 128 -10 196 -39v68c-41 19 -103 35 -195 35c-210 0 -252 -122 -252 -209c0 -122 63 -173 240 -195c125 -16 172 -38 172 -140c0 -90 -45 -162 -201 -162c-104 0 -163 26 -211 42v-66c47 -21 141 -40 210 -40c223 0 277 124 277 226c0 141 -86 187 -233 206
c-118 15 -183 26 -183 128c0 79 32 146 180 146zM482 1000h-30l-135 -116l-135 116h-30l125 -175h80z" />
    <glyph glyph-name="uni0006" horiz-adv-x="540" 
d="M139 358c0 -50 39 -63 135 -71c142 -13 191 -50 191 -141c0 -85 -55 -156 -216 -156c-51 0 -133 13 -164 27v58c30 -12 91 -25 165 -25c110 0 149 34 149 95c0 55 -31 76 -130 84c-145 13 -194 45 -194 129c0 90 56 152 206 152c50 0 115 -6 159 -25v-58
c-39 13 -90 23 -160 23c-105 0 -141 -28 -141 -92zM437 750h-30l-135 -116l-135 116h-30l125 -175h80z" />
    <glyph glyph-name="uni0007" horiz-adv-x="700" 
d="M655 750l-270 -440v-310h-70v310l-270 440h86l219 -377l219 377h86zM336 825h30l145 175h-95z" />
    <glyph glyph-name="uni0008" horiz-adv-x="602" 
d="M464 500h83l-212 -320v-180h-67v180l-213 320h83l163 -270zM286 575h30l145 175h-95z" />
    <glyph glyph-name="uni000B" 
d="M151 150v-150h-71v750h71v-150h158c187 0 251 -108 251 -225s-64 -225 -251 -225h-158zM151 534v-318h162c141 0 168 87 168 159s-27 159 -168 159h-162z" />
    <glyph glyph-name="uni000C" horiz-adv-x="520" 
d="M156 89h136c123 0 167 75 167 161s-43 161 -167 161h-136v89h-66v-500h66v89zM388 250c0 -48 -15 -100 -98 -100h-134v200h134c83 0 98 -52 98 -100z" />
    <glyph glyph-name="uni000E" horiz-adv-x="640" 
d="M585 0h-530v46l418 638h-398v66h495v-46l-418 -638h433v-66zM478 1000h-30l-135 -116l-135 116h-30l125 -175h80z" />
    <glyph glyph-name="uni000F" horiz-adv-x="540" 
d="M480 0h-420v45l320 393h-305v62h395v-45l-320 -393h330v-62zM430 750h-30l-135 -116l-135 116h-30l125 -175h80z" />
    <glyph glyph-name="uni001B" horiz-adv-x="275" 
d="M173 -206h-71v478h71v-478zM173 815v-477h-71v477h71z" />
    <glyph glyph-name="uni001C" horiz-adv-x="520" 
d="M460 356h-400v66h400v-66z" />
    <glyph glyph-name="uni001D" horiz-adv-x="520" 
d="M142 224l-47 47l118 118l-118 118l47 47l118 -118l118 118l47 -47l-118 -118l118 -118l-47 -47l-118 118z" />
    <glyph glyph-name="space" unicode=" " horiz-adv-x="200" 
 />
    <glyph glyph-name="exclam" unicode="!" horiz-adv-x="220" 
d="M130 210h-40l-35 540h110zM55 45c0 31 24 55 55 55s55 -24 55 -55s-24 -55 -55 -55s-55 24 -55 55z" />
    <glyph glyph-name="quotedbl" unicode="&#x22;" horiz-adv-x="360" 
d="M129 500h-38l-31 250h100zM269 500h-38l-31 250h100z" />
    <glyph glyph-name="numbersign" unicode="#" horiz-adv-x="585" 
d="M270 250l48 126h-151l-48 -126h-67l48 126h-85l20 66h90l45 117h-85l20 66h90l48 125h67l-48 -125h151l48 125h67l-48 -125h90l-20 -66h-95l-45 -117h90l-20 -66h-95l-48 -126h-67zM237 559l-45 -117h151l45 117h-151z" />
    <glyph glyph-name="dollar" unicode="$" 
d="M129 483c0 -61 73 -63 175 -71c150 -13 231 -30 231 -141c0 -103 -90 -156 -256 -156h-20l-39 -115h-75l46 121c-48 6 -98 15 -116 24v58c30 -12 129 -28 205 -28c113 0 189 23 189 95c0 66 -65 76 -170 84c-153 13 -234 27 -234 129c0 110 91 152 246 152
c8 0 19 0 30 -1l39 116h75l-46 -121c39 -5 78 -12 101 -22v-58c-39 13 -128 26 -200 26c-108 0 -181 -16 -181 -92z" />
    <glyph glyph-name="percent" unicode="%" horiz-adv-x="925" 
d="M236 370c-121 0 -171 67 -171 195s50 195 171 195s171 -67 171 -195s-50 -195 -171 -195zM689 380c121 0 171 -67 171 -195s-50 -195 -171 -195s-171 67 -171 195s50 195 171 195zM236 0h-77l530 750h77zM689 320c-76 0 -107 -36 -107 -135s31 -135 107 -135
s107 36 107 135s-31 135 -107 135zM236 430c76 0 107 36 107 135s-31 135 -107 135s-107 -36 -107 -135s31 -135 107 -135z" />
    <glyph glyph-name="ampersand" unicode="&#x26;" horiz-adv-x="735" 
d="M480 590h-62c4 12 7 27 7 48c0 30 -11 60 -85 60c-89 0 -107 -69 -107 -123c0 -132 77 -377 272 -476c58 37 100 97 100 186c0 114 -53 153 -125 153c-57 0 -82 -5 -120 -17v60c50 16 80 19 120 19c112 0 195 -65 195 -215c0 -95 -41 -165 -100 -214
c35 -10 73 -15 115 -15v-66c-69 0 -131 13 -186 37c-54 -25 -113 -37 -169 -37c-161 0 -280 66 -280 235c0 100 62 165 130 198c-14 52 -21 104 -21 152c0 81 42 185 176 185c119 0 150 -55 150 -122c0 -16 -5 -35 -10 -48zM335 52c31 0 64 4 96 13
c-108 70 -184 181 -226 295c-42 -22 -80 -62 -80 -135c0 -122 88 -173 210 -173z" />
    <glyph glyph-name="quotesingle" unicode="'" horiz-adv-x="220" 
d="M129 500h-38l-31 250h100z" />
    <glyph glyph-name="parenleft" unicode="(" horiz-adv-x="310" 
d="M265 -206h-75c-51 75 -125 258 -125 511s74 436 125 511h75c-51 -75 -126 -258 -126 -511s75 -436 126 -511z" />
    <glyph glyph-name="parenright" unicode=")" horiz-adv-x="310" 
d="M45 -206h75c51 75 125 258 125 511s-74 436 -125 511h-75c51 -75 126 -258 126 -511s-75 -436 -126 -511z" />
    <glyph glyph-name="asterisk" unicode="*" horiz-adv-x="385" 
d="M200 528l32 22l99 -105l-63 -43zM154 550l32 -22l-68 -128l-61 46zM212 609h-38l-20 141h78zM236 564l-11 37l129 61l22 -74zM161 601l-11 -37l-141 24l24 73z" />
    <glyph glyph-name="plus" unicode="+" horiz-adv-x="520" 
d="M293 189h-66v167h-167v66h167v167h66v-167h167v-66h-167v-167z" />
    <glyph glyph-name="comma" unicode="," horiz-adv-x="220" 
d="M98 -114h-35l25 109c-21 8 -33 28 -33 50c0 31 25 55 55 55s55 -24 55 -55c0 -9 -2 -19 -6 -27z" />
    <glyph glyph-name="hyphen" unicode="-" horiz-adv-x="370" 
d="M310 422v-66h-250v66h250z" />
    <glyph glyph-name="period" unicode="." horiz-adv-x="220" 
d="M55 45c0 31 24 55 55 55s55 -24 55 -55s-24 -55 -55 -55s-55 24 -55 55z" />
    <glyph glyph-name="slash" unicode="/" horiz-adv-x="420" 
d="M73 -206h-73l347 1022h73z" />
    <glyph glyph-name="zero" unicode="0" 
d="M530 375c0 -235 -14 -385 -230 -385c-214 0 -230 150 -230 385s16 385 230 385c216 0 230 -150 230 -385zM460 375c0 192 -4 323 -160 323c-158 0 -160 -131 -160 -323s2 -323 160 -323c156 0 160 131 160 323z" />
    <glyph glyph-name="one" unicode="1" horiz-adv-x="360" 
d="M200 760h35v-760h-75v688l-135 -5v27z" />
    <glyph glyph-name="two" unicode="2" 
d="M465 560c0 77 -28 136 -168 136c-70 0 -120 -10 -188 -39v68c41 19 101 35 187 35c210 0 240 -116 240 -200c0 -68 -29 -112 -92 -177l-304 -318h396v-65h-486v46l368 401c26 29 47 68 47 113z" />
    <glyph glyph-name="three" unicode="3" 
d="M261 54c-70 0 -128 10 -196 39v-68c41 -19 109 -35 195 -35c216 0 281 100 281 221c0 88 -51 164 -137 183c65 24 112 93 112 164c0 113 -61 202 -264 202c-86 0 -146 -16 -187 -35v-68c68 29 118 39 188 39c153 0 189 -61 189 -138c0 -66 -43 -136 -156 -136h-136v-66
h136c123 0 181 -40 181 -145c0 -83 -38 -157 -206 -157z" />
    <glyph glyph-name="four" unicode="4" 
d="M448 760v-448h107v-62h-107v-250h-68v250h-325v42l340 468h53zM141 312h239v329z" />
    <glyph glyph-name="five" unicode="5" 
d="M239 52c84 0 203 24 203 181c0 152 -101 150 -198 150h-140v367h395v-62h-327v-245c31 3 68 5 95 5c121 0 247 -24 247 -215c0 -216 -162 -243 -276 -243c-73 0 -130 15 -165 32v62c37 -14 89 -32 166 -32z" />
    <glyph glyph-name="six" unicode="6" 
d="M345 696c80 0 138 -17 175 -36v66c-25 14 -78 34 -175 34c-220 0 -275 -169 -275 -415c0 -213 29 -355 244 -355c195 0 226 140 226 241s-21 241 -226 241c-100 0 -156 -53 -180 -98c0 188 53 322 211 322zM144 231c0 78 29 179 170 179c144 0 156 -111 156 -179
s-20 -179 -156 -179c-144 0 -170 99 -170 179z" />
    <glyph glyph-name="seven" unicode="7" 
d="M203 0h-88l365 688h-430v62h500v-48z" />
    <glyph glyph-name="eight" unicode="8" 
d="M300 -10c-187 0 -253 104 -253 221c0 75 38 159 124 184c-65 30 -99 92 -99 157c0 109 58 208 228 208s228 -99 228 -208c0 -65 -34 -127 -99 -157c86 -25 124 -109 124 -184c0 -117 -66 -221 -253 -221zM300 358c-117 0 -179 -46 -179 -147c0 -72 38 -159 179 -159
s179 87 179 159c0 101 -62 147 -179 147zM300 420c113 0 154 68 154 132c0 66 -27 146 -154 146s-154 -80 -154 -146c0 -64 41 -132 154 -132z" />
    <glyph glyph-name="nine" unicode="9" 
d="M265 54c-80 0 -138 17 -175 36v-66c25 -14 78 -34 175 -34c220 0 275 169 275 415c0 213 -29 355 -244 355c-195 0 -226 -140 -226 -241s21 -241 226 -241c100 0 156 53 180 98c0 -188 -53 -322 -211 -322zM466 519c0 -78 -29 -179 -170 -179c-144 0 -156 111 -156 179
s20 179 156 179c144 0 170 -99 170 -179z" />
    <glyph glyph-name="colon" unicode=":" horiz-adv-x="220" 
d="M55 45c0 31 24 55 55 55s55 -24 55 -55s-24 -55 -55 -55s-55 24 -55 55zM55 375c0 31 24 55 55 55s55 -24 55 -55s-24 -55 -55 -55s-55 24 -55 55z" />
    <glyph glyph-name="semicolon" unicode=";" horiz-adv-x="220" 
d="M98 -114h-35l25 109c-21 8 -33 28 -33 50c0 31 25 55 55 55s55 -24 55 -55c0 -9 -2 -19 -6 -27zM55 375c0 31 24 55 55 55s55 -24 55 -55s-24 -55 -55 -55s-55 24 -55 55z" />
    <glyph glyph-name="less" unicode="&#x3c;" horiz-adv-x="365" 
d="M305 189v63l-181 137l181 137v63l-250 -167v-66z" />
    <glyph glyph-name="equal" unicode="=" horiz-adv-x="520" 
d="M460 488v-66h-400v66h400zM460 356v-66h-400v66h400z" />
    <glyph glyph-name="greater" unicode="&#x3e;" horiz-adv-x="365" 
d="M60 189v63l181 137l-181 137v63l250 -167v-66z" />
    <glyph glyph-name="question" unicode="?" horiz-adv-x="500" 
d="M195 696c148 0 175 -52 175 -135c0 -104 -62 -126 -128 -151c-119 -45 -117 -120 -101 -200h41c0 74 2 111 75 141c111 45 183 85 183 211c0 102 -36 198 -246 198c-48 0 -122 -12 -154 -25v-62c31 11 84 23 155 23zM128 45c0 31 24 55 55 55s55 -24 55 -55
s-24 -55 -55 -55s-55 24 -55 55z" />
    <glyph glyph-name="at" unicode="@" horiz-adv-x="1040" 
d="M55 250c0 -268 70 -510 470 -510c109 0 192 13 256 36l-1 72c-57 -28 -138 -44 -255 -44c-349 0 -396 213 -396 446s47 446 396 446s386 -140 386 -351c0 -180 -37 -283 -201 -283v438h-39l-15 -42c-47 35 -103 52 -156 52c-161 0 -205 -116 -205 -260s44 -260 205 -260
c54 0 104 18 156 51l15 -41h39c224 0 275 132 275 345c0 243 -60 415 -460 415s-470 -242 -470 -510zM586 62c-23 -7 -50 -10 -86 -10c-120 0 -135 99 -135 198s15 198 135 198c64 0 99 -9 140 -32v-332c-17 -9 -35 -17 -54 -22z" />
    <glyph glyph-name="A" unicode="A" horiz-adv-x="670" 
d="M547 0h78l-265 760h-50l-265 -760h78l69 210h286zM212 272l123 375l123 -375h-246z" />
    <glyph glyph-name="B" unicode="B" horiz-adv-x="645" 
d="M90 750v-750h244c187 0 251 94 251 211c0 80 -41 160 -127 183c65 28 102 93 102 158c0 109 -58 198 -233 198h-237zM161 66v290h179c123 0 166 -44 166 -145c0 -72 -27 -145 -168 -145h-177zM481 552c0 -64 -28 -130 -141 -130h-179v262h171c127 0 149 -66 149 -132z
" />
    <glyph glyph-name="C" unicode="C" horiz-adv-x="640" 
d="M75 375c0 -213 71 -385 295 -385c92 0 154 17 195 35v68c-69 -28 -120 -39 -195 -39c-164 0 -221 140 -221 321s57 321 221 321c75 0 126 -11 195 -39v68c-41 18 -103 35 -195 35c-224 0 -295 -172 -295 -385z" />
    <glyph glyph-name="D" unicode="D" horiz-adv-x="685" 
d="M294 0h-204v750h204c245 0 316 -162 316 -375s-71 -375 -316 -375zM161 684v-618h137c180 0 235 129 235 309s-55 309 -235 309h-137z" />
    <glyph glyph-name="E" unicode="E" 
d="M490 422v-66h-329v-290h364v-66h-435v750h435v-66h-364v-262h329z" />
    <glyph glyph-name="F" unicode="F" horiz-adv-x="580" 
d="M480 422v-66h-319v-356h-71v750h425v-66h-354v-262h319z" />
    <glyph glyph-name="G" unicode="G" horiz-adv-x="690" 
d="M370 -10c105 0 179 17 230 41v363h-225v-66h154v-252c-35 -17 -102 -22 -159 -22c-164 0 -221 140 -221 321s57 321 221 321c81 0 132 -15 210 -47v69c-41 21 -106 42 -210 42c-224 0 -295 -172 -295 -385s71 -385 295 -385z" />
    <glyph glyph-name="H" unicode="H" horiz-adv-x="690" 
d="M600 0h-71v356h-368v-356h-71v750h71v-328h368v328h71v-750z" />
    <glyph glyph-name="I" unicode="I" horiz-adv-x="295" 
d="M183 0h-71v750h71v-750z" />
    <glyph glyph-name="J" unicode="J" horiz-adv-x="410" 
d="M50 -3v64c24 -6 39 -8 70 -8c65 0 109 20 109 85v612h71v-610c0 -96 -55 -150 -180 -150c-21 0 -50 2 -70 7z" />
    <glyph glyph-name="K" unicode="K" horiz-adv-x="625" 
d="M159 288l65 75l273 -363h93l-322 414l292 336h-92l-309 -374v374h-69v-750h69v288z" />
    <glyph glyph-name="L" unicode="L" horiz-adv-x="560" 
d="M161 66v684h-71v-750h415v66h-344z" />
    <glyph glyph-name="M" unicode="M" horiz-adv-x="870" 
d="M463 115l253 546l-4 -661h68v750h-91l-254 -545l-254 545h-91v-750h68l-4 661l253 -546h56z" />
    <glyph glyph-name="N" unicode="N" horiz-adv-x="700" 
d="M610 0h-51l-403 608l2 -608h-68v750h51l403 -608l-2 608h68v-750z" />
    <glyph glyph-name="O" unicode="O" horiz-adv-x="710" 
d="M635 375c0 -196 -33 -385 -280 -385c-245 0 -280 189 -280 385s35 385 280 385c247 0 280 -189 280 -385zM561 375c0 174 -25 321 -206 321s-206 -147 -206 -321s25 -321 206 -321s206 147 206 321z" />
    <glyph glyph-name="P" unicode="P" horiz-adv-x="620" 
d="M161 300v-300h-71v750h229c187 0 251 -108 251 -225s-64 -225 -251 -225h-158zM161 684v-318h162c141 0 168 87 168 159s-27 159 -168 159h-162z" />
    <glyph glyph-name="Q" unicode="Q" horiz-adv-x="710" 
d="M438 7v-1l287 -58v-72l-462 124c-164 44 -188 202 -188 375c0 214 40 385 280 385c243 0 280 -171 280 -385c0 -186 -22 -334 -197 -368zM558 375c0 188 -24 320 -203 320s-203 -132 -203 -320s24 -320 203 -320s203 132 203 320z" />
    <glyph glyph-name="R" unicode="R" horiz-adv-x="651" 
d="M161 328v-328h-71v750h235c187 0 245 -82 245 -211c0 -100 -35 -172 -138 -199l179 -340h-90l-163 329c-11 -1 -22 -1 -33 -1h-164zM161 684v-290h178c133 0 153 65 153 145s-20 145 -153 145h-178z" />
    <glyph glyph-name="S" unicode="S" horiz-adv-x="625" 
d="M320 696c74 0 128 -10 196 -39v68c-41 19 -103 35 -195 35c-210 0 -252 -122 -252 -209c0 -122 63 -173 240 -195c125 -16 172 -38 172 -140c0 -90 -45 -162 -201 -162c-104 0 -163 26 -211 42v-66c47 -21 141 -40 210 -40c223 0 277 124 277 226c0 141 -86 187 -233 206
c-118 15 -183 26 -183 128c0 79 32 146 180 146z" />
    <glyph glyph-name="T" unicode="T" horiz-adv-x="585" 
d="M535 684h-207v-684h-71v684h-207v66h485v-66z" />
    <glyph glyph-name="U" unicode="U" horiz-adv-x="700" 
d="M350 55c67 0 194 13 194 193v502h71v-515c0 -213 -175 -245 -265 -245s-265 32 -265 245v515h71v-502c0 -180 127 -193 194 -193z" />
    <glyph glyph-name="V" unicode="V" horiz-adv-x="670" 
d="M547 750h78l-265 -760h-50l-265 760h78l212 -647z" />
    <glyph glyph-name="W" unicode="W" horiz-adv-x="910" 
d="M493 750h-76l-168 -647l-127 647h-77l166 -760h70l174 655l174 -655h70l166 760h-77l-127 -647z" />
    <glyph glyph-name="X" unicode="X" horiz-adv-x="660" 
d="M330 429l198 321h87l-242 -370l247 -380h-90l-200 329l-200 -329h-90l247 380l-242 370h87z" />
    <glyph glyph-name="Y" unicode="Y" horiz-adv-x="700" 
d="M655 750l-270 -440v-310h-70v310l-270 440h86l219 -377l219 377h86z" />
    <glyph glyph-name="Z" unicode="Z" horiz-adv-x="640" 
d="M585 0h-530v46l418 638h-398v66h495v-46l-418 -638h433v-66z" />
    <glyph glyph-name="bracketleft" unicode="[" horiz-adv-x="260" 
d="M151 750v-890h64v-66h-135v1022h135v-66h-64z" />
    <glyph glyph-name="backslash" unicode="\" horiz-adv-x="420" 
d="M347 -206h73l-347 1022h-73z" />
    <glyph glyph-name="bracketright" unicode="]" horiz-adv-x="260" 
d="M109 750v-890h-64v-66h135v1022h-135v-66h64z" />
    <glyph glyph-name="asciicircum" unicode="^" horiz-adv-x="540" 
d="M480 500h-63l-137 181l-137 -181h-63l167 250h66z" />
    <glyph glyph-name="underscore" unicode="_" horiz-adv-x="320" 
d="M320 -184v-66h-320v66h320z" />
    <glyph glyph-name="grave" unicode="`" horiz-adv-x="540" 
d="M301 626h-138v65h138v-65z" />
    <glyph glyph-name="a" unicode="a" horiz-adv-x="560" 
d="M515 0h-73l-46 120h-233l-45 -120h-73l210 510h50zM280 427l-97 -255h193z" />
    <glyph glyph-name="b" unicode="b" horiz-adv-x="529" 
d="M90 0v500h198c116 0 157 -46 157 -130c0 -39 -21 -77 -51 -93c47 -19 75 -72 75 -126c0 -86 -40 -151 -164 -151h-215zM398 151c0 49 -15 90 -98 90h-144v-180h144c83 0 98 41 98 90zM156 302h146c65 0 76 27 76 68s-12 69 -82 69h-140v-137z" />
    <glyph glyph-name="c" unicode="c" horiz-adv-x="535" 
d="M75 250c0 144 67 260 236 260c49 0 105 -6 149 -25v-60c-39 13 -79 23 -150 23c-126 0 -165 -99 -165 -198s39 -198 165 -198c71 0 111 10 150 23v-60c-44 -19 -100 -25 -149 -25c-169 0 -236 116 -236 260z" />
    <glyph glyph-name="d" unicode="d" horiz-adv-x="575" 
d="M258 0h-168v500h168c172 0 242 -97 242 -250s-70 -250 -242 -250zM156 61h104c133 0 173 76 173 189s-40 189 -173 189h-104v-378z" />
    <glyph glyph-name="e" unicode="e" horiz-adv-x="530" 
d="M420 287v-61h-264v-165h299v-61h-365v500h365v-61h-299v-152h264z" />
    <glyph glyph-name="f" unicode="f" horiz-adv-x="510" 
d="M410 287v-61h-254v-226h-66v500h355v-61h-289v-152h254z" />
    <glyph glyph-name="g" unicode="g" horiz-adv-x="580" 
d="M310 52c-126 0 -165 99 -165 198s39 198 165 198c81 0 132 -14 170 -28v60c-40 20 -111 30 -170 30c-169 0 -235 -116 -235 -260s66 -260 235 -260c62 0 140 13 180 33v236h-175v-61h109v-135c-31 -6 -68 -11 -114 -11z" />
    <glyph glyph-name="h" unicode="h" 
d="M510 0h-66v226h-288v-226h-66v500h66v-213h288v213h66v-500z" />
    <glyph glyph-name="i" unicode="i" horiz-adv-x="290" 
d="M178 0h-66v500h66v-500z" />
    <glyph glyph-name="j" unicode="j" horiz-adv-x="405" 
d="M50 -3v58c24 -6 39 -8 70 -8c65 0 109 20 109 85v368h66v-360c0 -96 -50 -150 -175 -150c-21 0 -50 2 -70 7z" />
    <glyph glyph-name="k" unicode="k" horiz-adv-x="545" 
d="M476 500l-215 -206l242 -294h-87l-197 254l-63 -60v-194h-66v500h66v-227l226 227h94z" />
    <glyph glyph-name="l" unicode="l" horiz-adv-x="510" 
d="M156 61v439h-66v-500h365v61h-299z" />
    <glyph glyph-name="m" unicode="m" horiz-adv-x="700" 
d="M321 65h58l170 344l-4 -409h65v500h-85l-175 -363l-175 363h-85v-500h65l-4 409z" />
    <glyph glyph-name="n" unicode="n" 
d="M510 0h-44l-311 380l1 -380h-66v500h44l311 -380l-1 380h66v-500z" />
    <glyph glyph-name="o" unicode="o" horiz-adv-x="610" 
d="M535 250c0 -153 -58 -260 -230 -260c-171 0 -230 107 -230 260s59 260 230 260c172 0 230 -107 230 -260zM468 250c0 113 -30 201 -163 201c-135 0 -163 -88 -163 -201s28 -201 163 -201c133 0 163 88 163 201z" />
    <glyph glyph-name="p" unicode="p" horiz-adv-x="520" 
d="M156 178h136c123 0 167 75 167 161s-43 161 -167 161h-202v-500h66v178zM388 339c0 -48 -15 -100 -98 -100h-134v200h134c83 0 98 -52 98 -100z" />
    <glyph glyph-name="q" unicode="q" horiz-adv-x="610" 
d="M535 250c0 -119 -35 -211 -132 -245v-1l283 -56v-72l-454 122c-118 32 -157 123 -157 252c0 153 59 260 230 260c172 0 230 -107 230 -260zM468 250c0 113 -30 201 -163 201c-135 0 -163 -88 -163 -201s28 -201 163 -201c133 0 163 88 163 201z" />
    <glyph glyph-name="r" unicode="r" horiz-adv-x="550" 
d="M156 198h153l107 -198h78l-119 207c69 21 94 75 94 142c0 86 -41 151 -165 151h-214v-500h66v198zM398 349c0 -48 -18 -90 -101 -90h-141v180h141c83 0 101 -42 101 -90z" />
    <glyph glyph-name="s" unicode="s" horiz-adv-x="540" 
d="M139 358c0 -50 39 -63 135 -71c142 -13 191 -50 191 -141c0 -85 -55 -156 -216 -156c-51 0 -133 13 -164 27v58c30 -12 91 -25 165 -25c110 0 149 34 149 95c0 55 -31 76 -130 84c-145 13 -194 45 -194 129c0 90 56 152 206 152c50 0 115 -6 159 -25v-58
c-39 13 -90 23 -160 23c-105 0 -141 -28 -141 -92z" />
    <glyph glyph-name="t" unicode="t" horiz-adv-x="525" 
d="M465 439h-167v-439h-71v439h-167v61h405v-61z" />
    <glyph glyph-name="u" unicode="u" 
d="M300 -10c-149 0 -215 64 -215 170v340h70v-340c0 -80 58 -111 145 -111s145 31 145 111v340h70v-340c0 -106 -66 -170 -215 -170z" />
    <glyph glyph-name="v" unicode="v" horiz-adv-x="560" 
d="M515 500h-75l-160 -429l-160 429h-75l210 -510h50z" />
    <glyph glyph-name="w" unicode="w" horiz-adv-x="770" 
d="M648 500h77l-146 -510h-52l-142 437l-142 -437h-52l-146 510h77l97 -397l129 397h74l129 -397z" />
    <glyph glyph-name="x" unicode="x" horiz-adv-x="550" 
d="M125 0h-85l195 257l-185 243h85l140 -194l140 194h85l-185 -243l195 -257h-85l-150 208z" />
    <glyph glyph-name="y" unicode="y" horiz-adv-x="582" 
d="M454 500h83l-212 -320v-180h-67v180l-213 320h83l163 -270z" />
    <glyph glyph-name="z" unicode="z" horiz-adv-x="540" 
d="M480 0h-420v45l320 393h-305v62h395v-45l-320 -393h330v-62z" />
    <glyph glyph-name="braceleft" unicode="{" horiz-adv-x="240" 
d="M33 338h10c31 0 43 13 42 39l-18 330c-4 77 43 109 113 109h15v-66h-15c-31 0 -43 -14 -42 -39l18 -330c1 -31 -11 -57 -30 -76c19 -19 31 -46 30 -76l-18 -330c-1 -25 11 -39 42 -39h15v-66h-15c-70 0 -117 32 -113 109l18 330c1 24 -10 37 -37 39h-15v66z" />
    <glyph glyph-name="bar" unicode="|" horiz-adv-x="275" 
d="M173 -206h-71v1022h71v-1022z" />
    <glyph glyph-name="braceright" unicode="}" horiz-adv-x="240" 
d="M207 338h-10c-31 0 -43 13 -42 39l18 330c4 77 -43 109 -113 109h-15v-66h15c31 0 43 -14 42 -39l-18 -330c-1 -31 14 -62 33 -76c-19 -14 -34 -46 -33 -76l18 -330c1 -25 -11 -39 -42 -39h-15v-66h15c70 0 117 32 113 109l-18 330c-1 24 10 37 37 39h15v66z" />
    <glyph glyph-name="asciitilde" unicode="~" horiz-adv-x="370" 
d="M335 440v-52c-25 18 -47 27 -75 27c-51 0 -69 -64 -144 -64c-34 0 -65 20 -81 36v52c25 -18 47 -27 75 -27c51 0 69 64 144 64c34 0 65 -20 81 -36z" />
    <glyph glyph-name="uni0080" horiz-adv-x="670" 
d="M547 0h78l-265 760h-50l-265 -760h78l69 210h286zM212 272l123 375l123 -375h-246zM235 880c31 0 55 24 55 55s-24 55 -55 55s-55 -24 -55 -55s24 -55 55 -55zM490 935c0 -31 -24 -55 -55 -55s-55 24 -55 55s24 55 55 55s55 -24 55 -55z" />
    <glyph glyph-name="uni0081" horiz-adv-x="670" 
d="M547 0h78l-265 760h-50l-265 -760h78l69 210h286zM212 272l123 375l123 -375h-246zM433 912c0 -68 -39 -97 -98 -97c-60 0 -99 29 -99 97c0 69 39 98 99 98c59 0 98 -29 98 -98zM383 912c0 37 -18 49 -48 49c-31 0 -49 -12 -49 -49c0 -36 18 -48 49 -48c30 0 48 12 48 48
z" />
    <glyph glyph-name="uni0082" horiz-adv-x="620" 
d="M386 -185h-76c27 23 51 64 24 79c-48 26 -25 72 -6 98c-199 15 -263 180 -263 383c0 213 71 385 295 385c92 0 154 -17 195 -35v-68c-69 28 -120 39 -195 39c-164 0 -221 -140 -221 -321s57 -321 221 -321c75 0 126 11 195 39v-68c-39 -17 -98 -33 -183 -35
c-14 -20 -22 -43 9 -61c66 -36 29 -91 5 -114z" />
    <glyph glyph-name="uni0083" 
d="M490 422v-66h-329v-290h364v-66h-435v750h435v-66h-364v-262h329zM293 825h30l145 175h-95z" />
    <glyph glyph-name="uni0084" horiz-adv-x="700" 
d="M610 0h-51l-403 608l2 -608h-68v750h51l403 -608l-2 608h68v-750zM500 939v-52c-25 18 -47 27 -75 27c-51 0 -69 -64 -144 -64c-34 0 -65 20 -81 36v52c25 -18 47 -27 75 -27c51 0 69 64 144 64c34 0 65 -20 81 -36z" />
    <glyph glyph-name="uni0085" unicode="&#x85;" horiz-adv-x="710" 
d="M635 375c0 -196 -33 -385 -280 -385c-245 0 -280 189 -280 385s35 385 280 385c247 0 280 -189 280 -385zM561 375c0 174 -25 321 -206 321s-206 -147 -206 -321s25 -321 206 -321s206 147 206 321zM255 880c31 0 55 24 55 55s-24 55 -55 55s-55 -24 -55 -55
s24 -55 55 -55zM510 935c0 -31 -24 -55 -55 -55s-55 24 -55 55s24 55 55 55s55 -24 55 -55z" />
    <glyph glyph-name="uni0086" horiz-adv-x="700" 
d="M350 55c67 0 194 13 194 193v502h71v-515c0 -213 -175 -245 -265 -245s-265 32 -265 245v515h71v-502c0 -180 127 -193 194 -193zM505 935c0 -31 -24 -55 -55 -55s-55 24 -55 55s24 55 55 55s55 -24 55 -55zM250 880c31 0 55 24 55 55s-24 55 -55 55s-55 -24 -55 -55
s24 -55 55 -55z" />
    <glyph glyph-name="uni0087" horiz-adv-x="560" 
d="M515 0h-73l-46 120h-233l-45 -120h-73l210 510h50zM280 427l-97 -255h193zM265 575h30l145 175h-95z" />
    <glyph glyph-name="uni0088" horiz-adv-x="560" 
d="M515 0h-73l-46 120h-233l-45 -120h-73l210 510h50zM280 427l-97 -255h193zM295 575h-30l-145 175h95z" />
    <glyph glyph-name="uni0089" horiz-adv-x="560" 
d="M515 0h-73l-46 120h-233l-45 -120h-73l210 510h50zM280 427l-97 -255h193zM445 575h-30l-135 116l-135 -116h-30l125 175h80z" />
    <glyph glyph-name="uni008A" horiz-adv-x="560" 
d="M515 0h-73l-46 120h-233l-45 -120h-73l210 510h50zM280 427l-97 -255h193zM180 630c31 0 55 24 55 55s-24 55 -55 55s-55 -24 -55 -55s24 -55 55 -55zM435 685c0 -31 -24 -55 -55 -55s-55 24 -55 55s24 55 55 55s55 -24 55 -55z" />
    <glyph glyph-name="uni008B" horiz-adv-x="560" 
d="M515 0h-73l-46 120h-233l-45 -120h-73l210 510h50zM280 427l-97 -255h193zM430 689v-52c-25 18 -47 27 -75 27c-51 0 -69 -64 -144 -64c-34 0 -65 20 -81 36v52c25 -18 47 -27 75 -27c51 0 69 64 144 64c34 0 65 -20 81 -36z" />
    <glyph glyph-name="uni008C" horiz-adv-x="560" 
d="M515 0h-73l-46 120h-233l-45 -120h-73l210 510h50zM378 662c0 -68 -39 -97 -98 -97c-60 0 -99 29 -99 97c0 69 39 98 99 98c59 0 98 -29 98 -98zM280 427l-97 -255h193zM328 662c0 37 -18 49 -48 49c-31 0 -49 -12 -49 -49c0 -36 18 -48 49 -48c30 0 48 12 48 48z" />
    <glyph glyph-name="uni008D" horiz-adv-x="535" 
d="M337 -185h-76c27 23 51 64 24 79c-48 26 -25 72 -6 98c-146 13 -204 123 -204 258c0 144 67 260 236 260c49 0 105 -6 149 -25v-60c-39 13 -79 23 -150 23c-126 0 -165 -99 -165 -198s39 -198 165 -198c71 0 111 10 150 23v-60c-41 -17 -91 -24 -137 -25
c-14 -20 -22 -43 9 -61c66 -36 29 -91 5 -114z" />
    <glyph glyph-name="uni008E" horiz-adv-x="530" 
d="M420 287v-61h-264v-165h299v-61h-365v500h365v-61h-299v-152h264zM258 575h30l145 175h-95z" />
    <glyph glyph-name="uni008F" horiz-adv-x="530" 
d="M420 287v-61h-264v-165h299v-61h-365v500h365v-61h-299v-152h264zM288 575h-30l-145 175h95z" />
    <glyph glyph-name="uni0090" horiz-adv-x="530" 
d="M420 287v-61h-264v-165h299v-61h-365v500h365v-61h-299v-152h264zM438 575h-30l-135 116l-135 -116h-30l125 175h80z" />
    <glyph glyph-name="uni0091" horiz-adv-x="530" 
d="M420 287v-61h-264v-165h299v-61h-365v500h365v-61h-299v-152h264zM173 630c31 0 55 24 55 55s-24 55 -55 55s-55 -24 -55 -55s24 -55 55 -55zM428 685c0 -31 -24 -55 -55 -55s-55 24 -55 55s24 55 55 55s55 -24 55 -55z" />
    <glyph glyph-name="uni0092" horiz-adv-x="290" 
d="M178 0h-66v500h66v-500zM130 575h30l145 175h-95z" />
    <glyph glyph-name="uni0093" horiz-adv-x="290" 
d="M178 0h-66v500h66v-500zM160 575h-30l-145 175h95z" />
    <glyph glyph-name="uni0094" horiz-adv-x="290" 
d="M178 0h-66v500h66v-500zM310 575h-30l-135 116l-135 -116h-30l125 175h80z" />
    <glyph glyph-name="uni0095" horiz-adv-x="290" 
d="M178 0h-66v500h66v-500zM45 630c31 0 55 24 55 55s-24 55 -55 55s-55 -24 -55 -55s24 -55 55 -55zM300 685c0 -31 -24 -55 -55 -55s-55 24 -55 55s24 55 55 55s55 -24 55 -55z" />
    <glyph glyph-name="uni0096" 
d="M510 0h-44l-311 380l1 -380h-66v500h44l311 -380l-1 380h66v-500zM452 689v-52c-25 18 -47 27 -75 27c-51 0 -69 -64 -144 -64c-34 0 -65 20 -81 36v52c25 -18 47 -27 75 -27c51 0 69 64 144 64c34 0 65 -20 81 -36z" />
    <glyph glyph-name="uni0097" horiz-adv-x="610" 
d="M535 250c0 -153 -58 -260 -230 -260c-171 0 -230 107 -230 260s59 260 230 260c172 0 230 -107 230 -260zM468 250c0 113 -30 201 -163 201c-135 0 -163 -88 -163 -201s28 -201 163 -201c133 0 163 88 163 201zM290 575h30l145 175h-95z" />
    <glyph glyph-name="uni0098" horiz-adv-x="610" 
d="M535 250c0 -153 -58 -260 -230 -260c-171 0 -230 107 -230 260s59 260 230 260c172 0 230 -107 230 -260zM468 250c0 113 -30 201 -163 201c-135 0 -163 -88 -163 -201s28 -201 163 -201c133 0 163 88 163 201zM320 575h-30l-145 175h95z" />
    <glyph glyph-name="uni0099" horiz-adv-x="610" 
d="M535 250c0 -153 -58 -260 -230 -260c-171 0 -230 107 -230 260s59 260 230 260c172 0 230 -107 230 -260zM468 250c0 113 -30 201 -163 201c-135 0 -163 -88 -163 -201s28 -201 163 -201c133 0 163 88 163 201zM470 575h-30l-135 116l-135 -116h-30l125 175h80z" />
    <glyph glyph-name="uni009A" horiz-adv-x="610" 
d="M535 250c0 -153 -58 -260 -230 -260c-171 0 -230 107 -230 260s59 260 230 260c172 0 230 -107 230 -260zM468 250c0 113 -30 201 -163 201c-135 0 -163 -88 -163 -201s28 -201 163 -201c133 0 163 88 163 201zM205 630c31 0 55 24 55 55s-24 55 -55 55s-55 -24 -55 -55
s24 -55 55 -55zM460 685c0 -31 -24 -55 -55 -55s-55 24 -55 55s24 55 55 55s55 -24 55 -55z" />
    <glyph glyph-name="uni009B" horiz-adv-x="610" 
d="M535 250c0 -153 -58 -260 -230 -260c-171 0 -230 107 -230 260s59 260 230 260c172 0 230 -107 230 -260zM468 250c0 113 -30 201 -163 201c-135 0 -163 -88 -163 -201s28 -201 163 -201c133 0 163 88 163 201zM455 689v-52c-25 18 -47 27 -75 27c-51 0 -69 -64 -144 -64
c-34 0 -65 20 -81 36v52c25 -18 47 -27 75 -27c51 0 69 64 144 64c34 0 65 -20 81 -36z" />
    <glyph glyph-name="uni009C" 
d="M300 -10c-149 0 -215 64 -215 170v340h70v-340c0 -80 58 -111 145 -111s145 31 145 111v340h70v-340c0 -106 -66 -170 -215 -170zM285 575h30l145 175h-95z" />
    <glyph glyph-name="uni009D" 
d="M300 -10c-149 0 -215 64 -215 170v340h70v-340c0 -80 58 -111 145 -111s145 31 145 111v340h70v-340c0 -106 -66 -170 -215 -170zM315 575h-30l-145 175h95z" />
    <glyph glyph-name="uni009E" 
d="M300 -10c-149 0 -215 64 -215 170v340h70v-340c0 -80 58 -111 145 -111s145 31 145 111v340h70v-340c0 -106 -66 -170 -215 -170zM465 575h-30l-135 116l-135 -116h-30l125 175h80z" />
    <glyph glyph-name="uni009F" 
d="M300 -10c-149 0 -215 64 -215 170v340h70v-340c0 -80 58 -111 145 -111s145 31 145 111v340h70v-340c0 -106 -66 -170 -215 -170zM200 630c31 0 55 24 55 55s-24 55 -55 55s-55 -24 -55 -55s24 -55 55 -55zM455 685c0 -31 -24 -55 -55 -55s-55 24 -55 55s24 55 55 55
s55 -24 55 -55z" />
    <glyph glyph-name="uni00A0" unicode="&#xa0;" horiz-adv-x="385" 
d="M174 551h38l31 -250h-100zM222 561v38l141 20v-78zM164 561v38l-141 20v-78zM212 609h-38l-20 141h78z" />
    <glyph glyph-name="exclamdown" unicode="&#xa1;" horiz-adv-x="366" 
d="M183 490c68 0 138 30 138 135c0 106 -70 135 -138 135s-138 -29 -138 -135c0 -105 70 -135 138 -135zM183 705c48 0 79 -22 79 -80s-31 -80 -79 -80s-79 22 -79 80s31 80 79 80z" />
    <glyph glyph-name="cent" unicode="&#xa2;" 
d="M414 630c36 -5 74 -14 101 -25v-60c-39 13 -99 28 -170 28c-126 0 -205 -72 -205 -198s79 -198 205 -198c71 0 131 15 170 28v-60c-44 -19 -120 -30 -169 -30c-11 0 -22 0 -32 1l-39 -116h-75l48 126c-111 30 -178 114 -178 249c0 170 107 260 276 260l39 115h75z" />
    <glyph glyph-name="sterling" unicode="&#xa3;" 
d="M191 563v-141h279v-61h-279v-300h369v-61h-519v61h80v300h-80v61h80v140c0 114 70 198 231 198c49 0 144 -13 188 -32v-60c-39 13 -119 30 -188 30c-114 0 -161 -39 -161 -135z" />
    <glyph glyph-name="Euro" unicode="&#x20ac;" horiz-adv-x="649" 
d="M114 555c0 -48 9 -84 32 -111c-71 -43 -92 -114 -92 -171c0 -124 48 -164 226 -195c114 -21 184 -32 184 -132c0 -79 -34 -142 -182 -142c-74 0 -128 10 -196 39v-68c41 -19 103 -35 195 -35c210 0 254 118 254 205c0 48 -10 83 -32 111c71 43 92 114 92 171
c0 124 -48 164 -226 195c-114 21 -184 32 -184 132c0 79 34 142 182 142c74 0 128 -10 196 -39v68c-41 19 -103 35 -195 35c-210 0 -254 -118 -254 -205zM524 228c0 -55 -19 -104 -79 -129c-34 18 -88 31 -154 43c-114 21 -166 27 -166 130c0 55 19 104 78 129
c35 -19 88 -32 155 -43c114 -21 166 -27 166 -130z" />
    <glyph glyph-name="yen" unicode="&#xa5;" horiz-adv-x="400" 
d="M65 375c0 75 60 135 135 135s135 -60 135 -135s-60 -135 -135 -135s-135 60 -135 135z" />
    <glyph glyph-name="Scaron" unicode="&#x160;" horiz-adv-x="620" 
d="M317 0h71v300h71v-300h71v750h-229c-187 0 -251 -108 -251 -225s64 -225 251 -225h16v-300zM129 525c0 72 27 159 168 159h20v-318h-20c-141 0 -168 87 -168 159zM459 684v-318h-71v318h71z" />
    <glyph glyph-name="section" unicode="&#xa7;" horiz-adv-x="1080" 
d="M139 358c0 -50 39 -63 135 -71c142 -13 191 -50 191 -141c0 -85 -55 -156 -216 -156c-51 0 -133 13 -164 27v58c30 -12 91 -25 165 -25c110 0 149 34 149 95c0 55 -31 76 -130 84c-145 13 -194 45 -194 129c0 90 56 152 206 152c50 0 115 -6 159 -25v-58
c-39 13 -90 23 -160 23c-105 0 -141 -28 -141 -92zM679 358c0 -50 39 -63 135 -71c142 -13 191 -50 191 -141c0 -85 -55 -156 -216 -156c-51 0 -133 13 -164 27v58c30 -12 91 -25 165 -25c110 0 149 34 149 95c0 55 -31 76 -130 84c-145 13 -194 45 -194 129
c0 90 56 152 206 152c50 0 115 -6 159 -25v-58c-39 13 -90 23 -160 23c-105 0 -141 -28 -141 -92z" />
    <glyph glyph-name="scaron" unicode="&#x161;" horiz-adv-x="344" 
d="M172 760c-73 0 -137 -23 -137 -135c0 -111 64 -135 137 -135s137 24 137 135c0 112 -64 135 -137 135zM172 728c59 0 102 -15 102 -103s-43 -103 -102 -103s-102 15 -102 103s43 103 102 103zM175 604h-28v-51h-32v144h64c37 0 50 -19 50 -46c0 -19 -6 -34 -21 -41
l32 -57h-36zM195 651c0 9 -2 16 -18 16h-30v-32h30c16 0 18 7 18 16z" />
    <glyph glyph-name="copyright" unicode="&#xa9;" horiz-adv-x="680" 
d="M335 -10c142 0 265 46 265 260c0 215 -123 260 -265 260s-265 -45 -265 -260c0 -214 123 -260 265 -260zM335 52c-115 0 -198 28 -198 198s83 198 198 198s198 -28 198 -198s-83 -198 -198 -198zM337 159c32 0 67 6 89 12v-61c-27 -7 -63 -11 -89 -11
c-90 0 -139 39 -139 151s49 151 139 151c26 0 62 -4 89 -11v-61c-22 6 -57 12 -89 12c-53 0 -75 -17 -75 -91s22 -91 75 -91z" />
    <glyph glyph-name="ordfeminine" unicode="&#xaa;" horiz-adv-x="575" 
d="M386 532h29l85 173l-2 -205h32v250h-42l-88 -182l-87 182h-43v-250h33l-2 205zM217 720h-83v-220h-36v220h-83v30h202v-30z" />
    <glyph glyph-name="guillemotleft" unicode="&#xab;" horiz-adv-x="540" 
d="M286 575h30l145 175h-95z" />
    <glyph glyph-name="logicalnot" unicode="&#xac;" horiz-adv-x="540" 
d="M180 630c31 0 55 24 55 55s-24 55 -55 55s-55 -24 -55 -55s24 -55 55 -55zM435 685c0 -31 -24 -55 -55 -55s-55 24 -55 55s24 55 55 55s55 -24 55 -55z" />
    <glyph glyph-name="uni00AD" unicode="&#xad;" horiz-adv-x="910" 
d="M830 0h-750v750h750v-750z" />
    <glyph glyph-name="registered" unicode="&#xae;" horiz-adv-x="1020" 
d="M95 0h-83l492 750h451v-66h-364v-262h329v-66h-329v-290h364v-66h-435v356h-197zM365 422h155v242z" />
    <glyph glyph-name="macron" unicode="&#xaf;" horiz-adv-x="690" 
d="M163 0h-78l47 80c-56 73 -67 183 -67 295c0 196 35 385 280 385c70 0 123 -16 163 -42l19 32h78l-47 -79c56 -74 67 -184 67 -296c0 -196 -33 -385 -280 -385c-71 0 -123 15 -163 42zM551 375c0 86 -6 166 -35 225l-299 -507c30 -25 72 -39 128 -39
c181 0 206 147 206 321zM139 375c0 -87 6 -166 34 -225l299 507c-30 24 -71 39 -127 39c-181 0 -206 -147 -206 -321z" />
    <glyph glyph-name="degree" unicode="&#xb0;" horiz-adv-x="575" 
d="M386 532h29l85 173l-2 -205h32v250h-42l-88 -182l-87 182h-43v-250h33l-2 205zM52 681c0 -25 20 -33 68 -37c71 -7 96 -28 96 -73c0 -43 -28 -78 -109 -78c-25 0 -66 6 -82 12v29c16 -5 46 -11 83 -11c55 0 75 17 75 47c0 28 -16 40 -66 44c-72 7 -97 25 -97 67
c0 45 28 76 104 76c25 0 57 -3 79 -12v-29c-19 6 -45 11 -80 11c-53 0 -71 -14 -71 -46z" />
    <glyph glyph-name="plusminus" unicode="&#xb1;" horiz-adv-x="520" 
d="M293 222h-66v167h-167v66h167v167h66v-167h167v-66h-167v-167zM460 90h-400v66h400v-66z" />
    <glyph glyph-name="uni00B2" unicode="&#xb2;" horiz-adv-x="860" 
d="M50 394v-38l511 -366v86l-374 253l-21 13h634v66h-634l21 13l374 253v86z" />
    <glyph glyph-name="uni00B3" unicode="&#xb3;" horiz-adv-x="860" 
d="M810 394v-38l-511 -366v86l374 253l21 13h-634v66h634l-21 13l-374 253v86z" />
    <glyph glyph-name="Zcaron" unicode="&#x17d;" 
d="M167 484l-142 266h85l190 -385l190 385h85l-142 -266h112v-66h-147l-46 -86h193v-66h-210v-266h-70v266h-210v66h193l-46 86h-147v66h112z" />
    <glyph glyph-name="uni00B5" unicode="&#xb5;" horiz-adv-x="535" 
d="M148 -250v263c20 -15 59 -23 102 -23c53 0 104 17 151 52l15 -42h39v500h-70v-419c-37 -21 -70 -32 -135 -32c-62 0 -100 20 -100 85v366h-70v-750h68z" />
    <glyph glyph-name="paragraph" unicode="&#xb6;" horiz-adv-x="560" 
d="M490 250c0 -153 -38 -260 -210 -260c-171 0 -210 107 -210 260s39 260 210 260c59 0 102 -18 133 -47c-16 153 -61 235 -173 235c-74 0 -128 -14 -155 -27v60c23 12 68 29 155 29c202 0 250 -174 250 -510zM420 250c0 113 -10 198 -140 198c-132 0 -140 -85 -140 -198
s8 -198 140 -198c130 0 140 85 140 198z" />
    <glyph glyph-name="periodcentered" unicode="&#xb7;" horiz-adv-x="910" 
d="M70 375c0 213 172 385 385 385s385 -172 385 -385s-172 -385 -385 -385s-385 172 -385 385z" />
    <glyph glyph-name="zcaron" unicode="&#x17e;" horiz-adv-x="680" 
d="M335 -10c142 0 265 46 265 260c0 215 -123 260 -265 260s-265 -45 -265 -260c0 -214 123 -260 265 -260zM335 52c-115 0 -198 28 -198 198s83 198 198 198s198 -28 198 -198s-83 -198 -198 -198zM341 210h-53v-99h-61v278h121c72 0 97 -38 97 -89c0 -36 -11 -65 -41 -80
l63 -109h-70zM381 300c0 17 -5 31 -35 31h-58v-62h58c30 0 35 14 35 31z" />
    <glyph glyph-name="uni00B9" unicode="&#xb9;" horiz-adv-x="680" 
d="M335 -10c142 0 265 46 265 260c0 215 -123 260 -265 260s-265 -45 -265 -260c0 -214 123 -260 265 -260zM335 52c-115 0 -198 28 -198 198s83 198 198 198s198 -28 198 -198s-83 -198 -198 -198zM366 200h-69v-89h-61v278h130c72 0 97 -43 97 -94c0 -50 -26 -95 -97 -95z
M400 295c0 18 -4 36 -33 36h-70v-73h70c29 0 33 19 33 37z" />
    <glyph glyph-name="ordmasculine" unicode="&#xba;" horiz-adv-x="910" 
d="M80 750v-750h750v750h-750zM151 66v618h608v-618h-608z" />
    <glyph glyph-name="guillemotright" unicode="&#xbb;" horiz-adv-x="400" 
d="M386 378h-73l-40 103h-146l-40 -103h-73l161 382h50zM200 677l-53 -144h106z" />
    <glyph glyph-name="OE" unicode="&#x152;" horiz-adv-x="469" 
d="M60 565c0 -128 50 -195 171 -195s178 67 178 195s-57 195 -178 195s-171 -67 -171 -195zM124 565c0 99 31 135 107 135c78 0 115 -38 115 -135s-37 -135 -115 -135c-76 0 -107 36 -107 135z" />
    <glyph glyph-name="oe" unicode="&#x153;" horiz-adv-x="396" 
d="M231 430c45 0 77 5 105 12v-61c-34 -8 -71 -11 -105 -11c-121 0 -171 67 -171 195s50 195 171 195c34 0 71 -3 105 -11v-61c-28 7 -60 12 -105 12c-76 0 -107 -36 -107 -135s31 -135 107 -135z" />
    <glyph glyph-name="Ydieresis" unicode="&#x178;" horiz-adv-x="765" 
d="M24 0h75l143 226h123v-226h335v61h-269v165h234v61h-234v152h269v61h-346zM365 287h-85l85 134v-134z" />
    <glyph glyph-name="questiondown" unicode="&#xbf;" horiz-adv-x="610" 
d="M515 500l-37 -55c41 -46 57 -114 57 -195c0 -153 -58 -260 -230 -260c-49 0 -88 9 -120 24l-9 -14h-81l37 55c-41 46 -57 114 -57 195c0 153 59 260 230 260c48 0 88 -9 119 -24l10 14h81zM142 250c0 -55 6 -103 28 -139l219 323c-22 11 -49 17 -84 17
c-135 0 -163 -88 -163 -201zM468 250c0 54 -7 103 -29 138l-219 -323c22 -10 50 -16 85 -16c133 0 163 88 163 201z" />
    <glyph glyph-name="Agrave" unicode="&#xc0;" horiz-adv-x="500" 
d="M285 -196c-148 0 -175 52 -175 135c0 104 62 126 128 151c119 45 117 120 101 200h-41c0 -74 -2 -111 -75 -141c-111 -45 -183 -85 -183 -211c0 -102 36 -198 246 -198c48 0 122 12 154 25v62c-31 -11 -84 -23 -155 -23zM352 455c0 -31 -24 -55 -55 -55s-55 24 -55 55
s24 55 55 55s55 -24 55 -55z" />
    <glyph glyph-name="Aacute" unicode="&#xc1;" horiz-adv-x="220" 
d="M90 290h40l35 -540h-110zM165 455c0 -31 -24 -55 -55 -55s-55 24 -55 55s24 55 55 55s55 -24 55 -55z" />
    <glyph glyph-name="Acircumflex" unicode="&#xc2;" horiz-adv-x="660" 
d="M80 0h500v500h-500v-500z" />
    <glyph glyph-name="Atilde" unicode="&#xc3;" horiz-adv-x="660" 
d="M80 500v-500h500v500h-500zM146 61v378h368v-378h-368z" />
    <glyph glyph-name="Adieresis" unicode="&#xc4;" 
d="M365 760c49 0 126 -8 170 -27v-60c-39 13 -99 25 -170 25c-76 0 -143 -32 -143 -133v-143h288v-55h-288v-367h-67v367h-100v31l100 29v138c0 135 85 195 210 195z" />
    <glyph glyph-name="Aring" unicode="&#xc5;" horiz-adv-x="660" 
d="M80 500v-500h500v500h-500zM146 61v378h368v-378h-368zM222 95l-47 47l108 108l-108 108l47 47l108 -108l108 108l47 -47l-108 -108l108 -108l-47 -47l-108 108z" />
    <glyph glyph-name="AE" unicode="&#xc6;" horiz-adv-x="660" 
d="M70 250c0 144 116 260 260 260s260 -116 260 -260s-116 -260 -260 -260s-260 116 -260 260z" />
    <glyph glyph-name="Ccedilla" unicode="&#xc7;" horiz-adv-x="495" 
d="M55 283v-66l190 -141v67l-121 107l121 107v66zM245 283v-66l190 -141v67l-121 107l121 107v66z" />
    <glyph glyph-name="Egrave" unicode="&#xc8;" horiz-adv-x="495" 
d="M440 283v-66l-190 -141v67l121 107l-121 107v66zM250 283v-66l-190 -141v67l121 107l-121 107v66z" />
    <glyph glyph-name="Eacute" unicode="&#xc9;" horiz-adv-x="990" 
d="M110 45c0 31 24 55 55 55s55 -24 55 -55s-24 -55 -55 -55s-55 24 -55 55zM770 45c0 31 24 55 55 55s55 -24 55 -55s-24 -55 -55 -55s-55 24 -55 55zM440 45c0 31 24 55 55 55s55 -24 55 -55s-24 -55 -55 -55s-55 24 -55 55z" />
    <glyph glyph-name="Edieresis" unicode="&#xcb;" horiz-adv-x="670" 
d="M547 0h78l-265 760h-50l-265 -760h78l69 210h286zM212 272l123 375l123 -375h-246zM350 825h-30l-145 175h95z" />
    <glyph glyph-name="Igrave" unicode="&#xcc;" horiz-adv-x="670" 
d="M547 0h78l-265 760h-50l-265 -760h78l69 210h286zM212 272l123 375l123 -375h-246zM485 939v-52c-25 18 -47 27 -75 27c-51 0 -69 -64 -144 -64c-34 0 -65 20 -81 36v52c25 -18 47 -27 75 -27c51 0 69 64 144 64c34 0 65 -20 81 -36z" />
    <glyph glyph-name="Iacute" unicode="&#xcd;" horiz-adv-x="710" 
d="M635 375c0 -196 -33 -385 -280 -385c-245 0 -280 189 -280 385s35 385 280 385c247 0 280 -189 280 -385zM561 375c0 174 -25 321 -206 321s-206 -147 -206 -321s25 -321 206 -321s206 147 206 321zM505 939v-52c-25 18 -47 27 -75 27c-51 0 -69 -64 -144 -64
c-34 0 -65 20 -81 36v52c25 -18 47 -27 75 -27c51 0 69 64 144 64c34 0 65 -20 81 -36z" />
    <glyph glyph-name="Icircumflex" unicode="&#xce;" horiz-adv-x="900" 
d="M800 356v66h-290v262h325v66h-454c-245 0 -316 -162 -316 -375s71 -375 316 -375h454v66h-325v290h290zM439 684v-618h-62c-180 0 -235 129 -235 309s55 309 235 309h62z" />
    <glyph glyph-name="Idieresis" unicode="&#xcf;" horiz-adv-x="775" 
d="M675 226v61h-234v152h269v61h-403c-172 0 -242 -97 -242 -250s70 -250 242 -250h403v61h-269v165h234zM375 61h-70c-133 0 -173 76 -173 189s40 189 173 189h70v-378z" />
    <glyph glyph-name="Eth" unicode="&#xd0;" horiz-adv-x="570" 
d="M510 422v-66h-450v66h450z" />
    <glyph glyph-name="Ntilde" unicode="&#xd1;" horiz-adv-x="770" 
d="M710 422v-66h-650v66h650z" />
    <glyph glyph-name="Ograve" unicode="&#xd2;" horiz-adv-x="310" 
d="M103 750h24s-49 -100 -29 -250h-90c4 155 95 250 95 250zM253 750h24s-49 -100 -29 -250h-90c4 155 95 250 95 250z" />
    <glyph glyph-name="Oacute" unicode="&#xd3;" horiz-adv-x="310" 
d="M57 500h-24s49 100 29 250h90c-4 -155 -95 -250 -95 -250zM207 500h-24s49 100 29 250h90c-4 -155 -95 -250 -95 -250z" />
    <glyph glyph-name="Ocircumflex" unicode="&#xd4;" horiz-adv-x="160" 
d="M103 750h24s-49 -100 -29 -250h-90c4 155 95 250 95 250z" />
    <glyph glyph-name="Otilde" unicode="&#xd5;" horiz-adv-x="160" 
d="M57 500h-24s49 100 29 250h90c-4 -155 -95 -250 -95 -250z" />
    <glyph glyph-name="Odieresis" unicode="&#xd6;" horiz-adv-x="520" 
d="M460 422h-400v-66h400v66zM205 544c0 -31 24 -55 55 -55s55 24 55 55s-24 55 -55 55s-55 -24 -55 -55zM205 234c0 31 24 55 55 55s55 -24 55 -55s-24 -55 -55 -55s-55 24 -55 55z" />
    <glyph glyph-name="multiply" unicode="&#xd7;" horiz-adv-x="910" 
d="M80 750v-750h750v750h-750zM151 66v618h608v-618h-608zM455 328l-228 -228l-47 47l228 228l-228 228l47 47l228 -228l228 228l47 -47l-228 -228l228 -228l-47 -47z" />
    <glyph glyph-name="Oslash" unicode="&#xd8;" horiz-adv-x="602" 
d="M464 500h83l-212 -320v-180h-67v180l-213 320h83l163 -270zM201 630c31 0 55 24 55 55s-24 55 -55 55s-55 -24 -55 -55s24 -55 55 -55zM456 685c0 -31 -24 -55 -55 -55s-55 24 -55 55s24 55 55 55s55 -24 55 -55z" />
    <glyph glyph-name="Ugrave" unicode="&#xd9;" horiz-adv-x="700" 
d="M655 750l-270 -440v-310h-70v310l-270 440h86l219 -377l219 377h86zM506 935c0 -31 -24 -55 -55 -55s-55 24 -55 55s24 55 55 55s55 -24 55 -55zM251 880c31 0 55 24 55 55s-24 55 -55 55s-55 -24 -55 -55s24 -55 55 -55z" />
    <glyph glyph-name="Uacute" unicode="&#xda;" horiz-adv-x="507" 
d="M27 0h-77l530 750h77z" />
    <glyph glyph-name="Ucircumflex" unicode="&#xdb;" 
d="M120 418h-60v66h64c14 171 72 276 251 276c49 0 115 -9 159 -28v-60c-39 13 -88 26 -159 26c-126 0 -169 -83 -181 -214h279l-23 -66h-260v-86h230l-23 -66h-203c12 -131 55 -214 181 -214c71 0 120 13 159 26v-60c-44 -19 -110 -28 -159 -28c-179 0 -237 104 -251 276
h-64v66h60v86z" />
    <glyph glyph-name="Udieresis" unicode="&#xdc;" horiz-adv-x="305" 
d="M55 283v-66l190 -141v67l-121 107l121 107v66z" />
    <glyph glyph-name="Yacute" unicode="&#xdd;" horiz-adv-x="305" 
d="M250 283v-66l-190 -141v67l121 107l-121 107v66z" />
    <glyph glyph-name="Thorn" unicode="&#xde;" horiz-adv-x="800" 
d="M410 287v-61h-254v-226h-66v500h355v-61h-289v-152h254zM688 0h-66v500h66v-500z" />
    <glyph glyph-name="germandbls" unicode="&#xdf;" horiz-adv-x="1020" 
d="M410 287v-61h-254v-226h-66v500h355v-61h-289v-152h254zM666 61v439h-66v-500h365v61h-299z" />
    <glyph glyph-name="agrave" unicode="&#xe0;" horiz-adv-x="385" 
d="M174 352h38l31 -250h-100zM222 561v38l141 20v-78zM164 561v38l-141 20v-78zM164 362v38l-141 20v-78zM222 362v38l141 20v-78zM212 609h-38l-20 141h78zM212 551h-38l-10 -71l10 -70h38l10 70z" />
    <glyph glyph-name="aacute" unicode="&#xe1;" horiz-adv-x="220" 
d="M55 375c0 31 24 55 55 55s55 -24 55 -55s-24 -55 -55 -55s-55 24 -55 55z" />
    <glyph glyph-name="acircumflex" unicode="&#xe2;" horiz-adv-x="160" 
d="M57 -160h-24s49 100 29 250h90c-4 -155 -95 -250 -95 -250z" />
    <glyph glyph-name="atilde" unicode="&#xe3;" horiz-adv-x="310" 
d="M57 -160h-24s49 100 29 250h90c-4 -155 -95 -250 -95 -250zM207 -160h-24s49 100 29 250h90c-4 -155 -95 -250 -95 -250z" />
    <glyph glyph-name="adieresis" unicode="&#xe4;" horiz-adv-x="1345" 
d="M236 370c-121 0 -171 67 -171 195s50 195 171 195s171 -67 171 -195s-50 -195 -171 -195zM689 380c121 0 171 -67 171 -195s-50 -195 -171 -195s-171 67 -171 195s50 195 171 195zM1109 380c121 0 171 -67 171 -195s-50 -195 -171 -195s-171 67 -171 195s50 195 171 195z
M236 0h-77l530 750h77zM689 320c-76 0 -107 -36 -107 -135s31 -135 107 -135s107 36 107 135s-31 135 -107 135zM1109 320c-76 0 -107 -36 -107 -135s31 -135 107 -135s107 36 107 135s-31 135 -107 135zM236 430c76 0 107 36 107 135s-31 135 -107 135s-107 -36 -107 -135
s31 -135 107 -135z" />
    <glyph glyph-name="aring" unicode="&#xe5;" horiz-adv-x="670" 
d="M547 0h78l-265 760h-50l-265 -760h78l69 210h286zM212 272l123 375l123 -375h-246zM500 825h-30l-135 116l-135 -116h-30l125 175h80z" />
    <glyph glyph-name="ae" unicode="&#xe6;" 
d="M490 422v-66h-329v-290h364v-66h-435v750h435v-66h-364v-262h329zM473 825h-30l-135 116l-135 -116h-30l125 175h80z" />
    <glyph glyph-name="ccedilla" unicode="&#xe7;" horiz-adv-x="670" 
d="M547 0h78l-265 760h-50l-265 -760h78l69 210h286zM212 272l123 375l123 -375h-246zM320 825h30l145 175h-95z" />
    <glyph glyph-name="egrave" unicode="&#xe8;" 
d="M490 422v-66h-329v-290h364v-66h-435v750h435v-66h-364v-262h329zM463 935c0 -31 -24 -55 -55 -55s-55 24 -55 55s24 55 55 55s55 -24 55 -55zM208 880c31 0 55 24 55 55s-24 55 -55 55s-55 -24 -55 -55s24 -55 55 -55z" />
    <glyph glyph-name="eacute" unicode="&#xe9;" 
d="M490 422v-66h-329v-290h364v-66h-435v750h435v-66h-364v-262h329zM323 825h-30l-145 175h95z" />
    <glyph glyph-name="ecircumflex" unicode="&#xea;" horiz-adv-x="295" 
d="M183 0h-71v750h71v-750zM133 825h30l145 175h-95z" />
    <glyph glyph-name="edieresis" unicode="&#xeb;" horiz-adv-x="295" 
d="M183 0h-71v750h71v-750zM313 825h-30l-135 116l-135 -116h-30l125 175h80z" />
    <glyph glyph-name="igrave" unicode="&#xec;" horiz-adv-x="295" 
d="M183 0h-71v750h71v-750zM303 935c0 -31 -24 -55 -55 -55s-55 24 -55 55s24 55 55 55s55 -24 55 -55zM48 880c31 0 55 24 55 55s-24 55 -55 55s-55 -24 -55 -55s24 -55 55 -55z" />
    <glyph glyph-name="iacute" unicode="&#xed;" horiz-adv-x="295" 
d="M183 0h-71v750h71v-750zM163 825h-30l-145 175h95z" />
    <glyph glyph-name="icircumflex" unicode="&#xee;" horiz-adv-x="710" 
d="M635 375c0 -196 -33 -385 -280 -385c-245 0 -280 189 -280 385s35 385 280 385c247 0 280 -189 280 -385zM561 375c0 174 -25 321 -206 321s-206 -147 -206 -321s25 -321 206 -321s206 147 206 321zM340 825h30l145 175h-95z" />
    <glyph glyph-name="idieresis" unicode="&#xef;" horiz-adv-x="710" 
d="M635 375c0 -196 -33 -385 -280 -385c-245 0 -280 189 -280 385s35 385 280 385c247 0 280 -189 280 -385zM561 375c0 174 -25 321 -206 321s-206 -147 -206 -321s25 -321 206 -321s206 147 206 321zM520 825h-30l-135 116l-135 -116h-30l125 175h80z" />
    <glyph glyph-name="eth" unicode="&#xf0;" horiz-adv-x="910" 
d="M80 750v-72l303 -144c1 3 3 6 6 10l-297 206h-12zM818 750l-286 -198l7 -12l291 138v72h-12zM80 655v-66l294 -69c2 3 4 6 6 10zM830 655l-287 -120l1 -1c2 -4 4 -8 7 -11l279 66v66zM218 750h-88l262 -201c2 3 4 7 6 10zM80 569v-59l280 -7c4 3 7 7 10 12zM80 490v-60
l246 46c10 6 19 13 28 21zM692 750l-171 -182l7 -11l252 193h-88zM830 569l-276 -52c4 -5 8 -9 12 -14l264 7v59zM830 490l-258 6c9 -8 17 -15 26 -22l232 -44v60zM830 410l-216 51c16 -13 30 -26 40 -43l176 -73v65zM302 750h-60l159 -187c3 4 5 7 8 11zM608 750l-99 -163
l8 -13l151 176h-60zM80 410v-65l48 20c17 19 39 39 68 57s64 26 98 39zM367 750h-47l93 -171c3 3 6 7 10 11zM830 321l-169 80c0 -2 1 -5 2 -7c9 -44 100 -79 167 -94v21zM543 750l-49 -141l11 -16l85 157h-47zM422 750h-41l46 -156c4 4 9 8 13 11zM488 750l-17 -128
c4 2 8 3 12 4l6 -9l40 133h-41zM435 750l11 -140c6 3 11 7 17 9l11 131h-39zM80 321v-25c1 6 8 20 21 35z" />
    <glyph glyph-name="ntilde" unicode="&#xf1;" horiz-adv-x="710" 
d="M635 375c0 -196 -33 -385 -280 -385c-245 0 -280 189 -280 385s35 385 280 385c247 0 280 -189 280 -385zM561 375c0 174 -25 321 -206 321s-206 -147 -206 -321s25 -321 206 -321s206 147 206 321zM370 825h-30l-145 175h95z" />
    <glyph glyph-name="ograve" unicode="&#xf2;" horiz-adv-x="700" 
d="M350 55c67 0 194 13 194 193v502h71v-515c0 -213 -175 -245 -265 -245s-265 32 -265 245v515h71v-502c0 -180 127 -193 194 -193zM335 825h30l145 175h-95z" />
    <glyph glyph-name="oacute" unicode="&#xf3;" horiz-adv-x="700" 
d="M350 55c67 0 194 13 194 193v502h71v-515c0 -213 -175 -245 -265 -245s-265 32 -265 245v515h71v-502c0 -180 127 -193 194 -193zM515 825h-30l-135 116l-135 -116h-30l125 175h80z" />
    <glyph glyph-name="ocircumflex" unicode="&#xf4;" horiz-adv-x="700" 
d="M350 55c67 0 194 13 194 193v502h71v-515c0 -213 -175 -245 -265 -245s-265 32 -265 245v515h71v-502c0 -180 127 -193 194 -193zM365 825h-30l-145 175h95z" />
    <glyph glyph-name="otilde" unicode="&#xf5;" horiz-adv-x="290" 
d="M178 0h-66v500h66v-500z" />
    <glyph glyph-name="odieresis" unicode="&#xf6;" horiz-adv-x="540" 
d="M445 575h-30l-135 116l-135 -116h-30l125 175h80z" />
    <glyph glyph-name="divide" unicode="&#xf7;" horiz-adv-x="602" 
d="M430 689v-52c-25 18 -47 27 -75 27c-51 0 -69 -64 -144 -64c-34 0 -65 20 -81 36v52c25 -18 47 -27 75 -27c51 0 69 64 144 64c34 0 65 -20 81 -36z" />
    <glyph glyph-name="oslash" unicode="&#xf8;" horiz-adv-x="602" 
d="M437 680h-274v65h274v-65z" />
    <glyph glyph-name="ugrave" unicode="&#xf9;" horiz-adv-x="602" 
d="M280 585c-95 0 -152 41 -155 165h41c2 -71 37 -105 114 -105s112 34 114 105h41c-3 -124 -60 -165 -155 -165z" />
    <glyph glyph-name="uacute" unicode="&#xfa;" horiz-adv-x="540" 
d="M280 630c31 0 55 24 55 55s-24 55 -55 55s-55 -24 -55 -55s24 -55 55 -55z" />
    <glyph glyph-name="ucircumflex" unicode="&#xfb;" horiz-adv-x="602" 
d="M378 662c0 -68 -39 -97 -98 -97c-60 0 -99 29 -99 97c0 69 39 98 99 98c59 0 98 -29 98 -98zM328 662c0 37 -18 49 -48 49c-31 0 -49 -12 -49 -49c0 -36 18 -48 49 -48c30 0 48 12 48 48z" />
    <glyph glyph-name="udieresis" unicode="&#xfc;" horiz-adv-x="602" 
d="M307 -185h-76c27 23 51 64 24 79c-54 29 -18 83 1 106h45c-18 -23 -35 -50 1 -71c66 -36 29 -91 5 -114z" />
    <glyph glyph-name="yacute" unicode="&#xfd;" horiz-adv-x="540" 
d="M330 575h30l145 175h-95zM180 575h30l145 175h-95z" />
    <glyph glyph-name="thorn" unicode="&#xfe;" horiz-adv-x="602" 
d="M386 -185h-76c-13 11 -32 33 -32 72c0 62 67 118 123 136v-23c-31 -10 -57 -70 -53 -114c3 -35 24 -60 38 -71z" />
    <glyph glyph-name="ydieresis" unicode="&#xff;" horiz-adv-x="540" 
d="M445 750h-30l-135 -116l-135 116h-30l125 -175h80z" />
    <glyph glyph-name="uni0001" horiz-adv-x="665" 
d="M284 0h-204v312l-100 -62v81l100 62v357h204c245 0 316 -162 316 -375s-71 -375 -316 -375zM251 500v-81l-100 -63v-290h137c180 0 235 129 235 309s-55 309 -235 309h-137v-247z" />
  </font>
</defs>
</svg>
