<?xml version="1.0" encoding="UTF-8"?>
<svg width="107px" height="27px" viewBox="0 0 107 27" version="1.1" xmlns="http://www.w3.org/2000/svg" xmlns:xlink="http://www.w3.org/1999/xlink">
    <!-- Generator: Sketch 56.2 (81672) - https://sketch.com -->
    <title>ai-jobs.io</title>
    <desc>Created with Sketch.</desc>
    <g id="Current-design" stroke="none" stroke-width="1" fill="none" fill-rule="evenodd">
        <g id="Home" transform="translate(-136.000000, -41.000000)" fill="#FFFFFF" fill-rule="nonzero">
            <path d="M141.214,52.342 L143.528,52.186 C143.528,51.276 143.034,50.834 141.786,50.834 C140.46,50.834 138.64,51.172 137.21,51.666 L137.21,48.364 C138.718,47.714 140.59,47.584 141.786,47.584 C145.894,47.584 146.96,49.482 146.96,52.342 L146.96,61 L144.542,61 L144.334,60.61 C143.398,61.078 142.15,61.416 141.214,61.416 C137.496,61.416 136.3,59.18 136.3,56.762 C136.3,54.5 137.574,52.576 141.214,52.342 Z M143.528,55.176 L141.292,55.358 C140.096,55.462 139.758,56.112 139.758,56.762 C139.758,57.36 139.94,58.166 141.266,58.166 C141.994,58.166 143.008,57.802 143.528,57.542 L143.528,55.176 Z M154.734,61.416 L153.798,61.416 C151.562,61.416 150.392,60.532 150.392,58.01 L150.392,48 L153.798,48 L153.798,57.438 C153.798,57.932 154.032,58.166 154.734,58.166 L154.734,61.416 Z M150.028,43.892 C150.028,42.722 150.964,41.76 152.134,41.76 C153.304,41.76 154.266,42.722 154.266,43.892 C154.266,45.062 153.304,45.998 152.134,45.998 C150.964,45.998 150.028,45.062 150.028,43.892 Z M164.874,50.47 L164.874,53.798 L157.386,53.798 L157.386,50.47 L164.874,50.47 Z M164.952,67.916 L164.952,64.744 C166.304,64.744 167.812,64.12 167.812,63.028 L167.812,48 L171.244,48 L171.244,63.106 C171.244,66.174 168.488,67.916 164.952,67.916 Z M167.448,43.892 C167.448,42.722 168.384,41.76 169.554,41.76 C170.724,41.76 171.686,42.722 171.686,43.892 C171.686,45.062 170.724,45.998 169.554,45.998 C168.384,45.998 167.448,45.062 167.448,43.892 Z M186.324,54.5 C186.324,58.556 185.284,61.416 180.474,61.416 C175.716,61.416 174.624,58.556 174.624,54.5 C174.624,50.444 175.716,47.584 180.474,47.584 C185.284,47.584 186.324,50.444 186.324,54.5 Z M182.892,54.5 C182.892,52.472 182.632,50.834 180.474,50.834 C178.29,50.834 178.056,52.472 178.056,54.5 C178.056,56.528 178.29,58.166 180.474,58.166 C182.632,58.166 182.892,56.528 182.892,54.5 Z M189.444,61 L189.444,41.5 L192.85,41.5 L192.85,48.078 C193.526,47.792 194.592,47.584 195.32,47.584 C199.922,47.584 201.222,50.028 201.222,54.5 C201.222,58.946 199.922,61.416 195.32,61.416 C194.306,61.416 192.98,61.078 192.044,60.532 L191.862,61 L189.444,61 Z M192.85,51.328 L192.85,57.672 C193.422,57.906 194.332,58.166 195.268,58.166 C197.322,58.166 197.738,56.606 197.738,54.5 C197.738,52.394 197.322,50.834 195.268,50.834 C194.332,50.834 193.422,51.094 192.85,51.328 Z M207.436,51.952 C207.436,52.342 207.722,52.602 209.204,52.732 C213.078,53.096 213.962,54.474 213.962,56.892 C213.962,59.076 212.636,61.416 208.502,61.416 C207.28,61.416 205.304,61.026 204.212,60.61 L204.212,57.23 C205.434,57.672 207.098,58.166 208.528,58.166 C210.114,58.166 210.582,57.516 210.582,56.944 C210.582,56.424 210.27,56.034 208.84,55.904 C205.018,55.54 204.082,54.006 204.082,51.978 C204.082,49.95 205.356,47.584 209.204,47.584 C210.4,47.584 211.856,47.766 213.39,48.442 L213.39,51.718 C211.934,51.224 210.582,50.834 209.204,50.834 C207.748,50.834 207.436,51.354 207.436,51.952 Z M216.146,59.31 C216.146,58.14 217.082,57.178 218.252,57.178 C219.422,57.178 220.384,58.14 220.384,59.31 C220.384,60.48 219.422,61.416 218.252,61.416 C217.082,61.416 216.146,60.48 216.146,59.31 Z M227.326,61.416 L226.39,61.416 C224.154,61.416 222.984,60.532 222.984,58.01 L222.984,48 L226.39,48 L226.39,57.438 C226.39,57.932 226.624,58.166 227.326,58.166 L227.326,61.416 Z M222.62,43.892 C222.62,42.722 223.556,41.76 224.726,41.76 C225.896,41.76 226.858,42.722 226.858,43.892 C226.858,45.062 225.896,45.998 224.726,45.998 C223.556,45.998 222.62,45.062 222.62,43.892 Z M242.042,54.5 C242.042,58.556 241.002,61.416 236.192,61.416 C231.434,61.416 230.342,58.556 230.342,54.5 C230.342,50.444 231.434,47.584 236.192,47.584 C241.002,47.584 242.042,50.444 242.042,54.5 Z M238.61,54.5 C238.61,52.472 238.35,50.834 236.192,50.834 C234.008,50.834 233.774,52.472 233.774,54.5 C233.774,56.528 234.008,58.166 236.192,58.166 C238.35,58.166 238.61,56.528 238.61,54.5 Z" id="ai-jobs.io"></path>
        </g>
    </g>
</svg>