<?xml version="1.0" encoding="UTF-8"?>
<svg width="61px" height="16px" viewBox="0 0 61 16" version="1.1" xmlns="http://www.w3.org/2000/svg" xmlns:xlink="http://www.w3.org/1999/xlink">
    <!-- Generator: Sketch 56.2 (81672) - https://sketch.com -->
    <title>ai-jobs.io</title>
    <desc>Created with Sketch.</desc>
    <g id="Current-design" stroke="none" stroke-width="1" fill="none" fill-rule="evenodd">
        <g id="Home" transform="translate(-273.000000, -1828.000000)" fill="#000000" fill-rule="nonzero">
            <g id="Group-2" transform="translate(225.000000, 1828.000000)">
                <path d="M51.088296,6.65195476 L52.4013032,6.56343742 C52.4013032,6.0470863 52.1209983,5.79628719 51.4128596,5.79628719 C50.6604623,5.79628719 49.62776,5.98807475 48.8163511,6.26837964 L48.8163511,4.39476272 C49.6720187,4.0259405 50.7342267,3.95217605 51.4128596,3.95217605 C53.7438161,3.95217605 54.3486845,5.02913696 54.3486845,6.65195476 L54.3486845,11.5646668 L52.9766658,11.5646668 L52.8586427,11.3433735 C52.3275387,11.6089255 51.6194,11.8007131 51.088296,11.8007131 C48.9786329,11.8007131 48.3,10.5319646 48.3,9.15994591 C48.3,7.87644455 49.0228916,6.78473076 51.088296,6.65195476 Z M52.4013032,8.26001967 L51.1325547,8.36328989 C50.4539218,8.42230145 50.2621343,8.79112368 50.2621343,9.15994591 C50.2621343,9.49926236 50.3654045,9.95660192 51.1178018,9.95660192 C51.5308827,9.95660192 52.1062454,9.75006147 52.4013032,9.60253258 L52.4013032,8.26001967 Z M58.7597984,11.8007131 L58.2286944,11.8007131 C56.9599459,11.8007131 56.2960659,11.2991148 56.2960659,9.86808458 L56.2960659,4.18822228 L58.2286944,4.18822228 L58.2286944,9.54352102 C58.2286944,9.82382592 58.3614704,9.95660192 58.7597984,9.95660192 L58.7597984,11.8007131 Z M56.0895254,1.8572658 C56.0895254,1.19338579 56.6206295,0.647528891 57.2845095,0.647528891 C57.9483895,0.647528891 58.4942464,1.19338579 58.4942464,1.8572658 C58.4942464,2.52114581 57.9483895,3.05224982 57.2845095,3.05224982 C56.6206295,3.05224982 56.0895254,2.52114581 56.0895254,1.8572658 Z M64.5134251,5.58974674 L64.5134251,7.47811655 L60.2645931,7.47811655 L60.2645931,5.58974674 L64.5134251,5.58974674 Z M64.5576838,15.4889353 L64.5576838,13.6890829 C65.324834,13.6890829 66.1805016,13.3350135 66.1805016,12.7153922 L66.1805016,4.18822228 L68.127883,4.18822228 L68.127883,12.7596508 C68.127883,14.5004918 66.5640767,15.4889353 64.5576838,15.4889353 Z M65.9739612,1.8572658 C65.9739612,1.19338579 66.5050652,0.647528891 67.1689452,0.647528891 C67.8328252,0.647528891 68.3786821,1.19338579 68.3786821,1.8572658 C68.3786821,2.52114581 67.8328252,3.05224982 67.1689452,3.05224982 C66.5050652,3.05224982 65.9739612,2.52114581 65.9739612,1.8572658 Z M76.6845586,7.87644455 C76.6845586,10.1778953 76.0944431,11.8007131 73.3651586,11.8007131 C70.6653799,11.8007131 70.0457585,10.1778953 70.0457585,7.87644455 C70.0457585,5.57499385 70.6653799,3.95217605 73.3651586,3.95217605 C76.0944431,3.95217605 76.6845586,5.57499385 76.6845586,7.87644455 Z M74.7371773,7.87644455 C74.7371773,6.7257192 74.5896484,5.79628719 73.3651586,5.79628719 C72.1259159,5.79628719 71.9931399,6.7257192 71.9931399,7.87644455 C71.9931399,9.0271699 72.1259159,9.95660192 73.3651586,9.95660192 C74.5896484,9.95660192 74.7371773,9.0271699 74.7371773,7.87644455 Z M78.4549053,11.5646668 L78.4549053,0.5 L80.3875338,0.5 L80.3875338,4.23248094 C80.7711089,4.07019916 81.3759774,3.95217605 81.7890583,3.95217605 C84.4003196,3.95217605 85.1379641,5.33894763 85.1379641,7.87644455 C85.1379641,10.3991886 84.4003196,11.8007131 81.7890583,11.8007131 C81.2136956,11.8007131 80.4612983,11.6089255 79.9301942,11.2991148 L79.826924,11.5646668 L78.4549053,11.5646668 Z M80.3875338,6.07659208 L80.3875338,9.67629702 C80.7120974,9.80907303 81.2284485,9.95660192 81.7595525,9.95660192 C82.9250307,9.95660192 83.161077,9.07142857 83.161077,7.87644455 C83.161077,6.68146054 82.9250307,5.79628719 81.7595525,5.79628719 C81.2284485,5.79628719 80.7120974,5.94381608 80.3875338,6.07659208 Z M88.6639046,6.43066142 C88.6639046,6.65195476 88.8261864,6.79948365 89.6671011,6.87324809 C91.8652815,7.07978854 92.3668798,7.86169166 92.3668798,9.23371035 C92.3668798,10.472953 91.6144824,11.8007131 89.2687731,11.8007131 C88.5753873,11.8007131 87.4541677,11.5794197 86.8345463,11.3433735 L86.8345463,9.42549791 C87.5279321,9.67629702 88.472117,9.95660192 89.2835259,9.95660192 C90.1834522,9.95660192 90.4490042,9.58777969 90.4490042,9.26321613 C90.4490042,8.96815835 90.2719695,8.74686501 89.4605606,8.67310057 C87.2918859,8.46656012 86.7607819,7.59613966 86.7607819,6.44541431 C86.7607819,5.29468896 87.4836735,3.95217605 89.6671011,3.95217605 C90.345734,3.95217605 91.1718957,4.05544627 92.0423162,4.43902139 L92.0423162,6.29788542 C91.2161544,6.01758053 90.4490042,5.79628719 89.6671011,5.79628719 C88.8409393,5.79628719 88.6639046,6.09134497 88.6639046,6.43066142 Z M93.6061224,10.605729 C93.6061224,9.94184903 94.1372265,9.39599213 94.8011065,9.39599213 C95.4649865,9.39599213 96.0108434,9.94184903 96.0108434,10.605729 C96.0108434,11.269609 95.4649865,11.8007131 94.8011065,11.8007131 C94.1372265,11.8007131 93.6061224,11.269609 93.6061224,10.605729 Z M99.9498648,11.8007131 L99.4187608,11.8007131 C98.1500123,11.8007131 97.4861323,11.2991148 97.4861323,9.86808458 L97.4861323,4.18822228 L99.4187608,4.18822228 L99.4187608,9.54352102 C99.4187608,9.82382592 99.5515368,9.95660192 99.9498648,9.95660192 L99.9498648,11.8007131 Z M97.2795918,1.8572658 C97.2795918,1.19338579 97.8106958,0.647528891 98.4745759,0.647528891 C99.1384559,0.647528891 99.6843128,1.19338579 99.6843128,1.8572658 C99.6843128,2.52114581 99.1384559,3.05224982 98.4745759,3.05224982 C97.8106958,3.05224982 97.2795918,2.52114581 97.2795918,1.8572658 Z M108.3,7.87644455 C108.3,10.1778953 107.709884,11.8007131 104.9806,11.8007131 C102.280821,11.8007131 101.6612,10.1778953 101.6612,7.87644455 C101.6612,5.57499385 102.280821,3.95217605 104.9806,3.95217605 C107.709884,3.95217605 108.3,5.57499385 108.3,7.87644455 Z M106.352619,7.87644455 C106.352619,6.7257192 106.20509,5.79628719 104.9806,5.79628719 C103.741357,5.79628719 103.608581,6.7257192 103.608581,7.87644455 C103.608581,9.0271699 103.741357,9.95660192 104.9806,9.95660192 C106.20509,9.95660192 106.352619,9.0271699 106.352619,7.87644455 Z" id="ai-jobs.io"></path>
            </g>
        </g>
    </g>
</svg>