<?xml version="1.0" encoding="UTF-8"?>
<svg width="38px" height="38px" viewBox="0 0 38 38" version="1.1" xmlns="http://www.w3.org/2000/svg" xmlns:xlink="http://www.w3.org/1999/xlink">
    <!-- Generator: Sketch 56.2 (81672) - https://sketch.com -->
    <title>Group</title>
    <desc>Created with Sketch.</desc>
    <defs>
        <linearGradient x1="50%" y1="0%" x2="50%" y2="100%" id="linearGradient-1">
            <stop stop-color="#2DE6AE" offset="0%"></stop>
            <stop stop-color="#08B4DD" offset="100%"></stop>
        </linearGradient>
    </defs>
    <g id="Current-design" stroke="none" stroke-width="1" fill="none" fill-rule="evenodd">
        <g id="Home" transform="translate(-225.000000, -1829.000000)">
            <g id="Group-2" transform="translate(225.000000, 1828.000000)">
                <g id="Group" transform="translate(0.000000, 1.000000)">
                    <rect id="Rectangle" fill="url(#linearGradient-1)" x="0" y="0" width="38" height="38" rx="8"></rect>
                    <path d="M11.107,12.671 L12.264,12.593 C12.264,12.138 12.017,11.917 11.393,11.917 C10.73,11.917 9.82,12.086 9.105,12.333 L9.105,10.682 C9.859,10.357 10.795,10.292 11.393,10.292 C13.447,10.292 13.98,11.241 13.98,12.671 L13.98,17 L12.771,17 L12.667,16.805 C12.199,17.039 11.575,17.208 11.107,17.208 C9.248,17.208 8.65,16.09 8.65,14.881 C8.65,13.75 9.287,12.788 11.107,12.671 Z M12.264,14.088 L11.146,14.179 C10.548,14.231 10.379,14.556 10.379,14.881 C10.379,15.18 10.47,15.583 11.133,15.583 C11.497,15.583 12.004,15.401 12.264,15.271 L12.264,14.088 Z M17.867,17.208 L17.399,17.208 C16.281,17.208 15.696,16.766 15.696,15.505 L15.696,10.5 L17.399,10.5 L17.399,15.219 C17.399,15.466 17.516,15.583 17.867,15.583 L17.867,17.208 Z M15.514,8.446 C15.514,7.861 15.982,7.38 16.567,7.38 C17.152,7.38 17.633,7.861 17.633,8.446 C17.633,9.031 17.152,9.499 16.567,9.499 C15.982,9.499 15.514,9.031 15.514,8.446 Z M7.506,32.458 L7.506,30.872 C8.182,30.872 8.936,30.56 8.936,30.014 L8.936,22.5 L10.652,22.5 L10.652,30.053 C10.652,31.587 9.274,32.458 7.506,32.458 Z M8.754,20.446 C8.754,19.861 9.222,19.38 9.807,19.38 C10.392,19.38 10.873,19.861 10.873,20.446 C10.873,21.031 10.392,21.499 9.807,21.499 C9.222,21.499 8.754,21.031 8.754,20.446 Z M18.192,25.75 C18.192,27.778 17.672,29.208 15.267,29.208 C12.888,29.208 12.342,27.778 12.342,25.75 C12.342,23.722 12.888,22.292 15.267,22.292 C17.672,22.292 18.192,23.722 18.192,25.75 Z M16.476,25.75 C16.476,24.736 16.346,23.917 15.267,23.917 C14.175,23.917 14.058,24.736 14.058,25.75 C14.058,26.764 14.175,27.583 15.267,27.583 C16.346,27.583 16.476,26.764 16.476,25.75 Z M19.752,29 L19.752,19.25 L21.455,19.25 L21.455,22.539 C21.793,22.396 22.326,22.292 22.69,22.292 C24.991,22.292 25.641,23.514 25.641,25.75 C25.641,27.973 24.991,29.208 22.69,29.208 C22.183,29.208 21.52,29.039 21.052,28.766 L20.961,29 L19.752,29 Z M21.455,24.164 L21.455,27.336 C21.741,27.453 22.196,27.583 22.664,27.583 C23.691,27.583 23.899,26.803 23.899,25.75 C23.899,24.697 23.691,23.917 22.664,23.917 C22.196,23.917 21.741,24.047 21.455,24.164 Z M28.748,24.476 C28.748,24.671 28.891,24.801 29.632,24.866 C31.569,25.048 32.011,25.737 32.011,26.946 C32.011,28.038 31.348,29.208 29.281,29.208 C28.67,29.208 27.682,29.013 27.136,28.805 L27.136,27.115 C27.747,27.336 28.579,27.583 29.294,27.583 C30.087,27.583 30.321,27.258 30.321,26.972 C30.321,26.712 30.165,26.517 29.45,26.452 C27.539,26.27 27.071,25.503 27.071,24.489 C27.071,23.475 27.708,22.292 29.632,22.292 C30.23,22.292 30.958,22.383 31.725,22.721 L31.725,24.359 C30.997,24.112 30.321,23.917 29.632,23.917 C28.904,23.917 28.748,24.177 28.748,24.476 Z" id="aijobs" fill="#FFFFFF" fill-rule="nonzero"></path>
                </g>
            </g>
        </g>
    </g>
</svg>