<?xml version="1.0" encoding="UTF-8"?>
<svg width="20px" height="17px" viewBox="0 0 20 17" version="1.1" xmlns="http://www.w3.org/2000/svg" xmlns:xlink="http://www.w3.org/1999/xlink">
    <!-- Generator: Sketch 55.2 (78181) - https://sketchapp.com -->
    <title>024-wallet</title>
    <desc>Created with Sketch.</desc>
    <g id="Current-design" stroke="none" stroke-width="1" fill="none" fill-rule="evenodd">
        <g id="Inside-page" transform="translate(-768.000000, -309.000000)" fill="#9B9B9B" fill-rule="nonzero">
            <g id="Location-Copy-6" transform="translate(768.000000, 305.000000)">
                <g id="024-wallet" transform="translate(0.000000, 4.000000)">
                    <path d="M19.0047099,5.62757679 L19.0047099,3.03576792 C19.0047099,1.37283276 17.698157,0.0662798635 16.0352218,0.0662798635 L2.96948805,0.0662798635 C1.3065529,0.0662798635 -2.84217094e-14,1.37290102 -2.84217094e-14,3.03583618 L-2.84217094e-14,13.3696928 C-2.84217094e-14,15.032628 1.3065529,16.3391809 2.96948805,16.3391809 L16.0352218,16.3391809 C17.698157,16.3391809 19.0047099,15.032628 19.0047099,13.3696928 L19.0047099,10.8967235 C19.5641638,10.5273038 19.9549488,9.89542662 19.9549488,9.21242321 L19.9549488,7.31194539 C19.9549488,6.62771331 19.5641638,5.99699659 19.0047099,5.62757679 Z M18.7671672,9.21235495 C18.7671672,9.68744027 18.4108532,10.0438225 17.9356997,10.0438225 L11.8779522,10.0438225 C11.4028669,10.0438225 11.0464846,9.68750853 11.0464846,9.21235495 L11.0464846,7.31187713 C11.0464846,6.83679181 11.4027986,6.48040956 11.8779522,6.48040956 L17.9356997,6.48040956 C18.410785,6.48040956 18.7671672,6.83672355 18.7671672,7.31187713 L18.7671672,9.21235495 Z M16.0352218,15.1513311 L2.96948805,15.1513311 C2.01924915,15.1513311 1.18778157,14.3198635 1.18778157,13.3696246 L1.18778157,3.03583618 C1.18778157,2.08559727 2.01924915,1.25412969 2.96948805,1.25412969 L16.0352218,1.25412969 C16.9854608,1.25412969 17.8169283,2.08559727 17.8169283,3.03583618 L17.8169283,5.29262799 L11.8779522,5.29262799 C10.808942,5.29262799 9.85870307,6.24286689 9.85870307,7.31187713 L9.85870307,9.21235495 C9.85870307,10.2813652 10.808942,11.2316041 11.8779522,11.2316041 L17.8169283,11.2316041 L17.8169283,13.3696246 C17.8169283,14.3198635 16.9854608,15.1513311 16.0352218,15.1513311 Z" id="Shape"></path>
                    <path d="M11.9967235,7.78696246 C11.8779522,7.90573379 11.8779522,8.14327645 11.8779522,8.26204778 C11.8779522,8.38081911 11.8779522,8.49959044 11.9967235,8.61836177 C12.1154949,8.73713311 12.3530375,8.85590444 12.4718089,8.85590444 C12.5905802,8.85590444 12.7093515,8.73713311 12.8281229,8.61836177 C12.9468942,8.61836177 13.0656655,8.38081911 13.0656655,8.26204778 C13.0656655,8.02450512 12.9468942,7.90573379 12.8281229,7.78696246 C12.5906485,7.5494198 12.2342662,7.5494198 11.9967235,7.78696246 Z" id="Path"></path>
                </g>
            </g>
        </g>
    </g>
</svg>