<?xml version="1.0" encoding="UTF-8"?>
<svg width="64px" height="64px" viewBox="0 0 64 64" version="1.1" xmlns="http://www.w3.org/2000/svg" xmlns:xlink="http://www.w3.org/1999/xlink">
    <!-- Generator: Sketch 55.2 (78181) - https://sketchapp.com -->
    <title>UJ</title>
    <desc>Created with Sketch.</desc>
    <defs>
        <linearGradient x1="50%" y1="0%" x2="50%" y2="100%" id="linearGradient-1">
            <stop stop-color="#444354" offset="0%"></stop>
            <stop stop-color="#23232D" offset="100%"></stop>
        </linearGradient>
    </defs>
    <g id="Current-design" stroke="none" stroke-width="1" fill="none" fill-rule="evenodd">
        <g id="Home" transform="translate(-280.000000, -1638.000000)">
            <g id="UJ" transform="translate(280.000000, 1638.000000)">
                <rect id="Rectangle" fill="url(#linearGradient-1)" x="0" y="0" width="64" height="64" rx="14"></rect>
                <path d="M23.2421053,22.7368421 L23.2421053,36.6315789 C23.2421053,38.1473684 24.0842105,39.2 26.0631579,39.2 C27.8736842,39.2 29.8105263,38.5263158 30.4421053,38.2736842 L30.4421053,22.7368421 L36.0421053,22.7368421 L36.0421053,43.7894737 L32.1263158,43.7894737 L31.7894737,43.1157895 C30.4842105,43.7052632 27.9157895,44.4631579 26.0631579,44.4631579 C19.7473684,44.4631579 17.6421053,41.6421053 17.6421053,36.6315789 L17.6421053,22.7368421 L23.2421053,22.7368421 Z M37.1789474,54.9894737 L37.1789474,49.8526316 C39.3684211,49.8526316 41.8105263,48.8421053 41.8105263,47.0736842 L41.8105263,22.7368421 L47.3684211,22.7368421 L47.3684211,47.2 C47.3684211,52.1684211 42.9052632,54.9894737 37.1789474,54.9894737 Z M41.2210526,16.0842105 C41.2210526,14.1894737 42.7368421,12.6315789 44.6315789,12.6315789 C46.5263158,12.6315789 48.0842105,14.1894737 48.0842105,16.0842105 C48.0842105,17.9789474 46.5263158,19.4947368 44.6315789,19.4947368 C42.7368421,19.4947368 41.2210526,17.9789474 41.2210526,16.0842105 Z" id="uj" fill="#FFFFFF" fill-rule="nonzero"></path>
            </g>
        </g>
    </g>
</svg>