<svg xmlns="http://www.w3.org/2000/svg" width="24" height="24" viewBox="0 0 24 24"><g fill="#007CFF"><path d="M24 9.199c0-.008-.005-.016-.005-.024a.382.382 0 0 0-.017-.081.414.414 0 0 0-.022-.07.386.386 0 0 0-.04-.06.393.393 0 0 0-.055-.063c-.006-.005-.009-.013-.016-.018L20 5.895V2.8a1.2 1.2 0 0 0-1.2-1.2h-4.335L12.729.25a1.187 1.187 0 0 0-1.459 0L9.534 1.6H5.2A1.2 1.2 0 0 0 4 2.8v3.096L.154 8.883c-.006.005-.01.013-.016.018a.393.393 0 0 0-.054.064.383.383 0 0 0-.04.06.395.395 0 0 0-.023.069.38.38 0 0 0-.016.08c0 .008-.005.015-.005.023V22.8c.002.129.024.256.067.378a.396.396 0 0 0 .44.6c.202.144.444.222.693.222h21.6c.25 0 .492-.08.694-.225a.396.396 0 0 0 .439-.597c.043-.122.065-.25.067-.378V9.2zM11.76.883a.384.384 0 0 1 .477 0l.923.716h-2.32l.92-.716zM1.299 23.199l10.46-8.126c.14-.11.338-.11.477 0L22.7 23.2H1.3zm21.9-.625l-10.47-8.132a1.186 1.186 0 0 0-1.458 0L.8 22.574V9.808l6.554 5.09a.4.4 0 1 0 .49-.632L1.187 9.095 4 6.908v3.09a.4.4 0 0 0 .8 0v-7.2a.4.4 0 0 1 .4-.4h13.6c.22 0 .4.18.4.4v7.2a.4.4 0 1 0 .8 0v-3.09l2.814 2.186-6.672 5.18a.4.4 0 0 0 .491.633L23.2 9.808v12.766z"/><path d="M8 5.199h8a.4.4 0 1 0 0-.8H8a.4.4 0 1 0 0 .8zm8.4 2a.4.4 0 0 0-.4-.4H8a.4.4 0 0 0 0 .8h8a.4.4 0 0 0 .4-.4zm0 2.4a.4.4 0 0 0-.4-.4h-3.6a.4.4 0 1 0 0 .8H16a.4.4 0 0 0 .4-.4z"/></g></svg>