<svg xmlns="http://www.w3.org/2000/svg" width="15" height="19" viewBox="0 0 15 19"><g fill="#9B9B9B"><path d="M7.5 0C3.37 0 0 3.327 0 7.422c0 .496.049.992.146 1.472 0 .032.016.064.016.112.826 3.663 6.642 9.166 6.885 9.39.13.127.291.175.453.175a.701.701 0 0 0 .454-.176c.243-.24 6.026-5.726 6.852-9.31 0-.031.016-.063.016-.095.114-.512.162-1.04.162-1.568C15.001 3.327 11.631 0 7.5 0zm6.027 8.75v.048c-.616 2.655-4.65 6.846-6.027 8.206-1.377-1.36-5.426-5.55-6.042-8.27 0-.032 0-.048-.016-.08a6.525 6.525 0 0 1-.13-1.248c0-3.359 2.77-6.11 6.172-6.11 3.402 0 6.188 2.735 6.188 6.11 0 .464-.048.912-.145 1.344z"/><path d="M7.492 4.286a2.5 2.5 0 0 0-2.497 2.5c0 1.37 1.128 2.5 2.497 2.5a2.5 2.5 0 0 0 2.498-2.5 2.49 2.49 0 0 0-2.498-2.5zm0 3.693A1.19 1.19 0 0 1 6.3 6.786a1.19 1.19 0 0 1 1.192-1.194c.66 0 1.193.532 1.193 1.194a1.19 1.19 0 0 1-1.193 1.193z"/></g></svg>