<svg xmlns="http://www.w3.org/2000/svg" width="17" height="15" viewBox="0 0 17 15"><path fill="#FFF" d="M16.505 1.992h-4.519v-.498C11.986.67 11.316 0 10.492 0H6.508c-.824 0-1.494.67-1.494 1.494v.498H.498A.5.5 0 0 0 0 2.49v10.957c0 .824.67 1.494 1.494 1.494h14.012c.824 0 1.494-.67 1.494-1.494V2.499c-.02-.327-.22-.505-.495-.507zM6.01 1.494c0-.274.223-.498.498-.498h3.984c.275 0 .498.224.498.498v.498H6.01v-.498zm9.8 1.494l-1.546 4.64a.497.497 0 0 1-.472.34H10.99v-.497a.498.498 0 0 0-.498-.498H6.508a.498.498 0 0 0-.498.498v.498H3.208a.497.497 0 0 1-.472-.34l-1.547-4.64h14.622zm-5.816 4.98v.997H7.006v-.996h2.988zm6.01 5.48a.499.499 0 0 1-.498.497H1.494a.499.499 0 0 1-.498-.498V5.56l.795 2.384a1.492 1.492 0 0 0 1.417 1.022H6.01v.498c0 .275.223.498.498.498h3.984a.498.498 0 0 0 .498-.498v-.498h2.802a1.49 1.49 0 0 0 1.417-1.022l.795-2.384v7.888z"/></svg>