<svg xmlns="http://www.w3.org/2000/svg" width="18" height="18" viewBox="0 0 18 18"><g fill="#9B9B9B" fill-rule="evenodd"><path d="M10.8 16.328c-.149.037-.3.07-.45.097a.723.723 0 0 0 .264 1.421c.178-.033.358-.072.535-.116a.722.722 0 1 0-.35-1.402zm5.342-9.682a.72.72 0 0 0 .912.458.723.723 0 0 0 .46-.913 8.974 8.974 0 0 0-.189-.514.722.722 0 1 0-1.341.536c.057.142.11.288.158.433zm-2.995 8.651a7.565 7.565 0 0 1-.391.241.722.722 0 0 0 .721 1.252c.158-.091.315-.188.466-.288a.722.722 0 0 0-.796-1.205zm4.815-6.634a.722.722 0 0 0-1.443.057c.006.152.007.307.004.46a.721.721 0 1 0 1.444.031 8.968 8.968 0 0 0-.005-.548zm-1.938 4.733a.722.722 0 0 0-1.012.145 7.54 7.54 0 0 1-.287.359.723.723 0 0 0 1.1.936 8.92 8.92 0 0 0 .343-.428.723.723 0 0 0-.144-1.012zm1.062-2.611a.722.722 0 0 0-.906.473 7.65 7.65 0 0 1-.15.435.723.723 0 0 0 1.35.514c.064-.17.124-.344.179-.517a.723.723 0 0 0-.473-.905zm-9.438 5.647a7.459 7.459 0 0 1-1.853-.589l-.02-.011a7.89 7.89 0 0 1-.41-.208l-.003-.001a7.706 7.706 0 0 1-.719-.45C1.245 12.78.428 8.069 2.823 4.67a7.507 7.507 0 0 1 1.852-1.843l.026-.018a7.55 7.55 0 0 1 8.462-.068l-.564.815c-.157.227-.06.393.214.368l2.452-.22a.404.404 0 0 0 .365-.528L14.972.804c-.074-.266-.262-.297-.42-.07l-.565.817A8.92 8.92 0 0 0 6.766.307H6.76l-.026.008a8.907 8.907 0 0 0-4.939 3.31l-.03.038a8.509 8.509 0 0 0-.313.45l-.02.035A8.906 8.906 0 0 0 .009 9.401v.019c.008.18.023.364.042.545.001.012.004.023.006.035a8.915 8.915 0 0 0 2.591 5.38l.01.01.002.003c.354.348.738.67 1.151.962a8.907 8.907 0 0 0 3.582 1.499.722.722 0 1 0 .255-1.422z"/><path d="M8.541 3.175a.585.585 0 0 0-.584.584v5.823l5.325 2.753a.581.581 0 0 0 .788-.25.584.584 0 0 0-.251-.788L9.125 8.871V3.759a.584.584 0 0 0-.584-.584z"/></g></svg>