<?xml version="1.0" encoding="UTF-8"?>
<svg width="38px" height="38px" viewBox="0 0 38 38" version="1.1" xmlns="http://www.w3.org/2000/svg" xmlns:xlink="http://www.w3.org/1999/xlink">
    <!-- Generator: Sketch 56.2 (81672) - https://sketch.com -->
    <title>Group</title>
    <desc>Created with Sketch.</desc>
    <defs>
        <linearGradient x1="139.059056%" y1="4.42810197%" x2="-33.102809%" y2="4.4280992%" id="linearGradient-1">
            <stop stop-color="#D85470" offset="0%"></stop>
            <stop stop-color="#7D3984" offset="100%"></stop>
        </linearGradient>
    </defs>
    <g id="Current-design" stroke="none" stroke-width="1" fill="none" fill-rule="evenodd">
        <g id="Home" transform="translate(-225.000000, -1648.000000)">
            <g id="Group-2" transform="translate(225.000000, 1648.000000)">
                <g id="Group">
                    <rect id="Rectangle" fill="url(#linearGradient-1)" x="0" y="0" width="38" height="38" rx="8"></rect>
                    <path d="M9.387,18.154 C8.287,18.154 7.561,17.373 7.561,16.328 C7.561,15.008 8.628,14.315 11.114,14.051 C11.081,13.446 10.817,12.984 10.058,12.984 C9.486,12.984 8.936,13.237 8.364,13.567 L7.781,12.5 C8.507,12.049 9.387,11.686 10.355,11.686 C11.917,11.686 12.72,12.621 12.72,14.403 L12.72,18 L11.4,18 L11.29,17.34 L11.246,17.34 C10.707,17.802 10.091,18.154 9.387,18.154 Z M9.915,16.889 C10.377,16.889 10.718,16.669 11.114,16.284 L11.114,15.041 C9.607,15.228 9.101,15.646 9.101,16.196 C9.101,16.68 9.442,16.889 9.915,16.889 Z M15.888,18.154 C14.766,18.154 14.37,17.417 14.37,16.273 L14.37,9.222 L15.987,9.222 L15.987,16.339 C15.987,16.713 16.152,16.834 16.306,16.834 C16.372,16.834 16.416,16.834 16.526,16.812 L16.724,18.011 C16.537,18.088 16.273,18.154 15.888,18.154 Z M20.926,18.154 C20.376,18.154 19.782,17.868 19.287,17.351 L19.243,17.351 L19.1,18 L17.835,18 L17.835,9.222 L19.452,9.222 L19.452,11.433 L19.408,12.423 C19.892,11.983 20.508,11.686 21.113,11.686 C22.631,11.686 23.544,12.929 23.544,14.81 C23.544,16.933 22.279,18.154 20.926,18.154 Z M20.563,16.823 C21.311,16.823 21.883,16.185 21.883,14.843 C21.883,13.666 21.509,13.017 20.662,13.017 C20.244,13.017 19.87,13.226 19.452,13.655 L19.452,16.361 C19.837,16.702 20.233,16.823 20.563,16.823 Z M10.124,29.154 C8.661,29.154 8.1,28.219 8.1,26.844 L8.1,24.116 L7.231,24.116 L7.231,22.917 L8.188,22.84 L8.375,21.179 L9.717,21.179 L9.717,22.84 L11.235,22.84 L11.235,24.116 L9.717,24.116 L9.717,26.844 C9.717,27.548 10.003,27.878 10.553,27.878 C10.751,27.878 10.993,27.812 11.158,27.746 L11.422,28.923 C11.092,29.033 10.663,29.154 10.124,29.154 Z M15.173,29.154 C13.446,29.154 12.104,27.955 12.104,25.92 C12.104,23.929 13.512,22.686 14.975,22.686 C16.669,22.686 17.549,23.929 17.549,25.623 C17.549,25.931 17.516,26.228 17.472,26.371 L13.677,26.371 C13.809,27.383 14.469,27.911 15.382,27.911 C15.888,27.911 16.328,27.757 16.768,27.482 L17.318,28.472 C16.713,28.89 15.932,29.154 15.173,29.154 Z M13.655,25.293 L16.163,25.293 C16.163,24.468 15.789,23.94 14.997,23.94 C14.348,23.94 13.776,24.402 13.655,25.293 Z M21.498,29.154 C19.793,29.154 18.495,27.966 18.495,25.92 C18.495,23.874 19.969,22.686 21.641,22.686 C22.4,22.686 22.983,22.983 23.434,23.368 L22.664,24.413 C22.356,24.149 22.07,24.006 21.729,24.006 C20.783,24.006 20.145,24.765 20.145,25.92 C20.145,27.086 20.794,27.834 21.674,27.834 C22.114,27.834 22.532,27.625 22.873,27.339 L23.522,28.406 C22.928,28.923 22.18,29.154 21.498,29.154 Z M24.677,29 L24.677,20.222 L26.294,20.222 L26.294,22.433 L26.217,23.588 C26.712,23.126 27.317,22.686 28.153,22.686 C29.484,22.686 30.056,23.61 30.056,25.161 L30.056,29 L28.439,29 L28.439,25.359 C28.439,24.402 28.175,24.072 27.57,24.072 C27.064,24.072 26.745,24.314 26.294,24.765 L26.294,29 L24.677,29 Z" id="albtech" fill="#FFFFFF" fill-rule="nonzero"></path>
                </g>
            </g>
        </g>
    </g>
</svg>