<?xml version="1.0" encoding="UTF-8"?>
<svg width="138px" height="27px" viewBox="0 0 138 27" version="1.1" xmlns="http://www.w3.org/2000/svg" xmlns:xlink="http://www.w3.org/1999/xlink">
    <!-- Generator: Sketch 55.2 (78181) - https://sketchapp.com -->
    <title>unityjobs.io</title>
    <desc>Created with Sketch.</desc>
    <g id="Current-design" stroke="none" stroke-width="1" fill="none" fill-rule="evenodd">
        <g id="Home" transform="translate(-136.000000, -46.000000)" fill="#FFFFFF" fill-rule="nonzero">
            <path d="M140.018,53 L140.018,61.58 C140.018,62.516 140.538,63.166 141.76,63.166 C142.878,63.166 144.074,62.75 144.464,62.594 L144.464,53 L147.922,53 L147.922,66 L145.504,66 L145.296,65.584 C144.49,65.948 142.904,66.416 141.76,66.416 C137.86,66.416 136.56,64.674 136.56,61.58 L136.56,53 L140.018,53 Z M159.206,66 L159.206,57.42 C159.206,56.484 158.686,55.834 157.464,55.834 C156.346,55.834 155.15,56.25 154.76,56.406 L154.76,66 L151.302,66 L151.302,53 L153.72,53 L153.928,53.416 C154.734,53.052 156.32,52.584 157.464,52.584 C161.364,52.584 162.664,54.326 162.664,57.42 L162.664,66 L159.206,66 Z M170.438,66.416 L169.502,66.416 C167.266,66.416 166.096,65.532 166.096,63.01 L166.096,53 L169.502,53 L169.502,62.438 C169.502,62.932 169.736,63.166 170.438,63.166 L170.438,66.416 Z M165.732,48.892 C165.732,47.722 166.668,46.76 167.838,46.76 C169.008,46.76 169.97,47.722 169.97,48.892 C169.97,50.062 169.008,50.998 167.838,50.998 C166.668,50.998 165.732,50.062 165.732,48.892 Z M181.41,63.01 L181.41,66.182 C180.292,66.442 179.616,66.416 179.408,66.416 C177.172,66.416 174.936,65.246 174.936,62.542 L174.936,56.094 L172.674,56.094 L172.674,53.754 L174.936,53.104 L174.936,50.062 L178.342,49.126 L178.342,53 L181.93,53 L181.93,56.094 L178.342,56.094 L178.342,62.36 C178.342,62.984 178.836,63.166 179.59,63.166 C180.032,63.166 180.942,63.088 181.41,63.01 Z M183.854,53 L187.702,53 L190.198,60.722 L192.694,53 L196.516,53 L189.028,72.5 L185.232,72.5 L188.508,64.986 L183.854,53 Z M196.178,72.916 L196.178,69.744 C197.53,69.744 199.038,69.12 199.038,68.028 L199.038,53 L202.47,53 L202.47,68.106 C202.47,71.174 199.714,72.916 196.178,72.916 Z M198.674,48.892 C198.674,47.722 199.61,46.76 200.78,46.76 C201.95,46.76 202.912,47.722 202.912,48.892 C202.912,50.062 201.95,50.998 200.78,50.998 C199.61,50.998 198.674,50.062 198.674,48.892 Z M217.55,59.5 C217.55,63.556 216.51,66.416 211.7,66.416 C206.942,66.416 205.85,63.556 205.85,59.5 C205.85,55.444 206.942,52.584 211.7,52.584 C216.51,52.584 217.55,55.444 217.55,59.5 Z M214.118,59.5 C214.118,57.472 213.858,55.834 211.7,55.834 C209.516,55.834 209.282,57.472 209.282,59.5 C209.282,61.528 209.516,63.166 211.7,63.166 C213.858,63.166 214.118,61.528 214.118,59.5 Z M220.67,66 L220.67,46.5 L224.076,46.5 L224.076,53.078 C224.752,52.792 225.818,52.584 226.546,52.584 C231.148,52.584 232.448,55.028 232.448,59.5 C232.448,63.946 231.148,66.416 226.546,66.416 C225.532,66.416 224.206,66.078 223.27,65.532 L223.088,66 L220.67,66 Z M224.076,56.328 L224.076,62.672 C224.648,62.906 225.558,63.166 226.494,63.166 C228.548,63.166 228.964,61.606 228.964,59.5 C228.964,57.394 228.548,55.834 226.494,55.834 C225.558,55.834 224.648,56.094 224.076,56.328 Z M238.662,56.952 C238.662,57.342 238.948,57.602 240.43,57.732 C244.304,58.096 245.188,59.474 245.188,61.892 C245.188,64.076 243.862,66.416 239.728,66.416 C238.506,66.416 236.53,66.026 235.438,65.61 L235.438,62.23 C236.66,62.672 238.324,63.166 239.754,63.166 C241.34,63.166 241.808,62.516 241.808,61.944 C241.808,61.424 241.496,61.034 240.066,60.904 C236.244,60.54 235.308,59.006 235.308,56.978 C235.308,54.95 236.582,52.584 240.43,52.584 C241.626,52.584 243.082,52.766 244.616,53.442 L244.616,56.718 C243.16,56.224 241.808,55.834 240.43,55.834 C238.974,55.834 238.662,56.354 238.662,56.952 Z M247.372,64.31 C247.372,63.14 248.308,62.178 249.478,62.178 C250.648,62.178 251.61,63.14 251.61,64.31 C251.61,65.48 250.648,66.416 249.478,66.416 C248.308,66.416 247.372,65.48 247.372,64.31 Z M258.552,66.416 L257.616,66.416 C255.38,66.416 254.21,65.532 254.21,63.01 L254.21,53 L257.616,53 L257.616,62.438 C257.616,62.932 257.85,63.166 258.552,63.166 L258.552,66.416 Z M253.846,48.892 C253.846,47.722 254.782,46.76 255.952,46.76 C257.122,46.76 258.084,47.722 258.084,48.892 C258.084,50.062 257.122,50.998 255.952,50.998 C254.782,50.998 253.846,50.062 253.846,48.892 Z M273.268,59.5 C273.268,63.556 272.228,66.416 267.418,66.416 C262.66,66.416 261.568,63.556 261.568,59.5 C261.568,55.444 262.66,52.584 267.418,52.584 C272.228,52.584 273.268,55.444 273.268,59.5 Z M269.836,59.5 C269.836,57.472 269.576,55.834 267.418,55.834 C265.234,55.834 265,57.472 265,59.5 C265,61.528 265.234,63.166 267.418,63.166 C269.576,63.166 269.836,61.528 269.836,59.5 Z" id="unityjobs.io"></path>
        </g>
    </g>
</svg>