<?xml version="1.0" encoding="UTF-8"?>
<svg width="80px" height="16px" viewBox="0 0 80 16" version="1.1" xmlns="http://www.w3.org/2000/svg" xmlns:xlink="http://www.w3.org/1999/xlink">
    <!-- Generator: Sketch 55.2 (78181) - https://sketchapp.com -->
    <title>unityjobs.io</title>
    <desc>Created with Sketch.</desc>
    <g id="Current-design" stroke="none" stroke-width="1" fill="none" fill-rule="evenodd">
        <g id="Home" transform="translate(-273.000000, -1758.000000)" fill="#000000" fill-rule="nonzero">
            <g id="Group-2" transform="translate(225.000000, 1758.000000)">
                <path d="M50.0235831,3.80372765 L50.0235831,8.82464816 C50.0235831,9.37238494 50.3278813,9.7527577 51.0429821,9.7527577 C51.6972233,9.7527577 52.3971092,9.50931913 52.6253328,9.41802967 L52.6253328,3.80372765 L54.6489159,3.80372765 L54.6489159,11.411183 L53.2339293,11.411183 L53.11221,11.1677444 C52.6405477,11.3807531 51.7124382,11.6546215 51.0429821,11.6546215 C48.7607455,11.6546215 48,10.6352225 48,8.82464816 L48,3.80372765 L50.0235831,3.80372765 Z M61.2521871,11.411183 L61.2521871,6.39026246 C61.2521871,5.84252568 60.9478889,5.46215291 60.2327881,5.46215291 C59.578547,5.46215291 58.8786611,5.70559148 58.6504374,5.79688094 L58.6504374,11.411183 L56.6268543,11.411183 L56.6268543,3.80372765 L58.041841,3.80372765 L58.1635603,4.04716622 C58.6352225,3.83415747 59.5633321,3.56028908 60.2327881,3.56028908 C62.5150247,3.56028908 63.2757703,4.57968809 63.2757703,6.39026246 L63.2757703,11.411183 L61.2521871,11.411183 Z M67.8250285,11.6546215 L67.2772917,11.6546215 C65.9688094,11.6546215 65.2841385,11.1373146 65.2841385,9.66146824 L65.2841385,3.80372765 L67.2772917,3.80372765 L67.2772917,9.32674021 C67.2772917,9.61582351 67.4142259,9.7527577 67.8250285,9.7527577 L67.8250285,11.6546215 Z M65.0711297,1.39977178 C65.0711297,0.715100799 65.6188665,0.152149106 66.3035375,0.152149106 C66.9882084,0.152149106 67.5511601,0.715100799 67.5511601,1.39977178 C67.5511601,2.08444275 66.9882084,2.63217954 66.3035375,2.63217954 C65.6188665,2.63217954 65.0711297,2.08444275 65.0711297,1.39977178 Z M74.2457208,9.66146824 L74.2457208,11.5176873 C73.5914797,11.6698364 73.195892,11.6546215 73.0741727,11.6546215 C71.7656904,11.6546215 70.4572081,10.9699506 70.4572081,9.38759985 L70.4572081,5.61430202 L69.1335108,5.61430202 L69.1335108,4.24496006 L70.4572081,3.8645873 L70.4572081,2.08444275 L72.4503614,1.53670597 L72.4503614,3.80372765 L74.550019,3.80372765 L74.550019,5.61430202 L72.4503614,5.61430202 L72.4503614,9.28109547 C72.4503614,9.64625333 72.7394447,9.7527577 73.1806771,9.7527577 C73.4393305,9.7527577 73.9718524,9.70711297 74.2457208,9.66146824 Z M75.6759224,3.80372765 L77.9277292,3.80372765 L79.3883606,8.3225561 L80.848992,3.80372765 L83.0855839,3.80372765 L78.7036896,15.2149106 L76.4823127,15.2149106 L78.3993914,10.8178014 L75.6759224,3.80372765 Z M82.88779,15.4583492 L82.88779,13.6021301 C83.6789654,13.6021301 84.5614302,13.2369722 84.5614302,12.597946 L84.5614302,3.80372765 L86.5697984,3.80372765 L86.5697984,12.6435907 C86.5697984,14.4389502 84.9570179,15.4583492 82.88779,15.4583492 Z M84.3484215,1.39977178 C84.3484215,0.715100799 84.8961582,0.152149106 85.5808292,0.152149106 C86.2655002,0.152149106 86.8284519,0.715100799 86.8284519,1.39977178 C86.8284519,2.08444275 86.2655002,2.63217954 85.5808292,2.63217954 C84.8961582,2.63217954 84.3484215,2.08444275 84.3484215,1.39977178 Z M95.3944466,7.60745531 C95.3944466,9.98098136 94.7858501,11.6546215 91.9710917,11.6546215 C89.186763,11.6546215 88.5477368,9.98098136 88.5477368,7.60745531 C88.5477368,5.23392925 89.186763,3.56028908 91.9710917,3.56028908 C94.7858501,3.56028908 95.3944466,5.23392925 95.3944466,7.60745531 Z M93.3860784,7.60745531 C93.3860784,6.42069228 93.2339293,5.46215291 91.9710917,5.46215291 C90.6930392,5.46215291 90.556105,6.42069228 90.556105,7.60745531 C90.556105,8.79421833 90.6930392,9.7527577 91.9710917,9.7527577 C93.2339293,9.7527577 93.3860784,8.79421833 93.3860784,7.60745531 Z M97.2202358,11.411183 L97.2202358,0 L99.2133891,0 L99.2133891,3.84937238 C99.6089768,3.68200837 100.232788,3.56028908 100.658806,3.56028908 C103.351845,3.56028908 104.11259,4.99049068 104.11259,7.60745531 C104.11259,10.209205 103.351845,11.6546215 100.658806,11.6546215 C100.065424,11.6546215 99.2894637,11.4568277 98.7417269,11.1373146 L98.6352225,11.411183 L97.2202358,11.411183 Z M99.2133891,5.75123621 L99.2133891,9.4636744 C99.5481172,9.6006086 100.080639,9.7527577 100.628376,9.7527577 C101.830354,9.7527577 102.073792,8.83986307 102.073792,7.60745531 C102.073792,6.37504755 101.830354,5.46215291 100.628376,5.46215291 C100.080639,5.46215291 99.5481172,5.61430202 99.2133891,5.75123621 Z M107.748954,6.11639407 C107.748954,6.34461773 107.916318,6.49676683 108.783568,6.57284138 C111.05059,6.78585013 111.567897,7.5922404 111.567897,9.00722708 C111.567897,10.2852796 110.791936,11.6546215 108.372765,11.6546215 C107.657665,11.6546215 106.501331,11.4263979 105.862305,11.1829593 L105.862305,9.20502092 C106.577406,9.4636744 107.55116,9.7527577 108.38798,9.7527577 C109.31609,9.7527577 109.589958,9.37238494 109.589958,9.0376569 C109.589958,8.73335869 109.407379,8.50513503 108.570559,8.42906048 C106.333967,8.21605173 105.786231,7.318372 105.786231,6.13160898 C105.786231,4.94484595 106.531761,3.56028908 108.783568,3.56028908 C109.483454,3.56028908 110.335489,3.66679346 111.233169,4.06238113 L111.233169,5.97945987 C110.381134,5.69037657 109.589958,5.46215291 108.783568,5.46215291 C107.931533,5.46215291 107.748954,5.76645112 107.748954,6.11639407 Z M112.845949,10.4222138 C112.845949,9.73754279 113.393686,9.1745911 114.078357,9.1745911 C114.763028,9.1745911 115.325979,9.73754279 115.325979,10.4222138 C115.325979,11.1068847 114.763028,11.6546215 114.078357,11.6546215 C113.393686,11.6546215 112.845949,11.1068847 112.845949,10.4222138 Z M119.388361,11.6546215 L118.840624,11.6546215 C117.532141,11.6546215 116.847471,11.1373146 116.847471,9.66146824 L116.847471,3.80372765 L118.840624,3.80372765 L118.840624,9.32674021 C118.840624,9.61582351 118.977558,9.7527577 119.388361,9.7527577 L119.388361,11.6546215 Z M116.634462,1.39977178 C116.634462,0.715100799 117.182199,0.152149106 117.86687,0.152149106 C118.551541,0.152149106 119.114492,0.715100799 119.114492,1.39977178 C119.114492,2.08444275 118.551541,2.63217954 117.86687,2.63217954 C117.182199,2.63217954 116.634462,2.08444275 116.634462,1.39977178 Z M128,7.60745531 C128,9.98098136 127.391404,11.6546215 124.576645,11.6546215 C121.792316,11.6546215 121.15329,9.98098136 121.15329,7.60745531 C121.15329,5.23392925 121.792316,3.56028908 124.576645,3.56028908 C127.391404,3.56028908 128,5.23392925 128,7.60745531 Z M125.991632,7.60745531 C125.991632,6.42069228 125.839483,5.46215291 124.576645,5.46215291 C123.298593,5.46215291 123.161658,6.42069228 123.161658,7.60745531 C123.161658,8.79421833 123.298593,9.7527577 124.576645,9.7527577 C125.839483,9.7527577 125.991632,8.79421833 125.991632,7.60745531 Z" id="unityjobs.io"></path>
            </g>
        </g>
    </g>
</svg>