<svg xmlns="http://www.w3.org/2000/svg" width="50" height="50" viewBox="0 0 50 50"><g fill="#007CFF" fill-rule="evenodd" opacity=".536"><path fill-rule="nonzero" d="M48.535 47.07h-1.563v-24.9c0-.631-.403-1.19-1.001-1.39l-16.577-5.525v-5c0-.61-.378-1.156-.95-1.37L5.007.093a1.466 1.466 0 0 0-1.98 1.372V47.07H1.466a1.465 1.465 0 0 0 0 2.93h47.07a1.465 1.465 0 0 0 0-2.93zm-33.789 0h-2.93v-5.859h2.93v5.86zm5.86 0h-2.93v-5.859h2.93v5.86zm5.859-30.76v30.76h-2.93v-7.324c0-.809-.656-1.465-1.465-1.465H10.352c-.81 0-1.465.656-1.465 1.465v7.324h-2.93V3.58l20.508 7.69v5.04zm11.718 30.76h-2.93v-5.859h2.93v5.86zm5.86 0h-2.93v-7.324c0-.809-.656-1.465-1.465-1.465h-5.86c-.808 0-1.464.656-1.464 1.465v7.324h-2.93V18.342l14.649 4.882V47.07z"/><path d="M13.282 32.422h-2.93a1.465 1.465 0 0 0 0 2.93h2.93a1.465 1.465 0 0 0 0-2.93zm8.788 0h-2.93a1.465 1.465 0 0 0 0 2.93h2.93a1.465 1.465 0 0 0 0-2.93zm-8.788-5.859h-2.93a1.465 1.465 0 0 0 0 2.93h2.93a1.465 1.465 0 0 0 0-2.93zm8.788 0h-2.93a1.465 1.465 0 0 0 0 2.93h2.93a1.465 1.465 0 0 0 0-2.93zm17.578 5.859h-5.86a1.465 1.465 0 0 0 0 2.93h5.86a1.465 1.465 0 0 0 0-2.93zm0-5.859h-5.86a1.465 1.465 0 0 0 0 2.93h5.86a1.465 1.465 0 0 0 0-2.93zm-26.366-5.859h-2.93a1.465 1.465 0 0 0 0 2.93h2.93a1.465 1.465 0 0 0 0-2.93zm8.788 0h-2.93a1.465 1.465 0 0 0 0 2.93h2.93a1.465 1.465 0 0 0 0-2.93zm-8.788-5.86h-2.93a1.465 1.465 0 0 0 0 2.93h2.93a1.465 1.465 0 0 0 0-2.93zm8.788 0h-2.93a1.465 1.465 0 0 0 0 2.93h2.93a1.465 1.465 0 0 0 0-2.93z"/></g></svg>