<svg xmlns="http://www.w3.org/2000/svg" width="20" height="16" viewBox="0 0 20 16"><g fill="#9B9B9B" fill-rule="evenodd"><path fill-rule="nonzero" d="M17.533.031H2.443A2.444 2.444 0 0 0 0 2.473v10.314a2.444 2.444 0 0 0 2.442 2.442H17.53a2.444 2.444 0 0 0 2.442-2.442V2.477A2.442 2.442 0 0 0 17.533.031zm1.327 12.756c0 .732-.596 1.327-1.327 1.327H2.443a1.328 1.328 0 0 1-1.327-1.327V2.477c0-.731.595-1.326 1.326-1.326H17.53c.731 0 1.326.595 1.326 1.326v10.31h.005z"/><path d="M12.595 7.502l4.884-4.38a.56.56 0 0 0 .042-.79.56.56 0 0 0-.79-.04L9.996 8.336 8.682 7.163c-.004-.004-.008-.008-.008-.012a.826.826 0 0 0-.091-.079L3.236 2.287a.557.557 0 0 0-.79.046.557.557 0 0 0 .046.789l4.942 4.417-4.922 4.608a.56.56 0 0 0 .765.818L8.273 8.29l1.355 1.211a.558.558 0 0 0 .744-.004l1.392-1.248 4.967 4.719a.557.557 0 0 0 .769-.81l-4.905-4.657z"/></g></svg>