<svg xmlns="http://www.w3.org/2000/svg" width="20" height="17" viewBox="0 0 20 17"><path fill="#9B9B9B" d="M18.706 2.258h-5.121v-.565C13.585.76 12.825 0 11.89 0H7.376c-.934 0-1.694.76-1.694 1.693v.565H.564A.566.566 0 0 0 0 2.822V15.24c0 .934.76 1.694 1.693 1.694h15.88c.934 0 1.694-.76 1.694-1.694V2.832c-.022-.37-.25-.572-.561-.574zM6.81 1.693c0-.31.253-.564.565-.564h4.515c.311 0 .565.253.565.564v.565H6.81v-.565zm11.11 1.694l-1.753 5.258a.563.563 0 0 1-.535.386h-3.175v-.564a.564.564 0 0 0-.565-.565H7.376a.564.564 0 0 0-.565.565v.564H3.636a.563.563 0 0 1-.535-.386L1.348 3.387h16.571zM11.327 9.03v1.13H7.94V9.03h3.387zm6.81 6.21a.565.565 0 0 1-.564.564H1.693a.565.565 0 0 1-.564-.565V6.3l.9 2.702a1.69 1.69 0 0 0 1.607 1.158H6.81v.565c0 .311.253.564.565.564h4.515a.564.564 0 0 0 .565-.564v-.565h3.175a1.69 1.69 0 0 0 1.606-1.158l.9-2.701v8.94z"/></svg>