<svg xmlns="http://www.w3.org/2000/svg" width="12" height="15" viewBox="0 0 12 15"><g fill="#FFF"><path d="M6.006 0C2.698 0 0 2.662 0 5.938c0 .396.039.793.117 1.177 0 .026.013.051.013.09.661 2.93 5.319 7.332 5.513 7.511a.5.5 0 0 0 .363.141c.13 0 .26-.051.364-.14.194-.193 4.826-4.582 5.487-7.448 0-.026.013-.052.013-.077.091-.41.13-.832.13-1.254C12.013 2.662 9.315 0 6.006 0zm4.826 7v.038c-.493 2.125-3.723 5.477-4.826 6.565-1.102-1.088-4.345-4.44-4.838-6.616 0-.026 0-.038-.013-.064a5.215 5.215 0 0 1-.104-.998c0-2.687 2.218-4.888 4.942-4.888 2.725 0 4.956 2.188 4.956 4.888 0 .371-.039.73-.117 1.075z"/><path d="M6 3.429c-1.11 0-2 .903-2 2 0 1.096.903 2 2 2s2-.89 2-2c0-1.11-.89-2-2-2zm0 2.954a.953.953 0 0 1-.955-.954c0-.53.426-.955.955-.955.529 0 .955.426.955.955A.953.953 0 0 1 6 6.383z"/></g></svg>