<svg xmlns="http://www.w3.org/2000/svg" width="36" height="36" viewBox="0 0 36 36"><g fill="#007CFF" fill-rule="evenodd"><path fill-rule="nonzero" d="M34.945 33.89H33.82V15.962c0-.454-.29-.857-.72-1l-11.936-3.978v-3.6c0-.44-.273-.833-.684-.987L3.605.068a1.055 1.055 0 0 0-1.425.987v32.836H1.055a1.055 1.055 0 0 0 0 2.109h33.89a1.055 1.055 0 0 0 0-2.11zm-24.328 0h-2.11v-4.218h2.11v4.219zm4.219 0h-2.11v-4.218h2.11v4.219zm4.219-22.147V33.89h-2.11v-5.274c0-.582-.472-1.054-1.054-1.054H7.453c-.582 0-1.055.472-1.055 1.054v5.274H4.29V2.577l14.766 5.537v3.629zm8.437 22.148h-2.11v-4.22h2.11v4.22zm4.219 0H29.6v-5.274c0-.582-.472-1.054-1.054-1.054h-4.219c-.582 0-1.055.472-1.055 1.054v5.274h-2.109V13.206l10.547 3.515v17.17z"/><path d="M10 23H8a1 1 0 0 0 0 2h2a1 1 0 0 0 0-2zm6 0h-2a1 1 0 0 0 0 2h2a1 1 0 0 0 0-2zm-6-4H8a1 1 0 0 0 0 2h2a1 1 0 0 0 0-2zm6 0h-2a1 1 0 0 0 0 2h2a1 1 0 0 0 0-2zm12 4h-4a1 1 0 0 0 0 2h4a1 1 0 0 0 0-2zm0-4h-4a1 1 0 0 0 0 2h4a1 1 0 0 0 0-2zm-18-4H8a1 1 0 0 0 0 2h2a1 1 0 0 0 0-2zm6 0h-2a1 1 0 0 0 0 2h2a1 1 0 0 0 0-2zm-6-4H8a1 1 0 0 0 0 2h2a1 1 0 0 0 0-2zm6 0h-2a1 1 0 0 0 0 2h2a1 1 0 0 0 0-2z"/></g></svg>