<?xml version="1.0" encoding="UTF-8"?>
<svg width="160px" height="23px" viewBox="0 0 160 23" version="1.1" xmlns="http://www.w3.org/2000/svg" xmlns:xlink="http://www.w3.org/1999/xlink">
    <!-- Generator: Sketch 55.2 (78181) - https://sketchapp.com -->
    <title>Flutterjobs.io</title>
    <desc>Created with Sketch.</desc>
    <g id="Current-design" stroke="none" stroke-width="1" fill="none" fill-rule="evenodd">
        <g id="Home" transform="translate(-138.000000, -39.000000)" fill="#FFFFFF" fill-rule="nonzero">
            <path d="M141.539062,57.1757812 L138,57.1757812 L138,40.265625 L149.074219,40.265625 L149.074219,43.2890625 L141.539062,43.2890625 L141.539062,47.6953125 L148.417969,47.6953125 L148.417969,50.5898438 L141.539062,50.5898438 L141.539062,57.1757812 Z M152.121094,57.1757812 L152.121094,39.3164062 L155.53125,39.3164062 L155.53125,57.1757812 L152.121094,57.1757812 Z M170.765625,44.25 L170.765625,57.1757812 L167.460938,57.1757812 L167.460938,55.1015625 L167.25,55.1015625 C166.640625,56.6015625 165.433594,57.4570312 163.476562,57.4570312 C160.6875,57.4570312 158.953125,55.6757812 158.953125,52.6757812 L158.953125,44.25 L162.363281,44.25 L162.363281,51.796875 C162.363281,53.578125 163.171875,54.4921875 164.742188,54.4921875 C166.441406,54.4921875 167.355469,53.4257812 167.355469,51.703125 L167.355469,44.25 L170.765625,44.25 Z M175.160156,41.1796875 L178.570312,41.1796875 L178.570312,44.3789062 L181.253906,44.3789062 L181.253906,47.0625 L178.570312,47.0625 L178.570312,52.875 C178.570312,54 179.085938,54.515625 180.246094,54.515625 C180.691406,54.515625 180.925781,54.5039062 181.253906,54.46875 L181.253906,57.0703125 C180.832031,57.1523438 180.199219,57.2226562 179.542969,57.2226562 C176.402344,57.2226562 175.160156,56.203125 175.160156,53.6835938 L175.160156,47.0625 L173.144531,47.0625 L173.144531,44.3789062 L175.160156,44.3789062 L175.160156,41.1796875 Z M185.0625,41.1796875 L188.472656,41.1796875 L188.472656,44.3789062 L191.15625,44.3789062 L191.15625,47.0625 L188.472656,47.0625 L188.472656,52.875 C188.472656,54 188.988281,54.515625 190.148438,54.515625 C190.59375,54.515625 190.828125,54.5039062 191.15625,54.46875 L191.15625,57.0703125 C190.734375,57.1523438 190.101562,57.2226562 189.445312,57.2226562 C186.304688,57.2226562 185.0625,56.203125 185.0625,53.6835938 L185.0625,47.0625 L183.046875,47.0625 L183.046875,44.3789062 L185.0625,44.3789062 L185.0625,41.1796875 Z M199.582031,46.5820312 C198,46.5820312 196.886719,47.6835938 196.769531,49.359375 L202.277344,49.359375 C202.207031,47.6484375 201.175781,46.5820312 199.582031,46.5820312 Z M202.347656,53.4960938 L205.523438,53.4960938 C205.007812,55.9335938 202.78125,57.4570312 199.617188,57.4570312 C195.679688,57.4570312 193.359375,54.9726562 193.359375,50.7773438 C193.359375,46.5703125 195.726562,43.96875 199.570312,43.96875 C203.378906,43.96875 205.628906,46.3945312 205.628906,50.4960938 L205.628906,51.5390625 L196.757812,51.5390625 L196.757812,51.7148438 C196.804688,53.6367188 197.929688,54.8320312 199.710938,54.8320312 C201.058594,54.8320312 201.984375,54.3515625 202.347656,53.4960938 Z M208.417969,57.1757812 L208.417969,44.25 L211.722656,44.25 L211.722656,46.3125 L211.933594,46.3125 C212.273438,45.0234375 213.609375,44.0390625 215.25,44.0390625 C215.71875,44.0390625 216.292969,44.0976562 216.585938,44.203125 L216.585938,47.3085938 C216.316406,47.203125 215.519531,47.0976562 214.96875,47.0976562 C213.105469,47.0976562 211.828125,48.1992188 211.828125,50.015625 L211.828125,57.1757812 L208.417969,57.1757812 Z M222.292969,44.25 L222.292969,57.5742188 C222.292969,60.2226562 220.710938,61.5820312 217.722656,61.5820312 C217.476562,61.5820312 216.949219,61.5585938 216.808594,61.5351562 L216.808594,58.921875 C216.878906,58.9335938 217.136719,58.9335938 217.242188,58.9335938 C218.4375,58.9335938 218.882812,58.5117188 218.882812,57.4804688 L218.882812,44.25 L222.292969,44.25 Z M220.59375,42.4453125 C219.363281,42.4453125 218.578125,41.7304688 218.578125,40.7226562 C218.578125,39.703125 219.363281,39 220.59375,39 C221.8125,39 222.609375,39.703125 222.609375,40.7226562 C222.609375,41.7304688 221.8125,42.4453125 220.59375,42.4453125 Z M231.46875,54.6679688 C233.285156,54.6679688 234.328125,53.2148438 234.328125,50.7070312 C234.328125,48.2226562 233.273438,46.7578125 231.46875,46.7578125 C229.652344,46.7578125 228.609375,48.2226562 228.609375,50.7070312 C228.609375,53.2265625 229.640625,54.6679688 231.46875,54.6679688 Z M231.46875,57.4570312 C227.496094,57.4570312 225.105469,54.9375 225.105469,50.7070312 C225.105469,46.5234375 227.53125,43.96875 231.46875,43.96875 C235.40625,43.96875 237.832031,46.5117188 237.832031,50.7070312 C237.832031,54.9375 235.441406,57.4570312 231.46875,57.4570312 Z M248.226562,57.375 C246.398438,57.375 244.933594,56.5546875 244.242188,55.1484375 L244.03125,55.1484375 L244.03125,57.1757812 L240.726562,57.1757812 L240.726562,39.3164062 L244.136719,39.3164062 L244.136719,46.3125 L244.347656,46.3125 C245.003906,44.8945312 246.457031,44.0390625 248.226562,44.0390625 C251.496094,44.0390625 253.464844,46.5351562 253.464844,50.7070312 C253.464844,54.8554688 251.472656,57.375 248.226562,57.375 Z M247.042969,46.8984375 C245.25,46.8984375 244.113281,48.3632812 244.101562,50.71875 C244.113281,53.0625 245.238281,54.5273438 247.042969,54.5273438 C248.859375,54.5273438 249.960938,53.0742188 249.960938,50.7070312 C249.960938,48.3515625 248.847656,46.8984375 247.042969,46.8984375 Z M255.949219,48.046875 C255.949219,45.5976562 258.105469,43.96875 261.328125,43.96875 C264.609375,43.96875 266.542969,45.3398438 266.730469,47.8125 L263.578125,47.8125 C263.402344,46.9804688 262.617188,46.4648438 261.351562,46.4648438 C260.132812,46.4648438 259.230469,47.015625 259.230469,47.8359375 C259.230469,48.46875 259.78125,48.8554688 260.976562,49.125 L263.402344,49.6523438 C265.910156,50.203125 267.035156,51.2578125 267.035156,53.1914062 C267.035156,55.7695312 264.726562,57.4570312 261.339844,57.4570312 C257.929688,57.4570312 255.867188,56.0625 255.632812,53.578125 L258.960938,53.578125 C259.21875,54.4570312 260.050781,54.9609375 261.410156,54.9609375 C262.734375,54.9609375 263.648438,54.4101562 263.648438,53.578125 C263.648438,52.9453125 263.15625,52.5585938 262.019531,52.3125 L259.675781,51.7851562 C257.167969,51.234375 255.949219,50.0390625 255.949219,48.046875 Z M272.296875,57.4921875 C271.042969,57.4921875 270.222656,56.6367188 270.222656,55.453125 C270.222656,54.2695312 271.042969,53.4257812 272.296875,53.4257812 C273.5625,53.4257812 274.371094,54.2695312 274.371094,55.453125 C274.371094,56.6367188 273.5625,57.4921875 272.296875,57.4921875 Z M278.203125,57.1757812 L278.203125,44.25 L281.613281,44.25 L281.613281,57.1757812 L278.203125,57.1757812 Z M279.914062,42.4453125 C278.683594,42.4453125 277.898438,41.7304688 277.898438,40.7226562 C277.898438,39.703125 278.683594,39 279.914062,39 C281.132812,39 281.929688,39.703125 281.929688,40.7226562 C281.929688,41.7304688 281.132812,42.4453125 279.914062,42.4453125 Z M290.789062,54.6679688 C292.605469,54.6679688 293.648438,53.2148438 293.648438,50.7070312 C293.648438,48.2226562 292.59375,46.7578125 290.789062,46.7578125 C288.972656,46.7578125 287.929688,48.2226562 287.929688,50.7070312 C287.929688,53.2265625 288.960938,54.6679688 290.789062,54.6679688 Z M290.789062,57.4570312 C286.816406,57.4570312 284.425781,54.9375 284.425781,50.7070312 C284.425781,46.5234375 286.851562,43.96875 290.789062,43.96875 C294.726562,43.96875 297.152344,46.5117188 297.152344,50.7070312 C297.152344,54.9375 294.761719,57.4570312 290.789062,57.4570312 Z" id="Flutterjobs.io"></path>
        </g>
    </g>
</svg>