<svg xmlns="http://www.w3.org/2000/svg" width="94" height="14" viewBox="0 0 94 14"><path d="M2.071 10.638H0V.741h6.482v1.77h-4.41v2.578h4.026v1.695H2.07v3.854zm6.194 0V.185h1.996v10.453H8.265zm10.913-7.565v7.565h-1.934V9.424h-.124c-.357.878-1.063 1.379-2.208 1.379-1.633 0-2.648-1.043-2.648-2.799V3.073h1.996V7.49c0 1.043.473 1.578 1.392 1.578.995 0 1.53-.625 1.53-1.633V3.073h1.996zm2.572-1.797h1.996v1.872h1.57V4.72h-1.57v3.402c0 .659.302.96.98.96.261 0 .399-.007.59-.027v1.523a5.56 5.56 0 0 1-1 .089c-1.839 0-2.566-.597-2.566-2.072V4.72h-1.18V3.15h1.18V1.275zm5.796 0h1.996v1.872h1.57V4.72h-1.57v3.402c0 .659.302.96.98.96.261 0 .398-.007.59-.027v1.523a5.56 5.56 0 0 1-1 .089c-1.84 0-2.566-.597-2.566-2.072V4.72h-1.18V3.15h1.18V1.275zm8.498 3.162c-.926 0-1.577.645-1.646 1.625h3.224c-.041-1.001-.645-1.625-1.578-1.625zm1.619 4.047h1.859c-.302 1.426-1.605 2.318-3.457 2.318-2.305 0-3.663-1.454-3.663-3.91 0-2.462 1.386-3.985 3.635-3.985 2.23 0 3.546 1.42 3.546 3.82v.611h-5.192v.103c.028 1.125.686 1.825 1.729 1.825.788 0 1.33-.282 1.543-.782zm3.553 2.153V3.073h1.934V4.28h.124c.198-.754.98-1.33 1.94-1.33.275 0 .611.034.783.095v1.818c-.158-.062-.625-.123-.947-.123-1.09 0-1.838.644-1.838 1.707v4.191h-1.996zm8.12-7.565v7.799c0 1.55-.925 2.345-2.674 2.345-.144 0-.453-.013-.535-.027v-1.53c.041.007.192.007.254.007.7 0 .96-.247.96-.85V3.073h1.996zm-.994-1.056c-.72 0-1.18-.419-1.18-1.009 0-.596.46-1.008 1.18-1.008.714 0 1.18.412 1.18 1.008 0 .59-.466 1.009-1.18 1.009zm6.366 7.154c1.063 0 1.673-.851 1.673-2.319 0-1.454-.617-2.311-1.673-2.311-1.064 0-1.674.857-1.674 2.311 0 1.475.604 2.319 1.674 2.319zm0 1.632c-2.326 0-3.725-1.475-3.725-3.95 0-2.45 1.42-3.945 3.725-3.945 2.304 0 3.724 1.489 3.724 3.944 0 2.476-1.4 3.951-3.724 3.951zm9.808-.048c-1.07 0-1.927-.48-2.332-1.303h-.124v1.186h-1.934V.185h1.996V4.28h.124c.384-.83 1.234-1.33 2.27-1.33 1.914 0 3.066 1.46 3.066 3.902 0 2.428-1.166 3.903-3.066 3.903zm-.693-6.132c-1.05 0-1.715.857-1.721 2.236.006 1.372.665 2.23 1.721 2.23 1.063 0 1.708-.851 1.708-2.237 0-1.379-.652-2.229-1.708-2.229zm5.213.672c0-1.433 1.262-2.387 3.148-2.387 1.92 0 3.053.803 3.162 2.25h-1.845c-.103-.487-.562-.789-1.303-.789-.713 0-1.241.323-1.241.803 0 .37.322.596 1.022.754l1.42.309c1.467.322 2.126.94 2.126 2.071 0 1.51-1.352 2.497-3.334 2.497-1.996 0-3.203-.816-3.34-2.27h1.948c.15.514.638.809 1.433.809.775 0 1.31-.322 1.31-.81 0-.37-.288-.596-.953-.74l-1.372-.309c-1.468-.322-2.181-1.022-2.181-2.188zm9.568 5.529c-.734 0-1.214-.501-1.214-1.194s.48-1.187 1.214-1.187c.741 0 1.214.494 1.214 1.187 0 .693-.473 1.194-1.214 1.194zm3.457-.186V3.073h1.996v7.565h-1.996zm1.002-8.621c-.72 0-1.18-.419-1.18-1.009 0-.596.46-1.008 1.18-1.008.713 0 1.18.412 1.18 1.008 0 .59-.467 1.009-1.18 1.009zm6.365 7.154c1.063 0 1.673-.851 1.673-2.319 0-1.454-.617-2.311-1.673-2.311-1.063 0-1.674.857-1.674 2.311 0 1.475.604 2.319 1.674 2.319zm0 1.632c-2.325 0-3.725-1.475-3.725-3.95 0-2.45 1.42-3.945 3.725-3.945s3.724 1.489 3.724 3.944c0 2.476-1.399 3.951-3.724 3.951z"/></svg>