<svg xmlns="http://www.w3.org/2000/svg" width="42" height="42" viewBox="0 0 42 42"><g fill="#F5A623" fill-rule="evenodd"><circle cx="21" cy="21" r="21" fill-opacity=".2"/><path d="M27.525 11.45a.668.668 0 0 0-.675.66v2.411c-3.475-3.29-9.02-3.202-12.384.196A8.464 8.464 0 0 0 12 20.69c0 .365.302.66.675.66a.668.668 0 0 0 .675-.66c0-4.01 3.326-7.26 7.426-7.259 2.083 0 4.07.856 5.476 2.358l-2.99.975a.658.658 0 0 0-.428.836.68.68 0 0 0 .854.418l4.05-1.32a.661.661 0 0 0 .462-.628v-3.96a.668.668 0 0 0-.675-.66zm1.8 9a.668.668 0 0 0-.675.66c0 4.01-3.326 7.26-7.426 7.259a7.503 7.503 0 0 1-5.476-2.359l2.99-.974a.658.658 0 0 0 .428-.836.68.68 0 0 0-.854-.418l-4.05 1.32a.661.661 0 0 0-.462.628v3.96c0 .365.302.66.675.66a.668.668 0 0 0 .675-.66v-2.411c3.475 3.29 9.02 3.202 12.384-.196A8.464 8.464 0 0 0 30 21.11a.668.668 0 0 0-.675-.66z"/></g></svg>