<svg xmlns="http://www.w3.org/2000/svg" width="23" height="21" viewBox="0 0 23 21"><g fill="#FFF" fill-rule="evenodd"><path d="M22.122 3.014L8.035.033a1.11 1.11 0 0 0-1.312.854l-.268 1.72 16.253 3.44.268-1.72a1.11 1.11 0 0 0-.854-1.313z"/><path fill-rule="nonzero" d="M16.198 6.411a1.121 1.121 0 0 0-1.376-.778l-2.674.742-6.304-1.334-.693 3.276L.819 9.519a1.121 1.121 0 0 0-.778 1.376l2.44 8.797c.165.592.785.943 1.377.778l14.003-3.886a1.12 1.12 0 0 0 .778-1.376l-.419-1.51 1.57.332a1.11 1.11 0 0 0 1.314-.854l.993-4.696-5.657-1.197-.242-.872zm1.617 4.471l.347-1.637a.457.457 0 0 1 .54-.351l1.636.347a.457.457 0 0 1 .352.54l-.346 1.636a.457.457 0 0 1-.54.352l-1.637-.347a.457.457 0 0 1-.352-.54zm-16.753-.485l3.876-1.075 9.143-2.538.984-.273a.211.211 0 0 1 .254.144l.116.416.362 1.304-14.4 3.996-.478-1.72a.21.21 0 0 1 .143-.254zm16.7 5.054a.203.203 0 0 1-.021.157.201.201 0 0 1-.124.098L3.614 19.592a.212.212 0 0 1-.254-.144l-1.424-5.131 14.401-3.997.878 3.165.546 1.966z"/><path d="M5.877 15.803a.457.457 0 0 0-.561-.318l-1.635.454a.457.457 0 0 0-.317.561l.453 1.635c.067.242.32.385.561.317L6.014 18a.457.457 0 0 0 .317-.561l-.454-1.635z"/></g></svg>