<svg xmlns="http://www.w3.org/2000/svg" width="16" height="20" viewBox="0 0 16 20"><g fill="#007CFF" fill-rule="evenodd"><path d="M3.98 12.597c0-.325-.225-.52-.623-.52a1.38 1.38 0 0 0-.33.032v1.043c.068.016.152.02.267.02.425 0 .687-.214.687-.575zm2.465-.508c-.178 0-.293.015-.362.03v2.311c.069.016.179.016.278.016.723.006 1.195-.393 1.195-1.236.005-.734-.425-1.121-1.111-1.121z"/><path fill-rule="nonzero" d="M11.024 0H3.16a2.087 2.087 0 0 0-2.084 2.084V9.79H.872a.84.84 0 0 0-.84.84v5.092c0 .464.377.84.84.84h.204v.933c0 1.15.935 2.084 2.084 2.084h10.73a2.086 2.086 0 0 0 2.083-2.084V4.932L11.023 0zM2.236 11.548a6.582 6.582 0 0 1 1.079-.073c.493 0 .844.094 1.08.283.225.178.377.472.377.818 0 .345-.115.639-.325.838-.273.257-.676.372-1.148.372-.105 0-.199-.005-.272-.015v1.262h-.791v-3.485zm11.654 6.755H3.16a.808.808 0 0 1-.807-.808v-.933h10.002a.84.84 0 0 0 .84-.84v-5.093a.84.84 0 0 0-.84-.84H2.353V2.085c0-.444.362-.807.807-.807l7.386-.007V4c0 .797.647 1.445 1.445 1.445l2.675-.008.03 12.058a.808.808 0 0 1-.806.808zm-8.608-3.286v-3.469a7.192 7.192 0 0 1 1.08-.073c.67 0 1.105.12 1.446.377.366.273.597.708.597 1.332 0 .675-.246 1.142-.587 1.43-.372.31-.938.456-1.63.456-.414 0-.707-.027-.906-.053zM11 12.963v.65H9.732v1.42h-.801v-3.531h2.159v.654H9.732v.807h1.269z"/></g></svg>