<svg xmlns="http://www.w3.org/2000/svg" width="30" height="30" viewBox="0 0 30 30">
    <g fill="none" fill-rule="nonzero">
        <circle cx="14.894" cy="14.893" r="14.893" fill="#55ACEE"/>
        <path fill="#F1F2F2" d="M24.016 10.703a7.103 7.103 0 0 1-2.045.56 3.57 3.57 0 0 0 1.566-1.969 7.126 7.126 0 0 1-2.26.864 3.56 3.56 0 0 0-6.066 3.247 10.105 10.105 0 0 1-7.339-3.72 3.56 3.56 0 0 0 1.102 4.753 3.535 3.535 0 0 1-1.613-.446v.046a3.562 3.562 0 0 0 2.856 3.49 3.547 3.547 0 0 1-1.608.062 3.564 3.564 0 0 0 3.326 2.472 7.143 7.143 0 0 1-5.27 1.474 10.07 10.07 0 0 0 5.456 1.6c6.548 0 10.129-5.425 10.129-10.13 0-.154-.004-.308-.01-.46a7.22 7.22 0 0 0 1.776-1.843z"/>
    </g>
</svg>
