<?xml version="1.0" encoding="UTF-8"?>
<svg width="176px" height="28px" viewBox="0 0 176 28" version="1.1" xmlns="http://www.w3.org/2000/svg" xmlns:xlink="http://www.w3.org/1999/xlink">
    <!-- Generator: Sketch 56.2 (81672) - https://sketch.com -->
    <title>albtechjobs.io</title>
    <desc>Created with Sketch.</desc>
    <g id="Current-design" stroke="none" stroke-width="1" fill="none" fill-rule="evenodd">
        <g id="Home" transform="translate(-134.000000, -37.000000)" fill="#FFFFFF" fill-rule="nonzero">
            <path d="M139.283355,48.492126 L141.771283,48.3267717 C141.771283,47.3622047 141.240152,46.8937008 139.898348,46.8937008 C138.472681,46.8937008 136.515883,47.2519685 134.978399,47.7755906 L134.978399,44.2755906 C136.599746,43.5866142 138.612452,43.4488189 139.898348,43.4488189 C144.315121,43.4488189 145.461245,45.4606299 145.461245,48.492126 L145.461245,57.6692913 L142.861499,57.6692913 L142.637865,57.2559055 C141.631512,57.7519685 140.289708,58.1102362 139.283355,58.1102362 C135.285896,58.1102362 134,55.7401575 134,53.1771654 C134,50.7795276 135.369759,48.7401575 139.283355,48.492126 Z M141.771283,51.496063 L139.367217,51.6889764 C138.081321,51.7992126 137.717916,52.488189 137.717916,53.1771654 C137.717916,53.8110236 137.913596,54.6653543 139.339263,54.6653543 C140.121982,54.6653543 141.212198,54.2795276 141.771283,54.003937 L141.771283,51.496063 Z M153.819568,58.1102362 L152.813215,58.1102362 C150.409149,58.1102362 149.151207,57.1732283 149.151207,54.5 L149.151207,37 L152.813215,37 L152.813215,53.8937008 C152.813215,54.4173228 153.064803,54.6653543 153.819568,54.6653543 L153.819568,58.1102362 Z M157.341804,57.6692913 L157.341804,37 L161.003812,37 L161.003812,43.9724409 C161.730623,43.6692913 162.876747,43.4488189 163.659466,43.4488189 C168.60737,43.4488189 170.005083,46.0393701 170.005083,50.7795276 C170.005083,55.492126 168.60737,58.1102362 163.659466,58.1102362 C162.56925,58.1102362 161.143583,57.7519685 160.13723,57.1732283 L159.94155,57.6692913 L157.341804,57.6692913 Z M161.003812,47.4173228 L161.003812,54.1417323 C161.618806,54.3897638 162.597205,54.6653543 163.603558,54.6653543 C165.811944,54.6653543 166.259212,53.011811 166.259212,50.7795276 C166.259212,48.5472441 165.811944,46.8937008 163.603558,46.8937008 C162.597205,46.8937008 161.618806,47.1692913 161.003812,47.4173228 Z M181.634053,54.5 L181.634053,57.8622047 C180.43202,58.1377953 179.70521,58.1102362 179.481576,58.1102362 C177.07751,58.1102362 174.673443,56.8700787 174.673443,54.003937 L174.673443,47.1692913 L172.241423,47.1692913 L172.241423,44.6889764 L174.673443,44 L174.673443,40.7755906 L178.335451,39.7834646 L178.335451,43.8897638 L182.193139,43.8897638 L182.193139,47.1692913 L178.335451,47.1692913 L178.335451,53.8110236 C178.335451,54.4724409 178.866582,54.6653543 179.677255,54.6653543 C180.152478,54.6653543 181.130877,54.5826772 181.634053,54.5 Z M197.120712,52.515748 L188.986023,52.515748 C189.041931,53.7007874 189.768742,54.6653543 191.418043,54.6653543 C193.03939,54.6653543 194.716645,54.3622047 196.421855,53.6181102 L196.421855,57.2007874 C194.912325,57.9448819 192.731893,58.1102362 191.418043,58.1102362 C186.637865,58.1102362 185.100381,55.1338583 185.100381,50.7795276 C185.100381,46.4251969 186.637865,43.4488189 191.418043,43.4488189 C196.449809,43.4488189 197.120712,46.9212598 197.120712,50.7795276 L197.120712,52.515748 Z M191.418043,46.8937008 C189.796696,46.8937008 189.181703,47.8858268 188.958069,49.2086614 L193.318933,49.2086614 C193.23507,47.9685039 192.927573,46.8937008 191.418043,46.8937008 Z M203.94155,50.7795276 C203.94155,52.8188976 204.360864,54.6653543 206.513342,54.6653543 C208.050826,54.6653543 209.504447,54.3622047 211.09784,53.7834646 L211.09784,57.2559055 C209.560356,57.9724409 207.743329,58.1102362 206.513342,58.1102362 C201.733164,58.1102362 200.19568,55.1338583 200.19568,50.7795276 C200.19568,46.4251969 201.733164,43.4488189 206.513342,43.4488189 C207.743329,43.4488189 209.560356,43.5866142 211.09784,44.3031496 L211.09784,47.7755906 C209.504447,47.1968504 208.050826,46.8937008 206.513342,46.8937008 C204.360864,46.8937008 203.94155,48.7401575 203.94155,50.7795276 Z M222.782719,57.6692913 L222.782719,48.5748031 C222.782719,47.5826772 222.223634,46.8937008 220.909784,46.8937008 C219.707751,46.8937008 218.421855,47.3346457 218.002541,47.5 L218.002541,57.6692913 L214.312579,57.6692913 L214.312579,37 L218.002541,37 L218.002541,44.0275591 C218.897078,43.6968504 220.015248,43.4488189 220.909784,43.4488189 C225.102922,43.4488189 226.500635,45.2952756 226.500635,48.5748031 L226.500635,57.6692913 L222.782719,57.6692913 Z M227.115629,65 L227.115629,61.6377953 C228.56925,61.6377953 230.190597,60.976378 230.190597,59.8188976 L230.190597,43.8897638 L233.880559,43.8897638 L233.880559,59.9015748 C233.880559,63.1535433 230.917408,65 227.115629,65 Z M229.799238,39.5354331 C229.799238,38.2952756 230.805591,37.2755906 232.063532,37.2755906 C233.321474,37.2755906 234.355781,38.2952756 234.355781,39.5354331 C234.355781,40.7755906 233.321474,41.7677165 232.063532,41.7677165 C230.805591,41.7677165 229.799238,40.7755906 229.799238,39.5354331 Z M250.094028,50.7795276 C250.094028,55.0787402 248.975858,58.1102362 243.80432,58.1102362 C238.688691,58.1102362 237.514612,55.0787402 237.514612,50.7795276 C237.514612,46.480315 238.688691,43.4488189 243.80432,43.4488189 C248.975858,43.4488189 250.094028,46.480315 250.094028,50.7795276 Z M246.404066,50.7795276 C246.404066,48.6299213 246.124524,46.8937008 243.80432,46.8937008 C241.456163,46.8937008 241.204574,48.6299213 241.204574,50.7795276 C241.204574,52.9291339 241.456163,54.6653543 243.80432,54.6653543 C246.124524,54.6653543 246.404066,52.9291339 246.404066,50.7795276 Z M253.448539,57.6692913 L253.448539,37 L257.110546,37 L257.110546,43.9724409 C257.837357,43.6692913 258.983482,43.4488189 259.766201,43.4488189 C264.714104,43.4488189 266.111817,46.0393701 266.111817,50.7795276 C266.111817,55.492126 264.714104,58.1102362 259.766201,58.1102362 C258.675985,58.1102362 257.250318,57.7519685 256.243964,57.1732283 L256.048285,57.6692913 L253.448539,57.6692913 Z M257.110546,47.4173228 L257.110546,54.1417323 C257.72554,54.3897638 258.703939,54.6653543 259.710292,54.6653543 C261.918679,54.6653543 262.365947,53.011811 262.365947,50.7795276 C262.365947,48.5472441 261.918679,46.8937008 259.710292,46.8937008 C258.703939,46.8937008 257.72554,47.1692913 257.110546,47.4173228 Z M272.792884,48.0787402 C272.792884,48.492126 273.100381,48.7677165 274.693774,48.9055118 C278.858958,49.2913386 279.809403,50.7519685 279.809403,53.3149606 C279.809403,55.6299213 278.383736,58.1102362 273.939009,58.1102362 C272.625159,58.1102362 270.500635,57.6968504 269.326557,57.2559055 L269.326557,53.6732283 C270.640407,54.1417323 272.429479,54.6653543 273.966963,54.6653543 C275.672173,54.6653543 276.175349,53.976378 276.175349,53.3700787 C276.175349,52.8188976 275.839898,52.4055118 274.302414,52.2677165 C270.193139,51.8818898 269.186785,50.2559055 269.186785,48.1062992 C269.186785,45.9566929 270.556544,43.4488189 274.693774,43.4488189 C275.97967,43.4488189 277.545108,43.6417323 279.194409,44.3582677 L279.194409,47.8307087 C277.628971,47.3070866 276.175349,46.8937008 274.693774,46.8937008 C273.128335,46.8937008 272.792884,47.4448819 272.792884,48.0787402 Z M282.15756,55.8779528 C282.15756,54.6377953 283.163914,53.6181102 284.421855,53.6181102 C285.679797,53.6181102 286.714104,54.6377953 286.714104,55.8779528 C286.714104,57.1181102 285.679797,58.1102362 284.421855,58.1102362 C283.163914,58.1102362 282.15756,57.1181102 282.15756,55.8779528 Z M294.177891,58.1102362 L293.171537,58.1102362 C290.767471,58.1102362 289.50953,57.1732283 289.50953,54.5 L289.50953,43.8897638 L293.171537,43.8897638 L293.171537,53.8937008 C293.171537,54.4173228 293.423126,54.6653543 294.177891,54.6653543 L294.177891,58.1102362 Z M289.11817,39.5354331 C289.11817,38.2952756 290.124524,37.2755906 291.382465,37.2755906 C292.640407,37.2755906 293.674714,38.2952756 293.674714,39.5354331 C293.674714,40.7755906 292.640407,41.7677165 291.382465,41.7677165 C290.124524,41.7677165 289.11817,40.7755906 289.11817,39.5354331 Z M310,50.7795276 C310,55.0787402 308.88183,58.1102362 303.710292,58.1102362 C298.594663,58.1102362 297.420584,55.0787402 297.420584,50.7795276 C297.420584,46.480315 298.594663,43.4488189 303.710292,43.4488189 C308.88183,43.4488189 310,46.480315 310,50.7795276 Z M306.310038,50.7795276 C306.310038,48.6299213 306.030496,46.8937008 303.710292,46.8937008 C301.362135,46.8937008 301.110546,48.6299213 301.110546,50.7795276 C301.110546,52.9291339 301.362135,54.6653543 303.710292,54.6653543 C306.030496,54.6653543 306.310038,52.9291339 306.310038,50.7795276 Z" id="albtechjobs.io"></path>
        </g>
    </g>
</svg>