<?xml version="1.0" encoding="UTF-8"?>
<svg width="86px" height="14px" viewBox="0 0 86 14" version="1.1" xmlns="http://www.w3.org/2000/svg" xmlns:xlink="http://www.w3.org/1999/xlink">
    <!-- Generator: Sketch 56.2 (81672) - https://sketch.com -->
    <title>albtechjobs.io</title>
    <desc>Created with Sketch.</desc>
    <g id="Current-design" stroke="none" stroke-width="1" fill="none" fill-rule="evenodd">
        <g id="Home" transform="translate(-273.000000, -1649.000000)" fill="#000000" fill-rule="nonzero">
            <g id="Group-2" transform="translate(225.000000, 1648.000000)">
                <path d="M50.5816391,6.61547065 L51.7973316,6.53467251 C51.7973316,6.06335004 51.5378018,5.83442198 50.8821474,5.83442198 C50.1855146,5.83442198 49.229352,6.00948461 48.4780813,6.26534538 L48.4780813,4.55511811 C49.2703304,4.2184592 50.2538119,4.15112742 50.8821474,4.15112742 C53.0403431,4.15112742 53.6003812,5.13417144 53.6003812,6.61547065 L53.6003812,11.0997674 L52.3300508,11.0997674 L52.2207751,10.897772 C51.7290343,11.1401664 51.0733799,11.3152291 50.5816391,11.3152291 C48.6283355,11.3152291 48,10.1571224 48,8.90475125 C48,7.73317824 48.6693139,6.73666786 50.5816391,6.61547065 Z M51.7973316,8.08330351 L50.6226175,8.177568 C49.9942821,8.23143343 49.816709,8.56809234 49.816709,8.90475125 C49.816709,9.21447745 49.9123253,9.6319345 50.6089581,9.6319345 C50.9914231,9.6319345 51.5241423,9.44340551 51.7973316,9.30874195 L51.7973316,8.08330351 Z M57.6845616,11.3152291 L57.1928208,11.3152291 C56.0181067,11.3152291 55.4034307,10.8573729 55.4034307,9.55113636 L55.4034307,1 L57.1928208,1 L57.1928208,9.25487652 C57.1928208,9.51073729 57.315756,9.6319345 57.6845616,9.6319345 L57.6845616,11.3152291 Z M59.4056544,11.0997674 L59.4056544,1 L61.1950445,1 L61.1950445,4.40698819 C61.5501906,4.25885827 62.1102287,4.15112742 62.4926938,4.15112742 C64.9104193,4.15112742 65.5933926,5.41696492 65.5933926,7.73317824 C65.5933926,10.0359252 64.9104193,11.3152291 62.4926938,11.3152291 C61.9599746,11.3152291 61.2633418,11.1401664 60.771601,10.8573729 L60.6759848,11.0997674 L59.4056544,11.0997674 Z M61.1950445,6.09028275 L61.1950445,9.37607373 C61.4955527,9.49727094 61.9736341,9.6319345 62.4653748,9.6319345 C63.5444727,9.6319345 63.7630241,8.82395311 63.7630241,7.73317824 C63.7630241,6.64240336 63.5444727,5.83442198 62.4653748,5.83442198 C61.9736341,5.83442198 61.4955527,5.96908554 61.1950445,6.09028275 Z M71.2757306,9.55113636 L71.2757306,11.1940319 C70.6883736,11.3286954 70.3332274,11.3152291 70.2239517,11.3152291 C69.0492376,11.3152291 67.8745235,10.709243 67.8745235,9.30874195 L67.8745235,5.96908554 L66.6861499,5.96908554 L66.6861499,4.75711346 L67.8745235,4.42045455 L67.8745235,2.84489084 L69.6639136,2.360102 L69.6639136,4.36658912 L71.5489199,4.36658912 L71.5489199,5.96908554 L69.6639136,5.96908554 L69.6639136,9.21447745 C69.6639136,9.53767001 69.9234435,9.6319345 70.319568,9.6319345 C70.5517789,9.6319345 71.0298602,9.59153543 71.2757306,9.55113636 Z M78.843075,8.5815587 L74.8681703,8.5815587 C74.8954892,9.16061203 75.2506353,9.6319345 76.0565438,9.6319345 C76.8487929,9.6319345 77.6683609,9.48380458 78.5015883,9.12021296 L78.5015883,10.8708393 C77.7639771,11.2344309 76.6985388,11.3152291 76.0565438,11.3152291 C73.7207751,11.3152291 72.9695044,9.86086256 72.9695044,7.73317824 C72.9695044,5.60549392 73.7207751,4.15112742 76.0565438,4.15112742 C78.5152478,4.15112742 78.843075,5.84788833 78.843075,7.73317824 L78.843075,8.5815587 Z M76.0565438,5.83442198 C75.2642948,5.83442198 74.9637865,6.31921081 74.8545108,6.96559592 L76.9853875,6.96559592 C76.9444091,6.35960988 76.794155,5.83442198 76.0565438,5.83442198 Z M82.1759848,7.73317824 C82.1759848,8.72968862 82.3808767,9.6319345 83.4326557,9.6319345 C84.1839263,9.6319345 84.8942186,9.48380458 85.6728081,9.2010111 L85.6728081,10.897772 C84.9215375,11.2478973 84.0336722,11.3152291 83.4326557,11.3152291 C81.0968869,11.3152291 80.3456163,9.86086256 80.3456163,7.73317824 C80.3456163,5.60549392 81.0968869,4.15112742 83.4326557,4.15112742 C84.0336722,4.15112742 84.9215375,4.2184592 85.6728081,4.56858447 L85.6728081,6.26534538 C84.8942186,5.9825519 84.1839263,5.83442198 83.4326557,5.83442198 C82.3808767,5.83442198 82.1759848,6.73666786 82.1759848,7.73317824 Z M91.3824651,11.0997674 L91.3824651,6.65586972 C91.3824651,6.17108089 91.1092757,5.83442198 90.4672808,5.83442198 C89.8799238,5.83442198 89.2515883,6.04988368 89.0466963,6.13068182 L89.0466963,11.0997674 L87.2436468,11.0997674 L87.2436468,1 L89.0466963,1 L89.0466963,4.4339209 C89.4837992,4.27232462 90.0301779,4.15112742 90.4672808,4.15112742 C92.5162008,4.15112742 93.1991741,5.0533733 93.1991741,6.65586972 L93.1991741,11.0997674 L91.3824651,11.0997674 Z M93.4996823,14.6818182 L93.4996823,13.0389227 C94.2099746,13.0389227 95.0022236,12.7157301 95.0022236,12.1501432 L95.0022236,4.36658912 L96.8052732,4.36658912 L96.8052732,12.1905422 C96.8052732,13.7795723 95.3573698,14.6818182 93.4996823,14.6818182 Z M94.8109911,2.2389048 C94.8109911,1.63291875 95.3027319,1.13466356 95.9174079,1.13466356 C96.5320839,1.13466356 97.0374841,1.63291875 97.0374841,2.2389048 C97.0374841,2.84489084 96.5320839,3.32967967 95.9174079,3.32967967 C95.3027319,3.32967967 94.8109911,2.84489084 94.8109911,2.2389048 Z M104.727764,7.73317824 C104.727764,9.83392985 104.181385,11.3152291 101.654384,11.3152291 C99.1547014,11.3152291 98.5810038,9.83392985 98.5810038,7.73317824 C98.5810038,5.63242663 99.1547014,4.15112742 101.654384,4.15112742 C104.181385,4.15112742 104.727764,5.63242663 104.727764,7.73317824 Z M102.924714,7.73317824 C102.924714,6.68280243 102.788119,5.83442198 101.654384,5.83442198 C100.506989,5.83442198 100.384053,6.68280243 100.384053,7.73317824 C100.384053,8.78355404 100.506989,9.6319345 101.654384,9.6319345 C102.788119,9.6319345 102.924714,8.78355404 102.924714,7.73317824 Z M106.3669,11.0997674 L106.3669,1 L108.15629,1 L108.15629,4.40698819 C108.511436,4.25885827 109.071474,4.15112742 109.453939,4.15112742 C111.871665,4.15112742 112.554638,5.41696492 112.554638,7.73317824 C112.554638,10.0359252 111.871665,11.3152291 109.453939,11.3152291 C108.92122,11.3152291 108.224587,11.1401664 107.732846,10.8573729 L107.63723,11.0997674 L106.3669,11.0997674 Z M108.15629,6.09028275 L108.15629,9.37607373 C108.456798,9.49727094 108.934879,9.6319345 109.42662,9.6319345 C110.505718,9.6319345 110.724269,8.82395311 110.724269,7.73317824 C110.724269,6.64240336 110.505718,5.83442198 109.42662,5.83442198 C108.934879,5.83442198 108.456798,5.96908554 108.15629,6.09028275 Z M115.81925,6.4134753 C115.81925,6.61547065 115.969504,6.75013422 116.748094,6.817466 C118.783355,7.00599499 119.247776,7.71971188 119.247776,8.97208304 C119.247776,10.103257 118.551144,11.3152291 116.379288,11.3152291 C115.737294,11.3152291 114.699174,11.1132337 114.125476,10.897772 L114.125476,9.14714567 C114.767471,9.37607373 115.641677,9.6319345 116.392948,9.6319345 C117.226175,9.6319345 117.472046,9.29527559 117.472046,8.99901575 C117.472046,8.72968862 117.308132,8.52769327 116.556861,8.46036149 C114.54892,8.2718325 114.057179,7.47731747 114.057179,6.42694166 C114.057179,5.37656586 114.726493,4.15112742 116.748094,4.15112742 C117.376429,4.15112742 118.14136,4.24539191 118.947268,4.59551718 L118.947268,6.2922781 C118.182338,6.03641732 117.472046,5.83442198 116.748094,5.83442198 C115.983164,5.83442198 115.81925,6.10374911 115.81925,6.4134753 Z M120.395172,10.2244542 C120.395172,9.61846815 120.886912,9.12021296 121.501588,9.12021296 C122.116264,9.12021296 122.621665,9.61846815 122.621665,10.2244542 C122.621665,10.8304402 122.116264,11.3152291 121.501588,11.3152291 C120.886912,11.3152291 120.395172,10.8304402 120.395172,10.2244542 Z M126.268742,11.3152291 L125.777001,11.3152291 C124.602287,11.3152291 123.987611,10.8573729 123.987611,9.55113636 L123.987611,4.36658912 L125.777001,4.36658912 L125.777001,9.25487652 C125.777001,9.51073729 125.899936,9.6319345 126.268742,9.6319345 L126.268742,11.3152291 Z M123.796379,2.2389048 C123.796379,1.63291875 124.288119,1.13466356 124.902795,1.13466356 C125.517471,1.13466356 126.022872,1.63291875 126.022872,2.2389048 C126.022872,2.84489084 125.517471,3.32967967 124.902795,3.32967967 C124.288119,3.32967967 123.796379,2.84489084 123.796379,2.2389048 Z M134,7.73317824 C134,9.83392985 133.453621,11.3152291 130.92662,11.3152291 C128.426938,11.3152291 127.85324,9.83392985 127.85324,7.73317824 C127.85324,5.63242663 128.426938,4.15112742 130.92662,4.15112742 C133.453621,4.15112742 134,5.63242663 134,7.73317824 Z M132.19695,7.73317824 C132.19695,6.68280243 132.060356,5.83442198 130.92662,5.83442198 C129.779225,5.83442198 129.65629,6.68280243 129.65629,7.73317824 C129.65629,8.78355404 129.779225,9.6319345 130.92662,9.6319345 C132.060356,9.6319345 132.19695,8.78355404 132.19695,7.73317824 Z" id="albtechjobs.io"></path>
            </g>
        </g>
    </g>
</svg>